<svg width="203" height="47" viewBox="0 0 203 47" fill="none" xmlns="http://www.w3.org/2000/svg">
<path d="M7.35897 10.8372C7.35886 10.7203 7.3588 10.6618 7.37781 10.6114C7.39461 10.5669 7.42194 10.5271 7.45746 10.4955C7.49767 10.4597 7.55229 10.4388 7.66153 10.397L25.5676 3.54102C26.8657 3.044 27.5147 2.79549 28.0346 2.90917C28.4894 3.00861 28.8871 3.28221 29.1426 3.67135C29.4346 4.11622 29.4346 4.81122 29.4346 6.20121V18.8996C29.4346 19.8051 29.4346 20.2578 29.2823 20.6421C29.1478 20.9814 28.9297 21.2811 28.6482 21.5135C28.3295 21.7767 27.8987 21.9159 27.0371 22.1945L11.8999 27.0889C10.3707 27.5834 9.60607 27.8306 8.99797 27.674C8.46557 27.5369 8.0053 27.2023 7.71061 26.7382C7.374 26.2081 7.37322 25.4045 7.37165 23.7974L7.35897 10.8372Z" fill="url(#paint0_linear_22_200)"/>
<path d="M7.35866 16.5367C7.35866 15.6902 7.35866 15.267 7.49518 14.901C7.61582 14.5777 7.81203 14.2879 8.06745 14.0558C8.35652 13.7931 8.7495 13.6359 9.53547 13.3215L23.151 7.8753C24.0235 7.52632 24.4597 7.35182 24.8099 7.42459C25.1161 7.48823 25.3849 7.67017 25.5577 7.93087C25.7553 8.22898 25.7553 8.69882 25.7553 9.63848V18.9765C25.7553 19.9283 25.7553 20.4041 25.5904 20.802C25.4449 21.1531 25.2096 21.4597 24.908 21.691C24.5662 21.953 24.1065 22.076 23.187 22.3219L11.7162 25.3895C10.2338 25.7859 9.49261 25.9841 8.90757 25.8106C8.39494 25.6586 7.95674 25.3222 7.67743 24.8662C7.35866 24.3459 7.35866 23.5786 7.35866 22.0442V16.5367Z" fill="url(#paint1_linear_22_200)"/>
<mask id="mask0_22_200" style="mask-type:alpha" maskUnits="userSpaceOnUse" x="7" y="2" width="23" height="26">
<path d="M7.35897 10.8372C7.35886 10.7203 7.3588 10.6618 7.37781 10.6114C7.39461 10.5669 7.42194 10.5271 7.45746 10.4955C7.49767 10.4597 7.55229 10.4388 7.66153 10.397L25.5676 3.54102C26.8657 3.044 27.5147 2.79549 28.0346 2.90917C28.4894 3.00861 28.8871 3.28221 29.1426 3.67135C29.4346 4.11622 29.4346 4.81122 29.4346 6.20121V18.8996C29.4346 19.8051 29.4346 20.2578 29.2823 20.6421C29.1478 20.9814 28.9297 21.2811 28.6482 21.5135C28.3295 21.7767 27.8987 21.9159 27.0371 22.1945L11.8999 27.0889C10.3707 27.5834 9.60607 27.8306 8.99797 27.674C8.46557 27.5369 8.0053 27.2023 7.71061 26.7382C7.374 26.2081 7.37322 25.4045 7.37165 23.7974L7.35897 10.8372Z" fill="url(#paint2_linear_22_200)"/>
<path d="M7.35866 16.5367C7.35866 15.6902 7.35866 15.267 7.49518 14.901C7.61582 14.5777 7.81203 14.2879 8.06745 14.0558C8.35652 13.7931 8.7495 13.6359 9.53547 13.3215L23.151 7.8753C24.0235 7.52632 24.4597 7.35182 24.8099 7.42459C25.1161 7.48823 25.3849 7.67017 25.5577 7.93087C25.7553 8.22898 25.7553 8.69882 25.7553 9.63848V18.9765C25.7553 19.9283 25.7553 20.4041 25.5904 20.802C25.4449 21.1531 25.2096 21.4597 24.908 21.691C24.5662 21.953 24.1065 22.076 23.187 22.3219L11.7162 25.3895C10.2338 25.7859 9.49261 25.9841 8.90757 25.8106C8.39494 25.6586 7.95674 25.3222 7.67743 24.8662C7.35866 24.3459 7.35866 23.5786 7.35866 22.0442V16.5367Z" fill="url(#paint3_linear_22_200)"/>
</mask>
<g mask="url(#mask0_22_200)">
<rect x="7.35866" y="1.47171" width="22.076" height="22.076" fill="url(#paint4_linear_22_200)"/>
</g>
<path d="M7.35866 11.1629C7.35866 10.8714 7.35866 10.7257 7.41952 10.6288C7.47282 10.5439 7.55621 10.4823 7.65299 10.4563C7.76351 10.4267 7.90282 10.4695 8.18142 10.5553L31.8279 17.8311C33.1443 18.2361 33.8024 18.4386 34.2901 18.8331C34.7206 19.1814 35.0548 19.6339 35.2611 20.1478C35.4947 20.7299 35.4947 21.4185 35.4947 22.7957V36.1105C35.4947 37.3338 35.4947 37.9455 35.2384 38.3457C35.0142 38.6959 34.664 38.9467 34.2602 39.0463C33.7988 39.1601 33.2197 38.9632 32.0615 38.5694L11.8296 31.6906C10.2212 31.1437 9.41697 30.8703 8.82272 30.3691C8.29792 29.9265 7.89202 29.3597 7.64189 28.7204C7.35866 27.9964 7.35866 27.147 7.35866 25.4482V11.1629Z" fill="url(#paint5_linear_22_200)"/>
<path d="M7.35861 14.7173L25.9554 20.6339C26.8416 20.9158 27.2848 21.0568 27.6124 21.3259C27.9018 21.5635 28.1259 21.8708 28.2638 22.2189C28.42 22.6131 28.4189 23.0781 28.4167 24.0081L28.3855 37.3233C21.7851 35.078 17.5156 33.6256 11.8298 31.6915C10.2209 31.1442 9.41644 30.8705 8.82232 30.3693C8.29764 29.9267 7.89184 29.36 7.64177 28.7207C7.35861 27.9968 7.35861 27.1475 7.35861 25.449V14.7173Z" fill="url(#paint6_linear_22_200)"/>
<path d="M45.729 24.9574V29.9408H49.2087V25.1751C49.2087 24.7125 49.3904 24.2655 49.719 23.9389C50.0438 23.6124 50.4884 23.4258 50.9485 23.4258H54.5171C56.1796 23.4258 57.7764 22.7611 58.9517 21.5755C60.1271 20.3937 60.7882 18.7883 60.7882 17.1168C60.7882 15.4453 60.1271 13.8398 58.9517 12.6542C57.7764 11.4725 56.1796 10.8078 54.5132 10.8078H45.729V17.0352H49.2087V14.1003H54.2812C55.07 14.1003 55.8239 14.4151 56.3806 14.9749C56.9374 15.5347 57.2506 16.2927 57.2506 17.0857C57.2506 17.8787 56.9374 18.6367 56.3806 19.1965C55.8239 19.7562 55.07 20.0711 54.2812 20.0711H50.5967C49.9587 20.0711 49.3247 20.1955 48.737 20.4443C48.1454 20.6892 47.6119 21.0507 47.1595 21.5055C46.7072 21.9603 46.3515 22.5006 46.104 23.0915C45.8566 23.6785 45.729 24.316 45.729 24.9574Z" fill="white"/>
<path d="M61.3257 29.9408V22.349C61.3257 19.2509 63.1235 16.7864 66.723 16.7864C67.2991 16.7786 67.8752 16.8408 68.4396 16.9768V20.0983C68.0298 20.0711 67.678 20.0711 67.5117 20.0711C65.6057 20.0711 64.786 20.9496 64.786 22.73V29.9408H61.3257Z" fill="white"/>
<path d="M69.4757 23.5036C69.4757 19.6941 72.3367 16.7903 76.319 16.7903C80.3013 16.7903 83.1624 19.6941 83.1624 23.5036C83.1624 27.3131 80.3013 30.2441 76.319 30.2441C72.3367 30.2441 69.4757 27.3092 69.4757 23.5036ZM79.7523 23.5036C79.7523 21.3384 78.3063 19.8029 76.319 19.8029C74.3279 19.8029 72.8857 21.3345 72.8857 23.5036C72.8857 25.696 74.3317 27.2043 76.319 27.2043C78.3102 27.2043 79.7523 25.6921 79.7523 23.5036Z" fill="white"/>
<path d="M94.2278 23.5036C94.2278 19.6941 97.0888 16.7903 101.071 16.7903C105.05 16.7903 107.911 19.6941 107.911 23.5036C107.911 27.3131 105.05 30.2441 101.071 30.2441C97.0888 30.2441 94.2278 27.3092 94.2278 23.5036ZM104.501 23.5036C104.501 21.3384 103.055 19.8029 101.067 19.8029C99.08 19.8029 97.634 21.3345 97.634 23.5036C97.634 25.696 99.08 27.2043 101.067 27.2043C103.055 27.2043 104.501 25.6921 104.501 23.5036Z" fill="white"/>
<path d="M109.708 29.9409V22.6251C109.708 19.2276 111.862 16.7864 115.705 16.7864C119.521 16.7864 121.675 19.2237 121.675 22.6251V29.9409H118.241V22.8972C118.241 21.008 117.395 19.8263 115.705 19.8263C114.016 19.8263 113.169 21.0041 113.169 22.8972V29.9409H109.708Z" fill="white"/>
<path d="M93.1916 19.83H89.4568V24.6268C89.4568 26.2983 90.0561 27.0641 91.7727 27.0641C91.9351 27.0641 92.3449 27.0641 92.863 27.0369V29.8591C92.1555 30.0496 91.5291 30.1623 90.8448 30.1623C87.9567 30.1623 85.9926 28.4091 85.9926 25.0933V19.83H83.6728V17.0622H84.2528C84.4809 17.0622 84.709 17.0156 84.9178 16.9301C85.1304 16.8407 85.3198 16.7124 85.4822 16.5491C85.6446 16.3858 85.7722 16.1954 85.8611 15.9816C85.9501 15.7678 85.9926 15.5423 85.9926 15.313V12.7046H89.4529V17.0622H93.1878V19.83H93.1916Z" fill="white"/>
<path d="M202.1 19.83H198.365V24.6269C198.365 26.2984 198.965 27.0642 200.681 27.0642C200.844 27.0642 201.253 27.0642 201.771 27.037V29.8591C201.064 30.0496 200.438 30.1623 199.753 30.1623C196.865 30.1623 194.901 28.4092 194.901 25.0933V19.83H192.581V17.0623H193.161C193.389 17.0623 193.617 17.0156 193.826 16.9301C194.039 16.8407 194.228 16.7124 194.391 16.5491C194.553 16.3859 194.681 16.1954 194.77 15.9816C194.859 15.7678 194.901 15.5423 194.901 15.313V12.7047H198.361V17.0623H202.096V19.83H202.1Z" fill="white"/>
<path d="M191.971 23.4631C191.971 23.9532 191.971 24.1438 191.916 24.6339H182.251C182.659 26.3764 183.884 27.3021 185.545 27.3021C187.042 27.3021 187.887 26.8937 188.404 25.9952H191.589C190.8 28.8268 188.213 30.1609 185.627 30.1609C181.652 30.1609 178.983 27.3293 178.983 23.4631C178.983 19.6241 181.706 16.7925 185.545 16.7925C189.275 16.7925 191.971 19.6514 191.971 23.4631ZM185.545 19.6514C183.83 19.6514 182.605 20.686 182.223 22.2379H188.731C188.513 20.7404 187.206 19.6514 185.545 19.6514Z" fill="white"/>
<path d="M176.978 29.8615H173.547V11.2928H176.978V29.8615Z" fill="white"/>
<path d="M170.803 29.8615H167.372V11.2928H170.803V29.8615Z" fill="white"/>
<path d="M158.568 16.7925C162.435 16.7925 165.321 19.3519 165.321 23.4903V29.8614H162.271L162.053 27.9555C161.237 29.3441 159.766 30.1609 157.915 30.1609C154.566 30.1609 151.789 27.4927 151.789 23.4631C151.789 19.6514 154.675 16.7925 158.568 16.7925ZM158.568 27.1387C160.229 27.1387 161.917 25.968 161.917 23.4631C161.917 21.2305 160.447 19.7875 158.568 19.7875C156.662 19.7875 155.192 21.285 155.192 23.4631C155.192 25.6413 156.635 27.1387 158.568 27.1387Z" fill="white"/>
<path d="M135.238 29.8615H131.454L125.954 11.2928H129.575L132.624 22.6463C132.897 23.6537 133.142 24.9334 133.251 25.5324H133.305C133.387 24.9334 133.55 24.0077 133.931 22.5919L137.008 11.2928H141.419L144.468 22.5919C144.876 24.0349 145.04 24.9334 145.121 25.5324H145.176C145.285 24.9334 145.503 23.7082 145.775 22.6463L148.852 11.2928H152.473L146.946 29.8615H143.161L139.649 16.6292C139.404 15.7035 139.295 15.159 139.24 14.3694H139.186C139.104 15.159 139.023 15.7035 138.75 16.6292L135.238 29.8615Z" fill="white"/>
<defs>
<linearGradient id="paint0_linear_22_200" x1="31.9819" y1="34.754" x2="-1.7801" y2="5.28954" gradientUnits="userSpaceOnUse">
<stop offset="0.197917" stop-color="#F5AC87" stop-opacity="0.89"/>
<stop offset="0.960981" stop-color="#7B5FF3"/>
</linearGradient>
<linearGradient id="paint1_linear_22_200" x1="6.49953" y1="24.6328" x2="24.5078" y2="4.52898" gradientUnits="userSpaceOnUse">
<stop offset="0.197917" stop-color="#E8621C" stop-opacity="0.89"/>
<stop offset="0.960981" stop-color="#532CF6"/>
</linearGradient>
<linearGradient id="paint2_linear_22_200" x1="31.9819" y1="34.754" x2="-1.7801" y2="5.28954" gradientUnits="userSpaceOnUse">
<stop offset="0.197917" stop-color="#B27757" stop-opacity="0.89"/>
<stop offset="0.960981" stop-color="#7B5FF3"/>
</linearGradient>
<linearGradient id="paint3_linear_22_200" x1="6.49953" y1="24.6328" x2="24.5078" y2="4.52898" gradientUnits="userSpaceOnUse">
<stop offset="0.197917" stop-color="#FFC6A8" stop-opacity="0.89"/>
<stop offset="0.960981" stop-color="#9178F6"/>
</linearGradient>
<linearGradient id="paint4_linear_22_200" x1="21.3401" y1="22.0759" x2="33.8498" y2="-2.21402e-05" gradientUnits="userSpaceOnUse">
<stop stop-opacity="0.53"/>
<stop offset="1" stop-color="#686868" stop-opacity="0"/>
<stop offset="1" stop-color="#686868" stop-opacity="0"/>
<stop offset="1" stop-color="#3E3E3E" stop-opacity="0"/>
</linearGradient>
<linearGradient id="paint5_linear_22_200" x1="38.7412" y1="48.1775" x2="-0.702338" y2="10.3076" gradientUnits="userSpaceOnUse">
<stop offset="0.197917" stop-color="#F5AC87" stop-opacity="0.89"/>
<stop offset="0.960981" stop-color="#7B5FF3"/>
</linearGradient>
<linearGradient id="paint6_linear_22_200" x1="6.2964" y1="36.4903" x2="28.8574" y2="11.6035" gradientUnits="userSpaceOnUse">
<stop offset="0.197917" stop-color="#E8621C" stop-opacity="0.89"/>
<stop offset="0.960981" stop-color="#532CF6"/>
</linearGradient>
</defs>
</svg>
