<svg width="238" height="136" viewBox="0 0 238 136" fill="none" xmlns="http://www.w3.org/2000/svg">
<g clip-path="url(#clip0_77_4228)">
<g filter="url(#filter0_dd_77_4228)">
<path d="M186.261 111.743H51.7393V32.2594C51.7393 28.0736 55.0446 24.6489 59.0844 24.6489H178.916C182.956 24.6489 186.261 28.0736 186.261 32.2594V111.743Z" fill="#302D3F"/>
<path d="M180.225 111.743H57.7754V32.5459C57.7754 31.5193 58.5706 30.6852 59.5494 30.6852H178.39C179.368 30.6852 180.164 31.5193 180.164 32.5459V111.743H180.225Z" fill="white"/>
<path d="M200.985 114.33H37.0151C35.6001 114.33 34.4927 113.147 34.4927 111.636V110.125C34.4927 108.614 35.6001 107.432 37.0151 107.432H200.985C202.4 107.432 203.507 108.614 203.507 110.125V111.636C203.507 113.147 202.338 114.33 200.985 114.33Z" fill="#8B8B8B"/>
<path d="M127.27 110.881H110.729C108.595 110.881 106.927 109.307 106.927 107.432H131.072C131.072 109.307 129.405 110.881 127.27 110.881Z" fill="#999999"/>
<path d="M68.7267 69.4895C68.7267 66.0129 71.545 63.1945 75.0216 63.1945H162.978C166.455 63.1945 169.273 66.0129 169.273 69.4895V78.1127C169.273 81.5892 166.455 84.4076 162.978 84.4076H75.0216C71.545 84.4076 68.7267 81.5892 68.7267 78.1127V69.4895Z" fill="white" stroke="#F0ECE6" stroke-width="1.20725"/>
<path d="M81.4684 73.5037H79.5592L80.9076 72.1514C80.9798 72.0648 81.0171 71.9543 81.012 71.8416C81.0069 71.7289 80.9598 71.6223 80.8801 71.5425C80.8004 71.4628 80.6937 71.4157 80.581 71.4106C80.4683 71.4055 80.3578 71.4428 80.2712 71.515L78.9189 72.8673V70.9582C78.9189 70.8383 78.8713 70.7234 78.7865 70.6387C78.7018 70.5539 78.5869 70.5063 78.467 70.5063C78.3472 70.5063 78.2323 70.5539 78.1475 70.6387C78.0628 70.7234 78.0152 70.8383 78.0152 70.9582V72.8673L76.6668 71.515C76.627 71.4655 76.5772 71.4249 76.5206 71.3959C76.464 71.3669 76.402 71.3501 76.3385 71.3467C76.2751 71.3433 76.2116 71.3533 76.1523 71.376C76.0929 71.3987 76.039 71.4337 75.9941 71.4786C75.9491 71.5236 75.9141 71.5775 75.8914 71.6368C75.8687 71.6962 75.8587 71.7597 75.8621 71.8231C75.8656 71.8866 75.8823 71.9486 75.9113 72.0052C75.9403 72.0617 75.9809 72.1116 76.0304 72.1514L77.3828 73.5037H75.4736C75.3537 73.5037 75.2388 73.5513 75.1541 73.6361C75.0693 73.7208 75.0217 73.8357 75.0217 73.9556C75.0217 74.0754 75.0693 74.1903 75.1541 74.2751C75.2388 74.3598 75.3537 74.4074 75.4736 74.4074H77.3828L76.0304 75.7598C75.9822 75.8 75.9429 75.8498 75.915 75.906C75.8871 75.9623 75.8713 76.0237 75.8684 76.0864C75.8656 76.1491 75.8759 76.2117 75.8986 76.2702C75.9213 76.3288 75.9559 76.3819 76.0003 76.4263C76.0447 76.4707 76.0978 76.5053 76.1564 76.528C76.2149 76.5507 76.2775 76.561 76.3402 76.5582C76.4029 76.5553 76.4643 76.5395 76.5206 76.5116C76.5768 76.4837 76.6266 76.4444 76.6668 76.3962L78.0152 75.0438V76.953C78.0152 77.0729 78.0628 77.1878 78.1475 77.2725C78.2323 77.3573 78.3472 77.4049 78.467 77.4049C78.5869 77.4049 78.7018 77.3573 78.7865 77.2725C78.8713 77.1878 78.9189 77.0729 78.9189 76.953V75.0438L80.2712 76.3962C80.3114 76.4444 80.3612 76.4837 80.4175 76.5116C80.4737 76.5395 80.5351 76.5553 80.5978 76.5582C80.6605 76.561 80.7231 76.5507 80.7817 76.528C80.8402 76.5053 80.8933 76.4707 80.9377 76.4263C80.9821 76.3819 81.0168 76.3288 81.0395 76.2702C81.0622 76.2117 81.0724 76.1491 81.0696 76.0864C81.0668 76.0237 81.0509 75.9623 81.023 75.906C80.9951 75.8498 80.9558 75.8 80.9076 75.7598L79.5592 74.4074H81.4684C81.5883 74.4074 81.7032 74.3598 81.7879 74.2751C81.8727 74.1903 81.9203 74.0754 81.9203 73.9556C81.9203 73.8357 81.8727 73.7208 81.7879 73.6361C81.7032 73.5513 81.5883 73.5037 81.4684 73.5037Z" fill="#706D6B"/>
<path d="M94.9782 73.5037H93.069L94.4174 72.1514C94.4896 72.0648 94.5268 71.9543 94.5217 71.8416C94.5167 71.7289 94.4696 71.6223 94.3899 71.5425C94.3101 71.4628 94.2034 71.4157 94.0908 71.4106C93.9781 71.4055 93.8676 71.4428 93.781 71.515L92.4286 72.8673V70.9582C92.4286 70.8383 92.381 70.7234 92.2963 70.6387C92.2116 70.5539 92.0966 70.5063 91.9768 70.5063C91.857 70.5063 91.742 70.5539 91.6573 70.6387C91.5726 70.7234 91.525 70.8383 91.525 70.9582V72.8673L90.1766 71.515C90.1367 71.4655 90.0869 71.4249 90.0304 71.3959C89.9738 71.3669 89.9118 71.3501 89.8483 71.3467C89.7849 71.3433 89.7214 71.3533 89.662 71.376C89.6027 71.3987 89.5488 71.4337 89.5038 71.4786C89.4589 71.5236 89.4239 71.5775 89.4012 71.6368C89.3785 71.6962 89.3685 71.7597 89.3719 71.8231C89.3753 71.8866 89.3921 71.9486 89.4211 72.0052C89.4501 72.0617 89.4907 72.1116 89.5402 72.1514L90.8925 73.5037H88.9833C88.8635 73.5037 88.7486 73.5513 88.6638 73.6361C88.5791 73.7208 88.5315 73.8357 88.5315 73.9556C88.5315 74.0754 88.5791 74.1903 88.6638 74.2751C88.7486 74.3598 88.8635 74.4074 88.9833 74.4074H90.8925L89.5402 75.7598C89.492 75.8 89.4527 75.8498 89.4248 75.906C89.3969 75.9623 89.381 76.0237 89.3782 76.0864C89.3754 76.1491 89.3856 76.2117 89.4083 76.2702C89.431 76.3288 89.4657 76.3819 89.5101 76.4263C89.5545 76.4707 89.6076 76.5053 89.6661 76.528C89.7246 76.5507 89.7873 76.561 89.85 76.5582C89.9127 76.5553 89.9741 76.5395 90.0303 76.5116C90.0866 76.4837 90.1364 76.4444 90.1766 76.3962L91.525 75.0438V76.953C91.525 77.0729 91.5726 77.1878 91.6573 77.2725C91.742 77.3573 91.857 77.4049 91.9768 77.4049C92.0966 77.4049 92.2116 77.3573 92.2963 77.2725C92.381 77.1878 92.4286 77.0729 92.4286 76.953V75.0438L93.781 76.3962C93.8212 76.4444 93.871 76.4837 93.9272 76.5116C93.9835 76.5395 94.0449 76.5553 94.1076 76.5582C94.1703 76.561 94.2329 76.5507 94.2914 76.528C94.35 76.5053 94.4031 76.4707 94.4475 76.4263C94.4919 76.3819 94.5265 76.3288 94.5492 76.2702C94.5719 76.2117 94.5822 76.1491 94.5794 76.0864C94.5765 76.0237 94.5607 75.9623 94.5328 75.906C94.5049 75.8498 94.4656 75.8 94.4174 75.7598L93.069 74.4074H94.9782C95.098 74.4074 95.213 74.3598 95.2977 74.2751C95.3824 74.1903 95.43 74.0754 95.43 73.9556C95.43 73.8357 95.3824 73.7208 95.2977 73.6361C95.213 73.5513 95.098 73.5037 94.9782 73.5037Z" fill="#706D6B"/>
<path d="M108.488 73.5037H106.579L107.927 72.1514C107.999 72.0648 108.036 71.9543 108.031 71.8416C108.026 71.7289 107.979 71.6223 107.899 71.5425C107.82 71.4628 107.713 71.4157 107.6 71.4106C107.488 71.4055 107.377 71.4428 107.291 71.515L105.938 72.8673V70.9582C105.938 70.8383 105.891 70.7234 105.806 70.6387C105.721 70.5539 105.606 70.5063 105.486 70.5063C105.366 70.5063 105.252 70.5539 105.167 70.6387C105.082 70.7234 105.034 70.8383 105.034 70.9582V72.8673L103.686 71.515C103.646 71.4655 103.596 71.4249 103.54 71.3959C103.483 71.3669 103.421 71.3501 103.358 71.3467C103.294 71.3433 103.231 71.3533 103.172 71.376C103.112 71.3987 103.058 71.4337 103.013 71.4786C102.968 71.5236 102.933 71.5775 102.911 71.6368C102.888 71.6962 102.878 71.7597 102.881 71.8231C102.885 71.8866 102.902 71.9486 102.931 72.0052C102.96 72.0617 103 72.1116 103.05 72.1514L104.402 73.5037H102.493C102.373 73.5037 102.258 73.5513 102.173 73.6361C102.089 73.7208 102.041 73.8357 102.041 73.9556C102.041 74.0754 102.089 74.1903 102.173 74.2751C102.258 74.3598 102.373 74.4074 102.493 74.4074H104.402L103.05 75.7598C103.001 75.8 102.962 75.8498 102.934 75.906C102.906 75.9623 102.891 76.0237 102.888 76.0864C102.885 76.1491 102.895 76.2117 102.918 76.2702C102.941 76.3288 102.975 76.3819 103.02 76.4263C103.064 76.4707 103.117 76.5053 103.176 76.528C103.234 76.5507 103.297 76.561 103.359 76.5582C103.422 76.5553 103.484 76.5395 103.54 76.5116C103.596 76.4837 103.646 76.4444 103.686 76.3962L105.034 75.0438V76.953C105.034 77.0729 105.082 77.1878 105.167 77.2725C105.252 77.3573 105.366 77.4049 105.486 77.4049C105.606 77.4049 105.721 77.3573 105.806 77.2725C105.891 77.1878 105.938 77.0729 105.938 76.953V75.0438L107.291 76.3962C107.331 76.4444 107.381 76.4837 107.437 76.5116C107.493 76.5395 107.554 76.5553 107.617 76.5582C107.68 76.561 107.742 76.5507 107.801 76.528C107.859 76.5053 107.913 76.4707 107.957 76.4263C108.001 76.3819 108.036 76.3288 108.059 76.2702C108.081 76.2117 108.092 76.1491 108.089 76.0864C108.086 76.0237 108.07 75.9623 108.042 75.906C108.014 75.8498 107.975 75.8 107.927 75.7598L106.579 74.4074H108.488C108.608 74.4074 108.722 74.3598 108.807 74.2751C108.892 74.1903 108.94 74.0754 108.94 73.9556C108.94 73.8357 108.892 73.7208 108.807 73.6361C108.722 73.5513 108.608 73.5037 108.488 73.5037Z" fill="#706D6B"/>
<path d="M121.997 73.5037H120.088L121.437 72.1514C121.509 72.0648 121.546 71.9542 121.541 71.8416C121.536 71.7289 121.489 71.6222 121.409 71.5425C121.329 71.4627 121.223 71.4157 121.11 71.4106C120.997 71.4055 120.887 71.4427 120.8 71.515L119.448 72.8673V70.9581C119.448 70.8383 119.4 70.7234 119.316 70.6386C119.231 70.5539 119.116 70.5063 118.996 70.5063C118.876 70.5063 118.761 70.5539 118.677 70.6386C118.592 70.7234 118.544 70.8383 118.544 70.9581V72.8673L117.196 71.515C117.156 71.4654 117.106 71.4249 117.05 71.3959C116.993 71.3669 116.931 71.3501 116.868 71.3467C116.804 71.3433 116.741 71.3532 116.681 71.376C116.622 71.3987 116.568 71.4337 116.523 71.4786C116.478 71.5236 116.443 71.5774 116.42 71.6368C116.398 71.6962 116.388 71.7596 116.391 71.8231C116.395 71.8866 116.411 71.9486 116.44 72.0051C116.469 72.0617 116.51 72.1115 116.559 72.1514L117.912 73.5037H116.003C115.883 73.5037 115.768 73.5513 115.683 73.6361C115.598 73.7208 115.551 73.8357 115.551 73.9556C115.551 74.0754 115.598 74.1903 115.683 74.2751C115.768 74.3598 115.883 74.4074 116.003 74.4074H117.912L116.559 75.7598C116.511 75.8 116.472 75.8498 116.444 75.906C116.416 75.9622 116.4 76.0237 116.397 76.0864C116.395 76.1491 116.405 76.2117 116.428 76.2702C116.45 76.3287 116.485 76.3819 116.529 76.4263C116.574 76.4706 116.627 76.5053 116.685 76.528C116.744 76.5507 116.807 76.561 116.869 76.5581C116.932 76.5553 116.993 76.5394 117.05 76.5116C117.106 76.4837 117.156 76.4444 117.196 76.3962L118.544 75.0438V76.953C118.544 77.0728 118.592 77.1878 118.677 77.2725C118.761 77.3572 118.876 77.4048 118.996 77.4048C119.116 77.4048 119.231 77.3572 119.316 77.2725C119.4 77.1878 119.448 77.0728 119.448 76.953V75.0438L120.8 76.3962C120.84 76.4444 120.89 76.4837 120.947 76.5116C121.003 76.5394 121.064 76.5553 121.127 76.5581C121.19 76.561 121.252 76.5507 121.311 76.528C121.369 76.5053 121.422 76.4706 121.467 76.4263C121.511 76.3819 121.546 76.3287 121.569 76.2702C121.591 76.2117 121.601 76.1491 121.599 76.0864C121.596 76.0237 121.58 75.9622 121.552 75.906C121.524 75.8498 121.485 75.8 121.437 75.7598L120.088 74.4074H121.997C122.117 74.4074 122.232 74.3598 122.317 74.2751C122.402 74.1903 122.449 74.0754 122.449 73.9556C122.449 73.8357 122.402 73.7208 122.317 73.6361C122.232 73.5513 122.117 73.5037 121.997 73.5037Z" fill="#706D6B"/>
<path d="M135.507 73.5037H133.598L134.946 72.1514C135.018 72.0648 135.056 71.9543 135.051 71.8416C135.045 71.7289 134.998 71.6223 134.919 71.5425C134.839 71.4628 134.732 71.4157 134.62 71.4106C134.507 71.4055 134.396 71.4428 134.31 71.515L132.957 72.8673V70.9582C132.957 70.8383 132.91 70.7234 132.825 70.6387C132.74 70.5539 132.625 70.5063 132.506 70.5063C132.386 70.5063 132.271 70.5539 132.186 70.6387C132.101 70.7234 132.054 70.8383 132.054 70.9582V72.8673L130.705 71.515C130.666 71.4655 130.616 71.4249 130.559 71.3959C130.503 71.3669 130.441 71.3501 130.377 71.3467C130.314 71.3433 130.25 71.3533 130.191 71.376C130.131 71.3987 130.078 71.4337 130.033 71.4786C129.988 71.5236 129.953 71.5775 129.93 71.6368C129.907 71.6962 129.897 71.7597 129.901 71.8231C129.904 71.8866 129.921 71.9486 129.95 72.0052C129.979 72.0617 130.019 72.1116 130.069 72.1514L131.421 73.5037H129.512C129.392 73.5037 129.277 73.5513 129.193 73.6361C129.108 73.7208 129.06 73.8357 129.06 73.9556C129.06 74.0754 129.108 74.1903 129.193 74.2751C129.277 74.3598 129.392 74.4074 129.512 74.4074H131.421L130.069 75.7598C130.021 75.8 129.981 75.8498 129.954 75.906C129.926 75.9623 129.91 76.0237 129.907 76.0864C129.904 76.1491 129.914 76.2117 129.937 76.2702C129.96 76.3288 129.994 76.3819 130.039 76.4263C130.083 76.4707 130.136 76.5053 130.195 76.528C130.253 76.5507 130.316 76.561 130.379 76.5582C130.441 76.5553 130.503 76.5395 130.559 76.5116C130.615 76.4837 130.665 76.4444 130.705 76.3962L132.054 75.0438V76.953C132.054 77.0729 132.101 77.1878 132.186 77.2725C132.271 77.3573 132.386 77.4049 132.506 77.4049C132.625 77.4049 132.74 77.3573 132.825 77.2725C132.91 77.1878 132.957 77.0729 132.957 76.953V75.0438L134.31 76.3962C134.35 76.4444 134.4 76.4837 134.456 76.5116C134.512 76.5395 134.574 76.5553 134.636 76.5582C134.699 76.561 134.762 76.5507 134.82 76.528C134.879 76.5053 134.932 76.4707 134.976 76.4263C135.021 76.3819 135.055 76.3288 135.078 76.2702C135.101 76.2117 135.111 76.1491 135.108 76.0864C135.105 76.0237 135.089 75.9623 135.062 75.906C135.034 75.8498 134.994 75.8 134.946 75.7598L133.598 74.4074H135.507C135.627 74.4074 135.742 74.3598 135.827 74.2751C135.911 74.1903 135.959 74.0754 135.959 73.9556C135.959 73.8357 135.911 73.7208 135.827 73.6361C135.742 73.5513 135.627 73.5037 135.507 73.5037Z" fill="#706D6B"/>
<path d="M149.017 73.5037H147.108L148.456 72.1514C148.528 72.0648 148.565 71.9543 148.56 71.8416C148.555 71.7289 148.508 71.6223 148.428 71.5425C148.349 71.4628 148.242 71.4157 148.129 71.4106C148.017 71.4055 147.906 71.4428 147.82 71.515L146.467 72.8673V70.9582C146.467 70.8383 146.42 70.7234 146.335 70.6387C146.25 70.5539 146.135 70.5063 146.015 70.5063C145.896 70.5063 145.781 70.5539 145.696 70.6387C145.611 70.7234 145.564 70.8383 145.564 70.9582V72.8673L144.215 71.515C144.175 71.4655 144.126 71.4249 144.069 71.3959C144.012 71.3669 143.95 71.3501 143.887 71.3467C143.823 71.3433 143.76 71.3533 143.701 71.376C143.641 71.3987 143.587 71.4337 143.542 71.4786C143.497 71.5236 143.462 71.5775 143.44 71.6368C143.417 71.6962 143.407 71.7597 143.41 71.8231C143.414 71.8866 143.431 71.9486 143.46 72.0052C143.489 72.0617 143.529 72.1116 143.579 72.1514L144.931 73.5037H143.022C142.902 73.5037 142.787 73.5513 142.702 73.6361C142.618 73.7208 142.57 73.8357 142.57 73.9556C142.57 74.0754 142.618 74.1903 142.702 74.2751C142.787 74.3598 142.902 74.4074 143.022 74.4074H144.931L143.579 75.7598C143.531 75.8 143.491 75.8498 143.463 75.906C143.435 75.9623 143.42 76.0237 143.417 76.0864C143.414 76.1491 143.424 76.2117 143.447 76.2702C143.47 76.3288 143.504 76.3819 143.549 76.4263C143.593 76.4707 143.646 76.5053 143.705 76.528C143.763 76.5507 143.826 76.561 143.889 76.5582C143.951 76.5553 144.013 76.5395 144.069 76.5116C144.125 76.4837 144.175 76.4444 144.215 76.3962L145.564 75.0438V76.953C145.564 77.0729 145.611 77.1878 145.696 77.2725C145.781 77.3573 145.896 77.4049 146.015 77.4049C146.135 77.4049 146.25 77.3573 146.335 77.2725C146.42 77.1878 146.467 77.0729 146.467 76.953V75.0438L147.82 76.3962C147.86 76.4444 147.91 76.4837 147.966 76.5116C148.022 76.5395 148.083 76.5553 148.146 76.5582C148.209 76.561 148.271 76.5507 148.33 76.528C148.389 76.5053 148.442 76.4707 148.486 76.4263C148.53 76.3819 148.565 76.3288 148.588 76.2702C148.611 76.2117 148.621 76.1491 148.618 76.0864C148.615 76.0237 148.599 75.9623 148.571 75.906C148.543 75.8498 148.504 75.8 148.456 75.7598L147.108 74.4074H149.017C149.137 74.4074 149.252 74.3598 149.336 74.2751C149.421 74.1903 149.469 74.0754 149.469 73.9556C149.469 73.8357 149.421 73.7208 149.336 73.6361C149.252 73.5513 149.137 73.5037 149.017 73.5037Z" fill="#706D6B"/>
<path d="M162.527 73.5037H160.617L161.966 72.1514C162.038 72.0648 162.075 71.9543 162.07 71.8416C162.065 71.7289 162.018 71.6223 161.938 71.5425C161.858 71.4628 161.752 71.4157 161.639 71.4106C161.526 71.4055 161.416 71.4428 161.329 71.515L159.977 72.8673V70.9582C159.977 70.8383 159.929 70.7234 159.845 70.6387C159.76 70.5539 159.645 70.5063 159.525 70.5063C159.405 70.5063 159.29 70.5539 159.206 70.6387C159.121 70.7234 159.073 70.8383 159.073 70.9582V72.8673L157.725 71.515C157.685 71.4655 157.635 71.4249 157.579 71.3959C157.522 71.3669 157.46 71.3501 157.397 71.3467C157.333 71.3433 157.27 71.3533 157.21 71.376C157.151 71.3987 157.097 71.4337 157.052 71.4786C157.007 71.5236 156.972 71.5775 156.95 71.6368C156.927 71.6962 156.917 71.7597 156.92 71.8231C156.924 71.8866 156.94 71.9486 156.969 72.0052C156.998 72.0617 157.039 72.1116 157.089 72.1514L158.441 73.5037H156.532C156.412 73.5037 156.297 73.5513 156.212 73.6361C156.127 73.7208 156.08 73.8357 156.08 73.9556C156.08 74.0754 156.127 74.1903 156.212 74.2751C156.297 74.3598 156.412 74.4074 156.532 74.4074H158.441L157.089 75.7598C157.04 75.8 157.001 75.8498 156.973 75.906C156.945 75.9623 156.929 76.0237 156.927 76.0864C156.924 76.1491 156.934 76.2117 156.957 76.2702C156.979 76.3288 157.014 76.3819 157.058 76.4263C157.103 76.4707 157.156 76.5053 157.214 76.528C157.273 76.5507 157.336 76.561 157.398 76.5582C157.461 76.5553 157.522 76.5395 157.579 76.5116C157.635 76.4837 157.685 76.4444 157.725 76.3962L159.073 75.0438V76.953C159.073 77.0729 159.121 77.1878 159.206 77.2725C159.29 77.3573 159.405 77.4049 159.525 77.4049C159.645 77.4049 159.76 77.3573 159.845 77.2725C159.929 77.1878 159.977 77.0729 159.977 76.953V75.0438L161.329 76.3962C161.37 76.4444 161.419 76.4837 161.476 76.5116C161.532 76.5395 161.593 76.5553 161.656 76.5582C161.719 76.561 161.781 76.5507 161.84 76.528C161.898 76.5053 161.951 76.4707 161.996 76.4263C162.04 76.3819 162.075 76.3288 162.098 76.2702C162.12 76.2117 162.131 76.1491 162.128 76.0864C162.125 76.0237 162.109 75.9623 162.081 75.906C162.053 75.8498 162.014 75.8 161.966 75.7598L160.617 74.4074H162.527C162.646 74.4074 162.761 74.3598 162.846 74.2751C162.931 74.1903 162.978 74.0754 162.978 73.9556C162.978 73.8357 162.931 73.7208 162.846 73.6361C162.761 73.5513 162.646 73.5037 162.527 73.5037Z" fill="#706D6B"/>
<g opacity="0.3" filter="url(#filter1_f_77_4228)">
<path d="M103.478 75.6802C103.478 71.8702 106.567 68.7816 110.377 68.7816H128.486C132.295 68.7816 135.384 71.8702 135.384 75.6802V86.1036C135.384 89.9135 132.295 93.0021 128.486 93.0021H110.377C106.567 93.0021 103.478 89.9135 103.478 86.1036V75.6802Z" fill="#1F1548"/>
</g>
<path fill-rule="evenodd" clip-rule="evenodd" d="M132.32 64.3155V52.47C132.32 45.2246 126.459 39.3559 119.224 39.3559C111.989 39.3559 106.128 45.2246 106.128 52.47V63.8227H110.394V52.47C110.394 47.2533 114.087 43.5549 119.296 43.5549C124.506 43.5549 128.199 47.2533 128.199 52.47V64.3155H132.32Z" fill="#706D6B"/>
<path d="M134.705 90.9008H103.784C102.217 90.9008 100.891 89.6333 100.891 88.0036V63.4375C100.891 61.8681 102.157 60.5402 103.784 60.5402H134.705C136.272 60.5402 137.598 61.8078 137.598 63.4375V88.0036C137.598 89.5729 136.333 90.9008 134.705 90.9008Z" fill="url(#paint0_linear_77_4228)"/>
<path d="M123.012 72.5523C123.012 70.4397 121.324 68.7496 119.215 68.7496C117.105 68.7496 115.417 70.4397 115.417 72.5523C115.417 74.0009 116.201 75.2081 117.407 75.872L115.839 82.6322H122.59L121.023 75.872C122.229 75.2684 123.012 74.0009 123.012 72.5523Z" fill="#3D3C3A"/>
</g>
</g>
<defs>
<filter id="filter0_dd_77_4228" x="19.0381" y="15.3762" width="199.923" height="120.59" filterUnits="userSpaceOnUse" color-interpolation-filters="sRGB">
<feFlood flood-opacity="0" result="BackgroundImageFix"/>
<feColorMatrix in="SourceAlpha" type="matrix" values="0 0 0 0 0 0 0 0 0 0 0 0 0 0 0 0 0 0 127 0" result="hardAlpha"/>
<feOffset dy="6.18182"/>
<feGaussianBlur stdDeviation="7.72727"/>
<feComposite in2="hardAlpha" operator="out"/>
<feColorMatrix type="matrix" values="0 0 0 0 0 0 0 0 0 0 0 0 0 0 0 0 0 0 0.2 0"/>
<feBlend mode="normal" in2="BackgroundImageFix" result="effect1_dropShadow_77_4228"/>
<feColorMatrix in="SourceAlpha" type="matrix" values="0 0 0 0 0 0 0 0 0 0 0 0 0 0 0 0 0 0 127 0" result="hardAlpha"/>
<feOffset dy="1.54545"/>
<feGaussianBlur stdDeviation="1.54545"/>
<feComposite in2="hardAlpha" operator="out"/>
<feColorMatrix type="matrix" values="0 0 0 0 0 0 0 0 0 0 0 0 0 0 0 0 0 0 0.25 0"/>
<feBlend mode="normal" in2="effect1_dropShadow_77_4228" result="effect2_dropShadow_77_4228"/>
<feBlend mode="normal" in="SourceGraphic" in2="effect2_dropShadow_77_4228" result="shape"/>
</filter>
<filter id="filter1_f_77_4228" x="95.1138" y="60.4172" width="48.6347" height="40.9494" filterUnits="userSpaceOnUse" color-interpolation-filters="sRGB">
<feFlood flood-opacity="0" result="BackgroundImageFix"/>
<feBlend mode="normal" in="SourceGraphic" in2="BackgroundImageFix" result="shape"/>
<feGaussianBlur stdDeviation="4.18225" result="effect1_foregroundBlur_77_4228"/>
</filter>
<linearGradient id="paint0_linear_77_4228" x1="119.245" y1="60.5402" x2="119.245" y2="90.9008" gradientUnits="userSpaceOnUse">
<stop stop-color="#FFE26D"/>
<stop offset="1" stop-color="#FFA16D"/>
</linearGradient>
<clipPath id="clip0_77_4228">
<rect width="238" height="134.522" fill="white" transform="translate(0 0.739136)"/>
</clipPath>
</defs>
</svg>
