<svg width="168" height="36" viewBox="0 0 168 36" fill="none" xmlns="http://www.w3.org/2000/svg">
<path d="M40 21.3376V24.9784H42.5422V21.4966C42.5422 21.1587 42.675 20.8321 42.9151 20.5935C43.1523 20.3549 43.4772 20.2186 43.8133 20.2186H46.4205C47.6351 20.2186 48.8017 19.733 49.6604 18.8668C50.5191 18.0034 51.0021 16.8305 51.0021 15.6093C51.0021 14.3881 50.5191 13.2152 49.6604 12.349C48.8017 11.4856 47.6351 11 46.4177 11H40V15.5497H42.5422V13.4055H46.2482C46.8244 13.4055 47.3752 13.6355 47.782 14.0445C48.1887 14.4534 48.4175 15.0072 48.4175 15.5866C48.4175 16.1659 48.1887 16.7197 47.782 17.1287C47.3752 17.5377 46.8244 17.7677 46.2482 17.7677H43.5563C43.0902 17.7677 42.627 17.8586 42.1976 18.0403C41.7654 18.2193 41.3756 18.4834 41.0451 18.8157C40.7146 19.1479 40.4548 19.5427 40.274 19.9744C40.0932 20.4032 40 20.869 40 21.3376Z" fill="white"/>
<path d="M51.3948 24.9784V19.4319C51.3948 17.1685 52.7082 15.3679 55.338 15.3679C55.7589 15.3622 56.1798 15.4077 56.5922 15.5071V17.7876C56.2928 17.7677 56.0357 17.7677 55.9143 17.7677C54.5217 17.7677 53.9229 18.4095 53.9229 19.7103V24.9784H51.3948Z" fill="white"/>
<path d="M57.3491 20.2755C57.3491 17.4923 59.4394 15.3708 62.3488 15.3708C65.2582 15.3708 67.3484 17.4923 67.3484 20.2755C67.3484 23.0586 65.2582 25.2 62.3488 25.2C59.4394 25.2 57.3491 23.0558 57.3491 20.2755ZM64.8571 20.2755C64.8571 18.6936 63.8007 17.5718 62.3488 17.5718C60.8941 17.5718 59.8405 18.6907 59.8405 20.2755C59.8405 21.8772 60.8969 22.9791 62.3488 22.9791C63.8035 22.9791 64.8571 21.8744 64.8571 20.2755Z" fill="white"/>
<path d="M75.4328 20.2755C75.4328 17.4923 77.523 15.3708 80.4324 15.3708C83.339 15.3708 85.4293 17.4923 85.4293 20.2755C85.4293 23.0586 83.339 25.2 80.4324 25.2C77.523 25.2 75.4328 23.0558 75.4328 20.2755ZM82.9379 20.2755C82.9379 18.6936 81.8815 17.5718 80.4296 17.5718C78.9777 17.5718 77.9213 18.6907 77.9213 20.2755C77.9213 21.8772 78.9777 22.9791 80.4296 22.9791C81.8815 22.9791 82.9379 21.8744 82.9379 20.2755Z" fill="white"/>
<path d="M86.7428 24.9785V19.6336C86.7428 17.1515 88.3162 15.3679 91.1239 15.3679C93.9118 15.3679 95.4852 17.1486 95.4852 19.6336V24.9785H92.9769V19.8324C92.9769 18.4522 92.3583 17.5888 91.1239 17.5888C89.8895 17.5888 89.2709 18.4493 89.2709 19.8324V24.9785H86.7428Z" fill="white"/>
<path d="M74.6757 17.5915H71.9471V21.0961C71.9471 22.3173 72.3849 22.8768 73.6391 22.8768C73.7577 22.8768 74.0571 22.8767 74.4356 22.8569V24.9187C73.9187 25.0579 73.4611 25.1402 72.9612 25.1402C70.8511 25.1402 69.4162 23.8594 69.4162 21.4369V17.5915H67.7214V15.5694H68.1451C68.3117 15.5694 68.4784 15.5354 68.6309 15.4729C68.7863 15.4076 68.9247 15.3138 69.0433 15.1946C69.162 15.0753 69.2552 14.9361 69.3201 14.7799C69.3851 14.6237 69.4162 14.459 69.4162 14.2914V12.3858H71.9443V15.5694H74.6729V17.5915H74.6757Z" fill="white"/>
<path d="M144.353 25.2002C142.894 25.2002 141.715 24.7429 140.813 23.8282C139.912 22.9002 139.461 21.727 139.461 20.3086C139.461 18.9034 139.912 17.7369 140.813 16.8089C141.715 15.881 142.868 15.417 144.273 15.417C145.678 15.417 146.825 15.881 147.713 16.8089C148.601 17.7369 149.045 18.9034 149.045 20.3086C149.045 20.6533 149.039 20.9515 149.026 21.2034H142.006C142.298 22.3965 143.06 22.993 144.293 22.993C145.247 22.993 145.91 22.7146 146.281 22.1579H148.767C148.489 23.1786 147.939 23.9409 147.117 24.4446C146.295 24.9483 145.373 25.2002 144.353 25.2002ZM141.986 19.374H146.54C146.447 18.8703 146.189 18.4593 145.764 18.1412C145.34 17.8098 144.843 17.6441 144.273 17.6441C143.69 17.6441 143.193 17.8032 142.782 18.1213C142.384 18.4262 142.119 18.8438 141.986 19.374Z" fill="white"/>
<path d="M135.659 24.9815V11.4202H138.403V24.9815H135.659Z" fill="white"/>
<path d="M130.941 24.9815V11.4202H133.685V24.9815H130.941Z" fill="white"/>
<path d="M104.831 24.9815L100.874 11.4202H103.738L105.806 19.2945C106.031 20.1827 106.19 20.9317 106.283 21.5415H106.323C106.429 20.8787 106.595 20.1164 106.82 19.2547L108.987 11.4202H112.606L114.774 19.2547C115.026 20.1429 115.198 20.9052 115.291 21.5415H115.33C115.45 20.7328 115.602 19.9838 115.788 19.2945L117.856 11.4202H120.719L116.762 24.9815H113.68L111.135 15.4966C110.962 14.8337 110.856 14.2637 110.817 13.7865H110.777C110.737 14.2637 110.631 14.8337 110.459 15.4966L107.914 24.9815H104.831Z" fill="white"/>
<path d="M156.191 17.6322H153.476V21.118C153.476 22.3327 153.912 22.8892 155.159 22.8892C155.277 22.8892 155.575 22.8892 155.952 22.8694V24.9202C155.438 25.0587 154.982 25.1406 154.485 25.1406C152.386 25.1406 150.959 23.8666 150.959 21.457V17.6322H149.273V15.6209H149.695C149.861 15.6209 150.026 15.587 150.178 15.5248C150.333 15.4599 150.47 15.3666 150.588 15.248C150.706 15.1293 150.799 14.9909 150.864 14.8356C150.928 14.6802 150.959 14.5164 150.959 14.3497V12.4542H153.474V15.6209H156.188V17.6322H156.191Z" fill="white"/>
<path d="M127.109 16.0508C127.847 16.4375 128.457 17.0302 128.867 17.7556C129.305 18.543 129.525 19.4349 129.508 20.3353V24.981H127.276L127.118 23.5867C126.826 24.0919 126.4 24.504 125.885 24.7806C125.334 25.0657 124.718 25.2096 124.097 25.1955C123.303 25.204 122.523 24.9923 121.842 24.583C121.152 24.1653 120.592 23.567 120.219 22.8557C119.812 22.0711 119.609 21.1989 119.626 20.3155C119.615 19.4462 119.838 18.591 120.27 17.8346C120.694 17.1008 121.307 16.4968 122.051 16.0875C122.819 15.6613 123.684 15.4412 124.563 15.4525C125.447 15.4355 126.323 15.6416 127.109 16.0508ZM126.292 22.2997C126.778 21.8368 127.019 21.1848 127.019 20.3155C127.05 19.6043 126.798 18.9099 126.323 18.3821C126.097 18.1451 125.826 17.9588 125.524 17.8289C125.221 17.6991 124.899 17.6342 124.571 17.6342C124.244 17.6342 123.919 17.6991 123.619 17.8289C123.317 17.9588 123.045 18.1451 122.819 18.3821C122.367 18.9241 122.118 19.6071 122.118 20.3127C122.118 21.0183 122.367 21.7013 122.819 22.2432C123.043 22.486 123.314 22.6751 123.619 22.8049C123.921 22.9319 124.249 22.9968 124.577 22.9884C124.894 22.994 125.21 22.9347 125.507 22.8162C125.798 22.7005 126.066 22.5227 126.292 22.2997Z" fill="white"/>
<mask id="mask0_2750_680" style="mask-type:alpha" maskUnits="userSpaceOnUse" x="2" y="6" width="28" height="25">
<path fill-rule="evenodd" clip-rule="evenodd" d="M29.7082 18.0141V27.3793C29.7082 28.9955 28.3979 30.3059 26.7816 30.3059H23.855V30.3059L6.12024 30.3059L4.92838 30.3059C4.82736 30.3059 4.72753 30.3008 4.62914 30.2908C3.35504 30.1614 2.32142 29.2149 2.06257 27.9837C2.02156 27.7887 2 27.5865 2 27.3793V26.5216H2.00007V26.5216H7.75602C8.08686 26.5216 8.40758 26.4763 8.71313 26.391C8.87475 26.3459 9.03212 26.2897 9.18451 26.2231C9.33689 26.1565 9.48429 26.0795 9.62595 25.993C9.95659 25.7911 10.256 25.5371 10.5146 25.2414C11.1459 24.5199 11.5314 23.5526 11.5314 22.4881C11.5314 20.2617 9.84084 18.4545 7.75596 18.4545H2V10.2087H2.00007V9.23252C2.00007 7.61625 3.31218 6.30591 4.92844 6.30591H18.0018C24.4669 6.30591 29.7082 11.5473 29.7082 18.0141ZM9.61095 22.5022C9.61095 23.687 8.64897 24.6472 7.46418 24.6472C6.27939 24.6472 5.31741 23.687 5.31741 22.5022C5.31741 21.3174 6.27939 20.3554 7.46418 20.3554C8.64897 20.3554 9.61095 21.3157 9.61095 22.5022Z" fill="#FFBB93"/>
</mask>
<g mask="url(#mask0_2750_680)">
<path d="M4.92691 30.3059C3.31042 30.3059 2 28.9955 2 27.379L2 9.23215C2 7.61566 3.31042 6.30523 4.92691 6.30523L18.0005 6.30523C24.4664 6.30523 29.7081 11.5469 29.7081 18.0129L29.7081 27.379C29.7081 28.9955 28.3977 30.3059 26.7812 30.3059L4.92691 30.3059Z" fill="url(#paint0_linear_2750_680)"/>
<path d="M4.92691 30.3059C3.31042 30.3059 2 28.9955 2 27.379L2 10.2078L15.0736 10.2078C19.923 10.2078 23.8543 14.1391 23.8543 18.9885L23.8543 30.3059L4.92691 30.3059Z" fill="#6D4AFF"/>
<path d="M4.92691 30.3059C3.31042 30.3059 2 28.9955 2 27.379L2 10.2078L15.0736 10.2078C19.923 10.2078 23.8543 14.1391 23.8543 18.9885L23.8543 30.3059L4.92691 30.3059Z" fill="url(#paint1_linear_2750_680)" fill-opacity="0.9"/>
<path d="M6.11985 30.3059L10.5856 25.2326L2 26.3058V27.379C2 28.9955 3.31042 30.3059 4.92691 30.3059H6.11985Z" fill="#FFBB93"/>
<path fill-rule="evenodd" clip-rule="evenodd" d="M7.75446 26.5217C9.8394 26.5217 11.53 24.7154 11.53 22.4878C11.53 20.2601 9.8394 18.4538 7.75446 18.4538L1.96875 18.4538V26.5217L7.75446 26.5217ZM9.60998 22.5008C9.60998 21.3154 8.649 20.3544 7.46357 20.3544C6.27815 20.3544 5.31717 21.3154 5.31717 22.5008C5.31717 23.6862 6.27815 24.6472 7.46357 24.6472C8.649 24.6472 9.60998 23.6862 9.60998 22.5008Z" fill="white"/>
</g>
<defs>
<linearGradient id="paint0_linear_2750_680" x1="-1.5123" y1="9.09842" x2="32.8026" y2="22.4654" gradientUnits="userSpaceOnUse">
<stop stop-color="#957AFD"/>
<stop offset="1" stop-color="#FFC6C6"/>
</linearGradient>
<linearGradient id="paint1_linear_2750_680" x1="22.6193" y1="13.2934" x2="11.9665" y2="34.9391" gradientUnits="userSpaceOnUse">
<stop offset="0.149916" stop-color="#FA528E" stop-opacity="0"/>
<stop offset="0.720842" stop-color="#FF8065"/>
<stop offset="1" stop-color="#FFA51F"/>
</linearGradient>
</defs>
</svg>
