<svg width="195" height="60" viewBox="0 0 195 60" fill="none" xmlns="http://www.w3.org/2000/svg">
<path d="M0.833328 35.6768V41.7852H5.09843V35.9437C5.09843 35.3767 5.32116 34.8287 5.72398 34.4285C6.12205 34.0282 6.66703 33.7995 7.23098 33.7995H11.6051C13.6428 33.7995 15.6 32.9848 17.0407 31.5315C18.4814 30.0831 19.2917 28.1153 19.2917 26.0664C19.2917 24.0176 18.4814 22.0498 17.0407 20.5966C15.6 19.1481 13.6428 18.3333 11.6003 18.3333H0.833328V25.9664H5.09843V22.369H11.316C12.2828 22.369 13.2069 22.755 13.8893 23.4411C14.5717 24.1272 14.9555 25.0563 14.9555 26.0283C14.9555 27.0003 14.5717 27.9294 13.8893 28.6156C13.2069 29.3017 12.2828 29.6876 11.316 29.6876H6.79973C6.01779 29.6876 5.2406 29.8401 4.52027 30.145C3.7952 30.4452 3.14122 30.8883 2.58676 31.4458C2.03229 32.0033 1.59631 32.6655 1.29301 33.3898C0.989719 34.1092 0.833328 34.8907 0.833328 35.6768Z" fill="white"/>
<path d="M19.9505 41.7852V32.4797C19.9505 28.6822 22.1541 25.6614 26.5661 25.6614C27.2722 25.6519 27.9784 25.7281 28.6702 25.8949V29.721C28.1679 29.6876 27.7367 29.6876 27.5329 29.6876C25.1966 29.6876 24.1919 30.7644 24.1919 32.9467V41.7852H19.9505Z" fill="white"/>
<path d="M29.9401 33.8949C29.9401 29.2255 33.447 25.6663 38.3282 25.6663C43.2093 25.6663 46.7162 29.2255 46.7162 33.8949C46.7162 38.5643 43.2093 42.1569 38.3282 42.1569C33.447 42.1569 29.9401 38.5595 29.9401 33.8949ZM42.5364 33.8949C42.5364 31.241 40.764 29.3589 38.3282 29.3589C35.8876 29.3589 34.1199 31.2362 34.1199 33.8949C34.1199 36.5822 35.8923 38.4309 38.3282 38.4309C40.7687 38.4309 42.5364 36.5774 42.5364 33.8949Z" fill="white"/>
<path d="M60.2793 33.8949C60.2793 29.2255 63.7862 25.6663 68.6674 25.6663C73.5438 25.6663 77.0506 29.2255 77.0506 33.8949C77.0506 38.5643 73.5438 42.1569 68.6674 42.1569C63.7862 42.1569 60.2793 38.5595 60.2793 33.8949ZM72.8709 33.8949C72.8709 31.241 71.0985 29.3589 68.6626 29.3589C66.2268 29.3589 64.4544 31.2362 64.4544 33.8949C64.4544 36.5822 66.2268 38.4309 68.6626 38.4309C71.0985 38.4309 72.8709 36.5774 72.8709 33.8949Z" fill="white"/>
<path d="M79.2544 41.7852V32.8181C79.2544 28.6537 81.894 25.6615 86.6046 25.6615C91.2819 25.6615 93.9216 28.649 93.9216 32.8181V41.7852H89.7133V33.1516C89.7133 30.836 88.6755 29.3875 86.6046 29.3875C84.5336 29.3875 83.4958 30.8312 83.4958 33.1516V41.7852H79.2544Z" fill="white"/>
<path d="M59.0093 29.392H54.4314V35.2717C54.4314 37.3205 55.1659 38.2591 57.2701 38.2591C57.4691 38.2591 57.9714 38.2591 58.6065 38.2258V41.6849C57.7392 41.9184 56.9715 42.0566 56.1327 42.0566C52.5927 42.0566 50.1853 39.9077 50.1853 35.8434V29.392H47.3419V25.9996H48.0527C48.3323 25.9996 48.6119 25.9424 48.8678 25.8376C49.1285 25.728 49.3607 25.5707 49.5597 25.3706C49.7588 25.1705 49.9151 24.937 50.0241 24.675C50.1331 24.4129 50.1853 24.1366 50.1853 23.8555V20.6583H54.4267V25.9996H59.0045V29.392H59.0093Z" fill="white"/>
<path d="M174.613 42.1568C172.15 42.1568 170.158 41.3844 168.635 39.8396C167.113 38.2724 166.352 36.291 166.352 33.8954C166.352 31.5221 167.113 29.5519 168.635 27.9847C170.158 26.4175 172.106 25.6339 174.479 25.6339C176.852 25.6339 178.789 26.4175 180.289 27.9847C181.789 29.5519 182.539 31.5221 182.539 33.8954C182.539 34.4775 182.528 34.9812 182.505 35.4066H170.65C171.143 37.4216 172.43 38.4291 174.512 38.4291C176.124 38.4291 177.244 37.9589 177.871 37.0186H182.069C181.599 38.7425 180.669 40.0299 179.281 40.8807C177.893 41.7315 176.337 42.1568 174.613 42.1568ZM170.617 32.3169H178.307C178.151 31.4662 177.714 30.7721 176.998 30.2348C176.281 29.675 175.442 29.3952 174.479 29.3952C173.494 29.3952 172.654 29.6639 171.96 30.2012C171.288 30.7161 170.841 31.4214 170.617 32.3169Z" fill="#9494FF"/>
<path d="M159.93 41.7874V18.8836H164.564V41.7874H159.93Z" fill="#9494FF"/>
<path d="M151.963 41.7874V18.8836H156.597V41.7874H151.963Z" fill="#9494FF"/>
<path d="M107.865 41.7874L101.182 18.8836H106.018L109.511 32.1826C109.891 33.6827 110.16 34.9476 110.317 35.9775H110.384C110.563 34.8581 110.843 33.5707 111.224 32.1154L114.884 18.8836H120.996L124.657 32.1154C125.082 33.6155 125.373 34.9029 125.53 35.9775H125.597C125.799 34.6118 126.056 33.3468 126.37 32.1826L129.862 18.8836H134.698L128.015 41.7874H122.81L118.511 25.7682C118.22 24.6487 118.041 23.686 117.974 22.88H117.907C117.84 23.686 117.66 24.6487 117.369 25.7682L113.071 41.7874H107.865Z" fill="#9494FF"/>
<path d="M194.607 29.375H190.023V35.2623C190.023 37.3138 190.758 38.2537 192.865 38.2537C193.064 38.2537 193.567 38.2537 194.203 38.2203V41.684C193.335 41.9178 192.566 42.0561 191.726 42.0561C188.182 42.0561 185.771 39.9044 185.771 35.8348V29.375H182.924V25.9781H183.636C183.916 25.9781 184.196 25.9209 184.452 25.8159C184.713 25.7062 184.945 25.5488 185.145 25.3484C185.344 25.148 185.501 24.9142 185.61 24.6518C185.719 24.3894 185.771 24.1127 185.771 23.8312V20.6299H190.018V25.9781H194.602V29.375H194.607Z" fill="#9494FF"/>
<path d="M145.49 26.7043C146.736 27.3573 147.767 28.3584 148.459 29.5835C149.199 30.9134 149.571 32.4197 149.542 33.9404V41.7866H145.772L145.505 39.4318C145.013 40.285 144.292 40.981 143.424 41.4481C142.493 41.9296 141.452 42.1727 140.402 42.1489C139.061 42.1632 137.744 41.8057 136.594 41.1145C135.429 40.409 134.484 39.3984 133.854 38.1972C133.167 36.872 132.823 35.399 132.852 33.907C132.833 32.4388 133.21 30.9944 133.94 29.7169C134.656 28.4775 135.692 27.4574 136.947 26.7662C138.245 26.0465 139.706 25.6746 141.19 25.6937C142.684 25.6651 144.163 26.0131 145.49 26.7043ZM144.111 37.2581C144.932 36.4763 145.337 35.3752 145.337 33.907C145.39 32.7057 144.965 31.5331 144.163 30.6417C143.782 30.2413 143.323 29.9267 142.813 29.7074C142.302 29.4881 141.758 29.3785 141.204 29.3785C140.651 29.3785 140.102 29.4881 139.596 29.7074C139.085 29.9267 138.627 30.2413 138.245 30.6417C137.482 31.5569 137.062 32.7105 137.062 33.9022C137.062 35.0939 137.482 36.2475 138.245 37.1627C138.622 37.5727 139.08 37.8921 139.596 38.1113C140.107 38.3259 140.66 38.4355 141.214 38.4212C141.748 38.4307 142.283 38.3306 142.784 38.1304C143.276 37.935 143.729 37.6347 144.111 37.2581Z" fill="#9494FF"/>
</svg>
