<svg width="406" height="57" viewBox="0 0 406 57" fill="none" xmlns="http://www.w3.org/2000/svg">
<path d="M94.0003 18.3363C94.0002 18.241 94.0001 18.1933 94.0156 18.1522C94.0293 18.1159 94.0516 18.0835 94.0806 18.0577C94.1133 18.0285 94.1579 18.0115 94.247 17.9774L108.847 12.3873C109.905 11.982 110.435 11.7794 110.858 11.8721C111.229 11.9531 111.554 12.1762 111.762 12.4935C112 12.8563 112 13.4229 112 14.5563V24.9101C112 25.6484 112 26.0176 111.876 26.3309C111.766 26.6075 111.588 26.8519 111.359 27.0414C111.099 27.256 110.748 27.3695 110.045 27.5967L97.7028 31.5874C96.4559 31.9906 95.8325 32.1921 95.3366 32.0645C94.9025 31.9527 94.5273 31.6799 94.287 31.3015C94.0125 30.8692 94.0119 30.214 94.0106 28.9036L94.0003 18.3363Z" fill="url(#paint0_linear_7_172)"/>
<path d="M94 22.9835C94 22.2933 94 21.9482 94.1113 21.6498C94.2097 21.3862 94.3697 21.1499 94.5779 20.9606C94.8136 20.7465 95.134 20.6183 95.7749 20.3619L106.877 15.9213C107.588 15.6367 107.944 15.4945 108.229 15.5538C108.479 15.6057 108.698 15.754 108.839 15.9666C109 16.2097 109 16.5928 109 17.3589V24.9728C109 25.7489 109 26.1369 108.866 26.4613C108.747 26.7476 108.555 26.9976 108.309 27.1861C108.03 27.3998 107.656 27.5 106.906 27.7005L97.553 30.2018C96.3443 30.525 95.7399 30.6866 95.2629 30.5451C94.8449 30.4212 94.4877 30.1469 94.2599 29.7751C94 29.3508 94 28.7253 94 27.4741V22.9835Z" fill="url(#paint1_linear_7_172)"/>
<mask id="mask0_7_172" style="mask-type:alpha" maskUnits="userSpaceOnUse" x="94" y="11" width="18" height="22">
<path d="M94.0003 18.3363C94.0002 18.241 94.0001 18.1933 94.0156 18.1522C94.0293 18.1159 94.0516 18.0835 94.0806 18.0577C94.1133 18.0285 94.1579 18.0114 94.247 17.9773L108.847 12.3872C109.905 11.982 110.435 11.7794 110.858 11.8721C111.229 11.9531 111.554 12.1762 111.762 12.4935C112 12.8562 112 13.4229 112 14.5563V24.9101C112 25.6484 112 26.0176 111.876 26.3309C111.766 26.6075 111.588 26.8519 111.359 27.0414C111.099 27.256 110.748 27.3695 110.045 27.5967L97.7028 31.5874C96.4559 31.9906 95.8325 32.1921 95.3366 32.0645C94.9025 31.9527 94.5273 31.6799 94.287 31.3015C94.0125 30.8692 94.0119 30.214 94.0106 28.9036L94.0003 18.3363Z" fill="url(#paint2_linear_7_172)"/>
<path d="M94 22.9835C94 22.2933 94 21.9482 94.1113 21.6498C94.2097 21.3862 94.3697 21.1499 94.5779 20.9606C94.8136 20.7465 95.134 20.6183 95.7749 20.3619L106.877 15.9213C107.588 15.6367 107.944 15.4945 108.229 15.5538C108.479 15.6057 108.698 15.754 108.839 15.9666C109 16.2097 109 16.5927 109 17.3589V24.9728C109 25.7489 109 26.1369 108.866 26.4613C108.747 26.7476 108.555 26.9975 108.309 27.1861C108.03 27.3998 107.656 27.5 106.906 27.7005L97.553 30.2018C96.3443 30.525 95.7399 30.6866 95.2629 30.5451C94.8449 30.4212 94.4877 30.1469 94.2599 29.7751C94 29.3508 94 28.7253 94 27.4741V22.9835Z" fill="url(#paint3_linear_7_172)"/>
</mask>
<g mask="url(#mask0_7_172)">
<rect x="94" y="10.7" width="18" height="18" fill="url(#paint4_linear_7_172)"/>
</g>
<path d="M94 18.6019C94 18.3642 94 18.2454 94.0496 18.1664C94.0931 18.0972 94.1611 18.047 94.24 18.0258C94.3301 18.0016 94.4437 18.0365 94.6709 18.1064L113.951 24.0389C115.025 24.3691 115.561 24.5343 115.959 24.8559C116.31 25.1399 116.583 25.5089 116.751 25.9279C116.941 26.4025 116.941 26.964 116.941 28.0869V38.9433C116.941 39.9408 116.941 40.4395 116.732 40.7658C116.549 41.0514 116.264 41.2559 115.935 41.3371C115.558 41.4299 115.086 41.2693 114.142 40.9482L97.6455 35.3395C96.334 34.8936 95.6783 34.6706 95.1937 34.262C94.7658 33.9011 94.4349 33.439 94.2309 32.9177C94 32.3274 94 31.6348 94 30.2496V18.6019Z" fill="url(#paint5_linear_7_172)"/>
<path d="M94 21.5L109.163 26.3242C109.886 26.5541 110.247 26.669 110.514 26.8884C110.75 27.0822 110.933 27.3327 111.045 27.6165C111.173 27.9379 111.172 28.3171 111.17 29.0754L111.145 39.9322C105.763 38.1014 102.282 36.9172 97.6456 35.3402C96.3338 34.8939 95.6778 34.6708 95.1934 34.2621C94.7656 33.9012 94.4347 33.4391 94.2308 32.9179C94 32.3277 94 31.6352 94 30.2502V21.5Z" fill="url(#paint6_linear_7_172)"/>
<path d="M138.509 25.7536H136.649C136.435 24.5355 135.466 23.8345 134.228 23.8345C132.562 23.8345 131.389 25.1122 131.389 27.4091C131.389 29.7457 132.572 30.9837 134.223 30.9837C135.441 30.9837 136.415 30.3125 136.649 29.1193L138.509 29.1293C138.225 31.0732 136.619 32.6392 134.198 32.6392C131.513 32.6392 129.535 30.6953 129.535 27.4091C129.535 24.1179 131.538 22.179 134.198 22.179C136.455 22.179 138.195 23.4915 138.509 25.7536ZM140.118 32.5V24.8636H141.863V26.1364H141.943C142.221 25.2514 142.952 24.7543 143.827 24.7543C144.026 24.7543 144.309 24.7741 144.473 24.804V26.4595C144.319 26.4098 143.941 26.3551 143.638 26.3551C142.649 26.3551 141.918 27.0412 141.918 28.0107V32.5H140.118ZM148.735 32.6491C146.433 32.6491 145.026 31.1229 145.026 28.7266C145.026 26.37 146.453 24.7642 148.641 24.7642C150.52 24.7642 152.131 25.9425 152.131 28.6222V29.174H146.811C146.826 30.4815 147.597 31.2472 148.76 31.2472C149.536 31.2472 150.132 30.9091 150.376 30.2628L152.056 30.4517C151.738 31.7791 150.515 32.6491 148.735 32.6491ZM146.816 27.9609H150.406C150.396 26.9219 149.7 26.1662 148.665 26.1662C147.592 26.1662 146.871 26.9865 146.816 27.9609ZM155.851 32.6541C154.394 32.6541 153.295 31.8587 153.295 30.3572C153.295 28.6371 154.712 28.1946 156.194 28.0355C157.541 27.8913 158.083 27.8665 158.083 27.3494V27.3196C158.083 26.5689 157.626 26.1413 156.79 26.1413C155.91 26.1413 155.403 26.5888 155.224 27.1108L153.544 26.8722C153.942 25.4801 155.175 24.7642 156.78 24.7642C158.237 24.7642 159.883 25.3707 159.883 27.3892V32.5H158.153V31.451H158.093C157.765 32.0923 157.049 32.6541 155.851 32.6541ZM156.318 31.3317C157.402 31.3317 158.088 30.6108 158.088 29.7607V28.8608C157.854 29.0497 156.91 29.169 156.437 29.2337C155.632 29.348 155.03 29.6364 155.03 30.3274C155.03 30.9886 155.567 31.3317 156.318 31.3317ZM165.506 24.8636V26.2557H163.999V30.2031C163.999 30.929 164.362 31.0881 164.814 31.0881C165.038 31.0881 165.242 31.0433 165.341 31.0185L165.645 32.4254C165.451 32.4901 165.098 32.5895 164.586 32.6044C163.233 32.6442 162.189 31.9382 162.199 30.5014V26.2557H161.116V24.8636H162.199V23.0341H163.999V24.8636H165.506ZM167.011 32.5V24.8636H168.81V32.5H167.011ZM167.915 23.7798C167.339 23.7798 166.871 23.3423 166.871 22.8054C166.871 22.2635 167.339 21.826 167.915 21.826C168.487 21.826 168.955 22.2635 168.955 22.8054C168.955 23.3423 168.487 23.7798 167.915 23.7798ZM172.461 28.0256V32.5H170.661V24.8636H172.381V26.1612H172.471C172.819 25.3111 173.604 24.7642 174.748 24.7642C176.324 24.7642 177.368 25.8082 177.363 27.6378V32.5H175.563V27.9162C175.563 26.897 175.006 26.2855 174.077 26.2855C173.127 26.2855 172.461 26.9219 172.461 28.0256ZM182.513 35.5227C180.569 35.5227 179.471 34.6626 179.143 33.5938L180.763 33.201C180.982 33.6484 181.459 34.1605 182.543 34.1605C183.567 34.1605 184.313 33.6982 184.313 32.5746V31.1278H184.224C183.945 31.6896 183.334 32.3906 182.026 32.3906C180.266 32.3906 178.879 31.1477 178.879 28.657C178.879 26.1463 180.266 24.7642 182.031 24.7642C183.378 24.7642 183.95 25.5746 184.224 26.1264H184.323V24.8636H186.098V32.6243C186.098 34.5781 184.577 35.5227 182.513 35.5227ZM182.528 30.9787C183.677 30.9787 184.323 30.1037 184.323 28.647C184.323 27.2003 183.687 26.2408 182.528 26.2408C181.33 26.2408 180.714 27.2599 180.714 28.647C180.714 30.054 181.34 30.9787 182.528 30.9787ZM192.534 35.3636C192.041 35.3636 191.604 35.2741 191.36 35.1747L191.778 33.7727C192.563 34.0014 193.09 33.9418 193.423 33.0717L193.578 32.6591L190.808 24.8636H192.718L194.477 30.6307H194.557L196.322 24.8636H198.236L195.178 33.4247C194.746 34.6428 193.936 35.3636 192.534 35.3636ZM202.553 32.6491C200.315 32.6491 198.893 31.0732 198.893 28.7116C198.893 26.3452 200.315 24.7642 202.553 24.7642C204.79 24.7642 206.212 26.3452 206.212 28.7116C206.212 31.0732 204.79 32.6491 202.553 32.6491ZM202.562 31.2074C203.781 31.2074 204.387 30.1037 204.387 28.7067C204.387 27.3097 203.781 26.1911 202.562 26.1911C201.325 26.1911 200.718 27.3097 200.718 28.7067C200.718 30.1037 201.325 31.2074 202.562 31.2074ZM212.606 29.2884V24.8636H214.406V32.5H212.661V31.1428H212.581C212.233 31.9979 211.428 32.5994 210.285 32.5994C208.783 32.5994 207.739 31.5604 207.739 29.7259V24.8636H209.539V29.4474C209.539 30.4169 210.116 31.0284 210.981 31.0284C211.776 31.0284 212.606 30.4517 212.606 29.2884ZM216.257 32.5V24.8636H218.002V26.1364H218.081C218.36 25.2514 219.091 24.7543 219.966 24.7543C220.164 24.7543 220.448 24.7741 220.612 24.804V26.4595C220.458 26.4098 220.08 26.3551 219.777 26.3551C218.787 26.3551 218.056 27.0412 218.056 28.0107V32.5H216.257ZM226.856 32.5L224.699 24.8636H226.533L227.875 30.233H227.945L229.317 24.8636H231.132L232.504 30.2031H232.578L233.901 24.8636H235.74L233.578 32.5H231.703L230.272 27.3395H230.167L228.735 32.5H226.856ZM239.194 32.6541C237.738 32.6541 236.639 31.8587 236.639 30.3572C236.639 28.6371 238.056 28.1946 239.537 28.0355C240.885 27.8913 241.427 27.8665 241.427 27.3494V27.3196C241.427 26.5689 240.969 26.1413 240.134 26.1413C239.254 26.1413 238.747 26.5888 238.568 27.1108L236.888 26.8722C237.285 25.4801 238.518 24.7642 240.124 24.7642C241.581 24.7642 243.226 25.3707 243.226 27.3892V32.5H241.496V31.451H241.437C241.108 32.0923 240.393 32.6541 239.194 32.6541ZM239.662 31.3317C240.746 31.3317 241.432 30.6108 241.432 29.7607V28.8608C241.198 29.0497 240.253 29.169 239.781 29.2337C238.976 29.348 238.374 29.6364 238.374 30.3274C238.374 30.9886 238.911 31.3317 239.662 31.3317ZM246.836 22.3182V32.5H245.036V22.3182H246.836ZM250.486 22.3182V32.5H248.686V22.3182H250.486ZM255.718 32.6491C253.416 32.6491 252.009 31.1229 252.009 28.7266C252.009 26.37 253.436 24.7642 255.623 24.7642C257.502 24.7642 259.113 25.9425 259.113 28.6222V29.174H253.794C253.808 30.4815 254.579 31.2472 255.742 31.2472C256.518 31.2472 257.115 30.9091 257.358 30.2628L259.039 30.4517C258.72 31.7791 257.497 32.6491 255.718 32.6491ZM253.798 27.9609H257.388C257.378 26.9219 256.682 26.1662 255.648 26.1662C254.574 26.1662 253.853 26.9865 253.798 27.9609ZM264.449 24.8636V26.2557H262.942V30.2031C262.942 30.929 263.305 31.0881 263.758 31.0881C263.982 31.0881 264.185 31.0433 264.285 31.0185L264.588 32.4254C264.394 32.4901 264.041 32.5895 263.529 32.6044C262.177 32.6442 261.133 31.9382 261.143 30.5014V26.2557H260.059V24.8636H261.143V23.0341H262.942V24.8636H264.449ZM267.063 32.6094C266.456 32.6094 265.964 32.1222 265.969 31.5156C265.964 30.919 266.456 30.4318 267.063 30.4318C267.649 30.4318 268.151 30.919 268.156 31.5156C268.151 32.1222 267.649 32.6094 267.063 32.6094ZM271.123 32.6094C270.517 32.6094 270.025 32.1222 270.029 31.5156C270.025 30.919 270.517 30.4318 271.123 30.4318C271.71 30.4318 272.212 30.919 272.217 31.5156C272.212 32.1222 271.71 32.6094 271.123 32.6094ZM275.184 32.6094C274.577 32.6094 274.085 32.1222 274.09 31.5156C274.085 30.919 274.577 30.4318 275.184 30.4318C275.77 30.4318 276.273 30.919 276.278 31.5156C276.273 32.1222 275.77 32.6094 275.184 32.6094Z" fill="white"/>
<defs>
<linearGradient id="paint0_linear_7_172" x1="114.077" y1="37.8373" x2="86.5486" y2="13.8129" gradientUnits="userSpaceOnUse">
<stop offset="0.197917" stop-color="#F5AC87" stop-opacity="0.89"/>
<stop offset="0.960981" stop-color="#7B5FF3"/>
</linearGradient>
<linearGradient id="paint1_linear_7_172" x1="93.2995" y1="29.5848" x2="107.983" y2="13.1928" gradientUnits="userSpaceOnUse">
<stop offset="0.197917" stop-color="#E8621C" stop-opacity="0.89"/>
<stop offset="0.960981" stop-color="#532CF6"/>
</linearGradient>
<linearGradient id="paint2_linear_7_172" x1="114.077" y1="37.8373" x2="86.5486" y2="13.8129" gradientUnits="userSpaceOnUse">
<stop offset="0.197917" stop-color="#B27757" stop-opacity="0.89"/>
<stop offset="0.960981" stop-color="#7B5FF3"/>
</linearGradient>
<linearGradient id="paint3_linear_7_172" x1="93.2995" y1="29.5848" x2="107.983" y2="13.1928" gradientUnits="userSpaceOnUse">
<stop offset="0.197917" stop-color="#FFC6A8" stop-opacity="0.89"/>
<stop offset="0.960981" stop-color="#9178F6"/>
</linearGradient>
<linearGradient id="paint4_linear_7_172" x1="105.4" y1="27.5" x2="115.6" y2="9.5" gradientUnits="userSpaceOnUse">
<stop stop-opacity="0.53"/>
<stop offset="1" stop-color="#686868" stop-opacity="0"/>
<stop offset="1" stop-color="#686868" stop-opacity="0"/>
<stop offset="1" stop-color="#3E3E3E" stop-opacity="0"/>
</linearGradient>
<linearGradient id="paint5_linear_7_172" x1="119.588" y1="48.7824" x2="87.4273" y2="17.9045" gradientUnits="userSpaceOnUse">
<stop offset="0.197917" stop-color="#F5AC87" stop-opacity="0.89"/>
<stop offset="0.960981" stop-color="#7B5FF3"/>
</linearGradient>
<linearGradient id="paint6_linear_7_172" x1="93.1339" y1="39.253" x2="111.529" y2="18.9611" gradientUnits="userSpaceOnUse">
<stop offset="0.197917" stop-color="#E8621C" stop-opacity="0.89"/>
<stop offset="0.960981" stop-color="#532CF6"/>
</linearGradient>
</defs>
</svg>
