<svg width="48" height="48" viewBox="0 0 48 48" fill="none" xmlns="http://www.w3.org/2000/svg">
<g style="mix-blend-mode:luminosity" opacity="0.7">
<path d="M8.00034 11.7818C8.00022 11.6547 8.00016 11.5911 8.02082 11.5363C8.03908 11.4879 8.06879 11.4447 8.10741 11.4103C8.15113 11.3714 8.21051 11.3487 8.32927 11.3032L27.7959 3.84973C29.2071 3.30939 29.9128 3.03922 30.478 3.16281C30.9724 3.27091 31.4047 3.56835 31.6825 3.99141C32 4.47505 32 5.23062 32 6.74176V20.5469C32 21.5313 32 22.0235 31.8344 22.4412C31.6882 22.8101 31.451 23.136 31.1451 23.3886C30.7985 23.6747 30.3302 23.8261 29.3935 24.129L12.9371 29.4499C11.2745 29.9875 10.4433 30.2562 9.78219 30.086C9.20339 29.937 8.703 29.5732 8.38262 29.0687C8.01668 28.4924 8.01583 27.6187 8.01412 25.8715L8.00034 11.7818Z" fill="url(#paint0_linear_65_2741)"/>
<path d="M8 17.9782C8 17.0579 8 16.5977 8.14843 16.1999C8.27957 15.8483 8.49289 15.5333 8.77057 15.281C9.08483 14.9954 9.51206 14.8245 10.3665 14.4827L25.1687 8.56183C26.1172 8.18242 26.5915 7.99272 26.9722 8.07184C27.3051 8.14102 27.5973 8.33882 27.7852 8.62223C28 8.94633 28 9.45711 28 10.4787V20.6306C28 21.6653 28 22.1826 27.8208 22.6152C27.6626 22.9969 27.4067 23.3302 27.0788 23.5816C26.7073 23.8665 26.2075 24.0002 25.2079 24.2675L12.7373 27.6025C11.1257 28.0335 10.3199 28.2489 9.6839 28.0603C9.1266 27.895 8.65021 27.5293 8.34655 27.0336C8 26.4679 8 25.6338 8 23.9656V17.9782Z" fill="url(#paint1_linear_65_2741)"/>
<mask id="mask0_65_2741" style="mask-type:alpha" maskUnits="userSpaceOnUse" x="8" y="3" width="24" height="28">
<path d="M8.00034 11.7818C8.00022 11.6547 8.00016 11.5911 8.02082 11.5363C8.03908 11.4879 8.06879 11.4447 8.10741 11.4103C8.15113 11.3714 8.21051 11.3487 8.32927 11.3032L27.7959 3.84973C29.2071 3.30939 29.9128 3.03922 30.478 3.16281C30.9724 3.27091 31.4047 3.56835 31.6825 3.99141C32 4.47505 32 5.23062 32 6.74176V20.5469C32 21.5313 32 22.0235 31.8344 22.4412C31.6882 22.8101 31.451 23.136 31.1451 23.3886C30.7985 23.6747 30.3302 23.8261 29.3935 24.129L12.9371 29.4499C11.2745 29.9875 10.4433 30.2562 9.78219 30.086C9.20339 29.937 8.703 29.5732 8.38262 29.0687C8.01668 28.4924 8.01583 27.6187 8.01412 25.8715L8.00034 11.7818Z" fill="url(#paint2_linear_65_2741)"/>
<path d="M8 17.9782C8 17.0579 8 16.5977 8.14843 16.1999C8.27957 15.8483 8.49289 15.5333 8.77057 15.281C9.08483 14.9954 9.51206 14.8245 10.3665 14.4827L25.1687 8.56183C26.1172 8.18242 26.5915 7.99272 26.9722 8.07184C27.3051 8.14102 27.5973 8.33882 27.7852 8.62223C28 8.94633 28 9.45711 28 10.4787V20.6306C28 21.6653 28 22.1826 27.8208 22.6152C27.6626 22.9969 27.4067 23.3302 27.0788 23.5816C26.7073 23.8665 26.2075 24.0002 25.2079 24.2675L12.7373 27.6025C11.1257 28.0335 10.3199 28.2489 9.6839 28.0603C9.1266 27.895 8.65021 27.5293 8.34655 27.0336C8 26.4679 8 25.6338 8 23.9656V17.9782Z" fill="url(#paint3_linear_65_2741)"/>
</mask>
<g mask="url(#mask0_65_2741)">
<rect x="8" y="1.59998" width="24" height="24" fill="url(#paint4_linear_65_2741)"/>
</g>
<path d="M8 12.1359C8 11.819 8 11.6605 8.06617 11.5552C8.12411 11.4629 8.21477 11.3959 8.31999 11.3677C8.44014 11.3354 8.59158 11.382 8.89447 11.4752L34.6019 19.3852C36.033 19.8255 36.7485 20.0457 37.2786 20.4746C37.7466 20.8532 38.11 21.3452 38.3342 21.9038C38.5882 22.5366 38.5882 23.2853 38.5882 24.7826V39.2577C38.5882 40.5877 38.5882 41.2527 38.3097 41.6877C38.0658 42.0685 37.6851 42.3412 37.2461 42.4495C36.7446 42.5732 36.115 42.3591 34.8558 41.931L12.8606 34.4526C11.112 33.8581 10.2377 33.5608 9.59166 33.0159C9.02112 32.5347 8.57984 31.9186 8.30792 31.2236C8 30.4365 8 29.5131 8 27.6661V12.1359Z" fill="url(#paint5_linear_65_2741)"/>
<path d="M8 16L28.2176 22.4322C29.1811 22.7388 29.6628 22.892 30.0191 23.1846C30.3336 23.4429 30.5773 23.777 30.7272 24.1554C30.897 24.5839 30.8958 25.0895 30.8934 26.1005L30.8595 40.5763C23.6839 38.1353 19.0422 36.5563 12.8609 34.4536C11.1118 33.8585 10.2372 33.561 9.59128 33.0162C9.02087 32.535 8.5797 31.9189 8.30784 31.2239C8 30.4369 8 29.5136 8 27.667V16Z" fill="url(#paint6_linear_65_2741)"/>
</g>
<defs>
<linearGradient id="paint0_linear_65_2741" x1="34.7692" y1="37.7831" x2="-1.93525" y2="5.75063" gradientUnits="userSpaceOnUse">
<stop offset="0.197917" stop-color="#F5AC87" stop-opacity="0.89"/>
<stop offset="0.960981" stop-color="#7B5FF3"/>
</linearGradient>
<linearGradient id="paint1_linear_65_2741" x1="7.06599" y1="26.7798" x2="26.6437" y2="4.92385" gradientUnits="userSpaceOnUse">
<stop offset="0.197917" stop-color="#E8621C" stop-opacity="0.89"/>
<stop offset="0.960981" stop-color="#532CF6"/>
</linearGradient>
<linearGradient id="paint2_linear_65_2741" x1="34.7692" y1="37.7831" x2="-1.93525" y2="5.75063" gradientUnits="userSpaceOnUse">
<stop offset="0.197917" stop-color="#B27757" stop-opacity="0.89"/>
<stop offset="0.960981" stop-color="#7B5FF3"/>
</linearGradient>
<linearGradient id="paint3_linear_65_2741" x1="7.06599" y1="26.7798" x2="26.6437" y2="4.92385" gradientUnits="userSpaceOnUse">
<stop offset="0.197917" stop-color="#FFC6A8" stop-opacity="0.89"/>
<stop offset="0.960981" stop-color="#9178F6"/>
</linearGradient>
<linearGradient id="paint4_linear_65_2741" x1="23.2" y1="24" x2="36.8" y2="-2.55362e-05" gradientUnits="userSpaceOnUse">
<stop stop-opacity="0.53"/>
<stop offset="1" stop-color="#686868" stop-opacity="0"/>
<stop offset="1" stop-color="#686868" stop-opacity="0"/>
<stop offset="1" stop-color="#3E3E3E" stop-opacity="0"/>
</linearGradient>
<linearGradient id="paint5_linear_65_2741" x1="42.1176" y1="52.3765" x2="-0.763554" y2="11.206" gradientUnits="userSpaceOnUse">
<stop offset="0.197917" stop-color="#F5AC87" stop-opacity="0.89"/>
<stop offset="0.960981" stop-color="#7B5FF3"/>
</linearGradient>
<linearGradient id="paint6_linear_65_2741" x1="6.84521" y1="39.6706" x2="31.3725" y2="12.6148" gradientUnits="userSpaceOnUse">
<stop offset="0.197917" stop-color="#E8621C" stop-opacity="0.89"/>
<stop offset="0.960981" stop-color="#532CF6"/>
</linearGradient>
</defs>
</svg>
