<svg width="452" height="221" viewBox="0 0 452 221" fill="none" xmlns="http://www.w3.org/2000/svg">
<rect x="0.5" y="1" width="451" height="211" rx="8.5" fill="url(#paint0_radial_69_5781)"/>
<rect x="0.5" y="1" width="451" height="211" rx="8.5" stroke="#F5F5F5"/>
<path d="M121 98.8364C121 98.741 121 98.6933 121.016 98.6523C121.029 98.616 121.052 98.5835 121.081 98.5578C121.113 98.5286 121.158 98.5115 121.247 98.4774L135.847 92.8873C136.905 92.4821 137.435 92.2794 137.858 92.3721C138.229 92.4532 138.554 92.6763 138.762 92.9936C139 93.3563 139 93.923 139 95.0563V105.41C139 106.148 139 106.518 138.876 106.831C138.766 107.108 138.588 107.352 138.359 107.541C138.099 107.756 137.748 107.87 137.045 108.097L124.703 112.087C123.456 112.491 122.832 112.692 122.337 112.565C121.903 112.453 121.527 112.18 121.287 111.802C121.013 111.369 121.012 110.714 121.011 109.404L121 98.8364Z" fill="url(#paint1_linear_69_5781)"/>
<path d="M121 103.484C121 102.793 121 102.448 121.111 102.15C121.21 101.886 121.37 101.65 121.578 101.461C121.814 101.247 122.134 101.118 122.775 100.862L133.877 96.4213C134.588 96.1368 134.944 95.9945 135.229 96.0538C135.479 96.1057 135.698 96.2541 135.839 96.4666C136 96.7097 136 97.0928 136 97.859V105.473C136 106.249 136 106.637 135.866 106.961C135.747 107.248 135.555 107.498 135.309 107.686C135.03 107.9 134.656 108 133.906 108.201L124.553 110.702C123.344 111.025 122.74 111.187 122.263 111.045C121.845 110.921 121.488 110.647 121.26 110.275C121 109.851 121 109.225 121 107.974V103.484Z" fill="url(#paint2_linear_69_5781)"/>
<mask id="mask0_69_5781" style="mask-type:alpha" maskUnits="userSpaceOnUse" x="121" y="92" width="18" height="21">
<path d="M121 98.8364C121 98.741 121 98.6933 121.016 98.6523C121.029 98.616 121.052 98.5835 121.081 98.5578C121.113 98.5286 121.158 98.5115 121.247 98.4774L135.847 92.8873C136.905 92.4821 137.435 92.2794 137.858 92.3721C138.229 92.4532 138.554 92.6763 138.762 92.9936C139 93.3563 139 93.923 139 95.0563V105.41C139 106.148 139 106.518 138.876 106.831C138.766 107.108 138.588 107.352 138.359 107.541C138.099 107.756 137.748 107.87 137.045 108.097L124.703 112.087C123.456 112.491 122.832 112.692 122.337 112.565C121.903 112.453 121.527 112.18 121.287 111.802C121.013 111.369 121.012 110.714 121.011 109.404L121 98.8364Z" fill="url(#paint3_linear_69_5781)"/>
<path d="M121 103.484C121 102.793 121 102.448 121.111 102.15C121.21 101.886 121.37 101.65 121.578 101.461C121.814 101.247 122.134 101.118 122.775 100.862L133.877 96.4213C134.588 96.1368 134.944 95.9945 135.229 96.0538C135.479 96.1057 135.698 96.2541 135.839 96.4666C136 96.7097 136 97.0928 136 97.859V105.473C136 106.249 136 106.637 135.866 106.961C135.747 107.248 135.555 107.498 135.309 107.686C135.03 107.9 134.656 108 133.906 108.201L124.553 110.702C123.344 111.025 122.74 111.187 122.263 111.045C121.845 110.921 121.488 110.647 121.26 110.275C121 109.851 121 109.225 121 107.974V103.484Z" fill="url(#paint4_linear_69_5781)"/>
</mask>
<g mask="url(#mask0_69_5781)">
<rect x="121" y="91.2" width="18" height="18" fill="url(#paint5_linear_69_5781)"/>
</g>
<path d="M121 99.1019C121 98.8642 121 98.7454 121.05 98.6664C121.093 98.5972 121.161 98.547 121.24 98.5258C121.33 98.5016 121.444 98.5365 121.671 98.6064L140.951 104.539C142.025 104.869 142.561 105.034 142.959 105.356C143.31 105.64 143.583 106.009 143.751 106.428C143.941 106.902 143.941 107.464 143.941 108.587V119.443C143.941 120.441 143.941 120.94 143.732 121.266C143.549 121.551 143.264 121.756 142.935 121.837C142.558 121.93 142.086 121.769 141.142 121.448L124.645 115.839C123.334 115.394 122.678 115.171 122.194 114.762C121.766 114.401 121.435 113.939 121.231 113.418C121 112.827 121 112.135 121 110.75V99.1019Z" fill="url(#paint6_linear_69_5781)"/>
<path d="M121 102L136.163 106.824C136.886 107.054 137.247 107.169 137.514 107.388C137.75 107.582 137.933 107.833 138.045 108.117C138.173 108.438 138.172 108.817 138.17 109.575L138.145 120.432C132.763 118.601 129.282 117.417 124.646 115.84C123.334 115.394 122.678 115.171 122.193 114.762C121.766 114.401 121.435 113.939 121.231 113.418C121 112.828 121 112.135 121 110.75V102Z" fill="url(#paint7_linear_69_5781)"/>
<rect x="330" y="87" width="16" height="16" fill="white" fill-opacity="0.3"/>
<path d="M165.509 106.254H163.649C163.435 105.036 162.466 104.335 161.228 104.335C159.562 104.335 158.389 105.612 158.389 107.909C158.389 110.246 159.572 111.484 161.223 111.484C162.441 111.484 163.415 110.812 163.649 109.619L165.509 109.629C165.225 111.573 163.619 113.139 161.198 113.139C158.513 113.139 156.535 111.195 156.535 107.909C156.535 104.618 158.538 102.679 161.198 102.679C163.455 102.679 165.195 103.991 165.509 106.254ZM167.118 113V105.364H168.863V106.636H168.943C169.221 105.751 169.952 105.254 170.827 105.254C171.026 105.254 171.309 105.274 171.473 105.304V106.96C171.319 106.91 170.941 106.855 170.638 106.855C169.649 106.855 168.918 107.541 168.918 108.511V113H167.118ZM175.735 113.149C173.433 113.149 172.026 111.623 172.026 109.227C172.026 106.87 173.453 105.264 175.641 105.264C177.52 105.264 179.131 106.442 179.131 109.122V109.674H173.811C173.826 110.982 174.597 111.747 175.76 111.747C176.536 111.747 177.132 111.409 177.376 110.763L179.056 110.952C178.738 112.279 177.515 113.149 175.735 113.149ZM173.816 108.461H177.406C177.396 107.422 176.7 106.666 175.665 106.666C174.592 106.666 173.871 107.487 173.816 108.461ZM182.851 113.154C181.394 113.154 180.295 112.359 180.295 110.857C180.295 109.137 181.712 108.695 183.194 108.536C184.541 108.391 185.083 108.366 185.083 107.849V107.82C185.083 107.069 184.626 106.641 183.79 106.641C182.91 106.641 182.403 107.089 182.224 107.611L180.544 107.372C180.942 105.98 182.175 105.264 183.78 105.264C185.237 105.264 186.883 105.871 186.883 107.889V113H185.153V111.951H185.093C184.765 112.592 184.049 113.154 182.851 113.154ZM183.318 111.832C184.402 111.832 185.088 111.111 185.088 110.261V109.361C184.854 109.55 183.91 109.669 183.437 109.734C182.632 109.848 182.03 110.136 182.03 110.827C182.03 111.489 182.567 111.832 183.318 111.832ZM192.506 105.364V106.756H190.999V110.703C190.999 111.429 191.362 111.588 191.814 111.588C192.038 111.588 192.242 111.543 192.341 111.518L192.645 112.925C192.451 112.99 192.098 113.089 191.586 113.104C190.233 113.144 189.189 112.438 189.199 111.001V106.756H188.116V105.364H189.199V103.534H190.999V105.364H192.506ZM194.011 113V105.364H195.81V113H194.011ZM194.915 104.28C194.339 104.28 193.871 103.842 193.871 103.305C193.871 102.763 194.339 102.326 194.915 102.326C195.487 102.326 195.955 102.763 195.955 103.305C195.955 103.842 195.487 104.28 194.915 104.28ZM199.461 108.526V113H197.661V105.364H199.381V106.661H199.471C199.819 105.811 200.604 105.264 201.748 105.264C203.324 105.264 204.368 106.308 204.363 108.138V113H202.563V108.416C202.563 107.397 202.006 106.786 201.077 106.786C200.127 106.786 199.461 107.422 199.461 108.526ZM209.513 116.023C207.569 116.023 206.471 115.163 206.143 114.094L207.763 113.701C207.982 114.148 208.459 114.661 209.543 114.661C210.567 114.661 211.313 114.198 211.313 113.075V111.628H211.224C210.945 112.19 210.334 112.891 209.026 112.891C207.266 112.891 205.879 111.648 205.879 109.157C205.879 106.646 207.266 105.264 209.031 105.264C210.378 105.264 210.95 106.075 211.224 106.626H211.323V105.364H213.098V113.124C213.098 115.078 211.577 116.023 209.513 116.023ZM209.528 111.479C210.677 111.479 211.323 110.604 211.323 109.147C211.323 107.7 210.687 106.741 209.528 106.741C208.33 106.741 207.714 107.76 207.714 109.147C207.714 110.554 208.34 111.479 209.528 111.479ZM219.534 115.864C219.041 115.864 218.604 115.774 218.36 115.675L218.778 114.273C219.563 114.501 220.09 114.442 220.423 113.572L220.578 113.159L217.808 105.364H219.718L221.477 111.131H221.557L223.322 105.364H225.236L222.178 113.925C221.746 115.143 220.936 115.864 219.534 115.864ZM229.553 113.149C227.315 113.149 225.893 111.573 225.893 109.212C225.893 106.845 227.315 105.264 229.553 105.264C231.79 105.264 233.212 106.845 233.212 109.212C233.212 111.573 231.79 113.149 229.553 113.149ZM229.562 111.707C230.781 111.707 231.387 110.604 231.387 109.207C231.387 107.81 230.781 106.691 229.562 106.691C228.325 106.691 227.718 107.81 227.718 109.207C227.718 110.604 228.325 111.707 229.562 111.707ZM239.606 109.788V105.364H241.406V113H239.661V111.643H239.581C239.233 112.498 238.428 113.099 237.285 113.099C235.783 113.099 234.739 112.06 234.739 110.226V105.364H236.539V109.947C236.539 110.917 237.116 111.528 237.981 111.528C238.776 111.528 239.606 110.952 239.606 109.788ZM243.257 113V105.364H245.002V106.636H245.081C245.36 105.751 246.091 105.254 246.966 105.254C247.164 105.254 247.448 105.274 247.612 105.304V106.96C247.458 106.91 247.08 106.855 246.777 106.855C245.787 106.855 245.056 107.541 245.056 108.511V113H243.257ZM253.856 113L251.699 105.364H253.533L254.875 110.733H254.945L256.317 105.364H258.132L259.504 110.703H259.578L260.901 105.364H262.74L260.578 113H258.703L257.272 107.839H257.167L255.735 113H253.856ZM266.194 113.154C264.738 113.154 263.639 112.359 263.639 110.857C263.639 109.137 265.056 108.695 266.537 108.536C267.885 108.391 268.427 108.366 268.427 107.849V107.82C268.427 107.069 267.969 106.641 267.134 106.641C266.254 106.641 265.747 107.089 265.568 107.611L263.888 107.372C264.285 105.98 265.518 105.264 267.124 105.264C268.581 105.264 270.226 105.871 270.226 107.889V113H268.496V111.951H268.437C268.108 112.592 267.393 113.154 266.194 113.154ZM266.662 111.832C267.746 111.832 268.432 111.111 268.432 110.261V109.361C268.198 109.55 267.253 109.669 266.781 109.734C265.976 109.848 265.374 110.136 265.374 110.827C265.374 111.489 265.911 111.832 266.662 111.832ZM273.836 102.818V113H272.036V102.818H273.836ZM277.486 102.818V113H275.686V102.818H277.486ZM282.718 113.149C280.416 113.149 279.009 111.623 279.009 109.227C279.009 106.87 280.436 105.264 282.623 105.264C284.502 105.264 286.113 106.442 286.113 109.122V109.674H280.794C280.808 110.982 281.579 111.747 282.742 111.747C283.518 111.747 284.115 111.409 284.358 110.763L286.039 110.952C285.72 112.279 284.497 113.149 282.718 113.149ZM280.798 108.461H284.388C284.378 107.422 283.682 106.666 282.648 106.666C281.574 106.666 280.853 107.487 280.798 108.461ZM291.449 105.364V106.756H289.942V110.703C289.942 111.429 290.305 111.588 290.758 111.588C290.982 111.588 291.185 111.543 291.285 111.518L291.588 112.925C291.394 112.99 291.041 113.089 290.529 113.104C289.177 113.144 288.133 112.438 288.143 111.001V106.756H287.059V105.364H288.143V103.534H289.942V105.364H291.449ZM294.063 113.109C293.456 113.109 292.964 112.622 292.969 112.016C292.964 111.419 293.456 110.932 294.063 110.932C294.649 110.932 295.151 111.419 295.156 112.016C295.151 112.622 294.649 113.109 294.063 113.109ZM298.123 113.109C297.517 113.109 297.025 112.622 297.029 112.016C297.025 111.419 297.517 110.932 298.123 110.932C298.71 110.932 299.212 111.419 299.217 112.016C299.212 112.622 298.71 113.109 298.123 113.109ZM302.184 113.109C301.577 113.109 301.085 112.622 301.09 112.016C301.085 111.419 301.577 110.932 302.184 110.932C302.77 110.932 303.273 111.419 303.278 112.016C303.273 112.622 302.77 113.109 302.184 113.109Z" fill="#FFFDFD"/>
<rect x="306" y="166" width="16" height="16" fill="white" fill-opacity="0.7"/>
<rect x="425" y="190" width="16" height="16" fill="white" fill-opacity="0.8"/>
<rect x="154" y="150" width="16" height="16" fill="white" fill-opacity="0.6"/>
<rect x="71" y="16.5" width="16" height="16" fill="white" fill-opacity="0.7"/>
<rect x="266" y="37.5" width="16" height="16" fill="white" fill-opacity="0.5"/>
<rect x="54" y="115.5" width="16" height="16" fill="white" fill-opacity="0.7"/>
<rect x="300" y="15.5" width="13" height="13" fill="white" fill-opacity="0.1"/>
<rect x="383" y="61.5" width="11" height="11" fill="white" fill-opacity="0.1"/>
<rect x="341" y="135" width="11" height="11" fill="white" fill-opacity="0.1"/>
<rect x="45" y="150" width="11" height="11" fill="white" fill-opacity="0.1"/>
<rect x="425" y="74.5" width="16" height="16" fill="white" fill-opacity="0.3"/>
<rect x="218" y="123.5" width="16" height="16" fill="white" fill-opacity="0.1"/>
<rect x="366" y="86.5" width="11" height="11" fill="white" fill-opacity="0.1"/>
<rect x="43" y="32.5" width="11" height="11" fill="white" fill-opacity="0.1"/>
<rect x="3" y="49.5" width="16" height="16" fill="white" fill-opacity="0.3"/>
<rect x="73" y="82.5" width="13" height="13" fill="white" fill-opacity="0.3"/>
<rect x="202" y="68" width="13" height="13" fill="white" fill-opacity="0.3"/>
<rect x="104" y="7.5" width="16" height="16" fill="white" fill-opacity="0.1"/>
<rect x="202" y="29.5" width="16" height="16" fill="white" fill-opacity="0.1"/>
<rect x="392" y="16.5" width="16" height="16" fill="white"/>
<rect x="13" y="16.5" width="16" height="16" fill="white" fill-opacity="0.1"/>
<rect x="10" y="110.5" width="9" height="9" fill="white" fill-opacity="0.1"/>
<rect x="239" y="173" width="9" height="9" fill="white" fill-opacity="0.1"/>
<rect x="144" y="30.5" width="10" height="10" fill="white" fill-opacity="0.1"/>
<rect x="231" y="0.5" width="16" height="16" fill="white" fill-opacity="0.1"/>
<rect x="112" y="133.5" width="16" height="16" fill="white" fill-opacity="0.1"/>
<rect x="125" y="190" width="16" height="16" fill="white" fill-opacity="0.1"/>
<rect x="409" y="116" width="16" height="16" fill="white" fill-opacity="0.1"/>
<rect x="367" y="189.5" width="16" height="16" fill="white" fill-opacity="0.1"/>
<rect x="71" y="204.5" width="16" height="16" fill="white" fill-opacity="0.1"/>
<rect x="425" y="12.5" width="16" height="16" fill="white" fill-opacity="0.1"/>
<defs>
<radialGradient id="paint0_radial_69_5781" cx="0" cy="0" r="1" gradientUnits="userSpaceOnUse" gradientTransform="translate(-47 362.486) rotate(-33.4389) scale(782.529 914.664)">
<stop stop-color="#6D4AFF"/>
<stop offset="0.374344" stop-color="#100635"/>
<stop offset="1" stop-color="#D45A25"/>
</radialGradient>
<linearGradient id="paint1_linear_69_5781" x1="141.077" y1="118.337" x2="113.549" y2="94.313" gradientUnits="userSpaceOnUse">
<stop offset="0.197917" stop-color="#F5AC87" stop-opacity="0.89"/>
<stop offset="0.960981" stop-color="#7B5FF3"/>
</linearGradient>
<linearGradient id="paint2_linear_69_5781" x1="120.299" y1="110.085" x2="134.983" y2="93.6929" gradientUnits="userSpaceOnUse">
<stop offset="0.197917" stop-color="#E8621C" stop-opacity="0.89"/>
<stop offset="0.960981" stop-color="#532CF6"/>
</linearGradient>
<linearGradient id="paint3_linear_69_5781" x1="141.077" y1="118.337" x2="113.549" y2="94.313" gradientUnits="userSpaceOnUse">
<stop offset="0.197917" stop-color="#B27757" stop-opacity="0.89"/>
<stop offset="0.960981" stop-color="#7B5FF3"/>
</linearGradient>
<linearGradient id="paint4_linear_69_5781" x1="120.299" y1="110.085" x2="134.983" y2="93.6929" gradientUnits="userSpaceOnUse">
<stop offset="0.197917" stop-color="#FFC6A8" stop-opacity="0.89"/>
<stop offset="0.960981" stop-color="#9178F6"/>
</linearGradient>
<linearGradient id="paint5_linear_69_5781" x1="132.4" y1="108" x2="142.6" y2="90" gradientUnits="userSpaceOnUse">
<stop stop-opacity="0.53"/>
<stop offset="1" stop-color="#686868" stop-opacity="0"/>
<stop offset="1" stop-color="#686868" stop-opacity="0"/>
<stop offset="1" stop-color="#3E3E3E" stop-opacity="0"/>
</linearGradient>
<linearGradient id="paint6_linear_69_5781" x1="146.588" y1="129.282" x2="114.427" y2="98.4045" gradientUnits="userSpaceOnUse">
<stop offset="0.197917" stop-color="#F5AC87" stop-opacity="0.89"/>
<stop offset="0.960981" stop-color="#7B5FF3"/>
</linearGradient>
<linearGradient id="paint7_linear_69_5781" x1="120.134" y1="119.753" x2="138.529" y2="99.4611" gradientUnits="userSpaceOnUse">
<stop offset="0.197917" stop-color="#E8621C" stop-opacity="0.89"/>
<stop offset="0.960981" stop-color="#532CF6"/>
</linearGradient>
</defs>
</svg>
