<svg width="452" height="213" viewBox="0 0 452 213" fill="none" xmlns="http://www.w3.org/2000/svg">
<rect x="0.5" y="1" width="451" height="211" rx="8.5" fill="url(#paint0_radial_69_6159)"/>
<rect x="0.5" y="1" width="451" height="211" rx="8.5" stroke="#F5F5F5"/>
<path d="M30.3352 184.222C27.5284 184.222 25.8523 182.006 25.8523 178.193C25.858 174.392 27.5398 172.205 30.3352 172.205C33.1307 172.205 34.8182 174.398 34.8182 178.193C34.8182 182.011 33.142 184.227 30.3352 184.222ZM30.3352 182.443C31.7898 182.443 32.6932 180.989 32.6932 178.193C32.6875 175.42 31.7841 173.96 30.3352 173.96C28.892 173.96 27.9886 175.42 27.983 178.193C27.9773 180.989 28.8864 182.443 30.3352 182.443ZM40.7884 184V172.364H45.2429C47.7656 172.364 49.0156 173.648 49.0156 175.381C49.0156 176.795 48.1179 177.591 46.9815 177.858V177.972C48.2202 178.034 49.4702 179.068 49.4702 180.83C49.4702 182.642 48.1634 184 45.4986 184H40.7884ZM42.8963 182.239H45.1634C46.6918 182.239 47.3281 181.591 47.3281 180.665C47.3281 179.625 46.5213 178.83 45.2202 178.83H42.8963V182.239ZM42.8963 177.312H44.9815C46.0781 177.312 46.9077 176.676 46.9077 175.653C46.9077 174.756 46.2656 174.102 45.027 174.102H42.8963V177.312ZM50.7926 174.131V172.364H60.0767V174.131H56.4801V184H54.3892V174.131H50.7926ZM71.3267 176.29H69.2017C68.9574 174.898 67.8494 174.097 66.4347 174.097C64.5312 174.097 63.1903 175.557 63.1903 178.182C63.1903 180.852 64.5426 182.267 66.429 182.267C67.821 182.267 68.9347 181.5 69.2017 180.136L71.3267 180.148C71.0028 182.369 69.1676 184.159 66.4006 184.159C63.3324 184.159 61.071 181.938 61.071 178.182C61.071 174.42 63.3608 172.205 66.4006 172.205C68.9801 172.205 70.9688 173.705 71.3267 176.29Z" fill="#FFFDFD"/>
<g style="mix-blend-mode:luminosity" opacity="0.7">
<path d="M28.0003 32.7818C28.0002 32.6547 28.0002 32.5911 28.0208 32.5363C28.0391 32.4879 28.0688 32.4447 28.1074 32.4103C28.1511 32.3714 28.2105 32.3487 28.3293 32.3032L47.7959 24.8497C49.2071 24.3094 49.9128 24.0392 50.478 24.1628C50.9724 24.2709 51.4047 24.5684 51.6825 24.9914C52 25.4751 52 26.2306 52 27.7418V41.5469C52 42.5313 52 43.0235 51.8344 43.4412C51.6882 43.8101 51.451 44.136 51.1451 44.3886C50.7985 44.6747 50.3302 44.8261 49.3935 45.129L32.9371 50.4499C31.2745 50.9875 30.4433 51.2562 29.7822 51.086C29.2034 50.937 28.703 50.5732 28.3826 50.0687C28.0167 49.4924 28.0158 48.6187 28.0141 46.8715L28.0003 32.7818Z" fill="url(#paint1_linear_69_6159)"/>
<path d="M28 38.9782C28 38.0579 28 37.5977 28.1484 37.1999C28.2796 36.8483 28.4929 36.5333 28.7706 36.281C29.0848 35.9954 29.5121 35.8245 30.3665 35.4827L45.1687 29.5618C46.1172 29.1824 46.5915 28.9927 46.9722 29.0718C47.3051 29.141 47.5973 29.3388 47.7852 29.6222C48 29.9463 48 30.4571 48 31.4787V41.6306C48 42.6653 48 43.1826 47.8208 43.6152C47.6626 43.9969 47.4067 44.3302 47.0788 44.5816C46.7073 44.8665 46.2075 45.0002 45.2079 45.2675L32.7373 48.6025C31.1257 49.0335 30.3199 49.2489 29.6839 49.0603C29.1266 48.895 28.6502 48.5293 28.3465 48.0336C28 47.4679 28 46.6338 28 44.9656V38.9782Z" fill="url(#paint2_linear_69_6159)"/>
<mask id="mask0_69_6159" style="mask-type:alpha" maskUnits="userSpaceOnUse" x="28" y="24" width="24" height="28">
<path d="M28.0003 32.7818C28.0002 32.6547 28.0002 32.5911 28.0208 32.5363C28.0391 32.4879 28.0688 32.4447 28.1074 32.4103C28.1511 32.3714 28.2105 32.3487 28.3293 32.3032L47.7959 24.8497C49.2071 24.3094 49.9128 24.0392 50.478 24.1628C50.9724 24.2709 51.4047 24.5684 51.6825 24.9914C52 25.4751 52 26.2306 52 27.7418V41.5469C52 42.5313 52 43.0235 51.8344 43.4412C51.6882 43.8101 51.451 44.136 51.1451 44.3886C50.7985 44.6747 50.3302 44.8261 49.3935 45.129L32.9371 50.4499C31.2745 50.9875 30.4433 51.2562 29.7822 51.086C29.2034 50.937 28.703 50.5732 28.3826 50.0687C28.0167 49.4924 28.0158 48.6187 28.0141 46.8715L28.0003 32.7818Z" fill="url(#paint3_linear_69_6159)"/>
<path d="M28 38.9782C28 38.0579 28 37.5977 28.1484 37.1999C28.2796 36.8483 28.4929 36.5333 28.7706 36.281C29.0848 35.9954 29.5121 35.8245 30.3665 35.4827L45.1687 29.5618C46.1172 29.1824 46.5915 28.9927 46.9722 29.0718C47.3051 29.141 47.5973 29.3388 47.7852 29.6222C48 29.9463 48 30.4571 48 31.4787V41.6306C48 42.6653 48 43.1826 47.8208 43.6152C47.6626 43.9969 47.4067 44.3302 47.0788 44.5816C46.7073 44.8665 46.2075 45.0002 45.2079 45.2675L32.7373 48.6025C31.1257 49.0335 30.3199 49.2489 29.6839 49.0603C29.1266 48.895 28.6502 48.5293 28.3465 48.0336C28 47.4679 28 46.6338 28 44.9656V38.9782Z" fill="url(#paint4_linear_69_6159)"/>
</mask>
<g mask="url(#mask0_69_6159)">
<rect x="28" y="22.6" width="24" height="24" fill="url(#paint5_linear_69_6159)"/>
</g>
<path d="M28 33.1359C28 32.819 28 32.6605 28.0662 32.5552C28.1241 32.4629 28.2148 32.3959 28.32 32.3677C28.4401 32.3354 28.5916 32.382 28.8945 32.4752L54.6019 40.3852C56.033 40.8255 56.7485 41.0457 57.2786 41.4746C57.7466 41.8532 58.11 42.3452 58.3342 42.9038C58.5882 43.5366 58.5882 44.2853 58.5882 45.7826V60.2577C58.5882 61.5877 58.5882 62.2527 58.3097 62.6877C58.0658 63.0685 57.6851 63.3412 57.2461 63.4495C56.7446 63.5732 56.115 63.3591 54.8558 62.931L32.8606 55.4526C31.112 54.8581 30.2377 54.5608 29.5917 54.0159C29.0211 53.5347 28.5798 52.9186 28.3079 52.2236C28 51.4365 28 50.5131 28 48.6661V33.1359Z" fill="url(#paint6_linear_69_6159)"/>
<path d="M28 37L48.2176 43.4322C49.1811 43.7388 49.6628 43.892 50.0191 44.1846C50.3336 44.4429 50.5773 44.777 50.7272 45.1554C50.897 45.5839 50.8958 46.0895 50.8934 47.1005L50.8595 61.5763C43.6839 59.1353 39.0422 57.5563 32.8609 55.4536C31.1118 54.8585 30.2372 54.561 29.5913 54.0162C29.0209 53.535 28.5797 52.9189 28.3078 52.2239C28 51.4369 28 50.5136 28 48.667V37Z" fill="url(#paint7_linear_69_6159)"/>
</g>
<path d="M304.491 184V172.364H306.548V176.716H306.634C306.946 176.085 307.588 175.159 309.128 175.159C311.145 175.159 312.73 176.739 312.73 179.648C312.73 182.523 311.19 184.153 309.134 184.153C307.634 184.153 306.957 183.261 306.634 182.625H306.514V184H304.491ZM306.509 179.636C306.509 181.33 307.247 182.466 308.56 182.466C309.918 182.466 310.634 181.273 310.634 179.636C310.634 178.011 309.929 176.847 308.56 176.847C307.236 176.847 306.509 177.943 306.509 179.636ZM318.286 184.17C315.678 184.17 314.104 182.312 314.104 179.67C314.104 177.006 315.717 175.159 318.274 175.159C320.405 175.159 321.882 176.403 322.024 178.295H320.058C319.899 177.455 319.291 176.818 318.303 176.818C317.036 176.818 316.189 177.875 316.189 179.636C316.189 181.42 317.018 182.494 318.303 182.494C319.206 182.494 319.882 181.955 320.058 181.017H322.024C321.876 182.869 320.479 184.17 318.286 184.17ZM328.423 172.364V184H326.315V174.415H326.247L323.526 176.153V174.222L326.418 172.364H328.423ZM331.401 187.273V175.273H333.423V176.716H333.543C333.855 176.085 334.497 175.159 336.037 175.159C338.054 175.159 339.639 176.739 339.639 179.648C339.639 182.523 338.099 184.153 336.043 184.153C334.543 184.153 333.866 183.261 333.543 182.625H333.457V187.273H331.401ZM333.418 179.636C333.418 181.33 334.156 182.466 335.469 182.466C336.827 182.466 337.543 181.273 337.543 179.636C337.543 178.011 336.838 176.847 335.469 176.847C334.145 176.847 333.418 177.943 333.418 179.636ZM345.423 184.159C343.151 184.159 341.463 182.767 341.406 180.835H343.452C343.526 181.79 344.372 182.455 345.423 182.455C346.668 182.455 347.565 181.528 347.56 180.227C347.565 178.909 346.645 177.966 345.366 177.96C344.668 177.955 343.929 178.244 343.537 178.676L341.634 178.364L342.241 172.364H348.991V174.125H343.986L343.651 177.21H343.719C344.151 176.699 344.986 176.324 345.929 176.324C348.043 176.324 349.599 177.938 349.599 180.176C349.599 182.489 347.884 184.159 345.423 184.159ZM351.293 181.841V180.165L356.23 172.364H358.855V180.108H360.344V181.841H358.855V184H356.844V181.841H351.293ZM356.866 180.108V174.75H356.776L353.452 180.017V180.108H356.866ZM364.778 178.909L364.909 176.608L362.977 177.875L362.284 176.67L364.347 175.636L362.284 174.602L362.977 173.398L364.909 174.665L364.778 172.364H366.159L366.034 174.665L367.966 173.398L368.659 174.602L366.591 175.636L368.659 176.67L367.966 177.875L366.034 176.608L366.159 178.909H364.778ZM373.466 178.909L373.597 176.608L371.665 177.875L370.972 176.67L373.034 175.636L370.972 174.602L371.665 173.398L373.597 174.665L373.466 172.364H374.847L374.722 174.665L376.653 173.398L377.347 174.602L375.278 175.636L377.347 176.67L376.653 177.875L374.722 176.608L374.847 178.909H373.466ZM382.153 178.909L382.284 176.608L380.352 177.875L379.659 176.67L381.722 175.636L379.659 174.602L380.352 173.398L382.284 174.665L382.153 172.364H383.534L383.409 174.665L385.341 173.398L386.034 174.602L383.966 175.636L386.034 176.67L385.341 177.875L383.409 176.608L383.534 178.909H382.153ZM392.398 184.159C389.943 184.159 388.188 182.801 388.131 180.835H390.267C390.318 181.784 391.222 182.392 392.392 182.392C393.636 182.392 394.528 181.688 394.523 180.659C394.528 179.608 393.653 178.869 392.182 178.869H391.153V177.244H392.182C393.386 177.244 394.227 176.568 394.222 175.551C394.227 174.574 393.506 173.915 392.42 173.915C391.347 173.915 390.438 174.523 390.403 175.5H388.375C388.42 173.551 390.17 172.205 392.432 172.205C394.756 172.205 396.267 173.653 396.261 175.426C396.267 176.733 395.42 177.67 394.159 177.943V178.034C395.79 178.267 396.699 179.312 396.693 180.767C396.699 182.733 394.886 184.159 392.398 184.159ZM398.643 184V182.477L402.683 178.517C403.831 177.352 404.422 176.659 404.422 175.688C404.422 174.591 403.598 173.915 402.49 173.915C401.331 173.915 400.581 174.659 400.581 175.847H398.575C398.575 173.636 400.212 172.205 402.518 172.205C404.859 172.205 406.445 173.631 406.445 175.58C406.445 176.892 405.82 177.949 403.558 180.119L401.553 182.159V182.239H406.621V184H398.643ZM412.621 172.205C414.854 172.216 417.058 173.585 417.064 177.824C417.07 181.83 415.291 184.159 412.501 184.159C410.297 184.159 408.774 182.756 408.536 180.83H410.609C410.82 181.756 411.496 182.335 412.501 182.335C414.109 182.335 415.013 180.852 415.018 178.364H414.939C414.376 179.364 413.286 179.972 412.03 179.972C409.99 179.972 408.428 178.386 408.422 176.193C408.422 173.92 410.098 172.188 412.621 172.205ZM412.626 173.909C411.393 173.909 410.467 174.898 410.467 176.148C410.473 177.392 411.365 178.369 412.604 178.369C413.831 178.369 414.791 177.335 414.786 176.131C414.786 174.943 413.871 173.909 412.626 173.909ZM419.07 184L424.018 174.205V174.125H418.274V172.364H426.2V174.165L421.257 184H419.07Z" fill="#FFFDFD"/>
<path d="M326.237 160V148.364H330.305C331.116 148.364 331.785 148.504 332.311 148.784C332.838 149.061 333.23 149.434 333.487 149.903C333.745 150.369 333.874 150.886 333.874 151.455C333.874 151.955 333.785 152.367 333.607 152.693C333.432 153.019 333.201 153.277 332.913 153.466C332.629 153.655 332.321 153.795 331.987 153.886V154C332.343 154.023 332.701 154.148 333.061 154.375C333.421 154.602 333.722 154.928 333.964 155.352C334.207 155.777 334.328 156.295 334.328 156.909C334.328 157.492 334.196 158.017 333.93 158.483C333.665 158.949 333.247 159.318 332.675 159.591C332.103 159.864 331.358 160 330.442 160H326.237ZM327.646 158.75H330.442C331.362 158.75 332.016 158.572 332.402 158.216C332.792 157.856 332.987 157.42 332.987 156.909C332.987 156.515 332.887 156.152 332.686 155.818C332.485 155.481 332.199 155.212 331.828 155.011C331.457 154.807 331.018 154.705 330.51 154.705H327.646V158.75ZM327.646 153.477H330.26C330.684 153.477 331.067 153.394 331.408 153.227C331.752 153.061 332.025 152.826 332.226 152.523C332.43 152.22 332.533 151.864 332.533 151.455C332.533 150.943 332.355 150.509 331.999 150.153C331.643 149.794 331.078 149.614 330.305 149.614H327.646V153.477ZM336.462 160V151.273H337.803V160H336.462ZM337.143 149.818C336.882 149.818 336.657 149.729 336.467 149.551C336.282 149.373 336.189 149.159 336.189 148.909C336.189 148.659 336.282 148.445 336.467 148.267C336.657 148.089 336.882 148 337.143 148C337.405 148 337.628 148.089 337.814 148.267C338.003 148.445 338.098 148.659 338.098 148.909C338.098 149.159 338.003 149.373 337.814 149.551C337.628 149.729 337.405 149.818 337.143 149.818ZM344.054 151.273V152.409H339.531V151.273H344.054ZM340.849 149.182H342.19V157.5C342.19 157.879 342.245 158.163 342.355 158.352C342.469 158.538 342.613 158.663 342.787 158.727C342.965 158.788 343.152 158.818 343.349 158.818C343.497 158.818 343.618 158.811 343.713 158.795C343.808 158.777 343.884 158.761 343.94 158.75L344.213 159.955C344.122 159.989 343.995 160.023 343.832 160.057C343.67 160.095 343.463 160.114 343.213 160.114C342.834 160.114 342.463 160.032 342.099 159.869C341.74 159.706 341.44 159.458 341.202 159.125C340.967 158.792 340.849 158.371 340.849 157.864V149.182ZM349.523 160.182C348.705 160.182 348 159.989 347.409 159.602C346.818 159.216 346.364 158.684 346.045 158.006C345.727 157.328 345.568 156.553 345.568 155.682C345.568 154.795 345.731 154.013 346.057 153.335C346.386 152.653 346.845 152.121 347.432 151.739C348.023 151.352 348.712 151.159 349.5 151.159C350.114 151.159 350.667 151.273 351.159 151.5C351.652 151.727 352.055 152.045 352.369 152.455C352.684 152.864 352.879 153.341 352.955 153.886H351.614C351.511 153.489 351.284 153.136 350.932 152.83C350.583 152.519 350.114 152.364 349.523 152.364C349 152.364 348.542 152.5 348.148 152.773C347.758 153.042 347.453 153.422 347.233 153.915C347.017 154.403 346.909 154.977 346.909 155.636C346.909 156.311 347.015 156.898 347.227 157.398C347.443 157.898 347.746 158.286 348.136 158.562C348.53 158.839 348.992 158.977 349.523 158.977C349.871 158.977 350.188 158.917 350.472 158.795C350.756 158.674 350.996 158.5 351.193 158.273C351.39 158.045 351.53 157.773 351.614 157.455H352.955C352.879 157.97 352.691 158.434 352.392 158.847C352.097 159.256 351.705 159.581 351.216 159.824C350.731 160.062 350.167 160.182 349.523 160.182ZM358.46 160.182C357.672 160.182 356.981 159.994 356.386 159.619C355.795 159.244 355.333 158.72 355 158.045C354.67 157.371 354.506 156.583 354.506 155.682C354.506 154.773 354.67 153.979 355 153.301C355.333 152.623 355.795 152.097 356.386 151.722C356.981 151.347 357.672 151.159 358.46 151.159C359.248 151.159 359.938 151.347 360.528 151.722C361.123 152.097 361.585 152.623 361.915 153.301C362.248 153.979 362.415 154.773 362.415 155.682C362.415 156.583 362.248 157.371 361.915 158.045C361.585 158.72 361.123 159.244 360.528 159.619C359.938 159.994 359.248 160.182 358.46 160.182ZM358.46 158.977C359.059 158.977 359.551 158.824 359.938 158.517C360.324 158.21 360.61 157.807 360.795 157.307C360.981 156.807 361.074 156.265 361.074 155.682C361.074 155.098 360.981 154.555 360.795 154.051C360.61 153.547 360.324 153.14 359.938 152.83C359.551 152.519 359.059 152.364 358.46 152.364C357.862 152.364 357.369 152.519 356.983 152.83C356.597 153.14 356.311 153.547 356.125 154.051C355.939 154.555 355.847 155.098 355.847 155.682C355.847 156.265 355.939 156.807 356.125 157.307C356.311 157.807 356.597 158.21 356.983 158.517C357.369 158.824 357.862 158.977 358.46 158.977ZM364.462 160V151.273H365.803V160H364.462ZM365.143 149.818C364.882 149.818 364.657 149.729 364.467 149.551C364.282 149.373 364.189 149.159 364.189 148.909C364.189 148.659 364.282 148.445 364.467 148.267C364.657 148.089 364.882 148 365.143 148C365.405 148 365.628 148.089 365.814 148.267C366.003 148.445 366.098 148.659 366.098 148.909C366.098 149.159 366.003 149.373 365.814 149.551C365.628 149.729 365.405 149.818 365.143 149.818ZM369.599 154.75V160H368.259V151.273H369.554V152.636H369.668C369.872 152.193 370.183 151.837 370.599 151.568C371.016 151.295 371.554 151.159 372.213 151.159C372.804 151.159 373.321 151.28 373.764 151.523C374.207 151.761 374.552 152.125 374.798 152.614C375.045 153.098 375.168 153.712 375.168 154.455V160H373.827V154.545C373.827 153.86 373.649 153.326 373.293 152.943C372.937 152.557 372.448 152.364 371.827 152.364C371.399 152.364 371.016 152.456 370.679 152.642C370.346 152.828 370.082 153.098 369.889 153.455C369.696 153.811 369.599 154.242 369.599 154.75ZM384.413 160L381.232 148.364H382.663L385.095 157.841H385.209L387.686 148.364H389.277L391.754 157.841H391.868L394.3 148.364H395.732L392.55 160H391.095L388.527 150.727H388.436L385.868 160H384.413ZM399.061 160.205C398.508 160.205 398.006 160.1 397.555 159.892C397.105 159.68 396.747 159.375 396.482 158.977C396.216 158.576 396.084 158.091 396.084 157.523C396.084 157.023 396.182 156.617 396.379 156.307C396.576 155.992 396.839 155.746 397.169 155.568C397.499 155.39 397.862 155.258 398.26 155.17C398.661 155.08 399.065 155.008 399.47 154.955C400 154.886 400.43 154.835 400.76 154.801C401.093 154.763 401.336 154.701 401.487 154.614C401.643 154.527 401.72 154.375 401.72 154.159V154.114C401.72 153.553 401.567 153.117 401.26 152.807C400.957 152.496 400.497 152.341 399.879 152.341C399.239 152.341 398.737 152.481 398.374 152.761C398.01 153.042 397.754 153.341 397.607 153.659L396.334 153.205C396.561 152.674 396.864 152.261 397.243 151.966C397.625 151.667 398.042 151.458 398.493 151.341C398.947 151.22 399.394 151.159 399.834 151.159C400.114 151.159 400.436 151.193 400.8 151.261C401.167 151.326 401.521 151.46 401.862 151.665C402.207 151.869 402.493 152.178 402.72 152.591C402.947 153.004 403.061 153.557 403.061 154.25V160H401.72V158.818H401.652C401.561 159.008 401.41 159.21 401.197 159.426C400.985 159.642 400.703 159.826 400.351 159.977C399.999 160.129 399.569 160.205 399.061 160.205ZM399.266 159C399.796 159 400.243 158.896 400.607 158.688C400.974 158.479 401.25 158.21 401.436 157.881C401.625 157.551 401.72 157.205 401.72 156.841V155.614C401.663 155.682 401.538 155.744 401.345 155.801C401.156 155.854 400.936 155.902 400.686 155.943C400.44 155.981 400.199 156.015 399.964 156.045C399.733 156.072 399.546 156.095 399.402 156.114C399.054 156.159 398.728 156.233 398.425 156.335C398.125 156.434 397.883 156.583 397.697 156.784C397.516 156.981 397.425 157.25 397.425 157.591C397.425 158.057 397.597 158.409 397.942 158.648C398.29 158.883 398.732 159 399.266 159ZM406.849 148.364V160H405.509V148.364H406.849ZM410.646 148.364V160H409.305V148.364H410.646ZM416.761 160.182C415.92 160.182 415.195 159.996 414.585 159.625C413.979 159.25 413.511 158.727 413.182 158.057C412.856 157.383 412.693 156.598 412.693 155.705C412.693 154.811 412.856 154.023 413.182 153.341C413.511 152.655 413.97 152.121 414.557 151.739C415.148 151.352 415.837 151.159 416.625 151.159C417.08 151.159 417.528 151.235 417.972 151.386C418.415 151.538 418.818 151.784 419.182 152.125C419.545 152.462 419.835 152.909 420.051 153.466C420.267 154.023 420.375 154.708 420.375 155.523V156.091H413.648V154.932H419.011C419.011 154.439 418.913 154 418.716 153.614C418.523 153.227 418.246 152.922 417.886 152.699C417.53 152.475 417.11 152.364 416.625 152.364C416.091 152.364 415.629 152.496 415.239 152.761C414.852 153.023 414.555 153.364 414.347 153.784C414.138 154.205 414.034 154.655 414.034 155.136V155.909C414.034 156.568 414.148 157.127 414.375 157.585C414.606 158.04 414.926 158.386 415.335 158.625C415.744 158.86 416.22 158.977 416.761 158.977C417.114 158.977 417.432 158.928 417.716 158.83C418.004 158.727 418.252 158.576 418.46 158.375C418.669 158.17 418.83 157.917 418.943 157.614L420.239 157.977C420.102 158.417 419.873 158.803 419.551 159.136C419.229 159.466 418.831 159.723 418.358 159.909C417.884 160.091 417.352 160.182 416.761 160.182ZM426.21 151.273V152.409H421.688V151.273H426.21ZM423.006 149.182H424.347V157.5C424.347 157.879 424.402 158.163 424.511 158.352C424.625 158.538 424.769 158.663 424.943 158.727C425.121 158.788 425.309 158.818 425.506 158.818C425.653 158.818 425.775 158.811 425.869 158.795C425.964 158.777 426.04 158.761 426.097 158.75L426.369 159.955C426.278 159.989 426.152 160.023 425.989 160.057C425.826 160.095 425.619 160.114 425.369 160.114C424.991 160.114 424.619 160.032 424.256 159.869C423.896 159.706 423.597 159.458 423.358 159.125C423.123 158.792 423.006 158.371 423.006 157.864V149.182Z" fill="#DBD7D3"/>
<defs>
<radialGradient id="paint0_radial_69_6159" cx="0" cy="0" r="1" gradientUnits="userSpaceOnUse" gradientTransform="translate(-47 362.486) rotate(-33.4389) scale(782.529 914.664)">
<stop stop-color="#6D4AFF"/>
<stop offset="0.374344" stop-color="#100635"/>
<stop offset="1" stop-color="#D45A25"/>
</radialGradient>
<linearGradient id="paint1_linear_69_6159" x1="54.7692" y1="58.7831" x2="18.0647" y2="26.7506" gradientUnits="userSpaceOnUse">
<stop offset="0.197917" stop-color="#F5AC87" stop-opacity="0.89"/>
<stop offset="0.960981" stop-color="#7B5FF3"/>
</linearGradient>
<linearGradient id="paint2_linear_69_6159" x1="27.066" y1="47.7798" x2="46.6437" y2="25.9239" gradientUnits="userSpaceOnUse">
<stop offset="0.197917" stop-color="#E8621C" stop-opacity="0.89"/>
<stop offset="0.960981" stop-color="#532CF6"/>
</linearGradient>
<linearGradient id="paint3_linear_69_6159" x1="54.7692" y1="58.7831" x2="18.0647" y2="26.7506" gradientUnits="userSpaceOnUse">
<stop offset="0.197917" stop-color="#B27757" stop-opacity="0.89"/>
<stop offset="0.960981" stop-color="#7B5FF3"/>
</linearGradient>
<linearGradient id="paint4_linear_69_6159" x1="27.066" y1="47.7798" x2="46.6437" y2="25.9239" gradientUnits="userSpaceOnUse">
<stop offset="0.197917" stop-color="#FFC6A8" stop-opacity="0.89"/>
<stop offset="0.960981" stop-color="#9178F6"/>
</linearGradient>
<linearGradient id="paint5_linear_69_6159" x1="43.2" y1="45" x2="56.8" y2="21" gradientUnits="userSpaceOnUse">
<stop stop-opacity="0.53"/>
<stop offset="1" stop-color="#686868" stop-opacity="0"/>
<stop offset="1" stop-color="#686868" stop-opacity="0"/>
<stop offset="1" stop-color="#3E3E3E" stop-opacity="0"/>
</linearGradient>
<linearGradient id="paint6_linear_69_6159" x1="62.1176" y1="73.3765" x2="19.2364" y2="32.206" gradientUnits="userSpaceOnUse">
<stop offset="0.197917" stop-color="#F5AC87" stop-opacity="0.89"/>
<stop offset="0.960981" stop-color="#7B5FF3"/>
</linearGradient>
<linearGradient id="paint7_linear_69_6159" x1="26.8452" y1="60.6706" x2="51.3725" y2="33.6148" gradientUnits="userSpaceOnUse">
<stop offset="0.197917" stop-color="#E8621C" stop-opacity="0.89"/>
<stop offset="0.960981" stop-color="#532CF6"/>
</linearGradient>
</defs>
</svg>
