<svg width="238" height="32" viewBox="0 0 238 32" fill="none" xmlns="http://www.w3.org/2000/svg">
<path d="M59.0707 22.3657V29.2269H63.8476V22.6654C63.8476 22.0285 64.097 21.4131 64.5482 20.9635C64.994 20.5139 65.6044 20.257 66.236 20.257H71.135C73.4173 20.257 75.6093 19.3418 77.2229 17.7095C78.8364 16.0825 79.744 13.8721 79.744 11.5708C79.744 9.26943 78.8364 7.05906 77.2229 5.42671C75.6093 3.79971 73.4173 2.88452 71.1297 2.88452H59.0707V11.4584H63.8476V7.41764H70.8112C71.894 7.41764 72.929 7.85115 73.6933 8.62184C74.4576 9.39252 74.8875 10.4362 74.8875 11.528C74.8875 12.6198 74.4576 13.6634 73.6933 14.4341C72.929 15.2048 71.894 15.6383 70.8112 15.6383H65.753C64.8773 15.6383 64.0068 15.8095 63.2 16.1521C62.388 16.4892 61.6555 16.987 61.0345 17.6132C60.4135 18.2393 59.9252 18.9833 59.5855 19.7968C59.2458 20.6049 59.0707 21.4826 59.0707 22.3657Z" fill="#1B1340"/>
<path d="M80.4871 29.227V18.7746C80.4871 14.509 82.9551 11.1159 87.8966 11.1159C88.6874 11.1052 89.4783 11.1908 90.2532 11.3781V15.6758C89.6906 15.6383 89.2076 15.6383 88.9793 15.6383C86.3627 15.6383 85.2374 16.8478 85.2374 19.2991V29.227H80.4871Z" fill="#1B1340"/>
<path d="M91.6756 20.3642C91.6756 15.1193 95.6033 11.1213 101.07 11.1213C106.537 11.1213 110.465 15.1193 110.465 20.3642C110.465 25.6091 106.537 29.6445 101.07 29.6445C95.6033 29.6445 91.6756 25.6038 91.6756 20.3642ZM105.783 20.3642C105.783 17.3831 103.798 15.2691 101.07 15.2691C98.3367 15.2691 96.357 17.3778 96.357 20.3642C96.357 23.3827 98.342 25.4593 101.07 25.4593C103.798 25.4593 105.783 23.3774 105.783 20.3642Z" fill="#1B1340"/>
<path d="M125.65 20.3642C125.65 15.1193 129.578 11.1213 135.044 11.1213C140.506 11.1213 144.434 15.1193 144.434 20.3642C144.434 25.6091 140.506 29.6445 135.044 29.6445C129.578 29.6445 125.65 25.6038 125.65 20.3642ZM139.758 20.3642C139.758 17.3831 137.773 15.2691 135.044 15.2691C132.316 15.2691 130.331 17.3778 130.331 20.3642C130.331 23.3827 132.316 25.4593 135.044 25.4593C137.773 25.4593 139.758 23.3774 139.758 20.3642Z" fill="#1B1340"/>
<path d="M146.902 29.2271V19.1546C146.902 14.477 149.858 11.116 155.134 11.116C160.373 11.116 163.329 14.4717 163.329 19.1546V29.2271H158.616V19.5293C158.616 16.9282 157.453 15.3012 155.134 15.3012C152.814 15.3012 151.652 16.9229 151.652 19.5293V29.2271H146.902Z" fill="#1B1340"/>
<path d="M124.227 15.3065H119.1V21.9108C119.1 24.2122 119.923 25.2665 122.28 25.2665C122.502 25.2665 123.065 25.2665 123.776 25.2291V29.1146C122.805 29.3768 121.945 29.5321 121.006 29.5321C117.041 29.5321 114.345 27.1183 114.345 22.5531V15.3065H111.16V11.4959H111.951C112.264 11.4959 112.577 11.4317 112.864 11.3139C113.156 11.1908 113.416 11.0142 113.639 10.7894C113.862 10.5647 114.037 10.3024 114.159 10.0081C114.281 9.71369 114.339 9.40328 114.339 9.08751V5.49634H119.09V11.4959H124.217V15.3065H124.227Z" fill="#1B1340"/>
<path d="M172.506 29.2323V3.56421H179.114L185.308 18.9565C185.86 20.2463 186.332 21.5629 186.73 22.9062H186.794C187.192 21.5629 187.665 20.241 188.217 18.9565L194.411 3.56421H201.019V29.2323H196.231V12.0364C196.226 11.4691 196.252 10.9018 196.311 10.3398H196.231C196.082 10.9446 195.886 11.5387 195.637 12.1113L188.774 28.9326H184.82L177.936 12.1113C177.686 11.5333 177.474 10.9446 177.304 10.3398H177.23C177.283 10.9018 177.309 11.4691 177.304 12.0364V29.2376H172.506V29.2323Z" fill="#6D4AFF"/>
<path d="M217.393 12.2986C218.778 13.0318 219.924 14.1557 220.694 15.5312C221.517 17.0244 221.931 18.7156 221.899 20.4229V29.2322H217.706L217.409 26.5883C216.862 27.5463 216.06 28.3277 215.094 28.8522C214.06 29.3928 212.902 29.6657 211.735 29.639C210.243 29.655 208.778 29.2536 207.499 28.4776C206.204 27.6855 205.153 26.5509 204.453 25.2022C203.688 23.7143 203.306 22.0606 203.338 20.3854C203.317 18.737 203.736 17.1153 204.548 15.681C205.344 14.2895 206.501 13.1442 207.892 12.3681C209.336 11.56 210.96 11.1425 212.611 11.1639C214.272 11.1318 215.917 11.5225 217.393 12.2986ZM215.859 24.1478C216.772 23.2701 217.223 22.0338 217.223 20.3854C217.281 19.0367 216.809 17.7201 215.917 16.7193C215.493 16.2697 214.983 15.9165 214.415 15.6703C213.847 15.4241 213.242 15.301 212.626 15.301C212.011 15.301 211.4 15.4241 210.838 15.6703C210.27 15.9165 209.76 16.2697 209.336 16.7193C208.486 17.7469 208.019 19.042 208.019 20.38C208.019 21.718 208.486 23.0132 209.336 24.0408C209.755 24.5011 210.265 24.8596 210.838 25.1058C211.406 25.3467 212.021 25.4698 212.637 25.4537C213.231 25.4644 213.826 25.352 214.383 25.1272C214.93 24.9078 215.434 24.5706 215.859 24.1478Z" fill="#6D4AFF"/>
<path d="M224.484 7.87791C224.202 7.61567 223.98 7.2999 223.826 6.94667C223.672 6.59344 223.597 6.21345 223.603 5.82811C223.597 5.44277 223.677 5.05742 223.826 4.69884C223.98 4.34026 224.202 4.01914 224.484 3.75689C225.041 3.20029 225.795 2.88452 226.58 2.88452C227.366 2.88452 228.119 3.20029 228.677 3.75689C228.958 4.02449 229.181 4.34561 229.33 4.69884C229.478 5.05742 229.558 5.43741 229.553 5.82811C229.558 6.21345 229.484 6.59344 229.33 6.94667C229.181 7.2999 228.958 7.61567 228.677 7.87791C228.114 8.42381 227.361 8.72888 226.58 8.72888C225.8 8.72888 225.046 8.42381 224.484 7.87791ZM228.942 29.2323H224.229V11.544H228.942V29.2323Z" fill="#6D4AFF"/>
<path d="M237.095 29.2323H232.376V3.56421H237.095V29.2323Z" fill="#6D4AFF"/>
<g clip-path="url(#clip0_2788_16221)">
<path d="M0.862473 0.932534C0.862473 0.155962 1.75947 -0.268984 2.3518 0.227144L18.0157 13.3513C19.5305 14.6202 21.7263 14.6202 23.2411 13.3513L38.9051 0.227144C39.4974 -0.268984 40.3944 0.155962 40.3944 0.932534V27.8605C40.3944 30.1393 38.5633 31.9863 36.3049 31.9863H4.95202C2.69361 31.9863 0.862473 30.1393 0.862473 27.8605V0.932534Z" fill="#6D4AFF"/>
<path d="M0.862473 0.932534C0.862473 0.155962 1.75947 -0.268984 2.3518 0.227144L18.0157 13.3513C19.5305 14.6202 21.7263 14.6202 23.2411 13.3513L38.9051 0.227144C39.4974 -0.268984 40.3944 0.155962 40.3944 0.932534V27.8605C40.3944 30.1393 38.5633 31.9863 36.3049 31.9863H4.95202C2.69361 31.9863 0.862473 30.1393 0.862473 27.8605V0.932534Z" fill="url(#paint0_radial_2788_16221)"/>
<path fill-rule="evenodd" clip-rule="evenodd" d="M25.9655 11.0686L25.9676 11.0702L18.0789 18.1006C16.735 19.2984 14.7266 19.3283 13.3476 18.1718L0.861923 7.69582V0.932534C0.861923 0.155962 1.75892 -0.268984 2.35125 0.227144L18.0152 13.3513C19.53 14.6202 21.7258 14.6202 23.2406 13.3513L25.965 11.0686H25.9655Z" fill="url(#paint1_linear_2788_16221)"/>
<path fill-rule="evenodd" clip-rule="evenodd" d="M31.9881 6.02226V31.9858H36.3048C38.5632 31.9858 40.3944 30.1383 40.3944 27.8599V0.932534C40.3944 0.155962 39.4974 -0.268984 38.9051 0.227144L31.9881 6.02226Z" fill="url(#paint2_linear_2788_16221)"/>
</g>
<defs>
<radialGradient id="paint0_radial_2788_16221" cx="0" cy="0" r="1" gradientUnits="userSpaceOnUse" gradientTransform="translate(45.2542 7.58438) rotate(141.999) scale(44.4316 60.7392)">
<stop offset="0.56" stop-color="#AA8EFF" stop-opacity="0"/>
<stop offset="0.99" stop-color="#AA8EFF"/>
</radialGradient>
<linearGradient id="paint1_linear_2788_16221" x1="15.6957" y1="19.1961" x2="6.53265" y2="-19.5788" gradientUnits="userSpaceOnUse">
<stop stop-color="#E3D9FF"/>
<stop offset="1" stop-color="#7341FF"/>
</linearGradient>
<linearGradient id="paint2_linear_2788_16221" x1="53.0791" y1="52.7129" x2="21.8802" y2="-13.349" gradientUnits="userSpaceOnUse">
<stop offset="0.27" stop-color="#E3D9FF"/>
<stop offset="1" stop-color="#7341FF"/>
</linearGradient>
<clipPath id="clip0_2788_16221">
<rect width="39.6032" height="32" fill="white" transform="translate(0.846161)"/>
</clipPath>
</defs>
</svg>
