<svg width="500" height="160" viewBox="0 0 500 160" fill="none" xmlns="http://www.w3.org/2000/svg">
<rect x="0.5" y="0.5" width="499" height="159" fill="url(#paint0_radial_69_4377)"/>
<rect x="0.5" y="0.5" width="499" height="159" stroke="#F5F5F5"/>
<path d="M175 95.6497V101.514H179.094V95.9059C179.094 95.3616 179.308 94.8356 179.695 94.4513C180.077 94.0671 180.6 93.8475 181.142 93.8475H185.341C187.297 93.8475 189.176 93.0654 190.559 91.6703C191.942 90.2797 192.72 88.3906 192.72 86.4238C192.72 84.4569 191.942 82.5678 190.559 81.1727C189.176 79.7822 187.297 79 185.336 79H175V86.3277H179.094V82.8743H185.063C185.991 82.8743 186.879 83.2448 187.534 83.9034C188.189 84.5621 188.557 85.4541 188.557 86.3872C188.557 87.3203 188.189 88.2122 187.534 88.8709C186.879 89.5296 185.991 89.9001 185.063 89.9001H180.728C179.977 89.9001 179.231 90.0465 178.539 90.3392C177.843 90.6274 177.216 91.0528 176.683 91.5879C176.151 92.1231 175.732 92.7589 175.441 93.4542C175.15 94.1449 175 94.895 175 95.6497Z" fill="white"/>
<path d="M193.352 101.514V92.5805C193.352 88.9349 195.468 86.035 199.703 86.035C200.381 86.0258 201.059 86.099 201.723 86.2591V89.9321C201.241 89.9001 200.827 89.9001 200.632 89.9001C198.389 89.9001 197.424 90.9338 197.424 93.0288V101.514H193.352Z" fill="white"/>
<path d="M202.943 93.9391C202.943 89.4565 206.309 86.0396 210.995 86.0396C215.681 86.0396 219.048 89.4565 219.048 93.9391C219.048 98.4217 215.681 101.871 210.995 101.871C206.309 101.871 202.943 98.4171 202.943 93.9391ZM215.035 93.9391C215.035 91.3913 213.333 89.5845 210.995 89.5845C208.652 89.5845 206.955 91.3867 206.955 93.9391C206.955 96.5189 208.657 98.2936 210.995 98.2936C213.338 98.2936 215.035 96.5143 215.035 93.9391Z" fill="white"/>
<path d="M232.068 93.9391C232.068 89.4565 235.435 86.0396 240.121 86.0396C244.802 86.0396 248.169 89.4565 248.169 93.9391C248.169 98.4217 244.802 101.871 240.121 101.871C235.435 101.871 232.068 98.4171 232.068 93.9391ZM244.156 93.9391C244.156 91.3913 242.455 89.5845 240.116 89.5845C237.778 89.5845 236.076 91.3867 236.076 93.9391C236.076 96.5189 237.778 98.2936 240.116 98.2936C242.455 98.2936 244.156 96.5143 244.156 93.9391Z" fill="white"/>
<path d="M250.284 101.514V92.9053C250.284 88.9076 252.818 86.035 257.34 86.035C261.831 86.035 264.365 88.903 264.365 92.9053V101.514H260.325V93.2255C260.325 91.0025 259.328 89.612 257.34 89.612C255.352 89.612 254.356 90.9979 254.356 93.2255V101.514H250.284Z" fill="white"/>
<path d="M230.849 89.6163H226.454V95.2608C226.454 97.2276 227.159 98.1287 229.179 98.1287C229.37 98.1287 229.853 98.1287 230.462 98.0967V101.418C229.63 101.642 228.893 101.774 228.087 101.774C224.689 101.774 222.378 99.7114 222.378 95.8097V89.6163H219.648V86.3596H220.331C220.599 86.3596 220.867 86.3047 221.113 86.2041C221.363 86.0988 221.586 85.9479 221.777 85.7558C221.968 85.5637 222.119 85.3395 222.223 85.088C222.328 84.8364 222.378 84.5711 222.378 84.3012V81.232H226.45V86.3596H230.844V89.6163H230.849Z" fill="white"/>
<path d="M359.001 89.6163H354.606V95.2608C354.606 97.2276 355.311 98.1287 357.331 98.1287C357.522 98.1287 358.004 98.1287 358.614 98.0967V101.418C357.782 101.642 357.045 101.774 356.239 101.774C352.841 101.774 350.53 99.7114 350.53 95.8097V89.6163H347.8V86.3596H348.482C348.751 86.3596 349.019 86.3047 349.265 86.204C349.515 86.0988 349.738 85.9479 349.929 85.7558C350.12 85.5637 350.27 85.3395 350.375 85.088C350.48 84.8364 350.53 84.5711 350.53 84.3012V81.232H354.601V86.3596H358.996V89.6163H359.001Z" fill="white"/>
<path d="M347.082 93.8915C347.082 94.4682 347.082 94.6925 347.018 95.2691H335.644C336.125 97.3195 337.567 98.4088 339.521 98.4088C341.283 98.4088 342.276 97.9283 342.885 96.871H346.633C345.704 100.203 342.661 101.773 339.617 101.773C334.94 101.773 331.8 98.4409 331.8 93.8915C331.8 89.3742 335.004 86.0423 339.521 86.0423C343.91 86.0423 347.082 89.4062 347.082 93.8915ZM339.521 89.4062C337.503 89.4062 336.061 90.6237 335.612 92.4498H343.269C343.013 90.6878 341.475 89.4062 339.521 89.4062Z" fill="white"/>
<path d="M329.44 101.42H325.403V79.5707H329.44V101.42Z" fill="white"/>
<path d="M322.174 101.42H318.137V79.5707H322.174V101.42Z" fill="white"/>
<path d="M307.777 86.0423C312.327 86.0423 315.723 89.0538 315.723 93.9235V101.42H312.135L311.878 99.1777C310.917 100.812 309.187 101.773 307.009 101.773C303.068 101.773 299.8 98.6331 299.8 93.8915C299.8 89.4062 303.196 86.0423 307.777 86.0423ZM307.777 98.2166C309.732 98.2166 311.718 96.839 311.718 93.8915C311.718 91.2644 309.988 89.5664 307.777 89.5664C305.535 89.5664 303.805 91.3285 303.805 93.8915C303.805 96.4545 305.503 98.2166 307.777 98.2166Z" fill="white"/>
<path d="M280.325 101.42H275.872L269.4 79.5707H273.661L277.249 92.9304C277.569 94.1158 277.858 95.6215 277.986 96.3264H278.05C278.146 95.6215 278.338 94.5322 278.787 92.8663L282.407 79.5707H287.597L291.185 92.8663C291.666 94.5643 291.858 95.6215 291.954 96.3264H292.018C292.147 95.6215 292.403 94.1798 292.723 92.9304L296.344 79.5707H300.605L294.101 101.42H289.648L285.515 85.8501C285.226 84.7608 285.098 84.12 285.034 83.1909H284.97C284.874 84.12 284.778 84.7608 284.458 85.8501L280.325 101.42Z" fill="white"/>
<path d="M120.334 76.7456C120.334 76.5972 120.334 76.523 120.358 76.4591C120.379 76.4027 120.414 76.3522 120.459 76.3121C120.51 76.2667 120.579 76.2402 120.718 76.1871L143.429 67.4914C145.075 66.861 145.898 66.5458 146.558 66.69C147.134 66.8161 147.639 67.1632 147.963 67.6567C148.333 68.221 148.333 69.1025 148.333 70.8655V86.9714C148.333 88.1199 148.333 88.6941 148.14 89.1815C147.97 89.6118 147.693 89.992 147.336 90.2868C146.932 90.6205 146.385 90.7972 145.292 91.1505L126.093 97.3583C124.154 97.9855 123.184 98.299 122.413 98.1004C121.737 97.9265 121.154 97.5022 120.78 96.9135C120.353 96.2412 120.352 95.2219 120.35 93.1835L120.334 76.7456Z" fill="url(#paint1_linear_69_4377)"/>
<path d="M120.333 83.9746C120.333 82.9009 120.333 82.3641 120.507 81.8999C120.66 81.4898 120.908 81.1222 121.232 80.8278C121.599 80.4947 122.097 80.2953 123.094 79.8966L140.364 72.9889C141.47 72.5462 142.023 72.3249 142.468 72.4172C142.856 72.4979 143.197 72.7287 143.416 73.0593C143.667 73.4374 143.667 74.0334 143.667 75.2252V87.0691C143.667 88.2762 143.667 88.8798 143.458 89.3844C143.273 89.8297 142.975 90.2186 142.592 90.5119C142.159 90.8443 141.575 91.0002 140.409 91.3121L125.86 95.2029C123.98 95.7058 123.04 95.9572 122.298 95.7371C121.648 95.5443 121.092 95.1176 120.738 94.5393C120.333 93.8793 120.333 92.9061 120.333 90.9599V83.9746Z" fill="url(#paint2_linear_69_4377)"/>
<mask id="mask0_69_4377" style="mask-type:alpha" maskUnits="userSpaceOnUse" x="120" y="66" width="29" height="33">
<path d="M120.334 76.7456C120.334 76.5972 120.334 76.523 120.358 76.4591C120.379 76.4027 120.414 76.3522 120.459 76.3121C120.51 76.2667 120.579 76.2402 120.718 76.1871L143.429 67.4914C145.075 66.861 145.898 66.5458 146.558 66.69C147.134 66.8161 147.639 67.1632 147.963 67.6567C148.333 68.221 148.333 69.1025 148.333 70.8655V86.9714C148.333 88.1199 148.333 88.6941 148.14 89.1815C147.97 89.6118 147.693 89.992 147.336 90.2868C146.932 90.6205 146.385 90.7972 145.292 91.1505L126.093 97.3583C124.154 97.9855 123.184 98.299 122.413 98.1004C121.737 97.9265 121.154 97.5022 120.78 96.9135C120.353 96.2412 120.352 95.2219 120.35 93.1835L120.334 76.7456Z" fill="url(#paint3_linear_69_4377)"/>
<path d="M120.333 83.9746C120.333 82.9009 120.333 82.3641 120.507 81.8999C120.66 81.4898 120.908 81.1222 121.232 80.8278C121.599 80.4947 122.097 80.2953 123.094 79.8966L140.364 72.9889C141.47 72.5462 142.023 72.3249 142.468 72.4172C142.856 72.4979 143.197 72.7287 143.416 73.0593C143.667 73.4374 143.667 74.0334 143.667 75.2252V87.0691C143.667 88.2762 143.667 88.8798 143.458 89.3844C143.273 89.8297 142.975 90.2186 142.592 90.5119C142.159 90.8443 141.575 91.0002 140.409 91.3121L125.86 95.2029C123.98 95.7058 123.04 95.9572 122.298 95.7371C121.648 95.5443 121.092 95.1176 120.738 94.5393C120.333 93.8793 120.333 92.9061 120.333 90.9599V83.9746Z" fill="url(#paint4_linear_69_4377)"/>
</mask>
<g mask="url(#mask0_69_4377)">
<rect x="120.333" y="64.8667" width="28" height="28" fill="url(#paint5_linear_69_4377)"/>
</g>
<path d="M120.333 77.1585C120.333 76.7888 120.333 76.604 120.411 76.4811C120.478 76.3734 120.584 76.2953 120.707 76.2623C120.847 76.2247 121.024 76.2791 121.377 76.3878L151.369 85.6161C153.038 86.1298 153.873 86.3867 154.492 86.887C155.038 87.3287 155.462 87.9027 155.723 88.5545C156.02 89.2928 156.02 90.1662 156.02 91.913V108.801C156.02 110.352 156.02 111.128 155.695 111.636C155.41 112.08 154.966 112.398 154.454 112.524C153.869 112.669 153.134 112.419 151.665 111.92L126.004 103.195C123.964 102.501 122.944 102.154 122.19 101.519C121.525 100.957 121.01 100.238 120.693 99.4275C120.333 98.5093 120.333 97.4319 120.333 95.2772V77.1585Z" fill="url(#paint6_linear_69_4377)"/>
<path d="M120.333 81.6667L143.921 89.171C145.045 89.5286 145.607 89.7075 146.022 90.0488C146.389 90.3501 146.674 90.7399 146.848 91.1813C147.047 91.6814 147.045 92.2711 147.042 93.4507L147.003 110.339C138.631 107.491 133.216 105.649 126.004 103.196C123.964 102.502 122.943 102.155 122.19 101.519C121.524 100.958 121.01 100.239 120.693 99.428C120.333 98.5098 120.333 97.4326 120.333 95.2782V81.6667Z" fill="url(#paint7_linear_69_4377)"/>
<path d="M212.17 56L209.297 45.8182H211.281L213.115 53.3004H213.21L215.168 45.8182H216.973L218.937 53.3054H219.026L220.861 45.8182H222.844L219.971 56H218.151L216.113 48.8558H216.033L213.99 56H212.17ZM226.645 56.1491C224.343 56.1491 222.936 54.6229 222.936 52.2266C222.936 49.87 224.363 48.2642 226.551 48.2642C228.43 48.2642 230.041 49.4425 230.041 52.1222V52.674H224.721C224.736 53.9815 225.507 54.7472 226.67 54.7472C227.446 54.7472 228.042 54.4091 228.286 53.7628L229.966 53.9517C229.648 55.2791 228.425 56.1491 226.645 56.1491ZM224.726 51.4609H228.316C228.306 50.4219 227.61 49.6662 226.576 49.6662C225.502 49.6662 224.781 50.4865 224.726 51.4609ZM233.363 45.8182V56H231.563V45.8182H233.363ZM238.545 56.1491C236.263 56.1491 234.886 54.5234 234.886 52.2116C234.886 49.88 236.298 48.2642 238.535 48.2642C240.399 48.2642 241.692 49.353 241.816 51.0085H240.096C239.957 50.2727 239.425 49.7159 238.56 49.7159C237.451 49.7159 236.71 50.6406 236.71 52.1818C236.71 53.7429 237.436 54.6825 238.56 54.6825C239.35 54.6825 239.942 54.2102 240.096 53.3899H241.816C241.687 55.0107 240.464 56.1491 238.545 56.1491ZM246.625 56.1491C244.388 56.1491 242.966 54.5732 242.966 52.2116C242.966 49.8452 244.388 48.2642 246.625 48.2642C248.862 48.2642 250.284 49.8452 250.284 52.2116C250.284 54.5732 248.862 56.1491 246.625 56.1491ZM246.635 54.7074C247.853 54.7074 248.459 53.6037 248.459 52.2067C248.459 50.8097 247.853 49.6911 246.635 49.6911C245.397 49.6911 244.79 50.8097 244.79 52.2067C244.79 53.6037 245.397 54.7074 246.635 54.7074ZM251.811 56V48.3636H253.532V49.6612H253.621C253.939 48.7912 254.705 48.2642 255.729 48.2642C256.758 48.2642 257.499 48.7962 257.792 49.6612H257.872C258.21 48.8111 259.055 48.2642 260.164 48.2642C261.566 48.2642 262.55 49.169 262.55 50.8743V56H260.745V51.1527C260.745 50.2081 260.169 49.7805 259.443 49.7805C258.573 49.7805 258.061 50.3771 258.061 51.2372V56H256.296V51.0781C256.296 50.2926 255.774 49.7805 255.013 49.7805C254.238 49.7805 253.611 50.4169 253.611 51.3565V56H251.811ZM267.757 56.1491C265.455 56.1491 264.048 54.6229 264.048 52.2266C264.048 49.87 265.475 48.2642 267.662 48.2642C269.541 48.2642 271.152 49.4425 271.152 52.1222V52.674H265.833C265.847 53.9815 266.618 54.7472 267.781 54.7472C268.557 54.7472 269.154 54.4091 269.397 53.7628L271.078 53.9517C270.759 55.2791 269.536 56.1491 267.757 56.1491ZM265.838 51.4609H269.427C269.417 50.4219 268.721 49.6662 267.687 49.6662C266.613 49.6662 265.892 50.4865 265.838 51.4609ZM279.961 48.3636V49.7557H278.454V53.7031C278.454 54.429 278.817 54.5881 279.27 54.5881C279.493 54.5881 279.697 54.5433 279.797 54.5185L280.1 55.9254C279.906 55.9901 279.553 56.0895 279.041 56.1044C277.689 56.1442 276.645 55.4382 276.654 54.0014V49.7557H275.571V48.3636H276.654V46.5341H278.454V48.3636H279.961ZM284.715 56.1491C282.477 56.1491 281.056 54.5732 281.056 52.2116C281.056 49.8452 282.477 48.2642 284.715 48.2642C286.952 48.2642 288.374 49.8452 288.374 52.2116C288.374 54.5732 286.952 56.1491 284.715 56.1491ZM284.725 54.7074C285.943 54.7074 286.549 53.6037 286.549 52.2067C286.549 50.8097 285.943 49.6911 284.725 49.6911C283.487 49.6911 282.88 50.8097 282.88 52.2067C282.88 53.6037 283.487 54.7074 284.725 54.7074Z" fill="#FFFDFD"/>
<defs>
<radialGradient id="paint0_radial_69_4377" cx="0" cy="0" r="1" gradientUnits="userSpaceOnUse" gradientTransform="translate(-51.9912 273.197) rotate(-24.2533) scale(792.272 754.229)">
<stop stop-color="#6D4AFF"/>
<stop offset="0.374344" stop-color="#100635"/>
<stop offset="1" stop-color="#D45A25"/>
</radialGradient>
<linearGradient id="paint1_linear_69_4377" x1="151.564" y1="107.08" x2="108.742" y2="69.7091" gradientUnits="userSpaceOnUse">
<stop offset="0.197917" stop-color="#F5AC87" stop-opacity="0.89"/>
<stop offset="0.960981" stop-color="#7B5FF3"/>
</linearGradient>
<linearGradient id="paint2_linear_69_4377" x1="119.244" y1="94.2432" x2="142.084" y2="68.7446" gradientUnits="userSpaceOnUse">
<stop offset="0.197917" stop-color="#E8621C" stop-opacity="0.89"/>
<stop offset="0.960981" stop-color="#532CF6"/>
</linearGradient>
<linearGradient id="paint3_linear_69_4377" x1="151.564" y1="107.08" x2="108.742" y2="69.7091" gradientUnits="userSpaceOnUse">
<stop offset="0.197917" stop-color="#B27757" stop-opacity="0.89"/>
<stop offset="0.960981" stop-color="#7B5FF3"/>
</linearGradient>
<linearGradient id="paint4_linear_69_4377" x1="119.244" y1="94.2432" x2="142.084" y2="68.7446" gradientUnits="userSpaceOnUse">
<stop offset="0.197917" stop-color="#FFC6A8" stop-opacity="0.89"/>
<stop offset="0.960981" stop-color="#9178F6"/>
</linearGradient>
<linearGradient id="paint5_linear_69_4377" x1="138.067" y1="91" x2="153.933" y2="63" gradientUnits="userSpaceOnUse">
<stop stop-opacity="0.53"/>
<stop offset="1" stop-color="#686868" stop-opacity="0"/>
<stop offset="1" stop-color="#686868" stop-opacity="0"/>
<stop offset="1" stop-color="#3E3E3E" stop-opacity="0"/>
</linearGradient>
<linearGradient id="paint6_linear_69_4377" x1="160.137" y1="124.106" x2="110.109" y2="76.0737" gradientUnits="userSpaceOnUse">
<stop offset="0.197917" stop-color="#F5AC87" stop-opacity="0.89"/>
<stop offset="0.960981" stop-color="#7B5FF3"/>
</linearGradient>
<linearGradient id="paint7_linear_69_4377" x1="118.986" y1="109.282" x2="147.601" y2="77.7174" gradientUnits="userSpaceOnUse">
<stop offset="0.197917" stop-color="#E8621C" stop-opacity="0.89"/>
<stop offset="0.960981" stop-color="#532CF6"/>
</linearGradient>
</defs>
</svg>
