<svg width="70" height="52" viewBox="0 0 70 52" fill="none" xmlns="http://www.w3.org/2000/svg">
<g filter="url(#filter0_dd_238_6260)">
<path d="M61.4997 36.9209L61.4998 36.927C61.5173 38.3559 60.3654 39.5 58.9731 39.5H11.0475C9.63998 39.5 8.5 38.3391 8.5 36.9209V7.07909C8.5 5.66319 9.65864 4.5 11.0475 4.5H58.9522C60.3598 4.5 61.4998 5.66095 61.4998 7.07909L61.4997 36.9209Z" fill="url(#paint0_linear_238_6260)" stroke="url(#paint1_linear_238_6260)"/>
<path d="M33.3482 24.3426L33.3481 24.3424L9.67256 4.83263C10.0465 4.62173 10.4782 4.5 10.9334 4.5H59.0681C59.5232 4.5 59.9548 4.62167 60.3287 4.83249L36.6327 24.3423L36.6323 24.3426C35.685 25.1239 34.2956 25.1239 33.3482 24.3426Z" fill="url(#paint2_linear_238_6260)" stroke="url(#paint3_linear_238_6260)"/>
<g clip-path="url(#clip0_238_6260)">
<path d="M41.79 24.6935C40.855 28.4435 37.0569 30.7257 33.3064 29.7906C29.5575 28.8556 27.2753 25.0573 28.2106 21.3074C29.1451 17.557 32.9433 15.2745 36.6927 16.2095C40.4429 17.1444 42.7249 20.9432 41.79 24.6935Z" fill="#F7931A"/>
<path d="M38.0865 22.0028C38.2259 21.0714 37.5167 20.5707 36.547 20.2367L36.8615 18.9749L36.0935 18.7835L35.7873 20.012C35.5854 19.9617 35.378 19.9142 35.1719 19.8672L35.4804 18.6306L34.7128 18.4392L34.398 19.7005C34.2309 19.6624 34.0668 19.6248 33.9075 19.5852L33.9084 19.5813L32.8492 19.3168L32.6449 20.1371C32.6449 20.1371 33.2148 20.2677 33.2027 20.2758C33.5138 20.3535 33.57 20.5593 33.5606 20.7225L33.2023 22.1599C33.2237 22.1654 33.2515 22.1733 33.2821 22.1855C33.2565 22.1792 33.2292 22.1722 33.201 22.1654L32.6987 24.179C32.6607 24.2735 32.5642 24.4152 32.3468 24.3614C32.3544 24.3726 31.7885 24.2221 31.7885 24.2221L31.4072 25.1012L32.4067 25.3504C32.5926 25.397 32.7749 25.4458 32.9542 25.4917L32.6364 26.7679L33.4035 26.9593L33.7183 25.6967C33.9279 25.7535 34.1313 25.806 34.3304 25.8555L34.0167 27.1122L34.7847 27.3036L35.1026 26.0298C36.4122 26.2777 37.397 26.1777 37.8116 24.9932C38.1456 24.0394 37.795 23.4893 37.1059 23.1305C37.6077 23.0148 37.9857 22.6847 38.0865 22.0028ZM36.3317 24.4636C36.0944 25.4173 34.4885 24.9017 33.9679 24.7724L34.3897 23.0817C34.9103 23.2117 36.5798 23.4689 36.3317 24.4636ZM36.5693 21.9891C36.3527 22.8566 35.0162 22.4158 34.5826 22.3078L34.965 20.7743C35.3985 20.8824 36.7948 21.0841 36.5693 21.9891Z" fill="white"/>
</g>
</g>
<defs>
<filter id="filter0_dd_238_6260" x="0" y="0" width="70" height="52" filterUnits="userSpaceOnUse" color-interpolation-filters="sRGB">
<feFlood flood-opacity="0" result="BackgroundImageFix"/>
<feColorMatrix in="SourceAlpha" type="matrix" values="0 0 0 0 0 0 0 0 0 0 0 0 0 0 0 0 0 0 127 0" result="hardAlpha"/>
<feOffset/>
<feGaussianBlur stdDeviation="0.5"/>
<feColorMatrix type="matrix" values="0 0 0 0 0 0 0 0 0 0 0 0 0 0 0 0 0 0 0.05 0"/>
<feBlend mode="normal" in2="BackgroundImageFix" result="effect1_dropShadow_238_6260"/>
<feColorMatrix in="SourceAlpha" type="matrix" values="0 0 0 0 0 0 0 0 0 0 0 0 0 0 0 0 0 0 127 0" result="hardAlpha"/>
<feOffset dy="4"/>
<feGaussianBlur stdDeviation="4"/>
<feColorMatrix type="matrix" values="0 0 0 0 0 0 0 0 0 0 0 0 0 0 0 0 0 0 0.1 0"/>
<feBlend mode="normal" in2="effect1_dropShadow_238_6260" result="effect2_dropShadow_238_6260"/>
<feBlend mode="normal" in="SourceGraphic" in2="effect2_dropShadow_238_6260" result="shape"/>
</filter>
<linearGradient id="paint0_linear_238_6260" x1="35" y1="4" x2="35" y2="40" gradientUnits="userSpaceOnUse">
<stop stop-color="#EFEDEA"/>
<stop offset="1" stop-color="#FFFCF7"/>
</linearGradient>
<linearGradient id="paint1_linear_238_6260" x1="35" y1="4" x2="35" y2="40" gradientUnits="userSpaceOnUse">
<stop stop-color="#FFFBFB"/>
<stop offset="1" stop-color="white" stop-opacity="0"/>
</linearGradient>
<linearGradient id="paint2_linear_238_6260" x1="35.0008" y1="-0.94122" x2="35.0008" y2="17.7648" gradientUnits="userSpaceOnUse">
<stop stop-color="#F5F4F2"/>
<stop offset="1" stop-color="white"/>
</linearGradient>
<linearGradient id="paint3_linear_238_6260" x1="35.0008" y1="4" x2="35.0008" y2="25.4286" gradientUnits="userSpaceOnUse">
<stop offset="0.328125" stop-color="#FFFBFB"/>
<stop offset="1" stop-color="white" stop-opacity="0"/>
</linearGradient>
<clipPath id="clip0_238_6260">
<rect width="14" height="14" fill="white" transform="translate(28 16)"/>
</clipPath>
</defs>
</svg>
