<svg width="35" height="35" viewBox="0 0 35 35" fill="none" xmlns="http://www.w3.org/2000/svg">
<path d="M5.83375 8.59086C5.83366 8.49813 5.83361 8.45177 5.84868 8.41183C5.86199 8.37656 5.88366 8.34503 5.91182 8.31996C5.94369 8.29157 5.98699 8.27499 6.07359 8.24184L20.268 2.80702C21.297 2.41302 21.8115 2.21603 22.2237 2.30614C22.5842 2.38497 22.8995 2.60186 23.102 2.91033C23.3335 3.26299 23.3335 3.81393 23.3335 4.9158V14.982C23.3335 15.6998 23.3335 16.0587 23.2127 16.3633C23.1061 16.6323 22.9332 16.8699 22.7101 17.0541C22.4574 17.2627 22.1159 17.3731 21.4329 17.594L9.43343 21.4738C8.22118 21.8658 7.61506 22.0618 7.13301 21.9376C6.71097 21.829 6.3461 21.5637 6.11249 21.1958C5.84566 20.7756 5.84504 20.1386 5.84379 18.8646L5.83375 8.59086Z" fill="url(#paint0_linear_228_5047)"/>
<path d="M5.83362 13.1087C5.83362 12.4377 5.83362 12.1022 5.94185 11.8121C6.03747 11.5557 6.19302 11.326 6.39549 11.142C6.62464 10.9338 6.93616 10.8092 7.55921 10.56L18.3525 6.24265C19.0441 5.96601 19.3899 5.82768 19.6675 5.88537C19.9103 5.93581 20.1233 6.08004 20.2603 6.2867C20.417 6.52302 20.417 6.89547 20.417 7.64036V15.0428C20.417 15.7972 20.417 16.1745 20.2863 16.4899C20.1709 16.7682 19.9843 17.0113 19.7452 17.1946C19.4743 17.4023 19.1099 17.4998 18.3811 17.6947L9.28791 20.1265C8.11279 20.4407 7.52524 20.5978 7.06146 20.4603C6.6551 20.3398 6.30773 20.0731 6.08631 19.7117C5.83362 19.2992 5.83362 18.691 5.83362 17.4745V13.1087Z" fill="url(#paint1_linear_228_5047)"/>
<mask id="mask0_228_5047" style="mask-type:alpha" maskUnits="userSpaceOnUse" x="5" y="2" width="19" height="20">
<path d="M5.83375 8.59086C5.83366 8.49813 5.83361 8.45177 5.84868 8.41183C5.86199 8.37656 5.88366 8.34503 5.91182 8.31996C5.94369 8.29157 5.98699 8.27499 6.07359 8.24184L20.268 2.80702C21.297 2.41302 21.8115 2.21603 22.2237 2.30614C22.5842 2.38497 22.8995 2.60186 23.102 2.91033C23.3335 3.26299 23.3335 3.81393 23.3335 4.9158V14.982C23.3335 15.6998 23.3335 16.0587 23.2127 16.3633C23.1061 16.6323 22.9332 16.8699 22.7101 17.0541C22.4574 17.2627 22.1159 17.3731 21.4329 17.594L9.43343 21.4738C8.22118 21.8658 7.61506 22.0618 7.13301 21.9376C6.71097 21.829 6.3461 21.5637 6.11249 21.1958C5.84566 20.7756 5.84504 20.1386 5.84379 18.8646L5.83375 8.59086Z" fill="url(#paint2_linear_228_5047)"/>
<path d="M5.83362 13.1087C5.83362 12.4377 5.83362 12.1022 5.94185 11.8121C6.03747 11.5557 6.19302 11.326 6.39549 11.142C6.62464 10.9338 6.93616 10.8092 7.55921 10.56L18.3525 6.24265C19.0441 5.96601 19.3899 5.82768 19.6675 5.88537C19.9103 5.93581 20.1233 6.08004 20.2603 6.2867C20.417 6.52302 20.417 6.89547 20.417 7.64036V15.0428C20.417 15.7972 20.417 16.1745 20.2863 16.4899C20.1709 16.7682 19.9843 17.0113 19.7452 17.1946C19.4743 17.4023 19.1099 17.4998 18.3811 17.6947L9.28791 20.1265C8.11279 20.4407 7.52524 20.5978 7.06146 20.4603C6.6551 20.3398 6.30773 20.0731 6.08631 19.7117C5.83362 19.2992 5.83362 18.691 5.83362 17.4745V13.1087Z" fill="url(#paint3_linear_228_5047)"/>
</mask>
<g mask="url(#mask0_228_5047)">
<rect x="5.83362" y="1.16663" width="17.5" height="17.5" fill="url(#paint4_linear_228_5047)"/>
</g>
<path d="M5.8335 8.84914C5.8335 8.61807 5.8335 8.50253 5.88174 8.42571C5.92399 8.35844 5.9901 8.30962 6.06682 8.28902C6.15443 8.2655 6.26486 8.29948 6.48572 8.36743L25.2307 14.1351C26.2742 14.4562 26.7959 14.6167 27.1825 14.9294C27.5237 15.2055 27.7887 15.5643 27.9522 15.9716C28.1374 16.433 28.1374 16.9789 28.1374 18.0707V28.6255C28.1374 29.5953 28.1374 30.0802 27.9343 30.3974C27.7565 30.675 27.4789 30.8738 27.1588 30.9528C26.7931 31.043 26.334 30.8869 25.4159 30.5748L9.37768 25.1218C8.10267 24.6883 7.46516 24.4715 6.99408 24.0742C6.57806 23.7233 6.2563 23.2741 6.05802 22.7673C5.8335 22.1934 5.8335 21.52 5.8335 20.1733V8.84914Z" fill="url(#paint5_linear_228_5047)"/>
<path d="M5.8335 11.6667L20.5755 16.3569C21.278 16.5804 21.6293 16.6922 21.8891 16.9055C22.1184 17.0939 22.2961 17.3375 22.4054 17.6134C22.5292 17.9259 22.5283 18.2945 22.5266 19.0317L22.5019 29.587C17.2696 27.8071 13.8851 26.6557 9.37791 25.1225C8.10249 24.6886 7.46478 24.4717 6.9938 24.0744C6.57788 23.7235 6.25619 23.2743 6.05796 22.7675C5.8335 22.1937 5.8335 21.5204 5.8335 20.1739V11.6667Z" fill="url(#paint6_linear_228_5047)"/>
<defs>
<linearGradient id="paint0_linear_228_5047" x1="25.3527" y1="27.5501" x2="-1.41096" y2="4.1931" gradientUnits="userSpaceOnUse">
<stop offset="0.197917" stop-color="#F5AC87" stop-opacity="0.89"/>
<stop offset="0.960981" stop-color="#7B5FF3"/>
</linearGradient>
<linearGradient id="paint1_linear_228_5047" x1="5.15257" y1="19.5266" x2="19.428" y2="3.58997" gradientUnits="userSpaceOnUse">
<stop offset="0.197917" stop-color="#E8621C" stop-opacity="0.89"/>
<stop offset="0.960981" stop-color="#532CF6"/>
</linearGradient>
<linearGradient id="paint2_linear_228_5047" x1="25.3527" y1="27.5501" x2="-1.41096" y2="4.1931" gradientUnits="userSpaceOnUse">
<stop offset="0.197917" stop-color="#B27757" stop-opacity="0.89"/>
<stop offset="0.960981" stop-color="#7B5FF3"/>
</linearGradient>
<linearGradient id="paint3_linear_228_5047" x1="5.15257" y1="19.5266" x2="19.428" y2="3.58997" gradientUnits="userSpaceOnUse">
<stop offset="0.197917" stop-color="#FFC6A8" stop-opacity="0.89"/>
<stop offset="0.960981" stop-color="#9178F6"/>
</linearGradient>
<linearGradient id="paint4_linear_228_5047" x1="16.917" y1="17.5" x2="26.8336" y2="-4.16355e-05" gradientUnits="userSpaceOnUse">
<stop stop-opacity="0.53"/>
<stop offset="1" stop-color="#686868" stop-opacity="0"/>
<stop offset="1" stop-color="#686868" stop-opacity="0"/>
<stop offset="1" stop-color="#3E3E3E" stop-opacity="0"/>
</linearGradient>
<linearGradient id="paint5_linear_228_5047" x1="30.7109" y1="38.1913" x2="-0.556597" y2="8.1711" gradientUnits="userSpaceOnUse">
<stop offset="0.197917" stop-color="#F5AC87" stop-opacity="0.89"/>
<stop offset="0.960981" stop-color="#7B5FF3"/>
</linearGradient>
<linearGradient id="paint6_linear_228_5047" x1="4.99147" y1="28.9266" x2="22.8759" y2="9.1984" gradientUnits="userSpaceOnUse">
<stop offset="0.197917" stop-color="#E8621C" stop-opacity="0.89"/>
<stop offset="0.960981" stop-color="#532CF6"/>
</linearGradient>
</defs>
</svg>
