<svg width="36" height="36" viewBox="0 0 36 36" fill="none" xmlns="http://www.w3.org/2000/svg">
<mask id="mask0_2750_1078" style="mask-type:alpha" maskUnits="userSpaceOnUse" x="2" y="4" width="33" height="29">
<path fill-rule="evenodd" clip-rule="evenodd" d="M34.4242 17.9655V28.8915C34.4242 30.7771 32.8955 32.3059 31.0099 32.3059H27.5955V32.3059H6.90498L6.90497 32.3059L5.51447 32.3059C5.4034 32.3059 5.29357 32.3006 5.18521 32.2902C3.76411 32.1543 2.59606 31.1474 2.22303 29.8096C2.16375 29.597 2.12454 29.376 2.10759 29.1489C2.10125 29.0639 2.09802 28.9781 2.09802 28.8915V27.8909H8.81331C10.0842 27.8909 11.2271 27.3174 12.0317 26.3972C12.4411 25.9293 12.762 25.3727 12.9661 24.7573L12.9775 24.7226C13.1109 24.3103 13.1921 23.872 13.2127 23.4165C13.2162 23.3398 13.218 23.2627 13.218 23.185C13.218 22.5357 13.0947 21.9169 12.8718 21.354C12.7255 20.9846 12.5363 20.6392 12.3109 20.325C12.1399 20.0868 11.9481 19.8665 11.7384 19.6673C10.9605 18.9283 9.93588 18.4792 8.81331 18.4792H2.09803L2.09802 18.4792V7.72028C2.09802 5.83464 3.62882 4.30591 5.51446 4.30591H20.7667C28.3093 4.30591 34.4242 10.4208 34.4242 17.9655ZM10.9775 23.2016C10.9775 24.5838 9.85516 25.7041 8.4729 25.7041C7.09065 25.7041 5.96834 24.5838 5.96834 23.2016C5.96834 21.8193 7.09065 20.697 8.4729 20.697C9.85516 20.697 10.9775 21.8173 10.9775 23.2016Z" fill="#FFBB93"/>
</mask>
<g mask="url(#mask0_2750_1078)">
<path d="M5.51285 32.3059C3.62694 32.3059 2.09811 30.7771 2.09811 28.8912L2.09811 7.71984C2.09811 5.83393 3.62694 4.3051 5.51284 4.3051L20.7653 4.3051C28.3089 4.3051 34.4242 10.4204 34.4242 17.964L34.4242 28.8912C34.4242 30.7771 32.8954 32.3059 31.0095 32.3059L5.51285 32.3059Z" fill="url(#paint0_linear_2750_1078)"/>
<path d="M5.51285 32.3059C3.62695 32.3059 2.09811 30.7771 2.09811 28.8912L2.09811 8.85808L17.3506 8.85808C23.0083 8.85808 27.5948 13.4446 27.5948 19.1023L27.5948 32.3059L5.51285 32.3059Z" fill="#6D4AFF"/>
<path d="M5.51285 32.3059C3.62695 32.3059 2.09811 30.7771 2.09811 28.8912L2.09811 8.85808L17.3506 8.85808C23.0083 8.85808 27.5948 13.4446 27.5948 19.1023L27.5948 32.3059L5.51285 32.3059Z" fill="url(#paint1_linear_2750_1078)" fill-opacity="0.9"/>
<path d="M6.90461 32.3059L12.1147 26.387L2.09811 27.6391V28.8911C2.09811 30.7771 3.62694 32.3059 5.51285 32.3059H6.90461Z" fill="#FFBB93"/>
<path fill-rule="evenodd" clip-rule="evenodd" d="M8.81164 27.8909C11.2441 27.8909 13.2164 25.7836 13.2164 23.1847C13.2164 20.5858 11.2441 18.4785 8.81164 18.4785L2.06165 18.4785V27.8909H8.81164ZM10.9764 23.1999C10.9764 21.8169 9.85527 20.6958 8.47227 20.6958C7.08927 20.6958 5.96813 21.8169 5.96813 23.1999C5.96813 24.5829 7.08927 25.7041 8.47227 25.7041C9.85527 25.7041 10.9764 24.5829 10.9764 23.1999Z" fill="white"/>
</g>
<defs>
<linearGradient id="paint0_linear_2750_1078" x1="-1.99956" y1="7.56382" x2="38.0345" y2="23.1587" gradientUnits="userSpaceOnUse">
<stop stop-color="#957AFD"/>
<stop offset="1" stop-color="#FFC6C6"/>
</linearGradient>
<linearGradient id="paint1_linear_2750_1078" x1="26.154" y1="12.4579" x2="13.7257" y2="37.7113" gradientUnits="userSpaceOnUse">
<stop offset="0.149916" stop-color="#FA528E" stop-opacity="0"/>
<stop offset="0.720842" stop-color="#FF8065"/>
<stop offset="1" stop-color="#FFA51F"/>
</linearGradient>
</defs>
</svg>
