<svg width="128" height="128" viewBox="0 0 128 128" fill="none" xmlns="http://www.w3.org/2000/svg">
<mask id="mask0_395_9163" style="mask-type:alpha" maskUnits="userSpaceOnUse" x="14" y="21" width="100" height="87">
<path fill-rule="evenodd" clip-rule="evenodd" d="M14.2222 97.1284C14.2222 102.93 18.9253 107.633 24.7268 107.633L103.273 107.471C109.074 107.471 113.778 102.768 113.778 96.9663V63.3517C113.778 40.1456 94.9653 21.3334 71.7592 21.3334L24.7268 21.4954C18.9252 21.4954 14.2222 26.1985 14.2222 32L14.2222 64.9343H14.222V93.8894H14.2222V97.1284ZM14.2222 93.8894H34.9867C42.4694 93.8894 48.5369 87.4066 48.5369 79.4118C48.5369 71.417 42.4694 64.9343 34.9867 64.9343L14.2222 64.9343L14.2222 93.8894ZM33.9427 71.7552C38.1971 71.7552 41.6461 75.2041 41.6461 79.4586C41.6461 83.713 38.1971 87.1619 33.9427 87.1619C29.6882 87.1619 26.2393 83.713 26.2393 79.4586C26.2393 75.2041 29.6882 71.7552 33.9427 71.7552Z" fill="white"/>
</mask>
<g mask="url(#mask0_395_9163)">
<path d="M24.7407 107.471C18.9392 107.471 14.2362 102.768 14.2362 96.9664L14.2362 31.838C14.2362 26.0365 18.9392 21.3334 24.7407 21.3334L71.759 21.3334C94.9651 21.3334 113.777 40.1456 113.777 63.3517L113.777 96.9664C113.777 102.768 109.074 107.471 103.273 107.471L24.7407 107.471Z" fill="url(#paint0_linear_395_9163)"/>
<path d="M24.7269 107.687C18.9254 107.687 14.2223 102.984 14.2223 97.1825L14.2223 35.5556L61.2545 35.5556C78.659 35.5556 92.7682 49.6648 92.7682 67.0693V107.687H24.7269Z" fill="#6D4AFF"/>
<path d="M24.7269 107.687C18.9254 107.687 14.2223 102.984 14.2223 97.1825L14.2223 35.5556L61.2545 35.5556C78.659 35.5556 92.7682 49.6648 92.7682 67.0693V107.687H24.7269Z" fill="url(#paint1_linear_395_9163)" fill-opacity="0.9"/>
<path d="M29.12 107.471L45.1475 89.2629L14.2223 93.1146V96.9663C14.2223 102.768 18.9253 107.471 24.7269 107.471H29.12Z" fill="#FFBB93"/>
<path fill-rule="evenodd" clip-rule="evenodd" d="M34.9867 93.8894C42.4695 93.8894 48.537 87.4066 48.537 79.4118C48.537 71.417 42.4695 64.9343 34.9867 64.9343L14.222 64.9343V93.8894H34.9867ZM41.6461 79.4586C41.6461 75.2041 38.1972 71.7552 33.9427 71.7552C29.6883 71.7552 26.2394 75.2041 26.2394 79.4586C26.2394 83.713 29.6883 87.1619 33.9427 87.1619C38.1972 87.1619 41.6461 83.713 41.6461 79.4586Z" fill="white"/>
</g>
<defs>
<linearGradient id="paint0_linear_395_9163" x1="1.72854" y1="31.358" x2="124.883" y2="79.3318" gradientUnits="userSpaceOnUse">
<stop stop-color="#957AFD"/>
<stop offset="1" stop-color="#FFC6C6"/>
</linearGradient>
<linearGradient id="paint1_linear_395_9163" x1="88.3293" y1="46.6296" x2="50.1299" y2="124.359" gradientUnits="userSpaceOnUse">
<stop offset="0.149916" stop-color="#FA528E" stop-opacity="0"/>
<stop offset="0.720842" stop-color="#FF8065"/>
<stop offset="1" stop-color="#FFA51F"/>
</linearGradient>
</defs>
</svg>
