<svg width="217" height="20" viewBox="0 0 217 20" fill="none" xmlns="http://www.w3.org/2000/svg">
<g clip-path="url(#clip0_1941_34443)">
<path d="M13.7673 16.7085V10.0799C13.7673 7.37559 15.3518 5.22184 18.5212 5.22184C19.0299 5.21441 19.5375 5.27063 20.0322 5.38919V8.1161C19.6721 8.09225 19.3606 8.09225 19.2163 8.09225C17.5373 8.09225 16.8154 8.85786 16.8154 10.4133V16.7085H13.7673Z" fill="#999693"/>
<path d="M20.9447 11.0866C20.9447 7.76019 23.4656 5.22363 26.9712 5.22363C30.4769 5.22363 32.9969 7.75851 32.9969 11.0866C32.9969 14.4147 30.476 16.9718 26.9708 16.9718C23.4656 16.9718 20.9447 14.4114 20.9447 11.0866ZM29.9963 11.0866C29.9963 9.19602 28.7236 7.85599 26.9712 7.85599C25.2189 7.85599 23.9458 9.19476 23.9458 11.0866C23.9458 13.0011 25.2184 14.3172 26.9712 14.3172C28.7241 14.3172 29.9958 12.9994 29.9958 11.0866H29.9963Z" fill="#999693"/>
<path d="M41.832 7.87819H38.5429V12.066C38.5429 13.5257 39.071 14.1959 40.5837 14.1959C40.7276 14.1959 41.0874 14.1959 41.544 14.1721V16.6371C40.9199 16.8045 40.3688 16.9003 39.7673 16.9003C37.2224 16.9003 35.4936 15.3686 35.4936 12.4731V7.87819H33.4528V5.46129H33.9615C34.1629 5.46129 34.3622 5.42174 34.5482 5.34489C34.7342 5.26805 34.9032 5.15542 35.0454 5.01344C35.1877 4.87146 35.3005 4.70293 35.3774 4.51747C35.4543 4.332 35.4938 4.13325 35.4936 3.93258V1.65625H38.5429V5.46129H41.832V7.87819Z" fill="#999693"/>
<path d="M42.744 11.0866C42.744 7.76019 45.2649 5.22363 48.7706 5.22363C52.2762 5.22363 54.7967 7.75851 54.7967 11.0866C54.7967 14.4147 52.2758 16.9734 48.7706 16.9734C45.2654 16.9734 42.744 14.4114 42.744 11.0866ZM51.7952 11.0866C51.7952 9.19602 50.5225 7.85599 48.7701 7.85599C47.0178 7.85599 45.7447 9.19476 45.7447 11.0866C45.7447 13.0011 47.0173 14.3172 48.7701 14.3172C50.523 14.3172 51.7952 12.9994 51.7952 11.0866Z" fill="#999693"/>
<path d="M56.3812 16.7088V10.3195C56.3812 7.35207 58.2779 5.22217 61.6631 5.22217C65.0243 5.22217 66.9211 7.35207 66.9211 10.3195V16.7088H63.8961V10.5588C63.8961 8.90797 63.1515 7.87879 61.6631 7.87879C60.1747 7.87879 59.4301 8.90797 59.4301 10.5588V16.7088H56.3812Z" fill="#999693"/>
<path d="M7.41078e-07 12.3573V16.7083H3.06406V12.5455C3.06406 12.1405 3.22547 11.7521 3.51278 11.4658C3.80009 11.1794 4.18977 11.0185 4.59609 11.0185H7.7378C9.20341 11.0181 10.6089 10.4375 11.6451 9.40438C12.6813 8.37129 13.2635 6.9703 13.2636 5.50946C13.2636 4.04841 12.6814 2.64718 11.6449 1.61398C10.6085 0.580779 9.20279 0.000221893 7.73696 0L7.41078e-07 0V5.43876H3.06406V2.87459H7.53045C8.22394 2.87459 8.88904 3.14913 9.37949 3.63782C9.86994 4.12652 10.1456 4.78936 10.1458 5.4806C10.1458 6.17197 9.87026 6.83503 9.37979 7.32391C8.88931 7.81279 8.22408 8.08744 7.53045 8.08744H4.28339C3.72077 8.08716 3.16362 8.19742 2.64378 8.41191C2.12395 8.62639 1.65162 8.9409 1.25381 9.33746C0.856002 9.73401 0.540509 10.2048 0.325372 10.723C0.110234 11.2412 -0.000330277 11.7965 7.41078e-07 12.3573Z" fill="#999693"/>
<path d="M78.8546 5.21973H77.5322V16.9608H78.8546V5.21973Z" fill="#999693"/>
<path d="M89.8684 16.7353V5.36358H94.3577C95.3478 5.36358 96.1825 5.68683 96.8612 6.33367C97.5398 6.98016 97.8793 7.77183 97.8793 8.70834C97.8793 9.64484 97.5398 10.4253 96.8612 11.083C96.1825 11.7407 95.3481 12.0697 94.3577 12.0697H91.4373V16.7356H89.8684V16.7353ZM91.4373 10.6312H94.024C94.7805 10.6312 95.3424 10.4474 95.7096 10.0793C96.0881 9.70013 96.277 9.24324 96.277 8.708C96.277 8.17276 96.0935 7.72129 95.7262 7.35327C95.3701 6.98525 94.8194 6.80141 94.0741 6.80141H91.4373V10.6312ZM99.2502 11.7851C99.2502 10.8374 99.5173 10.096 100.051 9.56106C100.586 9.01462 101.286 8.74158 102.154 8.74158C102.432 8.74158 102.716 8.78058 103.005 8.8586V10.2635C102.905 10.2523 102.705 10.2469 102.404 10.2469C101.881 10.2469 101.481 10.3917 101.203 10.6817C100.924 10.9718 100.785 11.4622 100.785 12.1535V16.7356H99.2499V11.7855L99.2502 11.7851ZM104.531 16.7353V8.9088H106.066V16.7353H104.531ZM104.581 7.11923C104.392 6.92962 104.297 6.69558 104.297 6.41677C104.297 6.13795 104.392 5.90391 104.581 5.71431C104.781 5.51351 105.02 5.41345 105.299 5.41345C105.577 5.41345 105.81 5.51385 106 5.71431C106.2 5.90391 106.3 6.13795 106.3 6.41677C106.3 6.69558 106.2 6.92962 106 7.11923C105.81 7.30884 105.577 7.40347 105.299 7.40347C105.02 7.40347 104.781 7.30884 104.581 7.11923ZM110.253 16.7353L107.182 8.9088H108.868L110.637 13.8254C110.77 14.1934 110.87 14.5166 110.937 14.7954H110.971C111.037 14.5166 111.137 14.1934 111.271 13.8254L113.04 8.9088H114.742L111.671 16.7353H110.253H110.253ZM118.998 16.9025C117.953 16.9025 117.057 16.5345 116.312 15.7988C115.577 15.0631 115.21 14.0706 115.21 12.822C115.21 11.5735 115.577 10.581 116.312 9.8453C117.057 9.1096 117.953 8.74158 118.998 8.74158C119.555 8.74158 120.072 8.86436 120.55 9.1096C121.04 9.34364 121.429 9.67808 121.719 10.1129L121.852 8.9088H123.204V16.7353H121.852L121.719 15.5311C121.429 15.966 121.04 16.3059 120.55 16.5514C120.072 16.7855 119.555 16.9025 118.998 16.9025ZM117.48 10.8822C116.99 11.3615 116.746 12.0083 116.746 12.822C116.746 13.6357 116.99 14.288 117.48 14.7788C117.969 15.2581 118.559 15.4979 119.249 15.4979C119.938 15.4979 120.495 15.2527 120.984 14.7622C121.474 14.2605 121.719 13.6137 121.719 12.8224C121.719 12.031 121.474 11.3896 120.984 10.8992C120.495 10.3975 119.916 10.1465 119.249 10.1465C118.581 10.1465 117.969 10.3917 117.48 10.8822ZM128.896 16.9025C127.739 16.9025 126.782 16.5233 126.026 15.7652C125.269 14.9959 124.891 14.015 124.891 12.822C124.891 11.6291 125.269 10.6536 126.026 9.8955C126.782 9.12622 127.739 8.74158 128.896 8.74158C129.842 8.74158 130.648 9.0092 131.316 9.54444C131.983 10.0797 132.412 10.7598 132.601 11.5847H131.015C130.615 10.6258 129.909 10.1465 128.896 10.1465C128.184 10.1465 127.594 10.3975 127.127 10.8992C126.659 11.4008 126.426 12.0419 126.426 12.8224C126.426 13.6028 126.659 14.2439 127.127 14.7456C127.594 15.2472 128.184 15.4982 128.896 15.4982C129.886 15.4982 130.593 15.019 131.015 14.0601H132.601C132.412 14.885 131.983 15.5651 131.316 16.1003C130.648 16.6355 129.842 16.9032 128.896 16.9032V16.9025ZM136.739 14.9793C136.794 14.6225 136.894 14.249 137.039 13.8589L138.858 8.9088H140.493L136.154 20.0132H134.502L135.871 16.6352L132.883 8.90914H134.586L136.405 13.8593C136.549 14.2493 136.649 14.6231 136.705 14.9796H136.739V14.9793ZM149.811 16.9025C148.598 16.9025 147.702 16.451 147.124 15.5478L146.991 16.7353H145.639V5.36358H147.174V10.0125C147.753 9.16522 148.632 8.74158 149.811 8.74158C150.846 8.74158 151.73 9.1096 152.464 9.8453C153.198 10.581 153.566 11.5735 153.566 12.822C153.566 14.0706 153.198 15.0631 152.464 15.7988C151.73 16.5345 150.846 16.9025 149.811 16.9025ZM147.842 10.8822C147.363 11.3727 147.124 12.0195 147.124 12.822C147.124 13.6246 147.363 14.2714 147.842 14.7619C148.331 15.2523 148.915 15.4976 149.594 15.4976C150.273 15.4976 150.862 15.2578 151.33 14.7785C151.797 14.2992 152.031 13.6469 152.031 12.8217C152.031 11.9964 151.797 11.3445 151.33 10.8649C150.862 10.3853 150.284 10.1458 149.594 10.1458C148.904 10.1458 148.331 10.3911 147.842 10.8815V10.8822ZM157.86 14.9793C157.916 14.6225 158.016 14.249 158.16 13.8589L159.979 8.9088H161.615L157.276 20.0132H155.624L156.992 16.6352L154.005 8.90914H155.707L157.526 13.8593C157.671 14.2493 157.771 14.6231 157.827 14.9796H157.86V14.9793ZM172.584 16.7353L172.451 15.5478C171.873 16.4507 170.977 16.9025 169.764 16.9025C168.729 16.9025 167.845 16.5345 167.111 15.7988C166.376 15.0631 166.009 14.0706 166.009 12.822C166.009 11.5735 166.376 10.581 167.111 9.8453C167.845 9.1096 168.729 8.74158 169.764 8.74158C170.944 8.74158 171.823 9.16522 172.401 10.0125V5.36358H173.936V16.7353H172.584ZM168.245 10.8652C167.778 11.3445 167.544 11.9968 167.544 12.822C167.544 13.6473 167.778 14.2992 168.245 14.7788C168.713 15.2581 169.292 15.4979 169.982 15.4979C170.671 15.4979 171.239 15.2527 171.717 14.7622C172.207 14.2717 172.451 13.6249 172.451 12.8224C172.451 12.0198 172.206 11.373 171.717 10.8825C171.239 10.3921 170.66 10.1468 169.982 10.1468C169.304 10.1468 168.713 10.3866 168.245 10.8659V10.8652ZM179.629 16.9025C178.483 16.9025 177.537 16.5233 176.792 15.7652C176.057 15.0071 175.69 14.0258 175.69 12.822C175.69 11.6182 176.057 10.637 176.792 9.87888C177.525 9.12079 178.471 8.74158 179.629 8.74158C180.663 8.74158 181.542 9.13741 182.266 9.92908C182.999 10.7096 183.367 11.6739 183.367 12.8224C183.367 13.0676 183.356 13.2684 183.333 13.4244H177.276C177.387 14.0601 177.654 14.5672 178.076 14.9464C178.51 15.3144 179.028 15.4982 179.629 15.4982C180.596 15.4982 181.253 15.1302 181.598 14.3945H183.166C182.933 15.1526 182.493 15.7601 181.847 16.2173C181.214 16.6746 180.474 16.9028 179.628 16.9028L179.629 16.9025ZM177.292 12.1532H181.781C181.726 11.6067 181.497 11.1386 181.097 10.7482C180.696 10.347 180.207 10.1462 179.628 10.1462C179.05 10.1462 178.516 10.33 178.093 10.698C177.681 11.0549 177.414 11.5399 177.292 12.1528V12.1532ZM185.269 7.95567C185.269 7.11957 185.502 6.46188 185.97 5.98227C186.437 5.50299 187.038 5.26318 187.772 5.26318C188.084 5.26318 188.379 5.30219 188.657 5.3802V6.65115C188.479 6.62876 188.323 6.61757 188.189 6.61757C187.267 6.61757 186.805 7.0748 186.805 7.98891V8.9088H188.991V10.2133H186.805V16.7353H185.269V10.2133H183.767V8.9088H185.269V7.95567ZM193.413 16.9028C192.367 16.9028 191.471 16.5348 190.726 15.7991C189.992 15.0634 189.625 14.0709 189.625 12.8224C189.625 11.5738 189.992 10.5813 190.726 9.84564C191.471 9.10994 192.367 8.74192 193.413 8.74192C193.969 8.74192 194.486 8.8647 194.965 9.10994C195.454 9.34398 195.844 9.67842 196.133 10.1133L196.266 8.90914H197.618V16.7356H196.266L196.133 15.5315C195.843 15.9663 195.454 16.3062 194.965 16.5518C194.486 16.7858 193.969 16.9028 193.413 16.9028ZM191.894 10.8825C191.405 11.3618 191.16 12.0087 191.16 12.8224C191.16 13.6361 191.405 14.2884 191.894 14.7792C192.384 15.2584 192.973 15.4982 193.663 15.4982C194.354 15.4982 194.909 15.253 195.398 14.7625C195.889 14.2609 196.133 13.614 196.133 12.8227C196.133 12.0314 195.888 11.39 195.398 10.8995C194.909 10.3978 194.331 10.1468 193.663 10.1468C192.996 10.1468 192.384 10.3921 191.894 10.8825ZM205.547 15.9663C204.946 16.5908 204.139 16.9028 203.127 16.9028C202.115 16.9028 201.308 16.5908 200.707 15.9663C200.106 15.3419 199.806 14.5336 199.806 13.5415V8.90914H201.341V13.4244C201.341 14.0709 201.492 14.5729 201.792 14.9294C202.092 15.2862 202.537 15.4647 203.127 15.4647C203.717 15.4647 204.162 15.2862 204.462 14.9294C204.762 14.5726 204.913 14.0709 204.913 13.4244V8.90914H206.448V13.5415C206.448 14.5336 206.148 15.3419 205.547 15.9663ZM208.761 16.7356V5.36358H210.296V16.7353H208.761V16.7356ZM215.836 16.836C215.057 16.836 214.412 16.602 213.901 16.1335C213.4 15.6651 213.149 15.0244 213.149 14.2103L213.132 10.2133H211.748V8.9088H213.132V6.28313H214.685V8.9088H216.955V10.2133H214.685V14.0262C214.685 14.5614 214.807 14.9348 215.052 15.1465C215.308 15.3473 215.708 15.4474 216.254 15.4474C216.409 15.4474 216.604 15.4419 216.837 15.4307V16.7183C216.515 16.7963 216.181 16.8353 215.836 16.8353V16.836Z" fill="#999693"/>
</g>
<defs>
<clipPath id="clip0_1941_34443">
<rect width="216.974" height="20" fill="white"/>
</clipPath>
</defs>
</svg>
