<svg width="20" height="20" viewBox="0 0 20 20" fill="none" xmlns="http://www.w3.org/2000/svg">
<path fill-rule="evenodd" clip-rule="evenodd" d="M10 17.5C14.1421 17.5 17.5 14.1421 17.5 10C17.5 5.85786 14.1421 2.5 10 2.5C5.85786 2.5 2.5 5.85786 2.5 10C2.5 14.1421 5.85786 17.5 10 17.5ZM10 18.75C14.8325 18.75 18.75 14.8325 18.75 10C18.75 5.16751 14.8325 1.25 10 1.25C5.16751 1.25 1.25 5.16751 1.25 10C1.25 14.8325 5.16751 18.75 10 18.75ZM10 5C10.7078 5 11.2554 5.62036 11.1677 6.32269L10.6202 10.7025C10.5811 11.0153 10.3152 11.25 10 11.25C9.6848 11.25 9.41892 11.0153 9.37982 10.7025L8.83235 6.32269C8.74455 5.62036 9.29219 5 10 5ZM9.99993 14.25C10.4832 14.25 10.8749 13.8582 10.8749 13.375C10.8749 12.8918 10.4832 12.5 9.99993 12.5C9.51668 12.5 9.12493 12.8918 9.12493 13.375C9.12493 13.8582 9.51668 14.25 9.99993 14.25Z" fill="#FF6464"/>
</svg>
