<svg width="22" height="22" viewBox="0 0 22 22" fill="none" xmlns="http://www.w3.org/2000/svg">
<path d="M21.7605 18.5202L12.7635 1.56718C12.253 0.593183 11.05 0.217683 10.076 0.727683C9.71755 0.915683 9.42455 1.20818 9.23655 1.56718L0.239552 18.5202C-0.0984483 19.1522 -0.0779484 19.9157 0.293552 20.5287C0.651551 21.1322 1.30205 21.5017 2.00355 21.5002H19.9965C20.698 21.5017 21.3485 21.1322 21.7065 20.5287C22.078 19.9157 22.0985 19.1522 21.7605 18.5202Z" fill="#8B8DF9"/>
<path d="M10.5157 6.5H11.4842C11.7667 6.5 11.9927 6.7335 11.9842 7.0155L11.7652 14.0155C11.7567 14.2855 11.5357 14.5 11.2652 14.5H10.7342C10.4642 14.5 10.2427 14.2855 10.2342 14.0155L10.0152 7.0155C10.0062 6.7335 10.2332 6.5 10.5157 6.5Z" fill="white"/>
<path d="M11.0002 19C11.8287 19 12.5002 18.3284 12.5002 17.5C12.5002 16.6715 11.8287 16 11.0002 16C10.1718 16 9.50024 16.6715 9.50024 17.5C9.50024 18.3284 10.1718 19 11.0002 19Z" fill="white"/>
</svg>
