<svg width="16" height="18" viewBox="0 0 16 18" fill="none" xmlns="http://www.w3.org/2000/svg">
<g id="Frame 9446609">
<path id="Vector" d="M10.6375 2.95978C11.2415 2.18313 11.673 1.14759 11.5436 0.112061C10.6375 0.155208 9.55879 0.716122 8.91158 1.44962C8.35067 2.09683 7.8329 3.17551 7.96234 4.1679C8.99788 4.29734 9.99026 3.73643 10.6375 2.95978ZM11.5436 4.42678C10.0766 4.34049 8.82529 5.24658 8.13493 5.24658C7.44458 5.24658 6.3659 4.46993 5.20092 4.46993C3.69077 4.51308 2.31006 5.33287 1.53341 6.71359C-0.0198932 9.43186 1.10193 13.4446 2.65523 15.6451C3.38874 16.7237 4.29483 17.9319 5.4598 17.8887C6.58163 17.8456 7.0131 17.1552 8.35067 17.1552C9.68823 17.1552 10.0766 17.8887 11.2847 17.8456C12.4928 17.8024 13.2695 16.7669 14.003 15.6451C14.8659 14.3938 15.2111 13.1857 15.2111 13.1425C15.1679 13.0994 12.838 12.2364 12.838 9.5613C12.7948 7.31765 14.6502 6.23897 14.7365 6.19582C13.7441 4.64252 12.1045 4.46993 11.5436 4.42678Z" fill="black"/>
</g>
</svg>
