<svg width="40" height="40" viewBox="0 0 40 40" fill="none" xmlns="http://www.w3.org/2000/svg">
<circle cx="20" cy="20" r="20" fill="#FFE4C3"/>
<path fill-rule="evenodd" clip-rule="evenodd" d="M26.3653 18.2754C26.6479 16.4261 25.2077 15.432 23.2384 14.7688L23.8772 12.2638L22.3171 11.8838L21.6952 14.3228C21.2856 14.2229 20.8644 14.1287 20.446 14.0353L21.0723 11.5802L19.5135 11.2002L18.8743 13.7044C18.5349 13.6288 18.2017 13.5541 17.8783 13.4755L17.8801 13.4677L15.7291 12.9426L15.3142 14.5712C15.3142 14.5712 16.4715 14.8305 16.447 14.8466C17.0787 15.0008 17.1933 15.4094 17.1738 15.7334L16.4461 18.5872C16.4897 18.5981 16.5461 18.6137 16.6083 18.638L16.4439 18.5981L15.4235 22.5958C15.3462 22.7834 15.1503 23.0648 14.7087 22.958C14.7243 22.9801 13.5751 22.6813 13.5751 22.6813L12.8008 24.4272L14.8309 24.9219C15.0601 24.978 15.2865 25.0358 15.5104 25.0929C15.6554 25.1299 15.7994 25.1666 15.9424 25.2025L15.2969 27.7366L16.8548 28.1166L17.4945 25.6098C17.9196 25.7227 18.3328 25.827 18.737 25.9251L18.1 28.4202L19.6597 28.8002L20.3052 26.2713C22.9648 26.7633 24.9651 26.5649 25.8061 24.2136C26.4844 22.32 25.7727 21.2277 24.3734 20.5151C25.3925 20.2844 26.1606 19.6291 26.3653 18.2754ZM22.8013 23.1608C22.3585 24.8987 19.5754 24.1796 18.3032 23.8509C18.1892 23.8215 18.0874 23.7952 18.0005 23.774L18.857 20.4173C18.9632 20.4433 19.093 20.4717 19.2401 20.504C20.5563 20.7928 23.2532 21.3845 22.8013 23.1608ZM19.5047 18.9464C20.5662 19.2233 22.8802 19.8268 23.2833 18.248C23.6954 16.6329 21.4453 16.1461 20.3464 15.9083C20.2229 15.8816 20.1139 15.858 20.0248 15.8363L19.2483 18.8808C19.3218 18.8987 19.408 18.9212 19.5047 18.9464Z" fill="#F7931A"/>
</svg>
