<svg width="48" height="48" viewBox="0 0 48 48" fill="none" xmlns="http://www.w3.org/2000/svg">
<path d="M36.3546 43.5865H2.32972C1.03119 43.5865 0 42.5553 0 41.2568V18.9238H38.7225V41.2568C38.6843 42.5171 37.6532 43.5865 36.3546 43.5865Z" fill="url(#paint0_linear_5146_9841)"/>
<path fill-rule="evenodd" clip-rule="evenodd" d="M38.7223 18.9249L38.7225 18.9251H38.722L19.2868 32.5499L0.000550781 18.9251H1.2207e-05L0.000282023 18.9249L0 18.9247H0.000565155L18.1412 6.15948C18.8287 5.66299 19.7453 5.66299 20.4327 6.15948L38.722 18.9247H38.7225L38.7223 18.9249Z" fill="url(#paint1_linear_5146_9841)"/>
<path fill-rule="evenodd" clip-rule="evenodd" d="M3.72168 43.5601H36.2441C37.5426 43.5601 38.5738 42.4907 38.6119 41.2304V19.0039L3.72168 43.5601Z" fill="url(#paint2_linear_5146_9841)"/>
<mask id="mask0_5146_9841" style="mask-type:alpha" maskUnits="userSpaceOnUse" x="7" y="6" width="32" height="30">
<path d="M38.7568 18.6818L20.4325 6.19531L7.13517 35.7319L38.7568 33.2764V18.6818Z" fill="#C4C4C4"/>
</mask>
<g mask="url(#mask0_5146_9841)">
<g opacity="0.3" filter="url(#filter0_f_5146_9841)">
<path d="M28.2324 3.73633L39.0625 11.2218V28.9004L37.836 28.1969C31.8959 24.7902 28.2324 18.4658 28.2324 11.6181V3.73633Z" fill="#221548"/>
</g>
</g>
<path d="M38.919 22.5743C43.9343 22.5743 48.0001 18.5085 48.0001 13.4932C48.0001 8.47785 43.9343 4.41211 38.919 4.41211C33.9037 4.41211 29.8379 8.47785 29.8379 13.4932C29.8379 18.5085 33.9037 22.5743 38.919 22.5743Z" fill="url(#paint3_linear_5146_9841)"/>
<path fill-rule="evenodd" clip-rule="evenodd" d="M43.1048 10.477C43.4111 10.7812 43.413 11.2765 43.1091 11.5831L38.3425 16.3998C38.1958 16.5478 37.9962 16.631 37.788 16.631C37.5797 16.631 37.3801 16.5478 37.2334 16.3998L34.9293 14.0702C34.6254 13.7636 34.6273 13.2683 34.9336 12.9641C35.2398 12.6598 35.7345 12.6617 36.0384 12.9684L37.788 14.7383L42 10.4812C42.3039 10.1746 42.7985 10.1727 43.1048 10.477Z" fill="white"/>
<defs>
<filter id="filter0_f_5146_9841" x="22.8174" y="-1.67873" width="21.6602" height="35.9942" filterUnits="userSpaceOnUse" color-interpolation-filters="sRGB">
<feFlood flood-opacity="0" result="BackgroundImageFix"/>
<feBlend mode="normal" in="SourceGraphic" in2="BackgroundImageFix" result="shape"/>
<feGaussianBlur stdDeviation="2.70753" result="effect1_foregroundBlur_5146_9841"/>
</filter>
<linearGradient id="paint0_linear_5146_9841" x1="16.4801" y1="21.4592" x2="3.27446e-06" y2="43.5864" gradientUnits="userSpaceOnUse">
<stop stop-color="#EEBEFF"/>
<stop offset="1" stop-color="#6D4AFF"/>
</linearGradient>
<linearGradient id="paint1_linear_5146_9841" x1="19.4848" y1="15.5294" x2="19.4848" y2="35.5986" gradientUnits="userSpaceOnUse">
<stop stop-color="#5C7BEC"/>
<stop offset="1" stop-color="#4D34B3"/>
</linearGradient>
<linearGradient id="paint2_linear_5146_9841" x1="45.9602" y1="22.9835" x2="10.4248" y2="43.5291" gradientUnits="userSpaceOnUse">
<stop stop-color="#EBBEFF"/>
<stop offset="1" stop-color="#6D4AFF"/>
</linearGradient>
<linearGradient id="paint3_linear_5146_9841" x1="48.0001" y1="13.4932" x2="29.8379" y2="13.4932" gradientUnits="userSpaceOnUse">
<stop stop-color="#2AF091"/>
<stop offset="1" stop-color="#00C5A1"/>
</linearGradient>
</defs>
</svg>
