<svg width="48" height="48" viewBox="0 0 48 48" fill="none" xmlns="http://www.w3.org/2000/svg">
<path d="M36.3546 43.5865H2.32972C1.03119 43.5865 0 42.5553 0 41.2568V18.9238H38.7225V41.2568C38.6843 42.5171 37.6532 43.5865 36.3546 43.5865Z" fill="url(#paint0_linear_5146_497)"/>
<path fill-rule="evenodd" clip-rule="evenodd" d="M38.7222 18.9249L38.7225 18.9251H38.722L19.2868 32.5499L0.000556181 18.9251H4.19617e-06L0.00028073 18.9249L0 18.9247H0.000562566L18.1412 6.15948C18.8287 5.66299 19.7453 5.66299 20.4327 6.15948L38.722 18.9247H38.7225L38.7222 18.9249Z" fill="url(#paint1_linear_5146_497)"/>
<path fill-rule="evenodd" clip-rule="evenodd" d="M3.72168 43.5601H36.244C37.5426 43.5601 38.5737 42.4907 38.6119 41.2304V19.0039L3.72168 43.5601Z" fill="url(#paint2_linear_5146_497)"/>
<mask id="mask0_5146_497" style="mask-type:alpha" maskUnits="userSpaceOnUse" x="7" y="6" width="32" height="30">
<path d="M38.7568 18.6818L20.4325 6.19531L7.13517 35.7319L38.7568 33.2764V18.6818Z" fill="#C4C4C4"/>
</mask>
<g mask="url(#mask0_5146_497)">
<g opacity="0.3" filter="url(#filter0_f_5146_497)">
<path d="M28.2324 3.73633L39.0625 11.2218V28.9004L37.836 28.1969C31.8959 24.7902 28.2324 18.4658 28.2324 11.6181V3.73633Z" fill="#221548"/>
</g>
</g>
<path d="M38.919 22.5743C43.9343 22.5743 48.0001 18.5085 48.0001 13.4932C48.0001 8.47785 43.9343 4.41211 38.919 4.41211C33.9037 4.41211 29.8379 8.47785 29.8379 13.4932C29.8379 18.5085 33.9037 22.5743 38.919 22.5743Z" fill="url(#paint3_linear_5146_497)"/>
<path d="M37.9769 9.89005C37.9798 9.37176 38.4007 8.95312 38.919 8.95312C39.4373 8.95312 39.8583 9.37176 39.8612 9.89005L39.8866 14.4667C39.8896 15.0031 39.4555 15.4396 38.919 15.4396C38.3825 15.4396 37.9485 15.0031 37.9515 14.4667L37.9769 9.89005Z" fill="white"/>
<circle cx="38.919" cy="17.7738" r="0.972973" fill="white"/>
<defs>
<filter id="filter0_f_5146_497" x="22.8174" y="-1.67873" width="21.6602" height="35.9942" filterUnits="userSpaceOnUse" color-interpolation-filters="sRGB">
<feFlood flood-opacity="0" result="BackgroundImageFix"/>
<feBlend mode="normal" in="SourceGraphic" in2="BackgroundImageFix" result="shape"/>
<feGaussianBlur stdDeviation="2.70753" result="effect1_foregroundBlur_5146_497"/>
</filter>
<linearGradient id="paint0_linear_5146_497" x1="16.4801" y1="21.4592" x2="3.27446e-06" y2="43.5864" gradientUnits="userSpaceOnUse">
<stop stop-color="#EEBEFF"/>
<stop offset="1" stop-color="#6D4AFF"/>
</linearGradient>
<linearGradient id="paint1_linear_5146_497" x1="19.4848" y1="15.5294" x2="19.4848" y2="35.5986" gradientUnits="userSpaceOnUse">
<stop stop-color="#5C7BEC"/>
<stop offset="1" stop-color="#4D34B3"/>
</linearGradient>
<linearGradient id="paint2_linear_5146_497" x1="45.9602" y1="22.9835" x2="10.4248" y2="43.5291" gradientUnits="userSpaceOnUse">
<stop stop-color="#EBBEFF"/>
<stop offset="1" stop-color="#6D4AFF"/>
</linearGradient>
<linearGradient id="paint3_linear_5146_497" x1="38.919" y1="6.23472" x2="38.919" y2="29.8192" gradientUnits="userSpaceOnUse">
<stop stop-color="#FA5284"/>
<stop offset="1" stop-color="#DC3251"/>
</linearGradient>
</defs>
</svg>
