<svg width="81" height="80" viewBox="0 0 81 80" fill="none" xmlns="http://www.w3.org/2000/svg">
<path d="M40.5 0C18.4078 0 0.5 17.9078 0.5 40C0.5 62.0922 18.4078 80 40.5 80C62.5922 80 80.5 62.0922 80.5 40C80.5 17.9078 62.5922 0 40.5 0Z" fill="url(#paint0_linear_3334_7630)"/>
<path d="M42.2392 15.6532H38.7609C37.8004 15.6532 37.0218 16.4318 37.0218 17.3923V48.6966C37.0218 49.6572 37.8004 50.4358 38.7609 50.4358H42.2392C43.1997 50.4358 43.9783 49.6572 43.9783 48.6966V17.3923C43.9783 16.4318 43.1997 15.6532 42.2392 15.6532Z" fill="url(#paint1_linear_3334_7630)"/>
<path d="M40.5 66.0871C42.9012 66.0871 44.8478 64.1405 44.8478 61.7393C44.8478 59.3381 42.9012 57.3915 40.5 57.3915C38.0988 57.3915 36.1522 59.3381 36.1522 61.7393C36.1522 64.1405 38.0988 66.0871 40.5 66.0871Z" fill="url(#paint2_linear_3334_7630)"/>
<defs>
<linearGradient id="paint0_linear_3334_7630" x1="40.5" y1="0" x2="40.5" y2="80" gradientUnits="userSpaceOnUse">
<stop stop-color="#FFD6DA"/>
<stop offset="1" stop-color="#FF9EA8"/>
</linearGradient>
<linearGradient id="paint1_linear_3334_7630" x1="40.5001" y1="15.6532" x2="40.5001" y2="50.4358" gradientUnits="userSpaceOnUse">
<stop stop-color="#FF666D"/>
<stop offset="1" stop-color="#E0211F"/>
</linearGradient>
<linearGradient id="paint2_linear_3334_7630" x1="40.5" y1="57.3915" x2="40.5" y2="66.0871" gradientUnits="userSpaceOnUse">
<stop stop-color="#FF666D"/>
<stop offset="1" stop-color="#E0211F"/>
</linearGradient>
</defs>
</svg>
