<svg width="57" height="56" viewBox="0 0 57 56" fill="none" xmlns="http://www.w3.org/2000/svg">
<path d="M28.5 0C13.0355 0 0.5 12.5355 0.5 28C0.5 43.4645 13.0355 56 28.5 56C43.9645 56 56.5 43.4645 56.5 28C56.5 12.5355 43.9645 0 28.5 0Z" fill="#3D2A3D"/>
<path d="M29.7176 10.9573H27.2828C26.6105 10.9573 26.0654 11.5023 26.0654 12.1747V34.0877C26.0654 34.7601 26.6105 35.3051 27.2828 35.3051H29.7176C30.39 35.3051 30.935 34.7601 30.935 34.0877V12.1747C30.935 11.5023 30.39 10.9573 29.7176 10.9573Z" fill="#FB7878"/>
<path d="M28.5 46.261C30.1809 46.261 31.5435 44.8984 31.5435 43.2176C31.5435 41.5367 30.1809 40.1741 28.5 40.1741C26.8192 40.1741 25.4565 41.5367 25.4565 43.2176C25.4565 44.8984 26.8192 46.261 28.5 46.261Z" fill="#FB7878"/>
</svg>
