<svg width="104" height="104" viewBox="0 0 104 104" fill="none" xmlns="http://www.w3.org/2000/svg">
<rect width="104" height="104" rx="24" fill="#ABF3B2"/>
<path d="M56 53H48C47.4477 53 47 53.4477 47 54V72C47 72.5522 47.4477 73 48 73H56C56.5522 73 57 72.5522 57 72V54C57 53.4477 56.5522 53 56 53Z" fill="#72C472"/>
<path d="M40 61H32C31.4477 61 31 61.4477 31 62V72C31 72.5522 31.4477 73 32 73H40C40.5522 73 41 72.5522 41 72V62C41 61.4477 40.5522 61 40 61Z" fill="#8ED68E"/>
<path d="M72 45H64C63.4477 45 63 45.4477 63 46V72C63 72.5522 63.4477 73 64 73H72C72.5522 73 73 72.5522 73 72V46C73 45.4477 72.5522 45 72 45Z" fill="#4DA34D"/>
<path d="M52.707 46.707L65 34.4141V40C65 40.5522 65.4477 41 66 41C66.5522 41 67 40.5522 67 40V32C67 31.8698 66.9734 31.7401 66.9228 31.6179C66.8214 31.3734 66.6266 31.1786 66.3821 31.0772C66.2599 31.0266 66.1302 31 66 31H58C57.4477 31 57 31.4477 57 32C57 32.5523 57.4477 33 58 33H63.5859L52 44.5859L46.707 39.293C46.3164 38.9023 45.6836 38.9023 45.293 39.293L37.293 47.293C36.9023 47.6836 36.9023 48.3164 37.293 48.707C37.4883 48.9023 37.7441 49 38 49C38.2559 49 38.5117 48.9023 38.707 48.707L46 41.4141L51.293 46.707C51.6836 47.0977 52.3164 47.0977 52.707 46.707Z" fill="white"/>
</svg>
