<svg width="104" height="104" viewBox="0 0 104 104" fill="none" xmlns="http://www.w3.org/2000/svg">
<rect width="104" height="104" rx="24" fill="#FFC483"/>
<path d="M52 75C64.7025 75 75 64.7025 75 52C75 39.2975 64.7025 29 52 29C39.2975 29 29 39.2975 29 52C29 64.7025 39.2975 75 52 75Z" fill="#FF9A1F"/>
<path d="M62.5788 48.5814C63.0568 45.3874 60.6248 43.6704 57.2998 42.5244L58.3788 38.2004L55.7448 37.5444L54.6998 41.7544C54.0078 41.5824 53.2998 41.4194 52.5898 41.2544L53.6478 37.0134L51.0158 36.3574L49.9358 40.6824C49.3628 40.5514 48.8008 40.4234 48.2548 40.2874V40.2734L44.6228 39.3664L43.9228 42.1794C43.9228 42.1794 45.8768 42.6274 45.8358 42.6554C46.2004 42.6996 46.533 42.8853 46.7619 43.1724C46.9909 43.4596 47.0979 43.8252 47.0598 44.1904L45.8308 49.1194C45.9239 49.1428 46.0155 49.1722 46.1048 49.2074L45.8268 49.1384L44.1048 56.0384C44.0668 56.1589 44.0054 56.2707 43.9241 56.3674C43.8429 56.4641 43.7433 56.5438 43.6312 56.6019C43.5191 56.6601 43.3966 56.6955 43.2707 56.7063C43.1449 56.717 43.0181 56.7028 42.8978 56.6644C42.9238 56.7024 40.9838 56.1864 40.9838 56.1864L39.6758 59.2014L43.1028 60.0554C43.7408 60.2154 44.3658 60.3824 44.9808 60.5404L43.8908 64.9164L46.5208 65.5724L47.6008 61.2424C48.3188 61.4424 49.0168 61.6174 49.7008 61.7874L48.6238 66.1004L51.2568 66.7564L52.3468 62.3894C56.8378 63.2394 60.2148 62.8964 61.6358 58.8344C62.7818 55.5644 61.5788 53.6774 59.2158 52.4474C60.1243 52.2644 60.9468 51.786 61.5551 51.0867C62.1634 50.3874 62.5233 49.5066 62.5788 48.5814ZM56.5618 57.0184C55.7478 60.2894 50.2418 58.5184 48.4618 58.0774L49.9078 52.2774C51.6878 52.7254 57.4118 53.6084 56.5618 57.0184ZM57.3758 48.5334C56.6338 51.5084 52.0508 49.9974 50.5638 49.6264L51.8748 44.3684C53.3618 44.7394 58.1498 45.4304 57.3758 48.5334Z" fill="white"/>
</svg>
