<svg width="104" height="104" viewBox="0 0 104 104" fill="none" xmlns="http://www.w3.org/2000/svg">
<rect width="104" height="104" rx="24" fill="#ADA8FA"/>
<path d="M71 39C71 37.8954 70.1046 37 69 37H34C32.3457 37 31 35.6543 31 34C31 33.4477 30.5523 33 30 33C29.4477 33 29 33.4477 29 34V66C29 69.866 32.134 73 36 73H69C70.1046 73 71 72.1046 71 71V39Z" fill="#8A82FF"/>
<path d="M74 50H64C61.2432 50 59 52.2432 59 55C59 57.7568 61.2432 60 64 60H74C74.5522 60 75 59.5522 75 59V51C75 50.4477 74.5522 50 74 50Z" fill="#6E66E7"/>
<path d="M32 31H60C61.1046 31 62 31.8954 62 33V37H32C30.3431 37 29 35.6569 29 34C29 32.3431 30.3431 31 32 31Z" fill="#6E66E7"/>
<path d="M64 57C65.1046 57 66 56.1046 66 55C66 53.8954 65.1046 53 64 53C62.8954 53 62 53.8954 62 55C62 56.1046 62.8954 57 64 57Z" fill="#ADA8FA"/>
</svg>
