<svg width="104" height="104" viewBox="0 0 104 104" fill="none" xmlns="http://www.w3.org/2000/svg">
<rect width="104" height="104" rx="24" fill="#FFC3C9"/>
<path d="M52 74C51.866 74 51.731 73.973 51.606 73.919C38.077 68.121 30 54.32 30 37C30 36.448 30.447 36 31 36C36.655 36 44.996 34.468 51.445 30.168C51.781 29.944 52.218 29.944 52.554 30.168C59.003 34.468 67.344 36 72.999 36C73.552 36 73.999 36.448 73.999 37C73.999 54.32 65.922 68.121 52.393 73.919C52.268 73.973 52.134 74 52 74Z" fill="#FFD6DA"/>
<path d="M73 36C67.345 36 59.004 34.468 52.555 30.168C52.387 30.056 52.194 30 52 30V52H71.734C73.217 47.43 74 42.386 74 37C74 36.448 73.553 36 73 36Z" fill="#FF666D"/>
<path d="M32.2656 52C35.5516 62.128 42.2836 69.924 51.6056 73.919C51.7306 73.973 51.8656 74 51.9996 74V52H32.2656Z" fill="#FF666D"/>
</svg>
