<svg width="104" height="104" viewBox="0 0 104 104" fill="none" xmlns="http://www.w3.org/2000/svg">
<rect width="104" height="104" rx="24" fill="#8BD1F9"/>
<path d="M45 42H41C40.4477 42 40 42.4477 40 43V71C40 71.5523 40.4477 72 41 72H45C45.5523 72 46 71.5523 46 71V43C46 42.4477 45.5523 42 45 42Z" fill="#344EEA"/>
<path d="M54 52H50C49.4477 52 49 52.4477 49 53V71C49 71.5523 49.4477 72 50 72H54C54.5523 72 55 71.5523 55 71V53C55 52.4477 54.5523 52 54 52Z" fill="#C5EAFF"/>
<path d="M63 42H59C58.4477 42 58 42.4477 58 43V71C58 71.5523 58.4477 72 59 72H63C63.5523 72 64 71.5523 64 71V43C64 42.4477 63.5523 42 63 42Z" fill="#344EEA"/>
<path d="M72 52H68C67.4477 52 67 52.4477 67 53V71C67 71.5523 67.4477 72 68 72H72C72.5523 72 73 71.5523 73 71V53C73 52.4477 72.5523 52 72 52Z" fill="#C5EAFF"/>
<path d="M36 32H32C31.4477 32 31 32.4477 31 33V71C31 71.5523 31.4477 72 32 72H36C36.5523 72 37 71.5523 37 71V33C37 32.4477 36.5523 32 36 32Z" fill="#C5EAFF"/>
</svg>
