<svg width="39" height="38" viewBox="0 0 39 38" fill="none" xmlns="http://www.w3.org/2000/svg">
<path d="M35.8921 14.8099L34.7726 13.6905C34.6242 13.5421 34.4229 13.4587 34.2129 13.4587C34.003 13.4587 33.8017 13.5421 33.6532 13.6905L15.5407 31.8031V23.7502C15.5407 23.5403 15.4573 23.3389 15.3088 23.1904C15.1604 23.042 14.959 22.9586 14.749 22.9586H13.1657C12.9557 22.9586 12.7544 23.042 12.6059 23.1904C12.4574 23.3389 12.374 23.5403 12.374 23.7502V36.4169C12.374 36.6269 12.4574 36.8282 12.6059 36.9767C12.7544 37.1252 12.9557 37.2086 13.1657 37.2086H25.8324C26.0423 37.2086 26.2437 37.1252 26.3922 36.9767C26.5406 36.8282 26.624 36.6269 26.624 36.4169V34.8336C26.624 34.6236 26.5406 34.4222 26.3922 34.2738C26.2437 34.1253 26.0423 34.0419 25.8324 34.0419H17.7795L35.8921 15.9294C36.0405 15.7809 36.1239 15.5796 36.1239 15.3697C36.1239 15.1597 36.0405 14.9584 35.8921 14.8099Z" fill="#AEB5C4"/>
<path d="M23.4572 14.2503C23.4572 14.4603 23.5406 14.6617 23.6891 14.8101C23.8375 14.9586 24.0389 15.042 24.2489 15.042H25.8322C26.0422 15.042 26.2435 14.9586 26.392 14.8101C26.5404 14.6617 26.6239 14.4603 26.6239 14.2503V1.58366C26.6239 1.3737 26.5404 1.17233 26.392 1.02387C26.2435 0.8754 26.0422 0.791992 25.8322 0.791992H13.1655C12.9556 0.791992 12.7542 0.8754 12.6057 1.02387C12.4573 1.17233 12.3739 1.3737 12.3739 1.58366V3.16699C12.3739 3.37696 12.4573 3.57832 12.6057 3.72679C12.7542 3.87525 12.9556 3.95866 13.1655 3.95866H21.2184L3.10581 22.0712C2.9574 22.2197 2.87402 22.421 2.87402 22.6309C2.87402 22.8408 2.9574 23.0422 3.10581 23.1906L4.22523 24.31C4.37369 24.4585 4.57502 24.5418 4.78494 24.5418C4.99486 24.5418 5.19619 24.4585 5.34465 24.31L23.4572 6.19749V14.2503Z" fill="#D0D7E4"/>
</svg>
