<svg width="40" height="40" viewBox="0 0 40 40" fill="none" xmlns="http://www.w3.org/2000/svg">
<rect width="40" height="40" rx="20" fill="#191C32"/>
<path fill-rule="evenodd" clip-rule="evenodd" d="M12.5 14.375C12.5 14.0298 12.7798 13.75 13.125 13.75H26.875C27.2202 13.75 27.5 14.0298 27.5 14.375C27.5 14.7202 27.2202 15 26.875 15L13.125 15C12.7798 15 12.5 14.7202 12.5 14.375ZM12.5 20C12.5 19.6548 12.7798 19.375 13.125 19.375L26.875 19.375C27.2202 19.375 27.5 19.6548 27.5 20C27.5 20.3452 27.2202 20.625 26.875 20.625L13.125 20.625C12.7798 20.625 12.5 20.3452 12.5 20ZM13.125 26.25H26.875C27.2202 26.25 27.5 25.9702 27.5 25.625C27.5 25.2798 27.2202 25 26.875 25H13.125C12.7798 25 12.5 25.2798 12.5 25.625C12.5 25.9702 12.7798 26.25 13.125 26.25Z" fill="#BFBFD0"/>
</svg>
