<svg width="40" height="40" viewBox="0 0 40 40" fill="none" xmlns="http://www.w3.org/2000/svg">
<rect width="40" height="40" rx="20" fill="#E6E8EC"/>
<path fill-rule="evenodd" clip-rule="evenodd" d="M23.5464 14.5375L25.4472 16.4383L26.8623 15.0291C26.8792 15.0123 26.8792 14.9871 26.8623 14.9702L25.0241 13.1398C25.0179 13.1336 25.0127 13.1307 25.0081 13.1288C25.0026 13.1266 24.9954 13.125 24.987 13.125C24.9786 13.125 24.9714 13.1266 24.9659 13.1288C24.9613 13.1307 24.9562 13.1336 24.9499 13.1398L23.5464 14.5375ZM22.6606 15.4195L14.0128 24.0306C13.8197 24.2229 13.6905 24.4684 13.6415 24.7343L13.2776 26.7075L15.2209 26.3079C15.48 26.2546 15.7171 26.1271 15.9031 25.9418L24.5614 17.3203L22.6606 15.4195ZM25.9061 12.2541C25.3985 11.7486 24.5755 11.7486 24.0679 12.2541L13.1308 23.1448C12.7581 23.516 12.5074 23.9913 12.4122 24.5076L11.886 27.3606C11.8027 27.8122 12.2051 28.2041 12.6566 28.1113L15.4726 27.5323C15.9698 27.4301 16.4261 27.1851 16.7851 26.8276L27.7443 15.9149C28.2519 15.4094 28.2519 14.5899 27.7443 14.0845L25.9061 12.2541Z" fill="#535964"/>
</svg>
