<svg width="49" height="48" viewBox="0 0 49 48" fill="none" xmlns="http://www.w3.org/2000/svg">
<path d="M24.5 0C11.2447 0 0.5 10.7447 0.5 24C0.5 37.2553 11.2447 48 24.5 48C37.7553 48 48.5 37.2553 48.5 24C48.5 10.7447 37.7553 0 24.5 0Z" fill="#FFD6DA"/>
<path d="M25.5435 9.3916H23.4566C22.8803 9.3916 22.4131 9.85877 22.4131 10.4351V29.2177C22.4131 29.794 22.8803 30.2612 23.4566 30.2612H25.5435C26.1198 30.2612 26.587 29.794 26.587 29.2177V10.4351C26.587 9.85877 26.1198 9.3916 25.5435 9.3916Z" fill="#E93435"/>
<path d="M24.5001 39.652C25.9408 39.652 27.1087 38.484 27.1087 37.0433C27.1087 35.6025 25.9408 34.4346 24.5001 34.4346C23.0593 34.4346 21.8914 35.6025 21.8914 37.0433C21.8914 38.484 23.0593 39.652 24.5001 39.652Z" fill="#E93435"/>
</svg>
