<svg width="20" height="20" viewBox="0 0 20 20" fill="none" xmlns="http://www.w3.org/2000/svg">
<g id="ic-arrow-out-square">
<g id="Icon">
<path d="M15 5.90559L15 10.625C15 10.9702 14.7202 11.25 14.375 11.25C14.0298 11.25 13.75 10.9702 13.75 10.625V7.13388L6.69194 14.1919C6.44786 14.436 6.05214 14.436 5.80806 14.1919C5.56398 13.9479 5.56398 13.5521 5.80806 13.3081L12.8661 6.25H9.37502C9.02984 6.25 8.75002 5.97018 8.75002 5.625C8.75002 5.27982 9.02984 5 9.37502 5L14.0951 4.99999C14.1469 4.99993 14.2211 4.99984 14.2909 5.00564C14.4776 4.98045 14.6735 5.03959 14.8169 5.18306C14.9604 5.32655 15.0196 5.52245 14.9943 5.70914C15.0002 5.77903 15.0001 5.85354 15 5.90559Z" fill="#535964"/>
<path fill-rule="evenodd" clip-rule="evenodd" d="M3.75 1.25C2.36929 1.25 1.25 2.36929 1.25 3.75V16.25C1.25 17.6307 2.36929 18.75 3.75 18.75H16.25C17.6307 18.75 18.75 17.6307 18.75 16.25V3.75C18.75 2.36929 17.6307 1.25 16.25 1.25H3.75ZM16.25 2.5H3.75C3.05964 2.5 2.5 3.05964 2.5 3.75V16.25C2.5 16.9404 3.05964 17.5 3.75 17.5H16.25C16.9404 17.5 17.5 16.9404 17.5 16.25V3.75C17.5 3.05964 16.9404 2.5 16.25 2.5Z" fill="#535964"/>
</g>
</g>
</svg>
