<svg width="20" height="20" viewBox="0 0 20 20" fill="none" xmlns="http://www.w3.org/2000/svg">
<path d="M14.1454 5.31758C11.6898 3.14246 7.93211 3.2297 5.58098 5.5793C4.41051 6.749 3.80135 8.26566 3.75278 9.79857C3.74186 10.1435 3.45323 10.4142 3.10811 10.4033C2.76299 10.3924 2.49208 10.1039 2.503 9.75902C2.56124 7.92117 3.29274 6.09885 4.69681 4.6957C7.54125 1.85311 12.1013 1.77001 15.0461 4.4464V3.19325C15.0461 2.84807 15.3259 2.56825 15.6711 2.56825C16.0163 2.56825 16.2961 2.84807 16.2961 3.19325V5.69258C16.2961 6.17583 15.9043 6.56758 15.4211 6.56758H12.92C12.5748 6.56758 12.295 6.28776 12.295 5.94258C12.295 5.5974 12.5748 5.31758 12.92 5.31758H14.1454Z" fill="#A7A4B5"/>
<path d="M17.5049 9.92273C17.5014 9.57768 17.2188 9.30074 16.8735 9.30417C16.5282 9.3076 16.2511 9.5901 16.2545 9.93515C16.2706 11.5561 15.6604 13.18 14.4235 14.4161C12.0723 16.7657 8.31449 16.8529 5.85891 14.6776H6.91818C7.26336 14.6776 7.54318 14.3978 7.54318 14.0526C7.54318 13.7074 7.26336 13.4276 6.91818 13.4276H4.41706C3.93381 13.4276 3.54206 13.8194 3.54206 14.3026V16.802C3.54206 17.1471 3.82188 17.427 4.16706 17.427C4.51223 17.427 4.79206 17.1471 4.79206 16.802L4.79206 15.3932C7.72898 18.2275 12.4091 18.1963 15.3077 15.2997C16.7917 13.8166 17.5242 11.8655 17.5049 9.92273Z" fill="#A7A4B5"/>
</svg>
