<svg width="20" height="20" viewBox="0 0 20 20" fill="none" xmlns="http://www.w3.org/2000/svg">
<path fill-rule="evenodd" clip-rule="evenodd" d="M8.93307 1.43329C9.17715 1.18922 9.57288 1.18923 9.81695 1.43331L11.5152 3.13158C11.8569 3.47329 11.8569 4.02731 11.5152 4.36902L11.5152 4.36903L9.81694 6.06719C9.57285 6.31127 9.17713 6.31126 8.93305 6.06718C8.68898 5.8231 8.68898 5.42737 8.93306 5.1833L9.73559 4.38079C6.40645 4.51934 3.75 7.2621 3.75 10.6253C3.75 14.0771 6.54822 16.8753 10 16.8753C13.4518 16.8753 16.25 14.0771 16.25 10.6253C16.25 8.75868 15.4325 7.08378 14.1339 5.93764C13.8751 5.70922 13.8505 5.31426 14.0789 5.05547C14.3073 4.79667 14.7023 4.77205 14.9611 5.00046C16.5171 6.37382 17.5 8.38516 17.5 10.6253C17.5 14.7674 14.1421 18.1253 10 18.1253C5.85786 18.1253 2.5 14.7674 2.5 10.6253C2.5 6.56838 5.72113 3.26379 9.74538 3.12954L8.93305 2.31718C8.68898 2.0731 8.68898 1.67737 8.93307 1.43329ZM10.6309 4.01511L10.6313 4.01546L10.6313 4.01547C10.6312 4.01535 10.631 4.01523 10.6309 4.01511Z" fill="#A7A4B5"/>
</svg>
