<svg width="20" height="20" viewBox="0 0 20 20" fill="none" xmlns="http://www.w3.org/2000/svg">
<path fill-rule="evenodd" clip-rule="evenodd" d="M14.843 15.7269C13.5363 16.833 11.8461 17.5 10 17.5C8.15393 17.5 6.46365 16.833 5.15697 15.7269L7.82717 13.0567C8.44018 13.4933 9.19011 13.75 10 13.75C10.8099 13.75 11.5598 13.4933 12.1728 13.0567L14.843 15.7269ZM8.24531 11.7807C8.24111 11.7763 8.23683 11.7719 8.23247 11.7675C8.22811 11.7632 8.2237 11.7589 8.21925 11.7547C7.77447 11.3033 7.5 10.6837 7.5 10C7.5 8.61929 8.61929 7.5 10 7.5C11.3807 7.5 12.5 8.61929 12.5 10C12.5 10.6837 12.2255 11.3033 11.7808 11.7547L11.7675 11.7675L11.7547 11.7808C11.3033 12.2255 10.6837 12.5 10 12.5C9.31627 12.5 8.69665 12.2255 8.24531 11.7807ZM6.94328 12.1728L4.27309 14.843C3.16697 13.5363 2.5 11.8461 2.5 10C2.5 8.15409 3.16686 6.46394 4.27281 5.1573L6.94303 7.82752C6.50664 8.44047 6.25 9.19026 6.25 10C6.25 10.8099 6.50674 11.5598 6.94328 12.1728ZM15.7269 14.843C16.833 13.5363 17.5 11.8461 17.5 10C17.5 8.15409 16.8331 6.46394 15.7272 5.15731L13.057 7.82752C13.4934 8.44047 13.75 9.19026 13.75 10C13.75 10.8099 13.4933 11.5598 13.0567 12.1728L15.7269 14.843ZM12.1732 6.94354L14.8434 4.27337C13.5366 3.16709 11.8462 2.5 10 2.5C8.15378 2.5 6.46337 3.16709 5.15664 4.27337L7.82681 6.94354C8.43989 6.50684 9.18995 6.25 10 6.25C10.8101 6.25 11.5601 6.50684 12.1732 6.94354ZM10 1.25C12.4077 1.25 14.5883 2.22247 16.1704 3.79605C16.1763 3.8015 16.1821 3.80709 16.1878 3.81282C16.1935 3.81856 16.1991 3.82438 16.2046 3.83029C17.7778 5.41233 18.75 7.59263 18.75 10C18.75 14.8325 14.8325 18.75 10 18.75C5.16751 18.75 1.25 14.8325 1.25 10C1.25 7.59263 2.2222 5.41232 3.7954 3.83028C3.80087 3.82438 3.80647 3.81856 3.81221 3.81282C3.81793 3.8071 3.82374 3.80151 3.82962 3.79605C5.41172 2.22247 7.59229 1.25 10 1.25Z" fill="#A7A4B5"/>
</svg>
