<svg width="20" height="20" viewBox="0 0 20 20" fill="none" xmlns="http://www.w3.org/2000/svg">
<path fill-rule="evenodd" clip-rule="evenodd" d="M13.0533 3.98751C13.2542 4.2706 13.4171 4.58242 13.5348 4.91528H14.375H15.625V6.16528V7.43458C16.6569 7.43458 17.5 6.59183 17.5 5.54414C17.5 5.19896 17.7798 4.91914 18.125 4.91914C18.4702 4.91914 18.75 5.19896 18.75 5.54414C18.75 7.27492 17.3545 8.68458 15.625 8.68458V10.5789H18.125C18.4702 10.5789 18.75 10.8587 18.75 11.2039C18.75 11.5491 18.4702 11.8289 18.125 11.8289H15.625V13.1252C15.625 13.5466 15.5787 13.9571 15.4908 14.352H15.625C17.3545 14.352 18.75 15.7617 18.75 17.4925C18.75 17.8377 18.4702 18.1175 18.125 18.1175C17.7798 18.1175 17.5 17.8377 17.5 17.4925C17.5 16.4448 16.6569 15.602 15.625 15.602H15.0517C14.1358 17.4667 12.2178 18.7502 10 18.7502C7.78223 18.7502 5.86423 17.4667 4.94826 15.602H4.375C3.34309 15.602 2.5 16.4448 2.5 17.4925C2.5 17.8377 2.22018 18.1175 1.875 18.1175C1.52982 18.1175 1.25 17.8377 1.25 17.4925C1.25 15.7617 2.64549 14.352 4.375 14.352H4.50918C4.42133 13.9571 4.375 13.5466 4.375 13.1252V11.8289H1.875C1.52982 11.8289 1.25 11.5491 1.25 11.2039C1.25 10.8587 1.52982 10.5789 1.875 10.5789H4.375V8.68458C2.64549 8.68458 1.25 7.27492 1.25 5.54414C1.25 5.19896 1.52982 4.91914 1.875 4.91914C2.22018 4.91914 2.5 5.19896 2.5 5.54414C2.5 6.59183 3.34309 7.43458 4.375 7.43458V6.16528V4.91528H5.625H6.46516C6.58286 4.58241 6.74586 4.27056 6.94672 3.98746L5.29184 2.32236C5.04852 2.07754 5.04852 1.68059 5.29184 1.43576C5.53517 1.19094 5.92968 1.19094 6.173 1.43576L7.82765 3.10063C8.44057 2.65999 9.19032 2.39984 10 2.39984C10.8097 2.39984 11.5595 2.66 12.1724 3.10066L13.8273 1.43557C14.0706 1.19075 14.4651 1.19075 14.7084 1.43557C14.9517 1.6804 14.9517 2.07735 14.7084 2.32217L13.0533 3.98751ZM7.5 6.173H6.25L6.25001 6.16528H5.625V13.1252C5.625 15.5414 7.58375 17.5002 10 17.5002C12.4162 17.5002 14.375 15.5414 14.375 13.1252V6.16528H13.75L13.75 6.173H12.5L7.5 6.173ZM12.1649 4.91528C11.7308 4.15967 10.9197 3.64984 10 3.64984C9.08027 3.64984 8.26925 4.15967 7.83512 4.91528H12.1649Z" fill="#A7A4B5"/>
</svg>
