<svg width="20" height="20" viewBox="0 0 20 20" fill="none" xmlns="http://www.w3.org/2000/svg">
<path fill-rule="evenodd" clip-rule="evenodd" d="M1.59884 11.721L2.99613 12.1641C3.24303 12.2424 3.43606 12.4335 3.5359 12.6725C3.6364 12.9131 3.63537 13.1865 3.51504 13.4178L2.83632 14.7228C2.73569 14.9162 2.77207 15.1526 2.92624 15.3069L4.69068 17.0725C4.845 17.227 5.08168 17.2634 5.27531 17.1626L6.57908 16.4835C6.81021 16.3632 7.08341 16.3621 7.32382 16.4627C7.56235 16.5624 7.75296 16.7552 7.83102 17.0016L8.27423 18.401C8.34005 18.6088 8.53291 18.75 8.75089 18.75H11.2381C11.4561 18.75 11.649 18.6088 11.7148 18.401L12.158 17.0016C12.2361 16.7552 12.4267 16.5624 12.6652 16.4627C12.9056 16.3621 13.1788 16.3632 13.4099 16.4835L14.7137 17.1626C14.9073 17.2634 15.144 17.227 15.2984 17.0725L17.0628 15.3069C17.217 15.1526 17.2533 14.9162 17.1527 14.7228L16.4726 13.4152C16.3532 13.1855 16.3521 12.9141 16.452 12.6752C16.5519 12.4362 16.7457 12.2458 16.9931 12.1691L18.398 11.7336C18.6073 11.6687 18.75 11.4751 18.75 11.256V8.76662C18.75 8.54871 18.6089 8.35589 18.4012 8.29001L17.0039 7.84686C16.757 7.76855 16.5639 7.5775 16.4641 7.33849C16.3636 7.09786 16.3646 6.82451 16.485 6.59316L17.1637 5.28822C17.2643 5.09474 17.2279 4.85834 17.0738 4.70407L15.3093 2.93844C15.155 2.78401 14.9183 2.74757 14.7247 2.84842L13.4203 3.52777C13.1896 3.64794 12.9168 3.64898 12.6768 3.54859C12.4383 3.44883 12.2478 3.25589 12.1702 3.0093L11.7262 1.59977C11.6606 1.39159 11.4675 1.25 11.2493 1.25H8.76186C8.54388 1.25 8.35102 1.39122 8.2852 1.59903L7.84199 2.99837C7.76393 3.24484 7.57332 3.4376 7.3348 3.53734C7.09438 3.63788 6.82118 3.63684 6.59005 3.51646L5.28657 2.83758C5.09348 2.73702 4.85752 2.77295 4.70312 2.92643L2.92727 4.69163C2.77216 4.84581 2.73525 5.08292 2.83617 5.27696L3.51504 6.58218C3.63537 6.81353 3.6364 7.08688 3.5359 7.32751C3.43607 7.56652 3.24303 7.75757 2.99613 7.83588L1.59884 8.27903C1.39113 8.34491 1.25 8.53773 1.25 8.75564V11.2444C1.25 11.4623 1.39113 11.6551 1.59884 11.721ZM17.5 9.31557L16.626 9.03837C15.9929 8.8376 15.537 8.36201 15.3107 7.82025C15.0822 7.27321 15.0676 6.60927 15.376 6.01637L15.8011 5.19895L14.8141 4.21123L13.9977 4.63641C13.4051 4.94504 12.7413 4.93049 12.1945 4.70177C11.6527 4.47515 11.1775 4.01842 10.9779 3.38487L10.6992 2.5H9.31104L9.03365 3.3758C8.83328 4.00842 8.35828 4.46424 7.81704 4.69057C7.26991 4.91937 6.60563 4.93395 6.01265 4.62511L5.19547 4.19951L4.1996 5.1894L4.62401 6.00539C4.93239 6.59829 4.91782 7.26223 4.68933 7.80927C4.46305 8.35103 4.00706 8.82662 3.37402 9.02739L2.5 9.30459V10.6954L3.37402 10.9726C4.00706 11.1734 4.46305 11.649 4.68933 12.1907C4.91782 12.7378 4.93239 13.4017 4.62401 13.9946L4.19886 14.812L5.18592 15.7997L6.00168 15.3749C6.59466 15.0661 7.25893 15.0806 7.80606 15.3094C8.34729 15.5358 8.82231 15.9916 9.02268 16.6242L9.30007 17.5H10.689L10.9663 16.6242C11.1667 15.9916 11.6417 15.5358 12.183 15.3094C12.7301 15.0806 13.3944 15.066 13.9874 15.3749L14.8031 15.7997L15.7902 14.812L15.3637 13.992C15.0562 13.4008 15.0706 12.7386 15.2988 12.1929C15.5263 11.6489 15.9861 11.1726 16.623 10.9751L17.5 10.7033V9.31557Z" fill="#A7A4B5"/>
<path fill-rule="evenodd" clip-rule="evenodd" d="M10 7.5C8.61929 7.5 7.5 8.61929 7.5 10C7.5 11.3807 8.61929 12.5 10 12.5C11.3807 12.5 12.5 11.3807 12.5 10C12.5 8.61929 11.3807 7.5 10 7.5ZM6.25 10C6.25 7.92893 7.92893 6.25 10 6.25C12.0711 6.25 13.75 7.92893 13.75 10C13.75 12.0711 12.0711 13.75 10 13.75C7.92893 13.75 6.25 12.0711 6.25 10Z" fill="#A7A4B5"/>
</svg>
