<svg width="20" height="20" viewBox="0 0 20 20" fill="none" xmlns="http://www.w3.org/2000/svg">
<path fill-rule="evenodd" clip-rule="evenodd" d="M12.5 6.25C12.5 7.63071 11.3807 8.75 10 8.75C8.61929 8.75 7.5 7.63071 7.5 6.25C7.5 4.86929 8.61929 3.75 10 3.75C11.3807 3.75 12.5 4.86929 12.5 6.25ZM13.75 6.25C13.75 8.32107 12.0711 10 10 10C7.92893 10 6.25 8.32107 6.25 6.25C6.25 4.17893 7.92893 2.5 10 2.5C12.0711 2.5 13.75 4.17893 13.75 6.25ZM4.81936 13.7255C5.28158 12.974 6.12514 12.5 7.05098 12.5H12.949C13.8749 12.5 14.7184 12.974 15.1806 13.7255L16.1584 15.3152C16.3859 15.6852 16.1468 16.25 15.575 16.25H4.42505C3.8532 16.25 3.61405 15.6852 3.8416 15.3152L4.81936 13.7255ZM3.75464 13.0706C4.44937 11.9411 5.70067 11.25 7.05098 11.25H12.949C14.2993 11.25 15.5506 11.9411 16.2454 13.0706L17.2231 14.6603C17.9918 15.9101 17.069 17.5 15.575 17.5H4.42505C2.93103 17.5 2.00821 15.9101 2.77688 14.6603L3.75464 13.0706Z" fill="#A7A4B5"/>
</svg>
