<svg width="20" height="20" viewBox="0 0 20 20" fill="none" xmlns="http://www.w3.org/2000/svg">
<path fill-rule="evenodd" clip-rule="evenodd" d="M10 18.75C14.8325 18.75 18.75 14.8325 18.75 10C18.75 5.16751 14.8325 1.25 10 1.25C5.16751 1.25 1.25 5.16751 1.25 10C1.25 14.8325 5.16751 18.75 10 18.75ZM14.8169 8.56694C15.061 8.32286 15.061 7.92714 14.8169 7.68306C14.5729 7.43898 14.1771 7.43898 13.9331 7.68306L9.375 12.2411L6.69194 9.55806C6.44786 9.31398 6.05214 9.31398 5.80806 9.55806C5.56398 9.80214 5.56398 10.1979 5.80806 10.4419L8.75628 13.3902C9.09799 13.7319 9.65201 13.7319 9.99372 13.3902L14.8169 8.56694Z" fill="#6AC06B"/>
</svg>
