<svg width="20" height="20" viewBox="0 0 20 20" fill="none" xmlns="http://www.w3.org/2000/svg">
<path fill-rule="evenodd" clip-rule="evenodd" d="M6.25 6.25H6.5H13.5H13.75C13.75 4.17893 12.0711 2.5 10 2.5C7.92893 2.5 6.25 4.17893 6.25 6.25ZM5 6.25V6.27399C4.50973 6.30392 4.16191 6.37121 3.86502 6.52248C3.39462 6.76217 3.01217 7.14462 2.77248 7.61502C2.5 8.1498 2.5 8.84987 2.5 10.25V14.75C2.5 16.1501 2.5 16.8502 2.77248 17.385C3.01217 17.8554 3.39462 18.2378 3.86502 18.4775C4.3998 18.75 5.09987 18.75 6.5 18.75H13.5C14.9001 18.75 15.6002 18.75 16.135 18.4775C16.6054 18.2378 16.9878 17.8554 17.2275 17.385C17.5 16.8502 17.5 16.1501 17.5 14.75V10.25C17.5 8.84987 17.5 8.1498 17.2275 7.61502C16.9878 7.14462 16.6054 6.76217 16.135 6.52248C15.8381 6.37121 15.4903 6.30392 15 6.27399V6.25C15 3.48858 12.7614 1.25 10 1.25C7.23858 1.25 5 3.48858 5 6.25ZM4.95979 7.52991C5.31397 7.50097 5.77931 7.5 6.5 7.5H13.5C14.2207 7.5 14.686 7.50097 15.0402 7.52991C15.3798 7.55765 15.5057 7.60475 15.5675 7.63624C15.8027 7.75608 15.9939 7.94731 16.1138 8.18251C16.1452 8.24432 16.1923 8.37022 16.2201 8.70979C16.249 9.06397 16.25 9.52931 16.25 10.25V14.75C16.25 15.4707 16.249 15.936 16.2201 16.2902C16.1923 16.6298 16.1452 16.7557 16.1138 16.8175C15.9939 17.0527 15.8027 17.2439 15.5675 17.3638C15.5057 17.3953 15.3798 17.4423 15.0402 17.4701C14.686 17.499 14.2207 17.5 13.5 17.5H6.5C5.77931 17.5 5.31397 17.499 4.95979 17.4701C4.62022 17.4423 4.49432 17.3953 4.43251 17.3638C4.19731 17.2439 4.00608 17.0527 3.88624 16.8175C3.85475 16.7557 3.80765 16.6298 3.77991 16.2902C3.75097 15.936 3.75 15.4707 3.75 14.75V10.25C3.75 9.52931 3.75097 9.06397 3.77991 8.70979C3.80765 8.37022 3.85475 8.24432 3.88624 8.18251C4.00608 7.94731 4.19731 7.75608 4.43251 7.63624C4.49432 7.60475 4.62022 7.55765 4.95979 7.52991ZM11.25 11.25C11.25 11.7277 10.9821 12.1428 10.5883 12.3532L11.1335 14.534C11.1927 14.7707 11.0137 15 10.7697 15H9.23029C8.98633 15 8.80732 14.7707 8.86649 14.534L9.4117 12.3532C9.01793 12.1428 8.75 11.7277 8.75 11.25C8.75 10.5596 9.30964 10 10 10C10.6904 10 11.25 10.5596 11.25 11.25Z" fill="#A7A4B5"/>
</svg>
