<svg width="25" height="24" viewBox="0 0 25 24" fill="none" xmlns="http://www.w3.org/2000/svg">
<g id="ic-list-bullets">
<path id="Icon" fill-rule="evenodd" clip-rule="evenodd" d="M3.5 7.5C4.32843 7.5 5 6.82843 5 6C5 5.17157 4.32843 4.5 3.5 4.5C2.67157 4.5 2 5.17157 2 6C2 6.82843 2.67157 7.5 3.5 7.5ZM9.5 5.25C9.08579 5.25 8.75 5.58579 8.75 6C8.75 6.41421 9.08579 6.75 9.5 6.75L20.75 6.75C21.1642 6.75 21.5 6.41421 21.5 6C21.5 5.58579 21.1642 5.25 20.75 5.25L9.5 5.25ZM9.5 12.75L20.75 12.75C21.1642 12.75 21.5 12.4142 21.5 12C21.5 11.5858 21.1642 11.25 20.75 11.25H9.5C9.08579 11.25 8.75 11.5858 8.75 12C8.75 12.4142 9.08579 12.75 9.5 12.75ZM8.75 18C8.75 17.5858 9.08579 17.25 9.5 17.25L20.75 17.25C21.1642 17.25 21.5 17.5858 21.5 18C21.5 18.4142 21.1642 18.75 20.75 18.75L9.5 18.75C9.08579 18.75 8.75 18.4142 8.75 18ZM5 12C5 12.8284 4.32843 13.5 3.5 13.5C2.67157 13.5 2 12.8284 2 12C2 11.1716 2.67157 10.5 3.5 10.5C4.32843 10.5 5 11.1716 5 12ZM3.5 19.5C4.32843 19.5 5 18.8284 5 18C5 17.1716 4.32843 16.5 3.5 16.5C2.67157 16.5 2 17.1716 2 18C2 18.8284 2.67157 19.5 3.5 19.5Z" fill="#0C0C14"/>
</g>
</svg>
