<svg width="25" height="24" viewBox="0 0 25 24" fill="none" xmlns="http://www.w3.org/2000/svg">
<g id="ic-money-bills">
<g id="Icon">
<path fill-rule="evenodd" clip-rule="evenodd" d="M14 13.5C15.6569 13.5 17 12.1569 17 10.5C17 8.84315 15.6569 7.5 14 7.5C12.3431 7.5 11 8.84315 11 10.5C11 12.1569 12.3431 13.5 14 13.5ZM14 12C14.8284 12 15.5 11.3284 15.5 10.5C15.5 9.67157 14.8284 9 14 9C13.1716 9 12.5 9.67157 12.5 10.5C12.5 11.3284 13.1716 12 14 12Z" fill="#0C0C14"/>
<path fill-rule="evenodd" clip-rule="evenodd" d="M7.25 4.5C6.00736 4.5 5 5.50736 5 6.75V14.25C5 15.4926 6.00736 16.5 7.25 16.5H20.75C21.9926 16.5 23 15.4926 23 14.25V6.75C23 5.50736 21.9926 4.5 20.75 4.5H7.25ZM20.75 6H19.25C19.25 7.24264 20.2574 8.25 21.5 8.25V6.75C21.5 6.33579 21.1642 6 20.75 6ZM10.25 6H17.75C17.75 8.07107 19.4289 9.75 21.5 9.75V11.25C19.4289 11.25 17.75 12.9289 17.75 15H10.25C10.25 12.9289 8.57107 11.25 6.5 11.25V9.75C8.57107 9.75 10.25 8.07107 10.25 6ZM8.75 6H7.25C6.83579 6 6.5 6.33579 6.5 6.75V8.25C7.74264 8.25 8.75 7.24264 8.75 6ZM6.5 12.75C7.74264 12.75 8.75 13.7574 8.75 15H7.25C6.83579 15 6.5 14.6642 6.5 14.25V12.75ZM19.25 15H20.75C21.1642 15 21.5 14.6642 21.5 14.25V12.75C20.2574 12.75 19.25 13.7574 19.25 15Z" fill="#0C0C14"/>
<path d="M3.5 8.25C3.5 7.83579 3.16421 7.5 2.75 7.5C2.33579 7.5 2 7.83579 2 8.25V15.75C2 17.8211 3.67893 19.5 5.75 19.5H20.75C21.1642 19.5 21.5 19.1642 21.5 18.75C21.5 18.3358 21.1642 18 20.75 18H5.75C4.50736 18 3.5 16.9926 3.5 15.75V8.25Z" fill="#0C0C14"/>
</g>
</g>
</svg>
