<svg width="21" height="20" viewBox="0 0 21 20" fill="none" xmlns="http://www.w3.org/2000/svg">
<g id="ic-squares">
<path id="Icon" fill-rule="evenodd" clip-rule="evenodd" d="M9.02274 1.25C7.76754 1.25 6.75 2.26754 6.75 3.52274V5.00002H8V3.52274C8 2.9579 8.4579 2.5 9.02274 2.5H16.75C17.4404 2.5 18 3.05964 18 3.75V11.25C18 11.9404 17.4404 12.5 16.75 12.5H15.5V13.75H16.75C18.1307 13.75 19.25 12.6307 19.25 11.25V3.75C19.25 2.36929 18.1307 1.25 16.75 1.25H9.02274ZM3 8.75C3 8.05964 3.55964 7.5 4.25 7.5H11.75C12.4404 7.5 13 8.05964 13 8.75V16.25C13 16.9404 12.4404 17.5 11.75 17.5H4.25C3.55964 17.5 3 16.9404 3 16.25V8.75ZM1.75 8.75C1.75 7.36929 2.86929 6.25 4.25 6.25H11.75C13.1307 6.25 14.25 7.36929 14.25 8.75V16.25C14.25 17.6307 13.1307 18.75 11.75 18.75H4.25C2.86929 18.75 1.75 17.6307 1.75 16.25V8.75Z" fill="#9395A4"/>
</g>
</svg>
