<svg width="20" height="20" viewBox="0 0 20 20" fill="none" xmlns="http://www.w3.org/2000/svg">
<path fill-rule="evenodd" clip-rule="evenodd" d="M3.83785 4.65421C3.63669 6.88359 3.74151 9.22859 4.57125 11.4078C5.40936 13.609 7.01888 15.7273 10.0004 17.4094C12.9815 15.7273 14.5908 13.6091 15.4288 11.4079C16.2584 9.22862 16.3632 6.88359 16.1622 4.65417L10.0004 2.53611L3.83785 4.65421ZM3.04985 3.60328L9.79844 1.28375C9.92938 1.23875 10.0715 1.23875 10.2024 1.28376L16.9502 3.60326C17.1771 3.68124 17.3402 3.88244 17.3658 4.12234C17.888 9.01894 17.153 14.9877 10.2871 18.6785C10.1098 18.7738 9.89106 18.7738 9.71375 18.6785C2.84709 14.9877 2.11174 9.01893 2.63425 4.12232C2.65985 3.88243 2.82301 3.68124 3.04985 3.60328Z" fill="#A7A4B5"/>
</svg>
