<svg width="20" height="20" viewBox="0 0 20 20" fill="none" xmlns="http://www.w3.org/2000/svg">
<path d="M11.8804 6.25V3.75C11.8804 3.05964 11.3207 2.5 10.6304 2.5H3.75024C3.05989 2.5 2.50024 3.05964 2.50024 3.75L2.50024 16.25C2.50024 16.9404 3.05989 17.5 3.75024 17.5H10.6304C11.3207 17.5 11.8804 16.9404 11.8804 16.25V13.75H13.1304V16.25C13.1304 17.6307 12.0111 18.75 10.6304 18.75H3.75024C2.36953 18.75 1.25024 17.6307 1.25024 16.25L1.25024 3.75C1.25024 2.36929 2.36953 1.25 3.75024 1.25H10.6304C12.0111 1.25 13.1304 2.36929 13.1304 3.75V6.25H11.8804Z" fill="#A7A4B5"/>
<path d="M14.5577 6.44009C14.7979 6.19219 15.1936 6.18594 15.4415 6.42614L18.4815 9.37159C18.8363 9.7154 18.8363 10.2846 18.4815 10.6284L15.4415 13.5739C15.1936 13.8141 14.7979 13.8078 14.5577 13.5599C14.3175 13.312 14.3238 12.9163 14.5717 12.6761L16.6886 10.625L8.13407 10.625C7.78889 10.625 7.50907 10.3452 7.50907 10C7.50907 9.65482 7.78889 9.375 8.13407 9.375L16.6886 9.375L14.5717 7.32386C14.3238 7.08367 14.3175 6.68799 14.5577 6.44009Z" fill="#A7A4B5"/>
<path d="M11.8804 6.25V3.75C11.8804 3.05964 11.3207 2.5 10.6304 2.5H3.75024C3.05989 2.5 2.50024 3.05964 2.50024 3.75L2.50024 16.25C2.50024 16.9404 3.05989 17.5 3.75024 17.5H10.6304C11.3207 17.5 11.8804 16.9404 11.8804 16.25V13.75H13.1304V16.25C13.1304 17.6307 12.0111 18.75 10.6304 18.75H3.75024C2.36953 18.75 1.25024 17.6307 1.25024 16.25L1.25024 3.75C1.25024 2.36929 2.36953 1.25 3.75024 1.25H10.6304C12.0111 1.25 13.1304 2.36929 13.1304 3.75V6.25H11.8804Z" stroke="#A7A4B5"/>
<path d="M14.5577 6.44009C14.7979 6.19219 15.1936 6.18594 15.4415 6.42614L18.4815 9.37159C18.8363 9.7154 18.8363 10.2846 18.4815 10.6284L15.4415 13.5739C15.1936 13.8141 14.7979 13.8078 14.5577 13.5599C14.3175 13.312 14.3238 12.9163 14.5717 12.6761L16.6886 10.625L8.13407 10.625C7.78889 10.625 7.50907 10.3452 7.50907 10C7.50907 9.65482 7.78889 9.375 8.13407 9.375L16.6886 9.375L14.5717 7.32386C14.3238 7.08367 14.3175 6.68799 14.5577 6.44009Z" stroke="#A7A4B5"/>
</svg>
