<svg width="40" height="40" viewBox="0 0 40 40" fill="none" xmlns="http://www.w3.org/2000/svg">
<rect width="40" height="40" rx="20" fill="#F3F5F6"/>
<path fill-rule="evenodd" clip-rule="evenodd" d="M18.8182 13C17.814 13 17 13.814 17 14.8182V16H18V14.8182C18 14.3663 18.3663 14 18.8182 14H25C25.5523 14 26 14.4477 26 15V21C26 21.5523 25.5523 22 25 22H24V23H25C26.1046 23 27 22.1046 27 21V15C27 13.8954 26.1046 13 25 13H18.8182ZM14 19C14 18.4477 14.4477 18 15 18H21C21.5523 18 22 18.4477 22 19V25C22 25.5523 21.5523 26 21 26H15C14.4477 26 14 25.5523 14 25V19ZM13 19C13 17.8954 13.8954 17 15 17H21C22.1046 17 23 17.8954 23 19V25C23 26.1046 22.1046 27 21 27H15C13.8954 27 13 26.1046 13 25V19Z" fill="#535964"/>
</svg>
