<svg width="16" height="16" viewBox="0 0 16 16" fill="none" xmlns="http://www.w3.org/2000/svg">
<path fill-rule="evenodd" clip-rule="evenodd" d="M8 14C11.3137 14 14 11.3137 14 8C14 4.68629 11.3137 2 8 2C4.68629 2 2 4.68629 2 8C2 11.3137 4.68629 14 8 14ZM8 15C11.866 15 15 11.866 15 8C15 4.13401 11.866 1 8 1C4.13401 1 1 4.13401 1 8C1 11.866 4.13401 15 8 15ZM9.74995 11C9.74995 11.3038 9.50371 11.55 9.19995 11.55H8.19995H7.19995C6.89619 11.55 6.64995 11.3038 6.64995 11C6.64995 10.6962 6.89619 10.45 7.19995 10.45H7.64995L7.64995 7.55H7.49994C7.19618 7.55 6.94994 7.30376 6.94994 7C6.94994 6.69624 7.19618 6.45 7.49994 6.45H8.19995C8.34582 6.45 8.48571 6.50795 8.58886 6.61109C8.69201 6.71424 8.74995 6.85413 8.74995 7L8.74995 10.45H9.19995C9.50371 10.45 9.74995 10.6962 9.74995 11ZM8 5.40002C8.3866 5.40002 8.7 5.08662 8.7 4.70002C8.7 4.31343 8.3866 4.00002 8 4.00002C7.6134 4.00002 7.3 4.31343 7.3 4.70002C7.3 5.08662 7.6134 5.40002 8 5.40002Z" fill="#0C0C14"/>
</svg>
