<svg width="34" height="34" viewBox="0 0 34 34" fill="none" xmlns="http://www.w3.org/2000/svg">
<rect width="34" height="34" rx="17" fill="#D0D7E4" fill-opacity="0.4"/>
<path fill-rule="evenodd" clip-rule="evenodd" d="M12 21C12 21.5523 12.4477 22 13 22L18 22L18 19.5C18 18.6716 18.6716 18 19.5 18L22 18L22 13C22 12.4477 21.5523 12 21 12L13 12C12.4477 12 12 12.4477 12 13L12 21ZM21.7505 19H19.5C19.2239 19 19 19.2239 19 19.5V21.7505C19.083 21.6955 19.1608 21.6321 19.2322 21.5607L21.5607 19.2322C21.6321 19.1608 21.6955 19.083 21.7505 19ZM13 23C11.8954 23 11 22.1046 11 21V13C11 11.8954 11.8954 11 13 11H21C22.1046 11 23 11.8954 23 13L23 18.1716C23 18.8346 22.7366 19.4705 22.2678 19.9393L19.9393 22.2678C19.4705 22.7366 18.8346 23 18.1716 23L13 23Z" fill="#191C32"/>
</svg>
