<svg width="40" height="40" viewBox="0 0 40 40" fill="none" xmlns="http://www.w3.org/2000/svg">
<rect width="40" height="40" rx="20" fill="#222247"/>
<path fill-rule="evenodd" clip-rule="evenodd" d="M13 14.5C13 13.6716 13.6716 13 14.5 13H18C18.8284 13 19.5 13.6716 19.5 14.5V18C19.5 18.8284 18.8284 19.5 18 19.5H14.5C13.6716 19.5 13 18.8284 13 18V14.5ZM14.5 14C14.2239 14 14 14.2239 14 14.5V18C14 18.2761 14.2239 18.5 14.5 18.5H18C18.2761 18.5 18.5 18.2761 18.5 18V14.5C18.5 14.2239 18.2761 14 18 14H14.5Z" fill="#BFBFD0"/>
<path fill-rule="evenodd" clip-rule="evenodd" d="M20.5 14.5C20.5 13.6716 21.1716 13 22 13H25.5C26.3284 13 27 13.6716 27 14.5V18C27 18.8284 26.3284 19.5 25.5 19.5H22C21.1716 19.5 20.5 18.8284 20.5 18V14.5ZM22 14C21.7239 14 21.5 14.2239 21.5 14.5V18C21.5 18.2761 21.7239 18.5 22 18.5H25.5C25.7761 18.5 26 18.2761 26 18V14.5C26 14.2239 25.7761 14 25.5 14H22Z" fill="#BFBFD0"/>
<path fill-rule="evenodd" clip-rule="evenodd" d="M13 22C13 21.1716 13.6716 20.5 14.5 20.5H18C18.8284 20.5 19.5 21.1716 19.5 22V25.5C19.5 26.3284 18.8284 27 18 27H14.5C13.6716 27 13 26.3284 13 25.5V22ZM14.5 21.5C14.2239 21.5 14 21.7239 14 22V25.5C14 25.7761 14.2239 26 14.5 26H18C18.2761 26 18.5 25.7761 18.5 25.5V22C18.5 21.7239 18.2761 21.5 18 21.5H14.5Z" fill="#BFBFD0"/>
<path d="M22.8799 15.8799C22.8799 15.6037 23.1037 15.3799 23.3799 15.3799H24.1299C24.406 15.3799 24.6299 15.6037 24.6299 15.8799V16.6299C24.6299 16.906 24.406 17.1299 24.1299 17.1299H23.3799C23.1037 17.1299 22.8799 16.906 22.8799 16.6299V15.8799Z" fill="#BFBFD0"/>
<path d="M15.3799 15.8799C15.3799 15.6037 15.6037 15.3799 15.8799 15.3799H16.6299C16.906 15.3799 17.1299 15.6037 17.1299 15.8799V16.6299C17.1299 16.906 16.906 17.1299 16.6299 17.1299H15.8799C15.6037 17.1299 15.3799 16.906 15.3799 16.6299V15.8799Z" fill="#BFBFD0"/>
<path d="M15.3799 23.3799C15.3799 23.1037 15.6037 22.8799 15.8799 22.8799H16.6299C16.906 22.8799 17.1299 23.1037 17.1299 23.3799V24.1299C17.1299 24.406 16.906 24.6299 16.6299 24.6299H15.8799C15.6037 24.6299 15.3799 24.406 15.3799 24.1299V23.3799Z" fill="#BFBFD0"/>
<path d="M25.25 25.75C25.25 25.4739 25.4739 25.25 25.75 25.25H26.5C26.7761 25.25 27 25.4739 27 25.75V26.5C27 26.7761 26.7761 27 26.5 27H25.75C25.4739 27 25.25 26.7761 25.25 26.5V25.75Z" fill="#BFBFD0"/>
<path d="M25.25 21C25.25 20.7239 25.4739 20.5 25.75 20.5H26.5C26.7761 20.5 27 20.7239 27 21V21.75C27 22.0261 26.7761 22.25 26.5 22.25H25.75C25.4739 22.25 25.25 22.0261 25.25 21.75V21Z" fill="#BFBFD0"/>
<path d="M20.5 25.75C20.5 25.4739 20.7239 25.25 21 25.25H21.75C22.0261 25.25 22.25 25.4739 22.25 25.75V26.5C22.25 26.7761 22.0261 27 21.75 27H21C20.7239 27 20.5 26.7761 20.5 26.5V25.75Z" fill="#BFBFD0"/>
<path d="M20.5 21C20.5 20.7239 20.7239 20.5 21 20.5H21.75C22.0261 20.5 22.25 20.7239 22.25 21V21.75C22.25 22.0261 22.0261 22.25 21.75 22.25H21C20.7239 22.25 20.5 22.0261 20.5 21.75V21Z" fill="#BFBFD0"/>
<path d="M22.8799 23.3799C22.8799 23.1037 23.1037 22.8799 23.3799 22.8799H24.1299C24.406 22.8799 24.6299 23.1037 24.6299 23.3799V24.1299C24.6299 24.406 24.406 24.6299 24.1299 24.6299H23.3799C23.1037 24.6299 22.8799 24.406 22.8799 24.1299V23.3799Z" fill="#BFBFD0"/>
</svg>
