<svg width="20" height="20" viewBox="0 0 20 20" fill="none" xmlns="http://www.w3.org/2000/svg">
<path fill-rule="evenodd" clip-rule="evenodd" d="M16.25 2.5H3.75C3.05964 2.5 2.5 3.05964 2.5 3.75V16.25C2.5 16.9404 3.05964 17.5 3.75 17.5H16.25C16.9404 17.5 17.5 16.9404 17.5 16.25V3.75C17.5 3.05964 16.9404 2.5 16.25 2.5ZM3.75 1.25C2.36929 1.25 1.25 2.36929 1.25 3.75V16.25C1.25 17.6307 2.36929 18.75 3.75 18.75H16.25C17.6307 18.75 18.75 17.6307 18.75 16.25V3.75C18.75 2.36929 17.6307 1.25 16.25 1.25H3.75Z" fill="#A7A4B5"/>
<path fill-rule="evenodd" clip-rule="evenodd" d="M8.125 5.625H5.625V8.125H8.125V5.625ZM5.625 4.375C4.93464 4.375 4.375 4.93464 4.375 5.625V8.125C4.375 8.81536 4.93464 9.375 5.625 9.375H8.125C8.81536 9.375 9.375 8.81536 9.375 8.125V5.625C9.375 4.93464 8.81536 4.375 8.125 4.375H5.625Z" fill="#A7A4B5"/>
<path fill-rule="evenodd" clip-rule="evenodd" d="M8.125 11.875H5.625V14.375H8.125V11.875ZM5.625 10.625C4.93464 10.625 4.375 11.1846 4.375 11.875V14.375C4.375 15.0654 4.93464 15.625 5.625 15.625H8.125C8.81536 15.625 9.375 15.0654 9.375 14.375V11.875C9.375 11.1846 8.81536 10.625 8.125 10.625H5.625Z" fill="#A7A4B5"/>
<path fill-rule="evenodd" clip-rule="evenodd" d="M14.375 5.625H11.875V8.125H14.375V5.625ZM11.875 4.375C11.1846 4.375 10.625 4.93464 10.625 5.625V8.125C10.625 8.81536 11.1846 9.375 11.875 9.375H14.375C15.0654 9.375 15.625 8.81536 15.625 8.125V5.625C15.625 4.93464 15.0654 4.375 14.375 4.375H11.875Z" fill="#A7A4B5"/>
</svg>
