<svg width="164" height="128" viewBox="0 0 164 128" fill="none" xmlns="http://www.w3.org/2000/svg">
<path d="M64.1371 95.6675C63.8005 95.6675 70.8805 66.8375 70.8805 66.8375C71.0538 66.2809 71.5055 65.8542 72.0721 65.7159C72.6371 65.5725 73.2371 65.7442 73.6488 66.1559L85.3155 77.8225C85.6571 78.1642 85.8338 78.6359 85.7988 79.1192C85.7638 79.6009 85.5238 80.0442 85.1371 80.3342L65.1371 95.3342C64.8421 95.5575 64.4888 95.6675 64.1371 95.6675Z" fill="url(#paint0_linear_4364_17385)"/>
<path d="M102.457 99.0002C102.102 99.0002 101.749 98.8869 101.457 98.6669L48.1373 58.6669C47.654 58.3052 47.4056 57.7136 47.484 57.1152C47.5623 56.5186 47.9573 56.0102 48.5173 55.7852L115.186 29.1187C115.754 28.8937 116.401 28.992 116.871 29.3853C117.341 29.7753 117.559 30.392 117.439 30.9937L104.092 97.6602C103.981 98.2219 103.587 98.6852 103.052 98.8902C102.861 98.9636 102.659 98.9986 102.459 98.9986L102.457 99.0002Z" fill="url(#paint1_linear_4364_17385)"/>
<path d="M64.139 95.6669C64.049 95.6669 63.9607 95.6602 63.8707 95.6452C63.064 95.5135 62.4707 94.8169 62.4707 94.0002V69.0002C62.4707 68.4735 62.7207 67.9769 63.144 67.6619L114.811 29.3286C115.519 28.8036 116.509 28.9203 117.076 29.5886C117.644 30.2603 117.592 31.2569 116.959 31.8669L71.1357 75.9185L65.719 94.5269C65.489 95.2152 64.8457 95.6669 64.139 95.6669Z" fill="url(#paint2_linear_4364_17385)"/>
<path d="M33.4671 51.7562L32.7701 51.221C32.3442 50.894 31.7339 50.9741 31.4069 51.4L26.9889 57.1536C26.6619 57.5795 26.742 58.1898 27.1679 58.5168L27.8648 59.052C28.2907 59.379 28.901 59.2988 29.228 58.873L33.6461 53.1193C33.9731 52.6935 33.8929 52.0832 33.4671 51.7562Z" fill="#55E6B2"/>
<path d="M136.397 47.6838L135.58 47.3591C135.081 47.1608 134.516 47.4045 134.318 47.9035L132.359 52.8305C132.161 53.3295 132.404 53.8948 132.903 54.0932L133.72 54.4178C134.219 54.6161 134.784 54.3724 134.983 53.8734L136.941 48.9464C137.14 48.4474 136.896 47.8821 136.397 47.6838Z" fill="#FFD585"/>
<path d="M163.073 67.82L162.661 67.044C162.409 66.5699 161.82 66.3898 161.346 66.6419L154.94 70.0469C154.466 70.2989 154.286 70.8876 154.538 71.3617L154.951 72.1377C155.203 72.6118 155.791 72.7918 156.265 72.5398L162.671 69.1348C163.145 68.8828 163.325 68.2941 163.073 67.82Z" fill="#C867F6"/>
<path d="M24.4841 89.5815C25.5756 89.5815 26.4604 88.6966 26.4604 87.6052C26.4604 86.5137 25.5756 85.6289 24.4841 85.6289C23.3926 85.6289 22.5078 86.5137 22.5078 87.6052C22.5078 88.6966 23.3926 89.5815 24.4841 89.5815Z" fill="#FF69B8"/>
<path d="M43.1576 26.4793C42.983 26.1823 42.6642 26 42.3197 26H40.6603C40.3133 26 39.9925 26.185 39.8187 26.4854L38.9916 27.9153C38.8182 28.2152 38.8174 28.5848 38.9896 28.8854L39.8194 30.3341C39.9927 30.6365 40.3145 30.823 40.663 30.823H42.3169C42.6629 30.823 42.9828 30.6392 43.157 30.3402L44.0009 28.8915C44.1778 28.5878 44.177 28.2122 43.9988 27.9092L43.1576 26.4793Z" fill="#FFA8A8"/>
<path d="M162.416 34.2628C162.242 33.9624 161.921 33.7773 161.574 33.7773H159.92C159.573 33.7773 159.252 33.9624 159.078 34.2628L158.251 35.6927C158.077 35.9926 158.077 36.3621 158.249 36.6627L159.079 38.1114C159.252 38.4138 159.574 38.6004 159.922 38.6004H161.571C161.92 38.6004 162.242 38.4138 162.415 38.1114L163.245 36.6627C163.417 36.3621 163.416 35.9926 163.243 35.6927L162.416 34.2628Z" fill="#321E86"/>
<path d="M5.88471 59.5526C5.43543 58.9523 4.5045 59.0651 4.21146 59.7552L3.02901 62.5401C2.73673 63.2285 3.29864 63.9753 4.04105 63.8852L7.03587 63.5217C7.77804 63.4316 8.14506 62.5725 7.69707 61.974L5.88471 59.5526Z" fill="#321E86"/>
<path d="M145.729 96.3611C145.619 95.6225 144.752 95.2788 144.166 95.7413L141.797 97.6093C141.209 98.0735 141.345 99.0012 142.042 99.2768L144.855 100.389C145.552 100.664 146.285 100.082 146.174 99.341L145.729 96.3611Z" fill="#FF69B8"/>
<path d="M39.3893 101.642L38.7297 102.223C38.3267 102.578 38.2876 103.192 38.6424 103.595L43.4361 109.04C43.7909 109.443 44.4052 109.482 44.8082 109.127L45.4678 108.547C45.8708 108.192 45.9099 107.578 45.5551 107.175L40.7615 101.729C40.4067 101.326 39.7923 101.287 39.3893 101.642Z" fill="#6847F2"/>
<defs>
<linearGradient id="paint0_linear_4364_17385" x1="74.9643" y1="65.666" x2="74.9643" y2="95.6675" gradientUnits="userSpaceOnUse">
<stop stop-color="#A2A3B4"/>
<stop offset="1" stop-color="#83849B"/>
</linearGradient>
<linearGradient id="paint1_linear_4364_17385" x1="82.4706" y1="29" x2="82.4706" y2="99.0002" gradientUnits="userSpaceOnUse">
<stop stop-color="#E0E0E6"/>
<stop offset="1" stop-color="#C2C3CD"/>
</linearGradient>
<linearGradient id="paint2_linear_4364_17385" x1="89.9705" y1="29" x2="89.9705" y2="95.6669" gradientUnits="userSpaceOnUse">
<stop stop-color="#C2C3CD"/>
<stop offset="1" stop-color="#A2A3B4"/>
</linearGradient>
</defs>
</svg>
