<svg width="147" height="19" viewBox="0 0 147 19" fill="none" xmlns="http://www.w3.org/2000/svg">
<path d="M0 14.0454V18.6606H3.22252V14.247C3.22252 13.8186 3.39081 13.4046 3.69516 13.1022C3.99593 12.7998 4.40769 12.627 4.83378 12.627H8.13865C9.6783 12.627 11.1571 12.0114 12.2456 10.9134C13.3341 9.81898 13.9463 8.33219 13.9463 6.78419C13.9463 5.2362 13.3341 3.7494 12.2456 2.6514C11.1571 1.557 9.6783 0.941406 8.13507 0.941406H0V6.70859H3.22252V3.9906H7.92024C8.65068 3.9906 9.34889 4.2822 9.86449 4.8006C10.3801 5.319 10.6701 6.02099 10.6701 6.75539C10.6701 7.48979 10.3801 8.19179 9.86449 8.71019C9.34889 9.22859 8.65068 9.52018 7.92024 9.52018H4.50795C3.91715 9.52018 3.32994 9.63538 2.78569 9.86578C2.23786 10.0926 1.74374 10.4274 1.32481 10.8486C0.905886 11.2698 0.576476 11.7702 0.347319 12.3174C0.118162 12.861 0 13.4514 0 14.0454Z" fill="white"/>
<path d="M14.4441 18.6606V11.6298C14.4441 8.76058 16.109 6.47818 19.4426 6.47818C19.9761 6.47098 20.5096 6.52858 21.0323 6.65458V9.54538C20.6528 9.52018 20.327 9.52018 20.173 9.52018C18.4078 9.52018 17.6487 10.3338 17.6487 11.9826V18.6606H14.4441Z" fill="white"/>
<path d="M21.9918 12.699C21.9918 9.17103 24.6414 6.48184 28.3294 6.48184C32.0174 6.48184 34.6671 9.17103 34.6671 12.699C34.6671 16.227 32.0174 18.9414 28.3294 18.9414C24.6414 18.9414 21.9918 16.2234 21.9918 12.699ZM31.509 12.699C31.509 10.6938 30.1698 9.27183 28.3294 9.27183C26.4854 9.27183 25.1499 10.6902 25.1499 12.699C25.1499 14.7294 26.489 16.1262 28.3294 16.1262C30.1734 16.1262 31.509 14.7258 31.509 12.699Z" fill="white"/>
<path d="M44.9148 12.699C44.9148 9.17103 47.5644 6.48184 51.2524 6.48184C54.9368 6.48184 57.5864 9.17103 57.5864 12.699C57.5864 16.227 54.9368 18.9414 51.2524 18.9414C47.5644 18.9414 44.9148 16.2234 44.9148 12.699ZM54.4284 12.699C54.4284 10.6938 53.0892 9.27183 51.2488 9.27183C49.4084 9.27183 48.0693 10.6902 48.0693 12.699C48.0693 14.7294 49.4084 16.1262 51.2488 16.1262C53.0892 16.1262 54.4284 14.7258 54.4284 12.699Z" fill="white"/>
<path d="M59.2515 18.6606V11.8854C59.2515 8.73903 61.2458 6.47824 64.8049 6.47824C68.339 6.47824 70.3333 8.73543 70.3333 11.8854V18.6606H67.1538V12.1374C67.1538 10.3878 66.3697 9.29343 64.8049 9.29343C63.2402 9.29343 62.4561 10.3842 62.4561 12.1374V18.6606H59.2515Z" fill="white"/>
<path d="M43.9552 9.29686H40.4963V13.7392C40.4963 15.2872 41.0513 15.9964 42.6411 15.9964C42.7915 15.9964 43.171 15.9964 43.6508 15.9712V18.5848C42.9956 18.7612 42.4155 18.8656 41.7818 18.8656C39.1071 18.8656 37.2881 17.242 37.2881 14.1712V9.29686H35.1398V6.73366H35.6769C35.8881 6.73366 36.0994 6.69046 36.2927 6.61126C36.4897 6.52846 36.6651 6.40966 36.8155 6.25846C36.9659 6.10726 37.084 5.93086 37.1664 5.73286C37.2487 5.53487 37.2881 5.32607 37.2881 5.11367V2.69807H40.4928V6.73366H43.9516V9.29686H43.9552Z" fill="white"/>
<path d="M131.3 18.9416C129.44 18.9416 127.934 18.358 126.784 17.1908C125.633 16.0066 125.058 14.5096 125.058 12.6995C125.058 10.9064 125.633 9.41783 126.784 8.23371C127.934 7.04958 129.406 6.45752 131.199 6.45752C132.992 6.45752 134.455 7.04958 135.589 8.23371C136.722 9.41783 137.289 10.9064 137.289 12.6995C137.289 13.1394 137.28 13.52 137.263 13.8414H128.306C128.678 15.3638 129.651 16.125 131.224 16.125C132.442 16.125 133.288 15.7698 133.762 15.0593H136.933C136.578 16.3619 135.876 17.3345 134.827 17.9773C133.779 18.6202 132.603 18.9416 131.3 18.9416ZM128.281 11.507H134.092C133.973 10.8642 133.643 10.3398 133.102 9.93377C132.561 9.51087 131.926 9.29942 131.199 9.29942C130.455 9.29942 129.82 9.50241 129.296 9.90839C128.788 10.2975 128.45 10.8303 128.281 11.507Z" fill="white"/>
<path d="M120.206 18.6621V1.35693H123.708V18.6621H120.206Z" fill="white"/>
<path d="M114.187 18.6621V1.35693H117.688V18.6621H114.187Z" fill="white"/>
<path d="M80.8687 18.6621L75.8192 1.35693H79.4731L82.112 11.4051C82.3996 12.5384 82.6025 13.4942 82.721 14.2723H82.7717C82.907 13.4265 83.1185 12.4539 83.4061 11.3543L86.1718 1.35693H90.7899L93.5557 11.3543C93.8771 12.4877 94.097 13.4604 94.2154 14.2723H94.2662C94.4184 13.2405 94.6129 12.2847 94.8498 11.4051L97.4887 1.35693H101.143L96.0931 18.6621H92.1601L88.9122 6.55862C88.6923 5.71282 88.557 4.98543 88.5063 4.37645H88.4555C88.4048 4.98543 88.2694 5.71282 88.0495 6.55862L84.8016 18.6621H80.8687Z" fill="white"/>
<path d="M146.406 9.28367H142.943V13.7319C142.943 15.2819 143.499 15.992 145.091 15.992C145.241 15.992 145.621 15.992 146.102 15.9668V18.5838C145.446 18.7604 144.865 18.8649 144.23 18.8649C141.552 18.8649 139.731 17.2392 139.731 14.1644V9.28367H137.58V6.71713H138.117C138.329 6.71713 138.54 6.67387 138.734 6.59457C138.931 6.51166 139.107 6.39271 139.257 6.24131C139.408 6.08991 139.526 5.91328 139.609 5.71502C139.691 5.51677 139.731 5.30769 139.731 5.09502V2.67627H142.94V6.71713H146.403V9.28367H146.406Z" fill="white"/>
<path d="M109.296 7.26624C110.237 7.75966 111.016 8.516 111.539 9.44162C112.098 10.4465 112.379 11.5846 112.358 12.7335V18.6618H109.509L109.307 16.8826C108.936 17.5273 108.391 18.0531 107.735 18.406C107.032 18.7698 106.245 18.9535 105.452 18.9355C104.439 18.9463 103.444 18.6762 102.575 18.1539C101.695 17.6209 100.981 16.8574 100.505 15.9497C99.9853 14.9485 99.7257 13.8356 99.7473 12.7083C99.7329 11.599 100.018 10.5077 100.57 9.54246C101.11 8.60604 101.893 7.8353 102.841 7.31306C103.822 6.76922 104.926 6.48829 106.047 6.5027C107.176 6.48109 108.294 6.744 109.296 7.26624ZM108.254 15.2402C108.874 14.6496 109.181 13.8176 109.181 12.7083C109.221 11.8007 108.9 10.9147 108.294 10.2412C108.005 9.93864 107.659 9.70093 107.273 9.53526C106.887 9.36959 106.476 9.28675 106.058 9.28675C105.64 9.28675 105.225 9.36959 104.843 9.53526C104.457 9.70093 104.111 9.93864 103.822 10.2412C103.245 10.9327 102.928 11.8043 102.928 12.7047C102.928 13.6051 103.245 14.4767 103.822 15.1682C104.107 15.4779 104.453 15.7192 104.843 15.8849C105.229 16.047 105.647 16.1298 106.065 16.119C106.469 16.1262 106.873 16.0506 107.252 15.8993C107.623 15.7517 107.966 15.5248 108.254 15.2402Z" fill="white"/>
</svg>
