<svg width="24" height="24" viewBox="0 0 24 24" fill="none" xmlns="http://www.w3.org/2000/svg">
<rect width="24" height="24" rx="12" fill="#EC3E7C"/>
<path fill-rule="evenodd" clip-rule="evenodd" d="M9.375 6.75H14.625C15.1082 6.75 15.5 7.14175 15.5 7.625V16.375C15.5 16.8582 15.1082 17.25 14.625 17.25H9.375C8.89175 17.25 8.5 16.8582 8.5 16.375V7.625C8.5 7.14175 8.89175 6.75 9.375 6.75ZM7.625 7.625C7.625 6.6585 8.4085 5.875 9.375 5.875H14.625C15.5915 5.875 16.375 6.6585 16.375 7.625V16.375C16.375 17.3415 15.5915 18.125 14.625 18.125H9.375C8.4085 18.125 7.625 17.3415 7.625 16.375V7.625ZM12.875 16.375C13.1166 16.375 13.3125 16.1791 13.3125 15.9375C13.3125 15.6959 13.1166 15.5 12.875 15.5H11.125C10.8834 15.5 10.6875 15.6959 10.6875 15.9375C10.6875 16.1791 10.8834 16.375 11.125 16.375H12.875Z" fill="white"/>
</svg>
