<svg width="40" height="40" viewBox="0 0 40 40" fill="none" xmlns="http://www.w3.org/2000/svg">
<rect width="40" height="40" rx="20" fill="#E6E8EC"/>
<path fill-rule="evenodd" clip-rule="evenodd" d="M13.75 25C13.75 25.6904 14.3096 26.25 15 26.25L21.25 26.25L21.25 23.125C21.25 22.0895 22.0895 21.25 23.125 21.25H26.25L26.25 15C26.25 14.3096 25.6904 13.75 25 13.75L15 13.75C14.3096 13.75 13.75 14.3096 13.75 15L13.75 25ZM25.9381 22.5H23.125C22.7798 22.5 22.5 22.7798 22.5 23.125V25.9381C22.6037 25.8694 22.701 25.7901 22.7903 25.7008L25.7008 22.7903C25.7901 22.701 25.8694 22.6037 25.9381 22.5ZM15 27.5C13.6193 27.5 12.5 26.3807 12.5 25V15C12.5 13.6193 13.6193 12.5 15 12.5H25C26.3807 12.5 27.5 13.6193 27.5 15L27.5 21.4645C27.5 22.2933 27.1708 23.0881 26.5847 23.6742L23.6742 26.5847C23.0881 27.1708 22.2933 27.5 21.4645 27.5L15 27.5Z" fill="#191C32"/>
</svg>
