<svg width="77" height="78" viewBox="0 0 77 78" fill="none" xmlns="http://www.w3.org/2000/svg">
<path d="M53.5 29.0013H50.1667V15.668C50.1667 9.22464 44.9433 4.0013 38.5 4.0013C32.0567 4.0013 26.8333 9.22464 26.8333 15.668V29.0013H23.5V15.668C23.5 7.38297 30.215 0.667969 38.5 0.667969C46.785 0.667969 53.5 7.38297 53.5 15.668V29.0013Z" fill="url(#paint0_linear_3295_7768)"/>
<path d="M21.8335 77.334C24.595 77.334 26.8335 75.0955 26.8335 72.334C26.8335 69.5725 24.595 67.334 21.8335 67.334C19.072 67.334 16.8335 69.5725 16.8335 72.334C16.8335 75.0955 19.072 77.334 21.8335 77.334Z" fill="#767DFF"/>
<path d="M38.5 77.334C41.2615 77.334 43.5 75.0955 43.5 72.334C43.5 69.5725 41.2615 67.334 38.5 67.334C35.7385 67.334 33.5 69.5725 33.5 72.334C33.5 75.0955 35.7385 77.334 38.5 77.334Z" fill="#767DFF"/>
<path d="M55.1667 77.334C57.9282 77.334 60.1667 75.0955 60.1667 72.334C60.1667 69.5725 57.9282 67.334 55.1667 67.334C52.4052 67.334 50.1667 69.5725 50.1667 72.334C50.1667 75.0955 52.4052 77.334 55.1667 77.334Z" fill="#767DFF"/>
<path d="M71.8335 77.334C74.595 77.334 76.8335 75.0955 76.8335 72.334C76.8335 69.5725 74.595 67.334 71.8335 67.334C69.072 67.334 66.8335 69.5725 66.8335 72.334C66.8335 75.0955 69.072 77.334 71.8335 77.334Z" fill="#767DFF"/>
<path d="M5.16675 77.334C7.92816 77.334 10.1667 75.0955 10.1667 72.334C10.1667 69.5725 7.92816 67.334 5.16675 67.334C2.40533 67.334 0.166748 69.5725 0.166748 72.334C0.166748 75.0955 2.40533 77.334 5.16675 77.334Z" fill="#767DFF"/>
<path d="M58.5 27.334H18.5C15.7383 27.334 13.5 29.5723 13.5 32.334V55.6673C13.5 58.429 15.7383 60.6673 18.5 60.6673H58.5C61.2617 60.6673 63.5 58.429 63.5 55.6673V32.334C63.5 29.5723 61.2617 27.334 58.5 27.334Z" fill="url(#paint1_linear_3295_7768)"/>
<path d="M40.1666 47.0978V52.3328C40.1666 53.2528 39.4199 53.9994 38.4999 53.9994C37.5799 53.9994 36.8333 53.2528 36.8333 52.3328V47.0978C33.2683 46.1778 31.1249 42.5411 32.0449 38.9761C32.9649 35.4111 36.6016 33.2678 40.1666 34.1878C43.7316 35.1078 45.8749 38.7444 44.9549 42.3094C44.3483 44.6578 42.5149 46.4911 40.1666 47.0978Z" fill="url(#paint2_linear_3295_7768)"/>
<defs>
<linearGradient id="paint0_linear_3295_7768" x1="38.5" y1="0.667969" x2="38.5" y2="29.0013" gradientUnits="userSpaceOnUse">
<stop stop-color="#E0E0E6"/>
<stop offset="1" stop-color="#C2C3CD"/>
</linearGradient>
<linearGradient id="paint1_linear_3295_7768" x1="38.5" y1="27.334" x2="38.5" y2="60.6673" gradientUnits="userSpaceOnUse">
<stop stop-color="#FFD36E"/>
<stop offset="1" stop-color="#F6B828"/>
</linearGradient>
<linearGradient id="paint2_linear_3295_7768" x1="38.4999" y1="33.9746" x2="38.4999" y2="60.6661" gradientUnits="userSpaceOnUse">
<stop stop-color="#C88509"/>
<stop offset="1" stop-color="#F6B828"/>
</linearGradient>
</defs>
</svg>
