<svg width="178" height="36" viewBox="0 0 178 36" fill="none" xmlns="http://www.w3.org/2000/svg">
<g clip-path="url(#clip0_4566_17311)">
<path d="M38 21.2592V24.9243H40.5591V21.4193C40.5591 21.0791 40.6927 20.7503 40.9344 20.5102C41.1732 20.27 41.5002 20.1328 41.8386 20.1328H44.4631C45.6857 20.1328 46.86 19.644 47.7244 18.772C48.5888 17.9029 49.075 16.7222 49.075 15.4929C49.075 14.2636 48.5888 13.0829 47.7244 12.2109C46.86 11.3418 45.6857 10.8529 44.4602 10.8529H38V15.4328H40.5591V13.2744H44.2896C44.8697 13.2744 45.4241 13.506 45.8336 13.9176C46.243 14.3293 46.4733 14.8868 46.4733 15.47C46.4733 16.0532 46.243 16.6107 45.8336 17.0224C45.4241 17.4341 44.8697 17.6656 44.2896 17.6656H41.5798C41.1107 17.6656 40.6444 17.7571 40.2122 17.9401C39.7771 18.1202 39.3847 18.3861 39.0521 18.7205C38.7194 19.055 38.4578 19.4524 38.2758 19.887C38.0938 20.3187 38 20.7875 38 21.2592Z" fill="#1B1340"/>
<path d="M49.4731 24.9243V19.3409C49.4731 17.0624 50.7953 15.2499 53.4425 15.2499C53.8661 15.2442 54.2898 15.2899 54.705 15.39V17.6856C54.4036 17.6656 54.1448 17.6656 54.0225 17.6656C52.6207 17.6656 52.0179 18.3117 52.0179 19.6211V24.9243H49.4731Z" fill="#1B1340"/>
<path d="M55.467 20.1898C55.467 17.3881 57.5711 15.2525 60.4999 15.2525C63.4286 15.2525 65.5327 17.3881 65.5327 20.1898C65.5327 22.9915 63.4286 25.1471 60.4999 25.1471C57.5711 25.1471 55.467 22.9886 55.467 20.1898ZM63.0248 20.1898C63.0248 18.5974 61.9614 17.4681 60.4999 17.4681C59.0355 17.4681 57.9749 18.5945 57.9749 20.1898C57.9749 21.8022 59.0383 22.9114 60.4999 22.9114C61.9614 22.9114 63.0248 21.7993 63.0248 20.1898Z" fill="#1B1340"/>
<path d="M73.6676 20.1898C73.6676 17.3881 75.7718 15.2525 78.7005 15.2525C81.6263 15.2525 83.7304 17.3881 83.7304 20.1898C83.7304 22.9915 81.6263 25.1471 78.7005 25.1471C75.7718 25.1471 73.6676 22.9886 73.6676 20.1898ZM81.2254 20.1898C81.2254 18.5974 80.162 17.4681 78.7005 17.4681C77.239 17.4681 76.1755 18.5945 76.1755 20.1898C76.1755 21.8022 77.239 22.9114 78.7005 22.9114C80.162 22.9114 81.2254 21.7993 81.2254 20.1898Z" fill="#1B1340"/>
<path d="M85.0526 24.9243V19.5439C85.0526 17.0453 86.6364 15.2499 89.4627 15.2499C92.2692 15.2499 93.8529 17.0424 93.8529 19.5439V24.9243H91.328V19.7441C91.328 18.3546 90.7053 17.4855 89.4627 17.4855C88.2202 17.4855 87.5975 18.3518 87.5975 19.7441V24.9243H85.0526Z" fill="#1B1340"/>
<path d="M72.9056 17.4883H70.1589V21.0161C70.1589 22.2454 70.5996 22.8086 71.8621 22.8086C71.9815 22.8086 72.2829 22.8086 72.6639 22.7886V24.8641C72.1436 25.0042 71.6829 25.0871 71.1797 25.0871C69.0556 25.0871 67.6112 23.7978 67.6112 21.3592V17.4883H65.9052V15.4528H66.3288C66.4966 15.4528 66.6643 15.4184 66.8179 15.3556C66.9743 15.2898 67.1136 15.1955 67.233 15.0754C67.3524 14.9553 67.4463 14.8152 67.5117 14.658C67.5771 14.5007 67.6083 14.3349 67.6083 14.1663V12.248H70.1532V15.4528H72.8999V17.4883H72.9056Z" fill="#1B1340"/>
<path d="M102.372 24.2083C101.301 23.6022 100.413 22.713 99.8101 21.6408C99.2012 20.523 98.8823 19.2707 98.8823 17.9984C98.8823 16.7261 99.2012 15.4738 99.8101 14.3559C100.413 13.2838 101.298 12.3975 102.372 11.7885C103.484 11.1595 104.745 10.8364 106.026 10.8536C107.069 10.845 108.103 11.0537 109.056 11.4683C109.93 11.8428 110.702 12.4175 111.311 13.1437C111.914 13.867 112.334 14.7248 112.538 15.6425H109.843C109.539 14.9592 109.042 14.3817 108.41 13.9785C107.706 13.5697 106.908 13.3524 106.092 13.3496C105.276 13.3467 104.475 13.5554 103.768 13.9585C103.09 14.3617 102.533 14.9392 102.157 15.6311C101.766 16.363 101.565 17.1778 101.565 18.007C101.565 18.8361 101.769 19.6509 102.157 20.3829C102.533 21.0748 103.093 21.6523 103.777 22.0526C104.461 22.4528 105.239 22.6558 106.032 22.6472C106.87 22.6758 107.695 22.4585 108.41 22.0211C109.042 21.6151 109.539 21.0376 109.843 20.3543H112.538C112.334 21.2777 111.912 22.1412 111.305 22.8702C110.699 23.5993 109.93 24.174 109.056 24.5485C108.1 24.9574 107.066 25.1632 106.026 25.1461C104.745 25.1661 103.484 24.8401 102.372 24.2083Z" fill="#6D4AFF"/>
<path d="M120.81 15.78C121.569 16.1746 122.195 16.7807 122.614 17.524C123.062 18.3303 123.286 19.2423 123.266 20.1658V24.9176H120.977L120.813 23.4909C120.514 24.0084 120.078 24.4287 119.549 24.7117C118.983 25.0034 118.351 25.1492 117.714 25.1377C116.898 25.1463 116.097 24.929 115.396 24.5116C114.689 24.0856 114.115 23.4738 113.735 22.7447C113.316 21.9413 113.106 21.0493 113.124 20.143C113.112 19.2538 113.342 18.376 113.787 17.6041C114.221 16.8522 114.85 16.2346 115.611 15.8172C116.407 15.3826 117.303 15.1653 118.211 15.1825C119.113 15.1625 120.006 15.3683 120.81 15.78ZM119.971 22.1757C120.468 21.7011 120.715 21.0264 120.715 20.1458C120.747 19.4167 120.491 18.7077 120 18.1673C119.773 17.9186 119.495 17.7242 119.187 17.5927C118.877 17.4611 118.544 17.3982 118.208 17.4068C117.869 17.3982 117.533 17.464 117.22 17.5984C116.907 17.7299 116.628 17.93 116.398 18.1788C115.933 18.7334 115.677 19.4339 115.677 20.1544C115.677 20.8749 115.933 21.5753 116.398 22.13C116.628 22.3759 116.909 22.5703 117.223 22.7018C117.536 22.8305 117.872 22.8934 118.211 22.8819C118.535 22.8877 118.86 22.8276 119.161 22.7047C119.463 22.5817 119.739 22.4016 119.971 22.1757Z" fill="#6D4AFF"/>
<path d="M127.532 24.9176H124.952V11.0654H127.532V24.9176Z" fill="#6D4AFF"/>
<path d="M138.57 21.0177H131.326C131.441 21.5952 131.751 22.1156 132.205 22.493C132.659 22.8446 133.222 23.0276 133.796 23.0133C134.256 23.0305 134.716 22.9504 135.144 22.7789C135.483 22.6245 135.761 22.3643 135.939 22.0384H138.329C138.079 22.9876 137.485 23.8081 136.657 24.3428C135.824 24.8774 134.853 25.1576 133.862 25.1433C132.955 25.1633 132.056 24.9432 131.263 24.5057C130.519 24.0912 129.91 23.4765 129.508 22.7303C129.086 21.9412 128.873 21.0577 128.887 20.1628C128.873 19.2679 129.089 18.3845 129.517 17.5954C129.924 16.852 130.533 16.2373 131.272 15.8199C132.044 15.3882 132.915 15.168 133.802 15.1852C134.67 15.1737 135.523 15.3996 136.272 15.8342C136.999 16.2631 137.594 16.8806 137.99 17.6211C138.409 18.4016 138.625 19.2737 138.613 20.16C138.611 20.443 138.599 20.7318 138.57 21.0177ZM132.185 17.8298C131.746 18.1872 131.435 18.6818 131.306 19.2336H136.175C136.1 18.6904 135.819 18.1958 135.388 17.8498C134.937 17.481 134.368 17.2866 133.785 17.3038C133.208 17.2866 132.642 17.4724 132.185 17.8298Z" fill="#6D4AFF"/>
<path d="M139.55 19.4939C139.527 18.9192 139.619 18.3446 139.823 17.8042C140.027 17.2638 140.34 16.7721 140.742 16.3575C141.538 15.5713 142.635 15.1796 144.034 15.1796C145.432 15.1796 146.527 15.5798 147.32 16.3775C147.719 16.795 148.029 17.2867 148.233 17.8271C148.437 18.3674 148.529 18.9393 148.503 19.5168V24.9347H145.924V19.6969C145.964 19.1051 145.803 18.519 145.464 18.0329C145.28 17.8442 145.059 17.6927 144.818 17.5898C144.576 17.4868 144.312 17.4325 144.048 17.4325C143.784 17.4325 143.522 17.4868 143.278 17.5898C143.034 17.6927 142.816 17.8442 142.629 18.0329C142.281 18.519 142.112 19.1108 142.146 19.7055V24.9261H139.567L139.55 19.4939Z" fill="#6D4AFF"/>
<path d="M156.925 11.0654H159.504V24.9176H157.158L156.977 23.448C156.695 23.9712 156.264 24.4029 155.742 24.6888C155.153 24.9976 154.498 25.1491 153.834 25.1348C153.085 25.1377 152.346 24.9404 151.7 24.5659C151.005 24.1599 150.439 23.5681 150.069 22.8562C149.635 22.0242 149.419 21.095 149.445 20.1572C149.419 19.2223 149.635 18.296 150.069 17.4668C150.439 16.7549 151.005 16.1631 151.7 15.7571C152.349 15.3826 153.085 15.1853 153.834 15.1881C154.478 15.1739 155.112 15.3139 155.69 15.597C156.207 15.8457 156.638 16.246 156.925 16.7435V11.0654ZM156.21 22.1671C156.46 21.8955 156.652 21.5753 156.773 21.2294C156.896 20.8834 156.945 20.5146 156.922 20.1458C156.922 19.2795 156.681 18.6133 156.201 18.1501C155.971 17.9214 155.696 17.7413 155.394 17.6212C155.092 17.4983 154.771 17.4382 154.443 17.4411C154.116 17.444 153.797 17.5097 153.495 17.6384C153.197 17.7642 152.924 17.95 152.697 18.1816C152.453 18.4475 152.263 18.762 152.142 19.0994C152.019 19.4396 151.967 19.7998 151.984 20.1601C151.947 20.892 152.203 21.6096 152.697 22.1557C152.927 22.3987 153.205 22.5903 153.515 22.7161C153.826 22.8447 154.159 22.9048 154.492 22.8962C154.814 22.8991 155.13 22.8333 155.426 22.7104C155.724 22.5817 155.991 22.3987 156.21 22.1671Z" fill="#6D4AFF"/>
<path d="M168.432 15.78C169.19 16.1746 169.816 16.7807 170.236 17.524C170.684 18.3303 170.908 19.2423 170.888 20.1658V24.9176H168.595L168.432 23.4909C168.13 24.0056 167.694 24.4287 167.165 24.7117C166.599 25.0034 165.967 25.1492 165.33 25.1377C164.514 25.1463 163.712 24.929 163.014 24.5116C162.308 24.0856 161.73 23.4738 161.351 22.7447C160.932 21.9413 160.722 21.0493 160.739 20.143C160.728 19.2538 160.958 18.376 161.403 17.6041C161.837 16.855 162.466 16.2375 163.224 15.82C164.023 15.3855 164.919 15.1653 165.829 15.1825C166.734 15.1625 167.628 15.3683 168.432 15.78ZM167.596 22.1757C168.093 21.7011 168.34 21.0264 168.34 20.1458C168.371 19.4196 168.116 18.7077 167.628 18.1673C167.395 17.9243 167.116 17.7328 166.806 17.6012C166.496 17.4697 166.163 17.4011 165.827 17.4011C165.49 17.4011 165.157 17.4697 164.847 17.6012C164.537 17.7328 164.258 17.9243 164.026 18.1673C163.56 18.722 163.307 19.4225 163.307 20.143C163.307 20.8634 163.563 21.5639 164.026 22.1186C164.255 22.3673 164.534 22.5617 164.844 22.6932C165.154 22.8248 165.49 22.8877 165.829 22.8791C166.157 22.8848 166.479 22.8248 166.783 22.7047C167.088 22.5817 167.363 22.4016 167.596 22.1757Z" fill="#6D4AFF"/>
<path d="M172.175 19.2905C172.129 18.2041 172.505 17.1405 173.226 16.3199C173.924 15.5594 174.921 15.1792 176.213 15.1792C176.647 15.1763 177.078 15.2249 177.5 15.3221V17.638C177.296 17.638 177.063 17.618 176.808 17.618C176.101 17.618 175.584 17.7809 175.257 18.1069C175.081 18.3099 174.946 18.5443 174.86 18.7988C174.777 19.0532 174.745 19.322 174.765 19.5879V24.9286H172.186L172.175 19.2905Z" fill="#6D4AFF"/>
<path d="M3 6C1.34315 6 0 7.34315 0 9V10L1 11V28L21 18L22 19H28V9C28 7.34315 26.6569 6 25 6H3Z" fill="url(#paint0_linear_4566_17311)"/>
<path d="M19.6429 10H0V26.119C0 27.7102 1.28985 29 2.88095 29H13L18.2511 21.1234C18.7589 19.8779 19.9819 19 21.41 19H22L22 12.3571C22 11.0553 20.9447 10 19.6429 10Z" fill="url(#paint1_radial_4566_17311)"/>
<path d="M13 29V27.9246C13 27.3279 13.2134 26.751 13.6016 26.2979L18.6547 20.4006C18.7593 20.2574 18.8748 20.1226 19 19.9975L18.6547 20.4006C18.243 20.9641 18 21.6587 18 22.41V29L13 29Z" fill="#B8D7FF"/>
<path d="M20.6 25.3855H21.6206C21.662 25.5615 21.7655 25.717 21.9134 25.8255C22.0584 25.9341 22.2388 25.9898 22.4222 25.981C22.8837 25.981 23.1884 25.7287 23.1884 25.3591C23.1884 24.9894 22.8719 24.7841 22.2448 24.7841H21.8395V23.9509H22.1915C22.7979 23.9509 23.0464 23.7279 23.0464 23.3964C23.0464 23.0649 22.7772 22.8361 22.4045 22.8361C22.2388 22.8273 22.0732 22.8801 21.9489 22.9887C21.8217 23.0972 21.7448 23.2497 21.73 23.414H20.7449C20.7804 22.8332 21.2419 22 22.3986 22C23.3275 22 23.9694 22.5251 23.9694 23.2644C23.9694 23.502 23.8954 23.7338 23.7534 23.9245C23.6115 24.1152 23.4132 24.2589 23.1855 24.3294V24.344C23.4517 24.391 23.6913 24.5318 23.8599 24.7401C24.0286 24.9484 24.1173 25.2095 24.1084 25.4794C24.1084 26.2803 23.3689 26.8083 22.4134 26.8083C21.3987 26.8142 20.6739 26.2421 20.6 25.3855Z" fill="#8F69FF"/>
<path d="M25.8923 22.0796H26.6347V26.7413H25.6763V23.1651L24.7533 23.787V22.8453L25.8923 22.0796Z" fill="#8F69FF"/>
</g>
<defs>
<linearGradient id="paint0_linear_4566_17311" x1="23.5225" y1="21.0361" x2="7.19069" y2="-2.69163" gradientUnits="userSpaceOnUse">
<stop stop-color="#BFE8FF"/>
<stop offset="0.3075" stop-color="#BFABFF"/>
<stop offset="1" stop-color="#7341FF"/>
</linearGradient>
<radialGradient id="paint1_radial_4566_17311" cx="0" cy="0" r="1" gradientUnits="userSpaceOnUse" gradientTransform="translate(21.1587 -5.85098) scale(44.9183 40.1408)">
<stop offset="0.502942" stop-color="#6D4AFF"/>
<stop offset="0.9944" stop-color="#06B8FF"/>
</radialGradient>
<clipPath id="clip0_4566_17311">
<rect width="178" height="36" fill="white"/>
</clipPath>
</defs>
</svg>
