<svg width="142" height="36" viewBox="0 0 142 36" fill="none" xmlns="http://www.w3.org/2000/svg">
<path d="M12.4198 7.53718C14.373 5.58394 15.3497 4.60731 16.4758 4.2414C17.4664 3.91953 18.5335 3.91953 19.5241 4.2414C20.6503 4.60731 21.6269 5.58394 23.5801 7.53718L28.4628 12.4198C30.416 14.3731 31.3926 15.3497 31.7586 16.4759C32.0804 17.4665 32.0804 18.5335 31.7586 19.5241C31.3926 20.6503 30.416 21.6269 28.4628 23.5802L23.5801 28.4628C21.6269 30.4161 20.6503 31.3927 19.5241 31.7586C18.5335 32.0805 17.4664 32.0805 16.4758 31.7586C15.3497 31.3927 14.373 30.4161 12.4198 28.4628L11.5018 27.4337C10.9463 26.8109 10.6685 26.4995 10.4705 26.1453C10.2948 25.8312 10.166 25.4931 10.088 25.1418C10 24.7457 10 24.3284 10 23.4939L10 12.5061C10 11.6716 10 11.2543 10.088 10.8582C10.166 10.5069 10.2948 10.1688 10.4705 9.85469C10.6685 9.50052 10.9463 9.18913 11.5018 8.56634L12.4198 7.53718Z" fill="url(#paint0_radial_4566_17321)"/>
<path d="M12.4198 7.53718C14.373 5.58394 15.3497 4.60731 16.4758 4.2414C17.4664 3.91953 18.5335 3.91953 19.5241 4.2414C20.6503 4.60731 21.6269 5.58394 23.5801 7.53718L28.4628 12.4198C30.416 14.3731 31.3926 15.3497 31.7586 16.4759C32.0804 17.4665 32.0804 18.5335 31.7586 19.5241C31.3926 20.6503 30.416 21.6269 28.4628 23.5802L23.5801 28.4628C21.6269 30.4161 20.6503 31.3927 19.5241 31.7586C18.5335 32.0805 17.4664 32.0805 16.4758 31.7586C15.3497 31.3927 14.373 30.4161 12.4198 28.4628L11.5018 27.4337C10.9463 26.8109 10.6685 26.4995 10.4705 26.1453C10.2948 25.8312 10.166 25.4931 10.088 25.1418C10 24.7457 10 24.3284 10 23.4939L10 12.5061C10 11.6716 10 11.2543 10.088 10.8582C10.166 10.5069 10.2948 10.1688 10.4705 9.85469C10.6685 9.50052 10.9463 9.18913 11.5018 8.56634L12.4198 7.53718Z" fill="url(#paint1_linear_4566_17321)"/>
<path d="M12.0711 7.88565C13.0477 6.90903 13.536 6.42072 14.0991 6.23777C14.5944 6.07683 15.1279 6.07683 15.6232 6.23777C16.1863 6.42072 16.6746 6.90903 17.6512 7.88565L24.9752 15.2096C25.9518 16.1862 26.4401 16.6746 26.6231 17.2376C26.784 17.7329 26.784 18.2665 26.6231 18.7618C26.4401 19.3249 25.9518 19.8132 24.9752 20.7898L17.6512 28.1138C16.6746 29.0904 16.1863 29.5787 15.6232 29.7617C15.1279 29.9226 14.5944 29.9226 14.0991 29.7617C13.536 29.5787 13.0477 29.0904 12.0711 28.1138L7.53718 23.5799C5.58394 21.6266 4.60731 20.65 4.2414 19.5239C3.91953 18.5332 3.91953 17.4662 4.2414 16.4756C4.60731 15.3494 5.58394 14.3728 7.53718 12.4195L12.0711 7.88565Z" fill="url(#paint2_radial_4566_17321)"/>
<path d="M42 21.2591V24.9241H44.5591V21.4192C44.5591 21.079 44.6927 20.7502 44.9344 20.5101C45.1732 20.27 45.5002 20.1327 45.8386 20.1327H48.463C49.6857 20.1327 50.86 19.6439 51.7244 18.7719C52.5888 17.9029 53.075 16.7222 53.075 15.4929C53.075 14.2636 52.5888 13.0829 51.7244 12.211C50.86 11.3419 49.6857 10.853 48.4602 10.853H42V15.4329H44.5591V13.2744H48.2896C48.8697 13.2744 49.4241 13.506 49.8336 13.9177C50.243 14.3293 50.4733 14.8868 50.4733 15.47C50.4733 16.0532 50.243 16.6107 49.8336 17.0224C49.4241 17.434 48.8697 17.6656 48.2896 17.6656H45.5798C45.1107 17.6656 44.6444 17.7571 44.2122 17.94C43.7771 18.1201 43.3847 18.386 43.0521 18.7205C42.7194 19.055 42.4578 19.4523 42.2758 19.8869C42.0938 20.3186 42 20.7874 42 21.2591Z" fill="#1B1340"/>
<path d="M53.4703 24.9241V19.3408C53.4703 17.0624 54.7925 15.2499 57.4397 15.2499C57.8633 15.2442 58.287 15.2899 58.7022 15.39V17.6856C58.4007 17.6656 58.142 17.6656 58.0197 17.6656C56.6179 17.6656 56.0151 18.3117 56.0151 19.621V24.9241H53.4703Z" fill="#1B1340"/>
<path d="M59.4641 20.19C59.4641 17.3883 61.5682 15.2528 64.4969 15.2528C67.4256 15.2528 69.5297 17.3883 69.5297 20.19C69.5297 22.9916 67.4256 25.1471 64.4969 25.1471C61.5682 25.1471 59.4641 22.9887 59.4641 20.19ZM67.0218 20.19C67.0218 18.5976 65.9584 17.4684 64.4969 17.4684C63.0325 17.4684 61.972 18.5947 61.972 20.19C61.972 21.8023 63.0354 22.9116 64.4969 22.9116C65.9612 22.9116 67.0218 21.7995 67.0218 20.19Z" fill="#1B1340"/>
<path d="M77.6676 20.19C77.6676 17.3883 79.7717 15.2528 82.7004 15.2528C85.6263 15.2528 87.7304 17.3883 87.7304 20.19C87.7304 22.9916 85.6263 25.1471 82.7004 25.1471C79.7717 25.1471 77.6676 22.9887 77.6676 20.19ZM85.2225 20.19C85.2225 18.5976 84.1591 17.4684 82.6976 17.4684C81.2361 17.4684 80.1726 18.5947 80.1726 20.19C80.1726 21.8023 81.2361 22.9116 82.6976 22.9116C84.1591 22.9116 85.2225 21.7995 85.2225 20.19Z" fill="#1B1340"/>
<path d="M89.0526 24.9242V19.5439C89.0526 17.0453 90.6364 15.2499 93.4627 15.2499C96.2692 15.2499 97.8529 17.0424 97.8529 19.5439V24.9242H95.328V19.744C95.328 18.3546 94.7053 17.4855 93.4627 17.4855C92.2202 17.4855 91.5975 18.3517 91.5975 19.744V24.9242H89.0526Z" fill="#1B1340"/>
<path d="M76.9056 17.4882H74.1588V21.016C74.1588 22.2453 74.5996 22.8085 75.862 22.8085C75.9815 22.8085 76.2829 22.8085 76.6639 22.7885V24.864C76.1435 25.0041 75.6829 25.087 75.1796 25.087C73.0556 25.087 71.6112 23.7976 71.6112 21.3591V17.4882H69.9051V15.4528H70.3316C70.4994 15.4528 70.6671 15.4185 70.8207 15.3556C70.9771 15.2898 71.1164 15.1955 71.2358 15.0754C71.3553 14.9553 71.4491 14.8152 71.5145 14.658C71.5799 14.5008 71.6112 14.335 71.6112 14.1663V12.248H74.156V15.4528H76.9027V17.4882H76.9056Z" fill="#1B1340"/>
<path d="M119.02 15.65C116.16 15.65 114.04 17.75 114.04 20.55C114.04 23.51 116.08 25.47 118.54 25.47C119.9 25.47 120.98 24.87 121.58 23.85L121.74 25.25H123.98V20.57C123.98 17.53 121.86 15.65 119.02 15.65ZM119.02 23.25C117.6 23.25 116.54 22.15 116.54 20.55C116.54 18.95 117.62 17.85 119.02 17.85C120.4 17.85 121.48 18.91 121.48 20.55C121.48 22.39 120.24 23.25 119.02 23.25Z" fill="#6D4AFF"/>
<path d="M128.887 25.47C130.807 25.47 132.447 24.37 132.447 22.69C132.447 19.09 127.587 19.93 127.587 18.47C127.587 17.99 128.007 17.63 128.667 17.63C129.347 17.63 129.787 18.01 129.887 18.57H132.267C132.127 16.73 130.727 15.63 128.667 15.65C126.547 15.65 125.247 16.91 125.247 18.47C125.247 22.11 130.047 21.17 130.047 22.69C130.047 23.15 129.607 23.49 128.887 23.49C128.187 23.49 127.547 23.15 127.427 22.43H125.007C125.147 24.21 126.707 25.47 128.887 25.47Z" fill="#6D4AFF"/>
<path d="M137.296 25.47C139.216 25.47 140.856 24.37 140.856 22.69C140.856 19.09 135.996 19.93 135.996 18.47C135.996 17.99 136.416 17.63 137.076 17.63C137.756 17.63 138.196 18.01 138.296 18.57H140.676C140.536 16.73 139.136 15.63 137.076 15.65C134.956 15.65 133.656 16.91 133.656 18.47C133.656 22.11 138.456 21.17 138.456 22.69C138.456 23.15 138.016 23.49 137.296 23.49C136.596 23.49 135.956 23.15 135.836 22.43H133.416C133.556 24.21 135.116 25.47 137.296 25.47Z" fill="#6D4AFF"/>
<path d="M109.472 11H102.9V25.2505H105.503V21.703C105.503 21.3584 105.639 21.0254 105.885 20.7822C106.128 20.5389 106.461 20.3999 106.805 20.3999H109.472C110.716 20.3999 111.908 19.9047 112.784 19.0273C113.664 18.1469 114.155 16.9539 114.155 15.7115C114.158 15.0947 114.04 14.4808 113.805 13.9103C113.571 13.3398 113.227 12.8186 112.79 12.3813C112.353 11.944 111.838 11.5965 111.268 11.3591C110.701 11.1216 110.091 11 109.472 11ZM111.523 15.6739C111.523 15.9664 111.465 16.256 111.352 16.5253C111.24 16.7946 111.078 17.0407 110.869 17.2463C110.664 17.4519 110.418 17.617 110.149 17.727C109.88 17.84 109.591 17.895 109.299 17.895H105.492V13.4557H109.299C109.591 13.4557 109.88 13.5136 110.152 13.6265C110.421 13.7395 110.667 13.9045 110.872 14.1101C111.078 14.3186 111.242 14.5648 111.352 14.8341C111.462 15.1063 111.52 15.3959 111.517 15.6884L111.523 15.6739Z" fill="#6D4AFF"/>
<defs>
<radialGradient id="paint0_radial_4566_17321" cx="0" cy="0" r="1" gradientUnits="userSpaceOnUse" gradientTransform="translate(12.4503 32.5457) rotate(-58.142) scale(23.3731 36.5508)">
<stop stop-color="#FFD580"/>
<stop offset="0.09375" stop-color="#F6C592"/>
<stop offset="0.205" stop-color="#EBB6A2"/>
<stop offset="0.324466" stop-color="#DFA5AF"/>
<stop offset="0.42875" stop-color="#D397BE"/>
<stop offset="0.53375" stop-color="#C486CB"/>
<stop offset="0.64875" stop-color="#B578D9"/>
<stop offset="0.77125" stop-color="#A166E5"/>
<stop offset="0.89125" stop-color="#8B57F2"/>
<stop offset="1" stop-color="#704CFF"/>
</radialGradient>
<linearGradient id="paint1_linear_4566_17321" x1="11.486" y1="-1.5597" x2="16.9312" y2="31.6785" gradientUnits="userSpaceOnUse">
<stop stop-color="#6D4AFF"/>
<stop offset="0.392009" stop-color="#B39FFB" stop-opacity="0.978022"/>
<stop offset="1" stop-color="#FFE8DB" stop-opacity="0.8"/>
</linearGradient>
<radialGradient id="paint2_radial_4566_17321" cx="0" cy="0" r="1" gradientUnits="userSpaceOnUse" gradientTransform="translate(10.3973 29.6995) rotate(-58.142) scale(18.8001 29.3996)">
<stop stop-color="#FFD580"/>
<stop offset="0.09375" stop-color="#F6C592"/>
<stop offset="0.205" stop-color="#EBB6A2"/>
<stop offset="0.324466" stop-color="#DFA5AF"/>
<stop offset="0.42875" stop-color="#D397BE"/>
<stop offset="0.53375" stop-color="#C486CB"/>
<stop offset="0.64875" stop-color="#B578D9"/>
<stop offset="0.77125" stop-color="#A166E5"/>
<stop offset="0.89125" stop-color="#8B57F2"/>
<stop offset="1" stop-color="#704CFF"/>
</radialGradient>
</defs>
</svg>
