<svg width="24" height="24" viewBox="0 0 24 24" fill="none" xmlns="http://www.w3.org/2000/svg">
<path fill-rule="evenodd" clip-rule="evenodd" d="M11.9863 3.21222C11.912 3.21222 11.8708 3.24305 11.8558 3.26297C9.71126 6.12367 6.19475 7.26076 4.38349 7.51023C4.35577 7.51404 4.33042 7.52834 4.31508 7.54486C4.30901 7.5514 4.30652 7.5558 4.30561 7.55801C4.40371 11.9122 5.49691 14.9043 6.93608 16.9514C8.376 18.9996 10.1926 20.1449 11.8077 20.755C11.9233 20.7987 12.0493 20.7987 12.1649 20.755C13.78 20.1449 15.5966 18.9996 17.0365 16.9514C18.4757 14.9043 19.5689 11.9122 19.667 7.55801C19.6661 7.5558 19.6636 7.5514 19.6575 7.54486C19.6422 7.52834 19.6168 7.51404 19.5891 7.51023C17.7778 7.26076 14.2613 6.12367 12.1168 3.26297C12.1018 3.24305 12.0606 3.21222 11.9863 3.21222ZM4.30516 7.55969C4.30509 7.55969 4.30523 7.55898 4.30561 7.55801L4.30516 7.55969ZM10.8112 2.47986C11.3842 1.71561 12.5884 1.71561 13.1614 2.47986C15.0184 4.95697 18.1456 5.99354 19.7672 6.21688C20.4025 6.30438 20.9889 6.84537 20.9722 7.58591C20.8696 12.1509 19.7184 15.4068 18.1045 17.7023C16.4913 19.997 14.4462 21.2889 12.6262 21.9763C12.2133 22.1323 11.7593 22.1323 11.3464 21.9763C9.52645 21.2889 7.4813 19.997 5.86806 17.7023C4.25422 15.4068 3.10297 12.1509 3.00035 7.58591C2.98371 6.84537 3.57005 6.30438 4.20536 6.21688C5.82696 5.99354 8.95422 4.95697 10.8112 2.47986Z" fill="#5555F6"/>
<path fill-rule="evenodd" clip-rule="evenodd" d="M11.9152 19.1068C11.9625 19.1215 12.0099 19.1215 12.0573 19.1068C14.0145 18.4966 17.7492 15.6821 17.9365 9.03693C17.9446 8.74863 17.7098 8.51042 17.4247 8.46729C16.203 8.28252 13.9324 7.50869 12.519 5.66063C12.2642 5.32747 11.7083 5.32747 11.4535 5.66063C10.0401 7.50869 7.76949 8.28252 6.54782 8.46729C6.26265 8.51042 6.02783 8.74863 6.03596 9.03693C6.22329 15.6821 9.95795 18.4966 11.9152 19.1068ZM16.2271 11.0167L15.1179 9.88792L11.3826 13.5583L9.46077 11.7232L8.3679 12.8677L11.3984 15.7614L16.2271 11.0167Z" fill="#5555F6"/>
</svg>
