<svg width="140" height="36" viewBox="0 0 140 36" fill="none" xmlns="http://www.w3.org/2000/svg">
<g clip-path="url(#clip0_4566_17316)">
<path d="M107.045 12.1197C108.091 12.7001 108.957 13.555 109.553 14.5957C110.142 15.6593 110.453 16.8573 110.453 18.0753C110.453 19.2933 110.142 20.4913 109.553 21.5549C108.96 22.6013 108.091 23.4619 107.045 24.0452C105.926 24.6628 104.663 24.9744 103.387 24.9487H98.8823V11.2134H103.387C104.663 11.1876 105.926 11.5021 107.045 12.1197ZM103.538 22.5013C104.301 22.5155 105.054 22.3183 105.715 21.9323C106.373 21.5463 106.914 20.983 107.276 20.3111C107.638 19.6221 107.829 18.8558 107.829 18.0782C107.829 17.3005 107.641 16.5342 107.276 15.8452C106.92 15.1876 106.396 14.6386 105.752 14.2555C105.082 13.8581 104.316 13.6579 103.535 13.6694H101.449V22.4841L103.538 22.5013Z" fill="#6D4AFF"/>
<path d="M111.578 19.3619C111.533 18.284 111.903 17.2318 112.613 16.417C113.308 15.665 114.285 15.2876 115.55 15.2876C115.975 15.2847 116.399 15.3333 116.815 15.4277V17.7207C116.616 17.7207 116.388 17.7007 116.134 17.7007C115.439 17.7007 114.929 17.8608 114.607 18.1839C114.433 18.384 114.302 18.6185 114.22 18.8701C114.137 19.1217 114.106 19.3876 114.126 19.6535V24.9458H111.593L111.578 19.3619Z" fill="#6D4AFF"/>
<path d="M117.844 13.5178C117.693 13.3777 117.573 13.209 117.49 13.0203C117.408 12.8316 117.368 12.6286 117.371 12.4227C117.368 12.214 117.411 12.011 117.49 11.8195C117.573 11.6279 117.693 11.4564 117.844 11.3163C117.992 11.1676 118.166 11.0504 118.359 10.9703C118.553 10.8902 118.761 10.8502 118.969 10.8531C119.177 10.8502 119.382 10.8902 119.573 10.9703C119.764 11.0504 119.938 11.1676 120.083 11.3163C120.234 11.4564 120.354 11.6279 120.437 11.8195C120.519 12.011 120.559 12.2169 120.556 12.4227C120.559 12.6286 120.519 12.8316 120.437 13.0203C120.354 13.209 120.234 13.3777 120.083 13.5178C119.938 13.6636 119.764 13.778 119.573 13.8552C119.382 13.9324 119.177 13.9724 118.972 13.9695C118.764 13.9724 118.556 13.9352 118.365 13.858C118.169 13.778 117.992 13.6636 117.844 13.5178ZM120.24 24.9344H117.707V15.4763H120.24V24.9344Z" fill="#6D4AFF"/>
<path d="M124.311 24.9343L120.721 15.4763H123.388L125.032 20.3082C125.286 21.1545 125.434 21.6606 125.474 21.8379H125.514C125.633 21.3833 125.796 20.8715 125.975 20.3082L127.619 15.4763H130.306L126.716 24.9343H124.311Z" fill="#6D4AFF"/>
<path d="M139.609 21.0715H132.491C132.603 21.6433 132.91 22.1609 133.358 22.5325C133.805 22.8814 134.358 23.0643 134.922 23.0472C135.375 23.0643 135.825 22.9843 136.244 22.8156C136.574 22.6555 136.842 22.3953 137.016 22.0694H139.361C139.116 23.01 138.529 23.8249 137.717 24.351C136.899 24.8828 135.945 25.1572 134.97 25.1458C134.078 25.1658 133.195 24.9457 132.415 24.5139C131.685 24.1051 131.087 23.4932 130.688 22.7527C130.275 21.9693 130.064 21.0973 130.078 20.2109C130.064 19.3246 130.278 18.4468 130.699 17.6691C131.098 16.9315 131.697 16.3225 132.423 15.9079C133.187 15.4819 134.047 15.2703 134.916 15.2903C135.768 15.2789 136.609 15.5019 137.344 15.9336C138.059 16.3568 138.643 16.9686 139.033 17.7034C139.446 18.4754 139.657 19.3417 139.646 20.2166C139.651 20.5026 139.637 20.7885 139.609 21.0715ZM133.332 17.9122C132.899 18.2667 132.597 18.7556 132.472 19.3017H137.258C137.184 18.7642 136.908 18.2724 136.486 17.9322C136.044 17.5691 135.486 17.3746 134.913 17.3889C134.341 17.3718 133.782 17.5576 133.332 17.9122Z" fill="#6D4AFF"/>
<path d="M38 21.259V24.924H40.5591V21.4191C40.5591 21.0789 40.6927 20.7502 40.9344 20.51C41.1732 20.2699 41.5002 20.1327 41.8386 20.1327H44.463C45.6857 20.1327 46.86 19.6438 47.7244 18.7719C48.5888 17.9028 49.075 16.7221 49.075 15.4928C49.075 14.2635 48.5888 13.0828 47.7244 12.2109C46.86 11.3418 45.6857 10.8529 44.4602 10.8529H38V15.4328H40.5591V13.2744H44.2896C44.8697 13.2744 45.4241 13.5059 45.8336 13.9176C46.243 14.3293 46.4733 14.8867 46.4733 15.4699C46.4733 16.0531 46.243 16.6106 45.8336 17.0223C45.4241 17.4339 44.8697 17.6655 44.2896 17.6655H41.5798C41.1107 17.6655 40.6444 17.757 40.2122 17.9399C39.7771 18.12 39.3847 18.3859 39.0521 18.7204C38.7194 19.0549 38.4578 19.4523 38.2758 19.8868C38.0938 20.3185 38 20.7873 38 21.259Z" fill="#1B1340"/>
<path d="M49.4703 24.924V19.3408C49.4703 17.0623 50.7925 15.2498 53.4397 15.2498C53.8633 15.2441 54.287 15.2898 54.7022 15.3899V17.6855C54.4008 17.6655 54.142 17.6655 54.0197 17.6655C52.6179 17.6655 52.0151 18.3116 52.0151 19.6209V24.924H49.4703Z" fill="#1B1340"/>
<path d="M55.4641 20.1899C55.4641 17.3882 57.5682 15.2527 60.4969 15.2527C63.4256 15.2527 65.5297 17.3882 65.5297 20.1899C65.5297 22.9915 63.4256 25.1471 60.4969 25.1471C57.5682 25.1471 55.4641 22.9886 55.4641 20.1899ZM63.0218 20.1899C63.0218 18.5975 61.9584 17.4683 60.4969 17.4683C59.0325 17.4683 57.972 18.5946 57.972 20.1899C57.972 21.8022 59.0354 22.9115 60.4969 22.9115C61.9612 22.9115 63.0218 21.7994 63.0218 20.1899Z" fill="#1B1340"/>
<path d="M73.6676 20.1899C73.6676 17.3882 75.7717 15.2527 78.7004 15.2527C81.6263 15.2527 83.7304 17.3882 83.7304 20.1899C83.7304 22.9915 81.6263 25.1471 78.7004 25.1471C75.7717 25.1471 73.6676 22.9886 73.6676 20.1899ZM81.2225 20.1899C81.2225 18.5975 80.1591 17.4683 78.6976 17.4683C77.2361 17.4683 76.1726 18.5946 76.1726 20.1899C76.1726 21.8022 77.2361 22.9115 78.6976 22.9115C80.1591 22.9115 81.2225 21.7994 81.2225 20.1899Z" fill="#1B1340"/>
<path d="M85.0526 24.9241V19.5438C85.0526 17.0452 86.6364 15.2498 89.4627 15.2498C92.2692 15.2498 93.8529 17.0423 93.8529 19.5438V24.9241H91.328V19.7439C91.328 18.3545 90.7053 17.4854 89.4627 17.4854C88.2202 17.4854 87.5975 18.3516 87.5975 19.7439V24.9241H85.0526Z" fill="#1B1340"/>
<path d="M72.9056 17.4881H70.1588V21.0159C70.1588 22.2452 70.5996 22.8084 71.862 22.8084C71.9815 22.8084 72.2829 22.8084 72.6639 22.7884V24.8639C72.1435 25.004 71.6829 25.0869 71.1796 25.0869C69.0556 25.0869 67.6112 23.7976 67.6112 21.359V17.4881H65.9051V15.4527H66.3316C66.4994 15.4527 66.6671 15.4184 66.8207 15.3555C66.9771 15.2897 67.1164 15.1954 67.2358 15.0753C67.3553 14.9552 67.4491 14.8152 67.5145 14.6579C67.5799 14.5007 67.6112 14.3349 67.6112 14.1662V12.2479H70.156V15.4527H72.9027V17.4881H72.9056Z" fill="#1B1340"/>
<path d="M0 9L4 7L11 11H23V28L22 29H3C1.34315 29 0 27.6569 0 26V9Z" fill="url(#paint0_radial_4566_17316)"/>
<path fill-rule="evenodd" clip-rule="evenodd" d="M10.961 7.42621C11.4738 7.79913 12.0915 8 12.7256 8L25 8C26.6569 8 28 9.34315 28 11V26C28 27.6569 26.6569 29 25 29H22V14.5C22 13.1193 20.8807 12 19.5 12H9C8.35089 12 7.71929 11.7895 7.2 11.4L4.8 9.6C4.28071 9.21053 3.64911 9 3 9L0 9C0 7.34315 1.34315 6 3 6H8.02445C8.65848 6 9.2762 6.20087 9.78896 6.57379L10.961 7.42621Z" fill="url(#paint1_linear_4566_17316)"/>
</g>
<defs>
<radialGradient id="paint0_radial_4566_17316" cx="0" cy="0" r="1" gradientUnits="userSpaceOnUse" gradientTransform="translate(24.9264 -8.1136) scale(42.9176 45.5519)">
<stop offset="0.5561" stop-color="#6D4AFF"/>
<stop offset="1" stop-color="#FF50C3"/>
</radialGradient>
<linearGradient id="paint1_linear_4566_17316" x1="-0.369123" y1="-6.00316" x2="34.3448" y2="32.4314" gradientUnits="userSpaceOnUse">
<stop stop-color="#7341FF"/>
<stop offset="0.3593" stop-color="#B487FF"/>
<stop offset="1" stop-color="#FFC8FF"/>
</linearGradient>
<clipPath id="clip0_4566_17316">
<rect width="140" height="36" fill="white"/>
</clipPath>
</defs>
</svg>
