<svg width="143" height="15" viewBox="0 0 143 15" fill="none" xmlns="http://www.w3.org/2000/svg">
<mask id="mask0_4566_17326" style="mask-type:luminance" maskUnits="userSpaceOnUse" x="0" y="0" width="143" height="15">
<path d="M142.558 0H0V15H142.558V0Z" fill="white"/>
</mask>
<g mask="url(#mask0_4566_17326)">
<path d="M12.21 14.761V8.90319C12.21 6.51327 13.6102 4.60994 16.4111 4.60994C16.8607 4.60343 17.3093 4.65307 17.7465 4.75785V7.16766C17.4282 7.14666 17.153 7.14666 17.0254 7.14666C15.5417 7.14666 14.9037 7.82325 14.9037 9.1978V14.761H12.21Z" fill="#1B1340"/>
<path d="M18.553 9.79058C18.553 6.85096 20.7808 4.60938 23.8787 4.60938C26.9767 4.60938 29.2038 6.8495 29.2038 9.79058C29.2038 12.7317 26.976 14.9914 23.8784 14.9914C20.7808 14.9914 18.553 12.7287 18.553 9.79058ZM26.552 9.79058C26.552 8.11987 25.4274 6.93559 23.8787 6.93559C22.3301 6.93559 21.2051 8.11876 21.2051 9.79058C21.2051 11.4825 22.3298 12.6456 23.8787 12.6456C25.4278 12.6456 26.5517 11.4809 26.5517 9.79058H26.552Z" fill="#1B1340"/>
<path d="M37.0112 6.95924H34.1046V10.6602C34.1046 11.9501 34.5712 12.5424 35.908 12.5424C36.0353 12.5424 36.3532 12.5424 36.7567 12.5213V14.6997C36.2051 14.8476 35.7181 14.9322 35.1866 14.9322C32.9376 14.9322 31.4098 13.5787 31.4098 11.0199V6.95924H29.6063V4.82338H30.0559C30.2338 4.82338 30.41 4.78839 30.5744 4.72048C30.7387 4.65258 30.888 4.55311 31.0138 4.42758C31.1395 4.30214 31.2392 4.15321 31.3071 3.98927C31.3751 3.82541 31.41 3.64981 31.4098 3.47241V1.46078H34.1046V4.82338H37.0112V6.95924Z" fill="#1B1340"/>
<path d="M37.8167 9.79058C37.8167 6.85096 40.0445 4.60938 43.1425 4.60938C46.2405 4.60938 48.4679 6.8495 48.4679 9.79058C48.4679 12.7317 46.2401 14.9929 43.1425 14.9929C40.0449 14.9929 37.8167 12.7287 37.8167 9.79058ZM45.8154 9.79058C45.8154 8.11979 44.6908 6.93559 43.1421 6.93559C41.5935 6.93559 40.4684 8.11876 40.4684 9.79058C40.4684 11.4825 41.5931 12.6456 43.1421 12.6456C44.6911 12.6456 45.8154 11.4809 45.8154 9.79058Z" fill="#1B1340"/>
<path d="M49.8684 14.7603V9.11398C49.8684 6.49161 51.5446 4.60938 54.5361 4.60938C57.5065 4.60938 59.1828 6.49161 59.1828 9.11398V14.7603H56.5095V9.32551C56.5095 7.86659 55.8515 6.95702 54.5361 6.95702C53.2208 6.95702 52.5628 7.86659 52.5628 9.32551V14.7603H49.8684Z" fill="#1B1340"/>
<path d="M0.0432135 10.9185V14.7636H2.75099V11.0848C2.75099 10.7269 2.89363 10.3837 3.14754 10.1306C3.40144 9.87757 3.74581 9.73532 4.10488 9.73532H6.88127C8.17648 9.73498 9.41846 9.22189 10.3342 8.3089C11.2499 7.39599 11.7645 6.15786 11.7646 4.86691C11.7646 3.5757 11.25 2.33742 10.3341 1.42436C9.4182 0.511297 8.17592 -0.00175592 6.88054 -0.00195312H0.0432135V4.8044H2.75099V2.53838H6.69804C7.31089 2.53838 7.89866 2.78103 8.33208 3.21292C8.76552 3.64472 9.00912 4.23052 9.00929 4.84135C9.00929 5.45236 8.76578 6.03833 8.33234 6.47039C7.8989 6.90236 7.31102 7.1451 6.69804 7.1451H3.82853C3.33134 7.14485 2.83897 7.24234 2.37958 7.43183C1.92019 7.62141 1.50278 7.8993 1.15124 8.24973C0.799681 8.60025 0.520873 9.01628 0.330751 9.47423C0.140629 9.9321 0.042921 10.4229 0.0432135 10.9185Z" fill="#1B1340"/>
<path d="M67.8896 14.8461V4.84375H73.8469V6.10872H69.2723V9.25652H73.641V10.5216H69.2723V14.8461H67.8896Z" fill="#1B1340"/>
<path d="M80.3553 13.9728C79.6786 14.6592 78.8353 15.0024 77.8253 15.0024C76.8152 15.0024 75.9669 14.6592 75.2806 13.9728C74.6039 13.2765 74.2656 12.4234 74.2656 11.4133C74.2656 10.4033 74.6039 9.55503 75.2806 8.86857C75.9669 8.17234 76.8152 7.82422 77.8253 7.82422C78.8353 7.82422 79.6786 8.17234 80.3553 8.86857C81.0417 9.55503 81.3849 10.4033 81.3849 11.4133C81.3849 12.4234 81.0417 13.2765 80.3553 13.9728ZM76.2366 9.72172C75.8248 10.163 75.6188 10.7269 75.6188 11.4133C75.6188 12.0997 75.8248 12.6637 76.2366 13.1049C76.6583 13.5462 77.1878 13.7668 77.8253 13.7668C78.4627 13.7668 78.9872 13.5462 79.3992 13.1049C79.8208 12.6637 80.0317 12.0997 80.0317 11.4133C80.0317 10.7269 79.8208 10.163 79.3992 9.72172C78.9872 9.28048 78.4627 9.05986 77.8253 9.05986C77.1878 9.05986 76.6583 9.28048 76.2366 9.72172Z" fill="#1B1340"/>
<path d="M82.7083 10.5014C82.7083 9.66778 82.9436 9.01571 83.4143 8.54498C83.8851 8.06447 84.5029 7.82422 85.2677 7.82422C85.5128 7.82422 85.7626 7.8586 86.0181 7.9272V9.16276C85.9298 9.15298 85.7532 9.14809 85.4884 9.14809C85.0274 9.14809 84.6744 9.27559 84.4293 9.53051C84.1841 9.78551 84.0615 10.217 84.0615 10.825V14.8553H82.7083V10.5014Z" fill="#1B1340"/>
<path d="M90.8867 14.8461V4.84375H94.0052C95.1327 4.84375 95.967 5.08889 96.5063 5.57926C97.0551 6.06954 97.3295 6.74125 97.3295 7.59439C97.3295 8.15335 97.1631 8.61911 96.8296 8.99175C96.5063 9.36439 96.1239 9.58998 95.6823 9.66843V9.69784C96.2997 9.7763 96.8099 10.0117 97.212 10.4039C97.6236 10.7961 97.8302 11.3158 97.8302 11.9631C97.8302 12.8554 97.531 13.5615 96.9325 14.0812C96.334 14.5911 95.4663 14.8461 94.3293 14.8461H90.8867ZM92.2698 13.5811H94.2264C95.6875 13.5811 96.418 13.0417 96.418 11.9631C96.418 11.4139 96.2114 11.007 95.7998 10.7422C95.3977 10.4774 94.7657 10.345 93.9023 10.345H92.2698V13.5811ZM92.2698 9.08006H93.9023C94.6088 9.08006 95.1181 8.96234 95.432 8.72697C95.7561 8.49169 95.9173 8.11417 95.9173 7.59439C95.9173 6.60397 95.2459 6.10872 93.9023 6.10872H92.2698V9.08006Z" fill="#1B1340"/>
<path d="M104.245 14.178C103.715 14.7272 103.004 15.0017 102.111 15.0017C101.22 15.0017 100.509 14.7272 99.9788 14.178C99.4489 13.6289 99.1848 12.9179 99.1848 12.0451V7.9707H100.538V11.9422C100.538 12.511 100.67 12.9522 100.935 13.266C101.2 13.5799 101.592 13.7368 102.111 13.7368C102.632 13.7368 103.024 13.5799 103.288 13.266C103.553 12.9522 103.685 12.511 103.685 11.9422V7.9707H105.039V12.0451C105.039 12.9179 104.774 13.6289 104.245 14.178Z" fill="#1B1340"/>
<path d="M109.195 15.0024C108.43 15.0024 107.798 14.7964 107.298 14.3846C106.807 13.9728 106.542 13.4187 106.504 12.7225H107.857C107.896 13.0657 108.038 13.3402 108.283 13.5462C108.538 13.7521 108.842 13.8551 109.195 13.8551C109.558 13.8551 109.837 13.7766 110.034 13.6197C110.23 13.4629 110.328 13.2716 110.328 13.0461C110.328 12.7813 110.2 12.5704 109.945 12.4135C109.691 12.2469 109.381 12.1145 109.019 12.0164C108.665 11.9184 108.308 11.8006 107.945 11.6634C107.592 11.5261 107.288 11.3055 107.033 11.0014C106.778 10.6975 106.65 10.3101 106.65 9.83944C106.65 9.30012 106.861 8.82939 107.283 8.42734C107.705 8.02529 108.288 7.82422 109.033 7.82422C109.74 7.82422 110.318 8.01543 110.769 8.39793C111.22 8.78034 111.48 9.31478 111.549 10.0012H110.195C110.088 9.31478 109.7 8.97155 109.033 8.97155C108.739 8.97155 108.494 9.05 108.297 9.20691C108.102 9.36382 108.003 9.57467 108.003 9.83944C108.003 10.1042 108.131 10.3151 108.386 10.472C108.641 10.6288 108.945 10.7563 109.298 10.8544C109.661 10.9524 110.019 11.0701 110.372 11.2074C110.735 11.3349 111.044 11.5555 111.298 11.8693C111.553 12.1733 111.681 12.5656 111.681 13.0461C111.681 13.6148 111.446 14.0855 110.975 14.4582C110.504 14.8209 109.911 15.0024 109.195 15.0024Z" fill="#1B1340"/>
<path d="M112.989 14.8547V7.97072H114.342V14.8547H112.989ZM113.033 6.39682C112.867 6.23013 112.783 6.02418 112.783 5.77904C112.783 5.5339 112.867 5.32794 113.033 5.16126C113.21 4.98471 113.421 4.89648 113.666 4.89648C113.911 4.89648 114.117 4.98471 114.283 5.16126C114.46 5.32794 114.548 5.5339 114.548 5.77904C114.548 6.02418 114.46 6.23013 114.283 6.39682C114.117 6.5635 113.911 6.64685 113.666 6.64685C113.421 6.64685 113.21 6.5635 113.033 6.39682Z" fill="#1B1340"/>
<path d="M116.12 10.7808C116.12 9.90804 116.39 9.19714 116.929 8.64795C117.468 8.09885 118.194 7.82422 119.106 7.82422C120.018 7.82422 120.744 8.09885 121.283 8.64795C121.822 9.19714 122.092 9.90804 122.092 10.7808V14.8553H120.739V10.8838C120.739 10.3052 120.601 9.85908 120.327 9.54526C120.053 9.22166 119.645 9.05986 119.106 9.05986C118.567 9.05986 118.159 9.22166 117.885 9.54526C117.611 9.85908 117.474 10.3052 117.474 10.8838V14.8553H116.12V10.7808Z" fill="#1B1340"/>
<path d="M126.893 15.0024C125.883 15.0024 125.049 14.669 124.392 14.0022C123.745 13.3354 123.422 12.4724 123.422 11.4133C123.422 10.3542 123.745 9.49132 124.392 8.8245C125.04 8.15767 125.873 7.82422 126.893 7.82422C127.805 7.82422 128.579 8.17234 129.217 8.86857C129.865 9.55503 130.188 10.4033 130.188 11.4133C130.188 11.6291 130.178 11.8055 130.159 11.9429H124.819C124.917 12.5019 125.152 12.948 125.525 13.2814C125.908 13.605 126.364 13.7668 126.893 13.7668C127.746 13.7668 128.325 13.4432 128.629 12.796H130.011C129.805 13.4629 129.418 13.9973 128.849 14.3994C128.29 14.8014 127.638 15.0024 126.893 15.0024ZM124.833 10.825H128.79C128.741 10.3445 128.541 9.93256 128.187 9.58933C127.834 9.23632 127.403 9.05986 126.893 9.05986C126.364 9.05986 125.913 9.22166 125.54 9.54526C125.177 9.85908 124.941 10.2856 124.833 10.825Z" fill="#1B1340"/>
<path d="M133.902 15.0024C133.137 15.0024 132.504 14.7964 132.004 14.3846C131.514 13.9728 131.25 13.4187 131.21 12.7225H132.563C132.603 13.0657 132.745 13.3402 132.99 13.5462C133.245 13.7521 133.549 13.8551 133.902 13.8551C134.265 13.8551 134.544 13.7766 134.74 13.6197C134.937 13.4629 135.035 13.2716 135.035 13.0461C135.035 12.7813 134.907 12.5704 134.652 12.4135C134.398 12.2469 134.088 12.1145 133.725 12.0164C133.373 11.9184 133.014 11.8006 132.652 11.6634C132.299 11.5261 131.995 11.3055 131.739 11.0014C131.485 10.6975 131.357 10.3101 131.357 9.83944C131.357 9.30012 131.568 8.82939 131.99 8.42734C132.412 8.02529 132.995 7.82422 133.74 7.82422C134.446 7.82422 135.025 8.01543 135.476 8.39793C135.927 8.78034 136.187 9.31478 136.256 10.0012H134.903C134.795 9.31478 134.407 8.97155 133.74 8.97155C133.446 8.97155 133.201 9.05 133.005 9.20691C132.809 9.36382 132.711 9.57467 132.711 9.83944C132.711 10.1042 132.838 10.3151 133.093 10.472C133.348 10.6288 133.652 10.7563 134.005 10.8544C134.368 10.9524 134.726 11.0701 135.079 11.2074C135.442 11.3349 135.751 11.5555 136.005 11.8693C136.261 12.1733 136.388 12.5656 136.388 13.0461C136.388 13.6148 136.153 14.0855 135.682 14.4582C135.211 14.8209 134.618 15.0024 133.902 15.0024Z" fill="#1B1340"/>
<path d="M140.079 15.0024C139.315 15.0024 138.682 14.7964 138.182 14.3846C137.691 13.9728 137.427 13.4187 137.388 12.7225H138.741C138.78 13.0657 138.922 13.3402 139.167 13.5462C139.423 13.7521 139.726 13.8551 140.079 13.8551C140.442 13.8551 140.722 13.7766 140.918 13.6197C141.114 13.4629 141.212 13.2716 141.212 13.0461C141.212 12.7813 141.084 12.5704 140.83 12.4135C140.574 12.2469 140.265 12.1145 139.903 12.0164C139.55 11.9184 139.192 11.8006 138.829 11.6634C138.476 11.5261 138.172 11.3055 137.917 11.0014C137.662 10.6975 137.535 10.3101 137.535 9.83944C137.535 9.30012 137.745 8.82939 138.167 8.42734C138.589 8.02529 139.172 7.82422 139.917 7.82422C140.624 7.82422 141.202 8.01543 141.654 8.39793C142.105 8.78034 142.364 9.31478 142.433 10.0012H141.079C140.972 9.31478 140.584 8.97155 139.917 8.97155C139.623 8.97155 139.378 9.05 139.182 9.20691C138.986 9.36382 138.888 9.57467 138.888 9.83944C138.888 10.1042 139.015 10.3151 139.27 10.472C139.526 10.6288 139.829 10.7563 140.182 10.8544C140.545 10.9524 140.903 11.0701 141.256 11.2074C141.619 11.3349 141.928 11.5555 142.183 11.8693C142.437 12.1733 142.565 12.5656 142.565 13.0461C142.565 13.6148 142.33 14.0855 141.859 14.4582C141.389 14.8209 140.795 15.0024 140.079 15.0024Z" fill="#1B1340"/>
</g>
</svg>
