<svg width="21" height="14" viewBox="0 0 21 14" fill="none" xmlns="http://www.w3.org/2000/svg">
<g id="Group 1533222">
<path id="Path 1" d="M14.5112 8.13239L12.0876 10.5649C11.989 10.6641 11.9336 10.7983 11.9336 10.9383C11.9336 11.0782 11.989 11.2124 12.0876 11.3117L13.9396 13.1663C14.093 13.3161 14.2989 13.4 14.5133 13.4C14.7277 13.4 14.9336 13.3161 15.0869 13.1663L20.7634 7.56369C20.8384 7.48969 20.8979 7.40153 20.9385 7.30433C20.9792 7.20714 21.0001 7.10284 21.0001 6.99749C21.0001 6.89214 20.9792 6.78784 20.9385 6.69064C20.8979 6.59345 20.8384 6.50529 20.7634 6.43128L15.0875 0.833676C14.9341 0.683853 14.7282 0.599976 14.5138 0.599976C14.2994 0.599976 14.0935 0.683853 13.9401 0.833676L12.0881 2.68828C11.9895 2.78752 11.9341 2.92176 11.9341 3.06169C11.9341 3.20162 11.9895 3.33586 12.0881 3.4351L14.5117 5.86757C14.6617 6.01559 14.7807 6.19193 14.862 6.38634C14.9432 6.58076 14.985 6.78938 14.985 7.00009C14.9849 7.21079 14.943 7.41939 14.8617 7.61377C14.7803 7.80815 14.6612 7.98443 14.5112 8.13239Z" fill="#0A6E5C"/>
<path id="Path 2" d="M7.22461 8.13239L9.64817 10.5649C9.74682 10.6641 9.80219 10.7983 9.80219 10.9383C9.80219 11.0782 9.74682 11.2124 9.64817 11.3117L7.79618 13.1663C7.64281 13.3161 7.43692 13.4 7.22251 13.4C7.00811 13.4 6.80221 13.3161 6.64884 13.1663L0.97108 7.56369C0.8961 7.48969 0.836566 7.40153 0.795933 7.30433C0.755299 7.20714 0.734375 7.10284 0.734375 6.99749C0.734375 6.89214 0.755299 6.78784 0.795933 6.69064C0.836566 6.59345 0.8961 6.50529 0.97108 6.43128L6.64858 0.833676C6.80195 0.683853 7.00785 0.599976 7.22225 0.599976C7.43665 0.599976 7.64255 0.683853 7.79592 0.833676L9.64791 2.68828C9.74655 2.78752 9.80192 2.92176 9.80192 3.06169C9.80192 3.20162 9.74655 3.33586 9.64791 3.4351L7.22461 5.86783C7.07466 6.01581 6.9556 6.19211 6.87433 6.38648C6.79307 6.58085 6.75122 6.78943 6.75122 7.00011C6.75122 7.21078 6.79307 7.41936 6.87433 7.61373C6.9556 7.80811 7.07466 7.9844 7.22461 8.13239Z" fill="#21BF73"/>
<path id="Path 3" d="M7.85958 7.46216C7.73689 7.33936 7.66797 7.17288 7.66797 6.9993C7.66797 6.82571 7.73689 6.65923 7.85958 6.53643L10.4052 3.9908C10.528 3.86811 10.6945 3.79919 10.8681 3.79919C11.0417 3.79919 11.2081 3.86811 11.3309 3.9908L13.8766 6.53643C13.9993 6.65923 14.0682 6.82571 14.0682 6.9993C14.0682 7.17288 13.9993 7.33936 13.8766 7.46216L11.3307 10.0075C11.2079 10.1302 11.0414 10.1991 10.8678 10.1991C10.6942 10.1991 10.5277 10.1302 10.4049 10.0075L7.85958 7.46216Z" fill="#21BF73"/>
</g>
</svg>
