<svg width="80" height="80" viewBox="0 0 80 80" fill="none" xmlns="http://www.w3.org/2000/svg">
<path d="M21.6659 71.6656C21.3293 71.6656 28.4093 42.8356 28.4093 42.8356C28.5826 42.2789 29.0343 41.8522 29.6009 41.7139C30.1659 41.5706 30.7659 41.7422 31.1776 42.1539L42.8443 53.8206C43.1859 54.1622 43.3626 54.6339 43.3276 55.1172C43.2926 55.5989 43.0526 56.0422 42.6659 56.3322L22.6659 71.3322C22.3709 71.5556 22.0176 71.6656 21.6659 71.6656Z" fill="url(#paint0_linear_2778_31256)"/>
<path d="M59.9856 75.0002C59.6306 75.0002 59.2773 74.8869 58.9856 74.6669L5.66563 34.6669C5.1823 34.3052 4.93396 33.7136 5.0123 33.1152C5.09063 32.5186 5.48563 32.0102 6.04563 31.7852L72.714 5.11865C73.2823 4.89365 73.929 4.99198 74.399 5.38532C74.869 5.77532 75.0873 6.39198 74.9673 6.99365L61.6206 73.6602C61.509 74.2219 61.1156 74.6852 60.5806 74.8902C60.389 74.9636 60.1873 74.9986 59.9873 74.9986L59.9856 75.0002Z" fill="url(#paint1_linear_2778_31256)"/>
<path d="M21.6683 71.6669C21.5783 71.6669 21.49 71.6602 21.4 71.6452C20.5933 71.5135 20 70.8169 20 70.0002V45.0002C20 44.4735 20.25 43.9769 20.6733 43.6619L72.34 5.3286C73.0483 4.8036 74.0383 4.92027 74.605 5.5886C75.1733 6.26027 75.1217 7.25694 74.4883 7.86694L28.665 51.9185L23.2483 70.5269C23.0183 71.2152 22.375 71.6669 21.6683 71.6669Z" fill="url(#paint2_linear_2778_31256)"/>
<defs>
<linearGradient id="paint0_linear_2778_31256" x1="32.4931" y1="41.6641" x2="32.4931" y2="71.6656" gradientUnits="userSpaceOnUse">
<stop stop-color="#A2A3B4"/>
<stop offset="1" stop-color="#83849B"/>
</linearGradient>
<linearGradient id="paint1_linear_2778_31256" x1="39.999" y1="5" x2="39.999" y2="75.0002" gradientUnits="userSpaceOnUse">
<stop stop-color="#E0E0E6"/>
<stop offset="1" stop-color="#C2C3CD"/>
</linearGradient>
<linearGradient id="paint2_linear_2778_31256" x1="47.4998" y1="5" x2="47.4998" y2="71.6669" gradientUnits="userSpaceOnUse">
<stop stop-color="#C2C3CD"/>
<stop offset="1" stop-color="#A2A3B4"/>
</linearGradient>
</defs>
</svg>
