<svg width="241" height="167" viewBox="0 0 241 167" fill="none" xmlns="http://www.w3.org/2000/svg">
<g clip-path="url(#clip0_4813_3234)">
<g opacity="0.7" filter="url(#filter0_f_4813_3234)">
<ellipse cx="123.019" cy="54.3046" rx="40.9291" ry="3.1484" fill="white"/>
</g>
<path opacity="0.3" d="M104.511 128.083C104.865 128.287 105.093 128.559 105.022 128.693L89.6799 158.021C89.4711 158.42 88.4376 158.251 87.3849 157.645C86.3322 157.039 85.6684 156.232 85.9108 155.852L103.725 127.947C103.807 127.819 104.157 127.88 104.511 128.083Z" fill="url(#paint0_linear_4813_3234)"/>
<path opacity="0.3" d="M104.878 39.1333C105.232 38.9295 105.46 38.6582 105.39 38.5239L90.0472 9.19606C89.8384 8.79689 88.8049 8.9661 87.7522 9.57182C86.6994 10.1775 86.0356 10.9849 86.2781 11.3647L104.093 39.2703C104.174 39.3981 104.524 39.3371 104.878 39.1333Z" fill="url(#paint1_linear_4813_3234)"/>
<path opacity="0.3" d="M138.299 128.084C137.945 128.288 137.717 128.559 137.788 128.693L153.13 158.021C153.339 158.42 154.373 158.251 155.425 157.645C156.478 157.04 157.142 156.232 156.899 155.852L139.085 127.947C139.003 127.819 138.654 127.88 138.299 128.084Z" fill="url(#paint2_linear_4813_3234)"/>
<path opacity="0.3" d="M138.299 39.1333C137.945 38.9295 137.717 38.6582 137.788 38.5239L153.13 9.19606C153.339 8.79689 154.373 8.9661 155.425 9.57182C156.478 10.1775 157.142 10.9849 156.899 11.3647L139.085 39.2703C139.003 39.3981 138.654 39.3371 138.299 39.1333Z" fill="url(#paint3_linear_4813_3234)"/>
<path opacity="0.3" d="M181.593 54.6279C181.387 54.2749 181.467 53.8445 181.772 53.6609L248.373 13.5639C249.279 13.0181 250.522 13.4303 251.132 14.4791C251.743 15.528 251.484 16.8069 250.558 17.3191L182.524 54.9533C182.213 55.1256 181.798 54.9808 181.593 54.6279Z" fill="url(#paint4_linear_4813_3234)"/>
<path opacity="0.3" d="M181.593 113.878C181.387 114.231 181.467 114.661 181.772 114.845L248.373 154.942C249.279 155.488 250.522 155.076 251.132 154.027C251.743 152.978 251.484 151.699 250.558 151.187L182.524 113.553C182.213 113.38 181.798 113.525 181.593 113.878Z" fill="url(#paint5_linear_4813_3234)"/>
<path opacity="0.3" d="M58.3829 54.6279C58.5882 54.2749 58.5083 53.8445 58.2033 53.6609L-8.39733 13.5639C-9.3038 13.0181 -10.5464 13.4303 -11.1568 14.4791C-11.7671 15.528 -11.5086 16.8069 -10.5826 17.3191L57.4512 54.9533C57.7628 55.1256 58.1775 54.9808 58.3829 54.6279Z" fill="url(#paint6_linear_4813_3234)"/>
<path opacity="0.3" d="M58.3829 113.878C58.5882 114.231 58.5083 114.661 58.2033 114.845L-8.39733 154.942C-9.3038 155.488 -10.5464 155.076 -11.1568 154.027C-11.7671 152.978 -11.5086 151.699 -10.5826 151.187L57.4512 113.553C57.7628 113.38 58.1775 113.525 58.3829 113.878Z" fill="url(#paint7_linear_4813_3234)"/>
<path opacity="0.6" d="M30.2014 85.7099L28.8606 89.062C28.6693 89.5403 28.2903 89.9193 27.812 90.1106L24.4599 91.4514C23.5134 91.83 23.5134 93.17 24.4599 93.5486L27.812 94.8894C28.2903 95.0807 28.6693 95.4597 28.8606 95.938L30.2014 99.2901C30.58 100.237 31.92 100.237 32.2986 99.2901L33.6394 95.938C33.8307 95.4597 34.2097 95.0807 34.688 94.8894L38.0401 93.5486C38.9866 93.17 38.9866 91.83 38.0401 91.4514L34.688 90.1106C34.2097 89.9193 33.8307 89.5403 33.6394 89.062L32.2986 85.7099C31.92 84.7634 30.58 84.7634 30.2014 85.7099Z" fill="#7226ED"/>
<path opacity="0.6" d="M76.0243 36.645L76.6947 34.969C76.7904 34.7299 76.9799 34.5404 77.219 34.4447L78.895 33.7743C79.3683 33.585 79.3683 32.915 78.895 32.7257L77.219 32.0553C76.9799 31.9596 76.7904 31.7701 76.6947 31.531L76.0243 29.855C75.835 29.3817 75.165 29.3817 74.9757 29.855L74.3053 31.531C74.2096 31.7701 74.0201 31.9596 73.781 32.0553L72.105 32.7257C71.6317 32.915 71.6317 33.585 72.105 33.7743L73.781 34.4447C74.0201 34.5404 74.2096 34.7299 74.3053 34.969L74.9757 36.645C75.165 37.1183 75.835 37.1183 76.0243 36.645Z" fill="#7226ED"/>
<path opacity="0.6" d="M205.024 95.895L205.695 94.219C205.79 93.9798 205.98 93.7904 206.219 93.6947L207.895 93.0243C208.368 92.835 208.368 92.165 207.895 91.9757L206.219 91.3053C205.98 91.2096 205.79 91.0201 205.695 90.7809L205.024 89.1049C204.835 88.6316 204.165 88.6316 203.976 89.1049L203.305 90.7809C203.21 91.0201 203.02 91.2096 202.781 91.3053L201.105 91.9757C200.632 92.165 200.632 92.835 201.105 93.0243L202.781 93.6947C203.02 93.7904 203.21 93.9798 203.305 94.219L203.976 95.895C204.165 96.3683 204.835 96.3683 205.024 95.895Z" fill="#7226ED"/>
<g clip-path="url(#clip1_4813_3234)">
<path d="M123.889 121.898C142.612 121.898 157.789 106.721 157.789 87.9986C157.789 69.2762 142.612 54.0988 123.889 54.0988C105.166 54.0988 89.9885 69.2762 89.9885 87.9986C89.9885 106.721 105.166 121.898 123.889 121.898Z" fill="white" stroke="url(#paint8_linear_4813_3234)" stroke-width="1.73845"/>
<path fill-rule="evenodd" clip-rule="evenodd" d="M136.058 80.9372C136.058 87.6581 130.61 93.1064 123.889 93.1064C117.168 93.1064 111.72 87.6581 111.72 80.9372C111.72 74.2164 117.168 68.7681 123.889 68.7681C130.61 68.7681 136.058 74.2164 136.058 80.9372ZM123.887 121.029C133.479 121.029 142.115 116.94 148.15 110.411C142.256 103.042 133.189 98.3211 123.019 98.3211C113.321 98.3211 104.625 102.613 98.7288 109.402C104.787 116.516 113.81 121.029 123.887 121.029Z" fill="url(#paint9_linear_4813_3234)"/>
</g>
</g>
<defs>
<filter id="filter0_f_4813_3234" x="74.5333" y="43.6001" width="96.9706" height="21.4092" filterUnits="userSpaceOnUse" color-interpolation-filters="sRGB">
<feFlood flood-opacity="0" result="BackgroundImageFix"/>
<feBlend mode="normal" in="SourceGraphic" in2="BackgroundImageFix" result="shape"/>
<feGaussianBlur stdDeviation="3.77807" result="effect1_foregroundBlur_4813_3234"/>
</filter>
<linearGradient id="paint0_linear_4813_3234" x1="104.167" y1="126.993" x2="89.9736" y2="150.071" gradientUnits="userSpaceOnUse">
<stop stop-color="#BF7AF5"/>
<stop offset="1" stop-color="#D289EC" stop-opacity="0"/>
</linearGradient>
<linearGradient id="paint1_linear_4813_3234" x1="104.534" y1="40.2242" x2="90.3409" y2="17.1461" gradientUnits="userSpaceOnUse">
<stop stop-color="#BF7AF5"/>
<stop offset="1" stop-color="#D289EC" stop-opacity="0"/>
</linearGradient>
<linearGradient id="paint2_linear_4813_3234" x1="138.643" y1="126.993" x2="152.837" y2="150.071" gradientUnits="userSpaceOnUse">
<stop stop-color="#BF7AF5"/>
<stop offset="1" stop-color="#D289EC" stop-opacity="0"/>
</linearGradient>
<linearGradient id="paint3_linear_4813_3234" x1="138.643" y1="40.2242" x2="152.837" y2="17.1461" gradientUnits="userSpaceOnUse">
<stop stop-color="#BF7AF5"/>
<stop offset="1" stop-color="#D289EC" stop-opacity="0"/>
</linearGradient>
<linearGradient id="paint4_linear_4813_3234" x1="180.441" y1="56.2667" x2="237.448" y2="28.147" gradientUnits="userSpaceOnUse">
<stop stop-color="#BF7AF5"/>
<stop offset="1" stop-color="#D289EC" stop-opacity="0"/>
</linearGradient>
<linearGradient id="paint5_linear_4813_3234" x1="180.441" y1="112.239" x2="237.448" y2="140.359" gradientUnits="userSpaceOnUse">
<stop stop-color="#BF7AF5"/>
<stop offset="1" stop-color="#D289EC" stop-opacity="0"/>
</linearGradient>
<linearGradient id="paint6_linear_4813_3234" x1="59.5344" y1="56.2667" x2="2.52717" y2="28.147" gradientUnits="userSpaceOnUse">
<stop stop-color="#BF7AF5"/>
<stop offset="1" stop-color="#D289EC" stop-opacity="0"/>
</linearGradient>
<linearGradient id="paint7_linear_4813_3234" x1="59.5344" y1="112.239" x2="2.52717" y2="140.359" gradientUnits="userSpaceOnUse">
<stop stop-color="#BF7AF5"/>
<stop offset="1" stop-color="#D289EC" stop-opacity="0"/>
</linearGradient>
<linearGradient id="paint8_linear_4813_3234" x1="123.889" y1="54.968" x2="123.889" y2="121.029" gradientUnits="userSpaceOnUse">
<stop stop-color="#D6C4FF"/>
<stop offset="1" stop-color="#F8E0FF"/>
</linearGradient>
<linearGradient id="paint9_linear_4813_3234" x1="125.764" y1="51.9084" x2="140.816" y2="115.907" gradientUnits="userSpaceOnUse">
<stop stop-color="#ECAAFF"/>
<stop offset="1" stop-color="#6A48F6"/>
</linearGradient>
<clipPath id="clip0_4813_3234">
<rect width="240" height="135" fill="white" transform="translate(0.5 16)"/>
</clipPath>
<clipPath id="clip1_4813_3234">
<rect width="80" height="80" fill="white" transform="translate(80.5 43)"/>
</clipPath>
</defs>
</svg>
