<svg width="16" height="17" viewBox="0 0 16 17" fill="none" xmlns="http://www.w3.org/2000/svg">
<g clip-path="url(#clip0_1718_9568)">
<path d="M10.5 4H15.5" stroke="#535964" stroke-width="1.5" stroke-linecap="round" stroke-linejoin="round"/>
<path d="M0.5 4H2.5" stroke="#535964" stroke-width="1.5" stroke-linecap="round" stroke-linejoin="round"/>
<path d="M5.5 13H0.5" stroke="#535964" stroke-width="1.5" stroke-linecap="round" stroke-linejoin="round"/>
<path d="M15.5 13H13.5" stroke="#535964" stroke-width="1.5" stroke-linecap="round" stroke-linejoin="round"/>
<path d="M5 6.5C6.38071 6.5 7.5 5.38071 7.5 4C7.5 2.61929 6.38071 1.5 5 1.5C3.61929 1.5 2.5 2.61929 2.5 4C2.5 5.38071 3.61929 6.5 5 6.5Z" stroke="#535964" stroke-width="1.5" stroke-linecap="round" stroke-linejoin="round"/>
<path d="M11 15.5C12.3807 15.5 13.5 14.3807 13.5 13C13.5 11.6193 12.3807 10.5 11 10.5C9.61929 10.5 8.5 11.6193 8.5 13C8.5 14.3807 9.61929 15.5 11 15.5Z" stroke="#535964" stroke-width="1.5" stroke-linecap="round" stroke-linejoin="round"/>
</g>
<defs>
<clipPath id="clip0_1718_9568">
<rect width="16" height="16" fill="white" transform="translate(0 0.5)"/>
</clipPath>
</defs>
</svg>
