<svg width="16" height="15" viewBox="0 0 16 15" fill="none" xmlns="http://www.w3.org/2000/svg">
<path opacity="0.6" d="M6.70139 0.709946L5.36058 4.06197C5.16926 4.54027 4.79027 4.91926 4.31197 5.11058L0.959943 6.45139C0.0133501 6.83003 0.0133532 8.16997 0.959947 8.54861L4.31197 9.88942C4.79027 10.0807 5.16926 10.4597 5.36058 10.938L6.70139 14.2901C7.08002 15.2366 8.41997 15.2366 8.79861 14.2901L10.1394 10.938C10.3307 10.4597 10.7097 10.0807 11.188 9.88942L14.5401 8.54861C15.4866 8.16997 15.4866 6.83002 14.5401 6.45139L11.188 5.11058C10.7097 4.91926 10.3307 4.54027 10.1394 4.06197L8.79861 0.709944C8.41997 -0.236649 7.08002 -0.236647 6.70139 0.709946Z" fill="#7226ED"/>
</svg>
