<svg width="24" height="24" viewBox="0 0 24 24" fill="none" xmlns="http://www.w3.org/2000/svg">
<rect width="24" height="24" rx="12" fill="#1EA885"/>
<path fill-rule="evenodd" clip-rule="evenodd" d="M6.00314 14.7531C5.83229 14.924 5.83229 15.201 6.00314 15.3719L8.62814 17.9969C8.799 18.1677 9.07601 18.1677 9.24686 17.9969C9.41771 17.826 9.41771 17.549 9.24686 17.3781L7.36872 15.5L17.67 15.5C17.9116 15.5 18.1075 15.3041 18.1075 15.0625C18.1075 14.8209 17.9116 14.625 17.67 14.625L7.36872 14.625L9.24686 12.7469C9.41771 12.576 9.41771 12.299 9.24686 12.1281C9.076 11.9573 8.79899 11.9573 8.62814 12.1281L6.00314 14.7531ZM5.8925 8.9375C5.8925 9.17913 6.08837 9.375 6.33 9.375L16.6313 9.375L14.7531 11.2531C14.5823 11.424 14.5823 11.701 14.7531 11.8719C14.924 12.0427 15.201 12.0427 15.3719 11.8719L17.9969 9.24686C18.1677 9.076 18.1677 8.79899 17.9969 8.62814L15.3719 6.00314C15.201 5.83229 14.924 5.83229 14.7531 6.00314C14.5823 6.17399 14.5823 6.451 14.7531 6.62186L16.6313 8.5L6.33 8.5C6.08837 8.5 5.8925 8.69588 5.8925 8.9375Z" fill="white"/>
</svg>
