<svg width="241" height="135" viewBox="0 0 241 135" fill="none" xmlns="http://www.w3.org/2000/svg">
<g clip-path="url(#clip0_4580_24728)">
<g opacity="0.7" filter="url(#filter0_f_4580_24728)">
<ellipse cx="123.019" cy="38.3046" rx="40.9291" ry="3.1484" fill="white"/>
</g>
<path opacity="0.3" d="M104.511 112.083C104.865 112.287 105.093 112.559 105.022 112.693L89.6799 142.021C89.4711 142.42 88.4376 142.251 87.3849 141.645C86.3322 141.039 85.6684 140.232 85.9108 139.852L103.725 111.947C103.807 111.819 104.157 111.88 104.511 112.083Z" fill="url(#paint0_linear_4580_24728)"/>
<path opacity="0.3" d="M104.878 23.1332C105.232 22.9294 105.46 22.6582 105.39 22.5239L90.0472 -6.804C89.8384 -7.20317 88.8049 -7.03396 87.7522 -6.42825C86.6995 -5.82253 86.0357 -5.01515 86.2781 -4.63534L104.093 23.2702C104.174 23.398 104.524 23.337 104.878 23.1332Z" fill="url(#paint1_linear_4580_24728)"/>
<path opacity="0.3" d="M138.299 112.084C137.945 112.287 137.717 112.559 137.788 112.693L153.13 142.021C153.339 142.42 154.373 142.251 155.425 141.645C156.478 141.039 157.142 140.232 156.899 139.852L139.085 111.947C139.003 111.819 138.654 111.88 138.299 112.084Z" fill="url(#paint2_linear_4580_24728)"/>
<path opacity="0.3" d="M138.299 23.1332C137.945 22.9294 137.717 22.6582 137.788 22.5239L153.13 -6.804C153.339 -7.20317 154.373 -7.03396 155.425 -6.42825C156.478 -5.82253 157.142 -5.01515 156.899 -4.63534L139.085 23.2702C139.003 23.398 138.654 23.337 138.299 23.1332Z" fill="url(#paint3_linear_4580_24728)"/>
<path opacity="0.3" d="M181.593 38.6279C181.387 38.275 181.467 37.8446 181.772 37.6609L248.373 -2.43608C249.279 -2.98182 250.522 -2.56966 251.132 -1.52082C251.743 -0.471972 251.484 0.806916 250.558 1.31914L182.524 38.9533C182.213 39.1257 181.798 38.9808 181.593 38.6279Z" fill="url(#paint4_linear_4580_24728)"/>
<path opacity="0.3" d="M181.593 97.878C181.387 98.2309 181.467 98.6614 181.772 98.845L248.373 138.942C249.279 139.488 250.522 139.076 251.132 138.027C251.743 136.978 251.484 135.699 250.558 135.187L182.524 97.5526C182.213 97.3802 181.798 97.5251 181.593 97.878Z" fill="url(#paint5_linear_4580_24728)"/>
<path opacity="0.3" d="M58.3828 38.6279C58.5882 38.275 58.5082 37.8446 58.2032 37.6609L-8.39736 -2.43608C-9.30383 -2.98182 -10.5465 -2.56966 -11.1568 -1.52082C-11.7672 -0.471972 -11.5086 0.806916 -10.5826 1.31914L57.4512 38.9533C57.7627 39.1257 58.1775 38.9808 58.3828 38.6279Z" fill="url(#paint6_linear_4580_24728)"/>
<path opacity="0.3" d="M58.3828 97.878C58.5882 98.2309 58.5082 98.6614 58.2032 98.845L-8.39736 138.942C-9.30383 139.488 -10.5465 139.076 -11.1568 138.027C-11.7672 136.978 -11.5086 135.699 -10.5826 135.187L57.4512 97.5526C57.7627 97.3802 58.1775 97.5251 58.3828 97.878Z" fill="url(#paint7_linear_4580_24728)"/>
<path opacity="0.6" d="M30.2014 69.7099L28.8606 73.062C28.6693 73.5403 28.2903 73.9193 27.812 74.1106L24.4599 75.4514C23.5134 75.83 23.5134 77.17 24.4599 77.5486L27.812 78.8894C28.2903 79.0807 28.6693 79.4597 28.8606 79.938L30.2014 83.2901C30.58 84.2366 31.92 84.2366 32.2986 83.2901L33.6394 79.938C33.8307 79.4597 34.2097 79.0807 34.688 78.8894L38.0401 77.5486C38.9866 77.17 38.9866 75.83 38.0401 75.4514L34.688 74.1106C34.2097 73.9193 33.8307 73.5403 33.6394 73.062L32.2986 69.7099C31.92 68.7634 30.58 68.7634 30.2014 69.7099Z" fill="#7226ED"/>
<path opacity="0.6" d="M76.0243 20.645L76.6947 18.969C76.7904 18.7299 76.9799 18.5404 77.219 18.4447L78.895 17.7743C79.3683 17.585 79.3683 16.915 78.895 16.7257L77.219 16.0553C76.9799 15.9596 76.7904 15.7701 76.6947 15.531L76.0243 13.855C75.835 13.3817 75.165 13.3817 74.9757 13.855L74.3053 15.531C74.2096 15.7701 74.0201 15.9596 73.781 16.0553L72.105 16.7257C71.6317 16.915 71.6317 17.585 72.105 17.7743L73.781 18.4447C74.0201 18.5404 74.2096 18.7299 74.3053 18.969L74.9757 20.645C75.165 21.1183 75.835 21.1183 76.0243 20.645Z" fill="#7226ED"/>
<path opacity="0.6" d="M205.024 79.895L205.695 78.219C205.79 77.9798 205.98 77.7904 206.219 77.6947L207.895 77.0243C208.368 76.835 208.368 76.165 207.895 75.9757L206.219 75.3053C205.98 75.2096 205.79 75.0201 205.695 74.7809L205.024 73.1049C204.835 72.6316 204.165 72.6316 203.976 73.1049L203.305 74.7809C203.21 75.0201 203.02 75.2096 202.781 75.3053L201.105 75.9757C200.632 76.165 200.632 76.835 201.105 77.0243L202.781 77.6947C203.02 77.7904 203.21 77.9798 203.305 78.219L203.976 79.895C204.165 80.3683 204.835 80.3683 205.024 79.895Z" fill="#7226ED"/>
<path d="M135.5 57.0006H132.167V43.6673C132.167 37.224 126.943 32.0006 120.5 32.0006C114.057 32.0006 108.833 37.224 108.833 43.6673V57.0006H105.5V43.6673C105.5 35.3823 112.215 28.6673 120.5 28.6673C128.785 28.6673 135.5 35.3823 135.5 43.6673V57.0006Z" fill="url(#paint8_linear_4580_24728)"/>
<path d="M103.833 105.334C106.595 105.334 108.833 103.095 108.833 100.334C108.833 97.5725 106.595 95.334 103.833 95.334C101.072 95.334 98.8333 97.5725 98.8333 100.334C98.8333 103.095 101.072 105.334 103.833 105.334Z" fill="#767DFF"/>
<path d="M120.5 105.334C123.261 105.334 125.5 103.095 125.5 100.334C125.5 97.5725 123.261 95.334 120.5 95.334C117.738 95.334 115.5 97.5725 115.5 100.334C115.5 103.095 117.738 105.334 120.5 105.334Z" fill="#767DFF"/>
<path d="M137.167 105.334C139.928 105.334 142.167 103.095 142.167 100.334C142.167 97.5725 139.928 95.334 137.167 95.334C134.405 95.334 132.167 97.5725 132.167 100.334C132.167 103.095 134.405 105.334 137.167 105.334Z" fill="#767DFF"/>
<path d="M153.833 105.334C156.595 105.334 158.833 103.095 158.833 100.334C158.833 97.5725 156.595 95.334 153.833 95.334C151.072 95.334 148.833 97.5725 148.833 100.334C148.833 103.095 151.072 105.334 153.833 105.334Z" fill="#767DFF"/>
<path d="M87.1666 105.334C89.928 105.334 92.1666 103.095 92.1666 100.334C92.1666 97.5725 89.928 95.334 87.1666 95.334C84.4052 95.334 82.1666 97.5725 82.1666 100.334C82.1666 103.095 84.4052 105.334 87.1666 105.334Z" fill="#767DFF"/>
<path d="M140.5 55.334H100.5C97.7383 55.334 95.4999 57.5723 95.4999 60.334V83.6673C95.4999 86.429 97.7383 88.6673 100.5 88.6673H140.5C143.262 88.6673 145.5 86.429 145.5 83.6673V60.334C145.5 57.5723 143.262 55.334 140.5 55.334Z" fill="url(#paint9_linear_4580_24728)"/>
<path d="M122.167 75.0978V80.3328C122.167 81.2528 121.42 81.9994 120.5 81.9994C119.58 81.9994 118.833 81.2528 118.833 80.3328V75.0978C115.268 74.1778 113.125 70.5411 114.045 66.9761C114.965 63.4111 118.602 61.2678 122.167 62.1878C125.732 63.1078 127.875 66.7444 126.955 70.3094C126.348 72.6578 124.515 74.4911 122.167 75.0978Z" fill="url(#paint10_linear_4580_24728)"/>
</g>
<defs>
<filter id="filter0_f_4580_24728" x="74.5333" y="27.6001" width="96.9706" height="21.4091" filterUnits="userSpaceOnUse" color-interpolation-filters="sRGB">
<feFlood flood-opacity="0" result="BackgroundImageFix"/>
<feBlend mode="normal" in="SourceGraphic" in2="BackgroundImageFix" result="shape"/>
<feGaussianBlur stdDeviation="3.77807" result="effect1_foregroundBlur_4580_24728"/>
</filter>
<linearGradient id="paint0_linear_4580_24728" x1="104.167" y1="110.993" x2="89.9736" y2="134.071" gradientUnits="userSpaceOnUse">
<stop stop-color="#BF7AF5"/>
<stop offset="1" stop-color="#D289EC" stop-opacity="0"/>
</linearGradient>
<linearGradient id="paint1_linear_4580_24728" x1="104.534" y1="24.2241" x2="90.3409" y2="1.14601" gradientUnits="userSpaceOnUse">
<stop stop-color="#BF7AF5"/>
<stop offset="1" stop-color="#D289EC" stop-opacity="0"/>
</linearGradient>
<linearGradient id="paint2_linear_4580_24728" x1="138.643" y1="110.993" x2="152.837" y2="134.071" gradientUnits="userSpaceOnUse">
<stop stop-color="#BF7AF5"/>
<stop offset="1" stop-color="#D289EC" stop-opacity="0"/>
</linearGradient>
<linearGradient id="paint3_linear_4580_24728" x1="138.643" y1="24.2241" x2="152.837" y2="1.14601" gradientUnits="userSpaceOnUse">
<stop stop-color="#BF7AF5"/>
<stop offset="1" stop-color="#D289EC" stop-opacity="0"/>
</linearGradient>
<linearGradient id="paint4_linear_4580_24728" x1="180.441" y1="40.2667" x2="237.448" y2="12.147" gradientUnits="userSpaceOnUse">
<stop stop-color="#BF7AF5"/>
<stop offset="1" stop-color="#D289EC" stop-opacity="0"/>
</linearGradient>
<linearGradient id="paint5_linear_4580_24728" x1="180.441" y1="96.2392" x2="237.448" y2="124.359" gradientUnits="userSpaceOnUse">
<stop stop-color="#BF7AF5"/>
<stop offset="1" stop-color="#D289EC" stop-opacity="0"/>
</linearGradient>
<linearGradient id="paint6_linear_4580_24728" x1="59.5344" y1="40.2667" x2="2.52714" y2="12.147" gradientUnits="userSpaceOnUse">
<stop stop-color="#BF7AF5"/>
<stop offset="1" stop-color="#D289EC" stop-opacity="0"/>
</linearGradient>
<linearGradient id="paint7_linear_4580_24728" x1="59.5344" y1="96.2392" x2="2.52714" y2="124.359" gradientUnits="userSpaceOnUse">
<stop stop-color="#BF7AF5"/>
<stop offset="1" stop-color="#D289EC" stop-opacity="0"/>
</linearGradient>
<linearGradient id="paint8_linear_4580_24728" x1="120.5" y1="28.6673" x2="120.5" y2="57.0006" gradientUnits="userSpaceOnUse">
<stop stop-color="#E0E0E6"/>
<stop offset="1" stop-color="#C2C3CD"/>
</linearGradient>
<linearGradient id="paint9_linear_4580_24728" x1="120.5" y1="55.334" x2="120.5" y2="88.6673" gradientUnits="userSpaceOnUse">
<stop stop-color="#FFD36E"/>
<stop offset="1" stop-color="#F6B828"/>
</linearGradient>
<linearGradient id="paint10_linear_4580_24728" x1="120.5" y1="61.9746" x2="120.5" y2="88.6661" gradientUnits="userSpaceOnUse">
<stop stop-color="#C88509"/>
<stop offset="1" stop-color="#F6B828"/>
</linearGradient>
<clipPath id="clip0_4580_24728">
<rect width="240" height="135" fill="white" transform="translate(0.5)"/>
</clipPath>
</defs>
</svg>
