<svg width="17" height="18" viewBox="0 0 17 18" fill="none" xmlns="http://www.w3.org/2000/svg">
<path d="M11 12.5C11.8284 12.5 12.5 11.8284 12.5 11C12.5 10.1716 11.8284 9.5 11 9.5C10.1716 9.5 9.5 10.1716 9.5 11C9.5 11.8284 10.1716 12.5 11 12.5Z" stroke="#EB8DD6" stroke-width="1.2" stroke-linecap="round" stroke-linejoin="round"/>
<path d="M0.5 3.5V14.5C0.5 15.0304 0.710714 15.5391 1.08579 15.9142C1.46086 16.2893 1.96957 16.5 2.5 16.5H15.5V5.5H2.5C1.96957 5.5 1.46086 5.28929 1.08579 4.91421C0.710714 4.53914 0.5 4.03043 0.5 3.5ZM0.5 3.5C0.5 2.96957 0.710714 2.46086 1.08579 2.08579C1.46086 1.71071 1.96957 1.5 2.5 1.5H11.5V3.5" stroke="#EB8DD6" stroke-width="1.2" stroke-linecap="round" stroke-linejoin="round"/>
</svg>
