<svg width="40" height="40" viewBox="0 0 40 40" fill="none" xmlns="http://www.w3.org/2000/svg">
<rect width="40" height="40" rx="20" fill="#191C32"/>
<path fill-rule="evenodd" clip-rule="evenodd" d="M11.5988 21.721L12.9961 22.1641C13.243 22.2424 13.4361 22.4335 13.5359 22.6725C13.6364 22.9131 13.6354 23.1865 13.515 23.4178L12.8363 24.7228C12.7357 24.9162 12.7721 25.1526 12.9262 25.3069L14.6907 27.0725C14.845 27.227 15.0817 27.2634 15.2753 27.1626L16.5791 26.4835C16.8102 26.3632 17.0834 26.3621 17.3238 26.4627C17.5623 26.5624 17.753 26.7552 17.831 27.0016L18.2742 28.401C18.34 28.6088 18.5329 28.75 18.7509 28.75H21.2381C21.4561 28.75 21.649 28.6088 21.7148 28.401L22.158 27.0016C22.2361 26.7552 22.4267 26.5624 22.6652 26.4627C22.9056 26.3621 23.1788 26.3632 23.4099 26.4835L24.7137 27.1626C24.9073 27.2634 25.144 27.227 25.2984 27.0725L27.0628 25.3069C27.217 25.1526 27.2533 24.9162 27.1527 24.7228L26.4726 23.4152C26.3532 23.1855 26.3521 22.9141 26.452 22.6752C26.5519 22.4362 26.7457 22.2458 26.9931 22.1691L28.398 21.7336C28.6073 21.6687 28.75 21.4751 28.75 21.256V18.7666C28.75 18.5487 28.6089 18.3559 28.4012 18.29L27.0039 17.8469C26.757 17.7686 26.5639 17.5775 26.4641 17.3385C26.3636 17.0979 26.3646 16.8245 26.485 16.5932L27.1637 15.2882C27.2643 15.0947 27.2279 14.8583 27.0738 14.7041L25.3093 12.9384C25.155 12.784 24.9183 12.7476 24.7247 12.8484L23.4203 13.5278C23.1896 13.6479 22.9168 13.649 22.6768 13.5486C22.4383 13.4488 22.2478 13.2559 22.1702 13.0093L21.7262 11.5998C21.6606 11.3916 21.4675 11.25 21.2493 11.25H18.7619C18.5439 11.25 18.351 11.3912 18.2852 11.599L17.842 12.9984C17.7639 13.2448 17.5733 13.4376 17.3348 13.5373C17.0944 13.6379 16.8212 13.6368 16.5901 13.5165L15.2866 12.8376C15.0935 12.737 14.8575 12.773 14.7031 12.9264L12.9273 14.6916C12.7722 14.8458 12.7353 15.0829 12.8362 15.277L13.515 16.5822C13.6354 16.8135 13.6364 17.0869 13.5359 17.3275C13.4361 17.5665 13.243 17.7576 12.9961 17.8359L11.5988 18.279C11.3911 18.3449 11.25 18.5377 11.25 18.7556V21.2444C11.25 21.4623 11.3911 21.6551 11.5988 21.721ZM27.5 19.3156L26.626 19.0384C25.9929 18.8376 25.537 18.362 25.3107 17.8203C25.0822 17.2732 25.0676 16.6093 25.376 16.0164L25.8011 15.199L24.8141 14.2112L23.9977 14.6364C23.4051 14.945 22.7413 14.9305 22.1945 14.7018C21.6527 14.4752 21.1775 14.0184 20.9779 13.3849L20.6992 12.5H19.311L19.0336 13.3758C18.8333 14.0084 18.3583 14.4642 17.817 14.6906C17.2699 14.9194 16.6056 14.934 16.0126 14.6251L15.1955 14.1995L14.1996 15.1894L14.624 16.0054C14.9324 16.5983 14.9178 17.2622 14.6893 17.8093C14.463 18.351 14.0071 18.8266 13.374 19.0274L12.5 19.3046V20.6954L13.374 20.9726C14.0071 21.1734 14.463 21.649 14.6893 22.1907C14.9178 22.7378 14.9324 23.4017 14.624 23.9946L14.1989 24.812L15.1859 25.7997L16.0017 25.3749C16.5947 25.0661 17.2589 25.0806 17.8061 25.3094C18.3473 25.5358 18.8223 25.9916 19.0227 26.6242L19.3001 27.5H20.689L20.9663 26.6242C21.1667 25.9916 21.6417 25.5358 22.183 25.3094C22.7301 25.0806 23.3944 25.066 23.9874 25.3749L24.8031 25.7997L25.7902 24.812L25.3637 23.992C25.0562 23.4008 25.0706 22.7386 25.2988 22.1929C25.5263 21.6489 25.9861 21.1726 26.623 20.9751L27.5 20.7033V19.3156Z" fill="#BFBFD0"/>
<path fill-rule="evenodd" clip-rule="evenodd" d="M20 17.5C18.6193 17.5 17.5 18.6193 17.5 20C17.5 21.3807 18.6193 22.5 20 22.5C21.3807 22.5 22.5 21.3807 22.5 20C22.5 18.6193 21.3807 17.5 20 17.5ZM16.25 20C16.25 17.9289 17.9289 16.25 20 16.25C22.0711 16.25 23.75 17.9289 23.75 20C23.75 22.0711 22.0711 23.75 20 23.75C17.9289 23.75 16.25 22.0711 16.25 20Z" fill="#BFBFD0"/>
</svg>
