<svg width="16" height="16" viewBox="0 0 16 16" fill="none" xmlns="http://www.w3.org/2000/svg">
<g clip-path="url(#clip0_421_4424)">
<path d="M11.526 6.85999C11.686 5.79599 10.875 5.22299 9.76698 4.84099L10.126 3.39999L9.24798 3.18199L8.89798 4.58199C8.66798 4.52399 8.43098 4.46999 8.19798 4.41599L8.55098 3.00299L7.66998 2.78699L7.30998 4.22899L5.53998 3.78999L5.30698 4.72799C5.30698 4.72799 5.95798 4.87699 5.94398 4.88599C6.06553 4.90056 6.17649 4.96228 6.25298 5.05785C6.32948 5.15342 6.36539 5.2752 6.35298 5.39699L5.36798 9.34699C5.35545 9.38698 5.33517 9.42412 5.30828 9.45627C5.2814 9.48843 5.24844 9.51497 5.21129 9.53438C5.17414 9.55379 5.13354 9.56568 5.09179 9.56939C5.05004 9.5731 5.00797 9.56855 4.96798 9.55599C4.97698 9.56899 4.32998 9.39699 4.32998 9.39699L3.89398 10.397L5.66198 10.843L5.29998 12.307L6.17698 12.525L6.53698 11.082C6.77598 11.147 7.00898 11.207 7.23698 11.264L6.87498 12.7L7.75198 12.919L8.11598 11.463C9.61598 11.746 10.738 11.632 11.216 10.278C11.313 10.0869 11.3691 9.87777 11.3806 9.66383C11.3922 9.44989 11.359 9.23589 11.2831 9.03551C11.2072 8.83513 11.0904 8.65279 10.9401 8.50014C10.7897 8.34749 10.6092 8.22789 10.41 8.14899C10.712 8.08698 10.985 7.92704 11.1868 7.69397C11.3886 7.4609 11.5078 7.16774 11.526 6.85999ZM9.52598 9.67299C9.25398 10.763 7.41898 10.173 6.82598 10.026L7.29998 8.09299C7.89998 8.24199 9.79998 8.53599 9.52098 9.67299H9.52598ZM9.79698 6.84399C9.54998 7.83599 8.02198 7.33199 7.52598 7.20899L7.96298 5.45599C8.45398 5.57999 10.05 5.80999 9.79198 6.84399H9.79698Z" fill="#536CFF"/>
<path d="M8 15.5C12.1421 15.5 15.5 12.1421 15.5 8C15.5 3.85786 12.1421 0.5 8 0.5C3.85786 0.5 0.5 3.85786 0.5 8C0.5 12.1421 3.85786 15.5 8 15.5Z" stroke="#536CFF" stroke-linecap="square"/>
</g>
<defs>
<clipPath id="clip0_421_4424">
<rect width="16" height="16" fill="white"/>
</clipPath>
</defs>
</svg>
