<svg width="16" height="16" viewBox="0 0 16 16" fill="none" xmlns="http://www.w3.org/2000/svg">
<g clip-path="url(#clip0_2407_18079)">
<path d="M11.526 6.86011C11.686 5.79611 10.875 5.22311 9.76704 4.84111L10.126 3.40011L9.24804 3.18211L8.89804 4.58211C8.66804 4.52411 8.43104 4.47011 8.19804 4.41611L8.55104 3.00311L7.67004 2.78711L7.31004 4.22911L5.54004 3.79011L5.30704 4.72811C5.30704 4.72811 5.95804 4.87711 5.94404 4.88611C6.06559 4.90068 6.17655 4.9624 6.25304 5.05797C6.32954 5.15354 6.36545 5.27533 6.35304 5.39711L5.36804 9.34711C5.35552 9.38711 5.33523 9.42424 5.30834 9.4564C5.28146 9.48855 5.2485 9.51509 5.21135 9.5345C5.1742 9.55391 5.1336 9.56581 5.09185 9.56952C5.0501 9.57322 5.00803 9.56867 4.96804 9.55611C4.97704 9.56911 4.33004 9.39711 4.33004 9.39711L3.89404 10.3971L5.66204 10.8431L5.30004 12.3071L6.17704 12.5251L6.53704 11.0821C6.77604 11.1471 7.00904 11.2071 7.23704 11.2641L6.87504 12.7001L7.75204 12.9191L8.11604 11.4631C9.61604 11.7461 10.738 11.6321 11.216 10.2781C11.313 10.0871 11.3691 9.87789 11.3807 9.66395C11.3922 9.45001 11.359 9.23601 11.2832 9.03563C11.2073 8.83526 11.0905 8.65291 10.9401 8.50026C10.7898 8.34761 10.6092 8.22801 10.41 8.14911C10.712 8.08711 10.9851 7.92716 11.1869 7.69409C11.3887 7.46102 11.5079 7.16786 11.526 6.86011ZM9.52604 9.67311C9.25404 10.7631 7.41904 10.1731 6.82604 10.0261L7.30004 8.09311C7.90004 8.24211 9.80004 8.53611 9.52104 9.67311H9.52604ZM9.79704 6.84411C9.55004 7.83611 8.02204 7.33211 7.52604 7.20911L7.96304 5.45611C8.45404 5.58011 10.05 5.81011 9.79204 6.84411H9.79704Z" fill="#66B6FF"/>
<path d="M8 15.5C12.1421 15.5 15.5 12.1421 15.5 8C15.5 3.85786 12.1421 0.5 8 0.5C3.85786 0.5 0.5 3.85786 0.5 8C0.5 12.1421 3.85786 15.5 8 15.5Z" stroke="#66B6FF" stroke-linecap="square"/>
</g>
<defs>
<clipPath id="clip0_2407_18079">
<rect width="16" height="16" fill="white"/>
</clipPath>
</defs>
</svg>
