<svg width="16" height="16" viewBox="0 0 16 16" fill="none" xmlns="http://www.w3.org/2000/svg">
<g clip-path="url(#clip0_2407_17984)">
<path d="M11.526 6.85999C11.686 5.79599 10.875 5.22299 9.76704 4.84099L10.126 3.39999L9.24804 3.18199L8.89804 4.58199C8.66804 4.52399 8.43104 4.46999 8.19804 4.41599L8.55104 3.00299L7.67004 2.78699L7.31004 4.22899L5.54004 3.78999L5.30704 4.72799C5.30704 4.72799 5.95804 4.87699 5.94404 4.88599C6.06559 4.90056 6.17655 4.96228 6.25304 5.05785C6.32954 5.15342 6.36545 5.2752 6.35304 5.39699L5.36804 9.34699C5.35552 9.38698 5.33523 9.42412 5.30834 9.45627C5.28146 9.48843 5.2485 9.51497 5.21135 9.53438C5.1742 9.55379 5.1336 9.56568 5.09185 9.56939C5.0501 9.5731 5.00803 9.56855 4.96804 9.55599C4.97704 9.56899 4.33004 9.39699 4.33004 9.39699L3.89404 10.397L5.66204 10.843L5.30004 12.307L6.17704 12.525L6.53704 11.082C6.77604 11.147 7.00904 11.207 7.23704 11.264L6.87504 12.7L7.75204 12.919L8.11604 11.463C9.61604 11.746 10.738 11.632 11.216 10.278C11.313 10.0869 11.3691 9.87777 11.3807 9.66383C11.3922 9.44989 11.359 9.23589 11.2832 9.03551C11.2073 8.83513 11.0905 8.65279 10.9401 8.50014C10.7898 8.34749 10.6092 8.22789 10.41 8.14899C10.712 8.08698 10.9851 7.92704 11.1869 7.69397C11.3887 7.4609 11.5079 7.16774 11.526 6.85999ZM9.52604 9.67299C9.25404 10.763 7.41904 10.173 6.82604 10.026L7.30004 8.09299C7.90004 8.24199 9.80004 8.53599 9.52104 9.67299H9.52604ZM9.79704 6.84399C9.55004 7.83599 8.02204 7.33199 7.52604 7.20899L7.96304 5.45599C8.45404 5.57999 10.05 5.80999 9.79204 6.84399H9.79704Z" fill="#FFC483"/>
<path d="M8 15.5C12.1421 15.5 15.5 12.1421 15.5 8C15.5 3.85786 12.1421 0.5 8 0.5C3.85786 0.5 0.5 3.85786 0.5 8C0.5 12.1421 3.85786 15.5 8 15.5Z" stroke="#FFC483" stroke-linecap="square"/>
</g>
<defs>
<clipPath id="clip0_2407_17984">
<rect width="16" height="16" fill="white"/>
</clipPath>
</defs>
</svg>
