<svg width="17" height="17" viewBox="0 0 17 17" fill="none" xmlns="http://www.w3.org/2000/svg">
<path d="M11.5 12C12.3284 12 13 11.3284 13 10.5C13 9.67157 12.3284 9 11.5 9C10.6716 9 10 9.67157 10 10.5C10 11.3284 10.6716 12 11.5 12Z" stroke="#52CC9C" stroke-width="1.2" stroke-linecap="round" stroke-linejoin="round"/>
<path d="M1 3V14C1 14.5304 1.21071 15.0391 1.58579 15.4142C1.96086 15.7893 2.46957 16 3 16H16V5H3C2.46957 5 1.96086 4.78929 1.58579 4.41421C1.21071 4.03914 1 3.53043 1 3ZM1 3C1 2.46957 1.21071 1.96086 1.58579 1.58579C1.96086 1.21071 2.46957 1 3 1H12V3" stroke="#52CC9C" stroke-width="1.2" stroke-linecap="round" stroke-linejoin="round"/>
</svg>
