<svg width="24" height="24" viewBox="0 0 24 24" fill="none" xmlns="http://www.w3.org/2000/svg">
<rect width="24" height="24" rx="12" fill="#FF9900"/>
<path fill-rule="evenodd" clip-rule="evenodd" d="M5.875 8.5C5.875 7.5335 6.6585 6.75 7.625 6.75H16.8125C17.5374 6.75 18.125 7.33763 18.125 8.0625V9.8125V10.25V16.8125C18.125 17.5374 17.5374 18.125 16.8125 18.125H7.625C6.6585 18.125 5.875 17.3415 5.875 16.375V8.5ZM17.25 8.0625V9.375H7.625C7.14175 9.375 6.75 8.98325 6.75 8.5C6.75 8.01675 7.14175 7.625 7.625 7.625H16.8125C17.0541 7.625 17.25 7.82088 17.25 8.0625ZM7.625 10.25C7.30625 10.25 7.0074 10.1648 6.75 10.0159V16.375C6.75 16.8582 7.14175 17.25 7.625 17.25H16.8125C17.0541 17.25 17.25 17.0541 17.25 16.8125V10.25H7.625ZM14.625 13.75C14.625 13.5084 14.8209 13.3125 15.0625 13.3125C15.3041 13.3125 15.5 13.5084 15.5 13.75C15.5 13.9916 15.3041 14.1875 15.0625 14.1875C14.8209 14.1875 14.625 13.9916 14.625 13.75ZM15.0625 12.4375C14.3376 12.4375 13.75 13.0251 13.75 13.75C13.75 14.4749 14.3376 15.0625 15.0625 15.0625C15.7874 15.0625 16.375 14.4749 16.375 13.75C16.375 13.0251 15.7874 12.4375 15.0625 12.4375Z" fill="white"/>
</svg>
