<svg width="120" height="96" viewBox="0 0 120 96" fill="none" xmlns="http://www.w3.org/2000/svg">
<g clip-path="url(#clip0_1868_23038)">
<path d="M28.7499 67.1693V88.0021H43.3729V68.0726C43.3729 66.1335 44.1433 64.2738 45.5145 62.9026C46.8856 61.5314 48.7453 60.7611 50.6845 60.7611H65.6781C69.1422 60.7611 72.5724 60.0788 75.7728 58.7531C78.9732 57.4274 81.8812 55.4842 84.3306 53.0346C86.78 50.585 88.7229 47.677 90.0484 44.4765C91.3738 41.276 92.0559 37.8457 92.0556 34.3816C92.0561 30.9173 91.3743 27.4868 90.0489 24.2861C88.7235 21.0854 86.7807 18.1771 84.3312 15.7273C81.8818 13.2775 78.9738 11.3342 75.7733 10.0083C72.5728 8.68249 69.1424 8 65.6781 8H28.7499V34.041H43.3729V21.7617H64.6885C67.9985 21.7617 71.173 23.0765 73.5137 25.4168C75.8544 27.7571 77.1697 30.9313 77.1702 34.2413C77.1702 37.5517 75.8552 40.7265 73.5144 43.0672C71.1736 45.408 67.9989 46.723 64.6885 46.723H49.1901C46.5051 46.7219 43.8462 47.2502 41.3654 48.2774C38.8846 49.3046 36.6306 50.8107 34.7322 52.7096C32.8339 54.6085 31.3285 56.863 30.302 59.344C29.2755 61.8251 28.7481 64.4842 28.7499 67.1693Z" fill="url(#paint0_radial_1868_23038)"/>
<path d="M50.6805 60.7593C47.8005 60.759 44.9486 61.3261 42.2878 62.4281C39.6269 63.5301 37.2093 65.1455 35.1728 67.182C33.1363 69.2185 31.5209 71.6362 30.4188 74.297C29.3168 76.9579 28.7497 79.8098 28.75 82.6898V88.0001H43.373V68.0708C43.373 66.1324 44.1428 64.2732 45.5131 62.9021C46.8834 61.531 48.7421 60.7603 50.6805 60.7593Z" fill="url(#paint1_linear_1868_23038)"/>
</g>
<defs>
<radialGradient id="paint0_radial_1868_23038" cx="0" cy="0" r="1" gradientUnits="userSpaceOnUse" gradientTransform="translate(92.28 -3.10751) scale(80.5208 80.5209)">
<stop stop-color="#A995FF"/>
<stop offset="1" stop-color="#6652F5"/>
</radialGradient>
<linearGradient id="paint1_linear_1868_23038" x1="39.7153" y1="84.0599" x2="39.7153" y2="53.4478" gradientUnits="userSpaceOnUse">
<stop stop-color="#6D4BFD"/>
<stop offset="1" stop-color="#1C0554"/>
</linearGradient>
<clipPath id="clip0_1868_23038">
<rect width="63.3037" height="80" fill="white" transform="translate(28.75 8)"/>
</clipPath>
</defs>
</svg>
